<svg xmlns="http://www.w3.org/2000/svg" viewBox="0 0 360 380"><defs><style>.cls-1{fill:#f0f0f0}.cls-2,.cls-35{fill:#7d828c}.cls-3{isolation:isolate}.cls-33,.cls-39,.cls-4,.cls-40,.cls-46,.cls-47,.cls-48,.cls-67{fill:none}.cls-4{stroke:#f0f0f0;stroke-width:3px}.cls-4,.cls-47,.cls-48,.cls-67{stroke-linecap:round}.cls-33,.cls-39,.cls-4,.cls-40,.cls-46,.cls-67{stroke-miterlimit:10}.cls-5{fill:#e1e2e5}.cls-6{fill:#9ba0aa}.cls-7{clip-path:url(#clip-path)}.cls-8{clip-path:url(#clip-path-2)}.cls-9{fill:#c3c6cc}.cls-10{fill:#f9dcb2}.cls-11{fill:#f4d3ab}.cls-12{fill:#0e2c59}.cls-13{fill:#ef8671}.cls-14{fill:#575756}.cls-15{clip-path:url(#clip-path-3)}.cls-16{fill:#b7c1d3}.cls-17{fill:#c6a07d}.cls-18{fill:#b79274}.cls-19{fill:#5a4a42}.cls-20{fill:#af6045}.cls-21{fill:#fffdd2}.cls-22{opacity:.05}.cls-23{clip-path:url(#clip-path-4)}.cls-24{fill:#f4f4f4}.cls-25{fill:#492b16}.cls-26{fill:#6d4326}.cls-27{fill:#492f1d}.cls-28{fill:#7c5235}.cls-29{fill:#d0d2d3}.cls-30{fill:#f1f1f2}.cls-31{fill:#6d6e70}.cls-32{fill:#a1b5d5}.cls-33{stroke:#fff;stroke-width:.3px}.cls-34{fill:#f1f1f1}.cls-35{opacity:.5;mix-blend-mode:multiply}.cls-36{fill:#d8d9dc}.cls-37{fill:#333}.cls-38{fill:#f7f7f7}.cls-39,.cls-40{stroke:#f7f7f7}.cls-40{stroke-width:.5px}.cls-41{fill:#9a9a9a}.cls-42{clip-path:url(#clip-path-5)}.cls-43{fill:#aa5d43}.cls-44{fill:#633c38}.cls-45{fill:#4c142c}.cls-46{stroke:#4c142c}.cls-47,.cls-67{stroke:#7d828c}.cls-47,.cls-48{stroke-linejoin:round}.cls-48{stroke:#c3c6cc;stroke-width:.2px}.cls-49{fill:#4b132b}.cls-50,.cls-57{opacity:.3}.cls-51{fill:#953052}.cls-52{opacity:.2}.cls-53{font-size:10.4778px;font-weight:700}.cls-53,.cls-54,.cls-65{fill:#fff}.cls-53,.cls-54{font-family:Roboto}.cls-54{font-size:6.2867px}.cls-55{fill:#e3e9f1}.cls-56,.cls-57,.cls-58,.cls-59{fill:#fce277}.cls-56{opacity:.66}.cls-58{opacity:.15}.cls-60{fill:#ffea85}.cls-61{fill:#fff0b3}.cls-62{fill:#839bbf}.cls-63{fill:#a2b6d2}.cls-64{fill:#9eabc0}.cls-66{fill:#ffe0b6}.cls-67{stroke-width:.2px}.cls-68{fill:#90a41a}.cls-69{fill:#aeba0f}.cls-70{fill:#b5ca11}.cls-71{fill:#422917}.cls-72{fill:#49301f}</style><clipPath id="clip-path"><circle class="cls-1" cx="63.873" cy="270.862" r="20.546"/></clipPath><clipPath id="clip-path-2"><path class="cls-2" d="M64.11 284.334a11.735 11.735 0 0 1 11.735 11.735v5.995h-23.47v-5.995a11.735 11.735 0 0 1 11.735-11.735z"/></clipPath><clipPath id="clip-path-3"><circle class="cls-1" cx="31.927" cy="270.512" r="20.79"/></clipPath><clipPath id="clip-path-4"><circle class="cls-1" cx="129.639" cy="35.623" r="27.79"/></clipPath><clipPath id="clip-path-5"><circle class="cls-1" cx="95.819" cy="270.862" r="20.417"/></clipPath></defs><title>img_onboarding</title><g class="cls-3"><g id="Ebene_1" data-name="Ebene 1"><path class="cls-4" d="M257.483 305.896c-84.285-47.833-133.555-139.083-129.516-233.94M62.565 237.562A126.977 126.977 0 0 1 165.902 95.253q2.537-.454 5.113-.81M119.137 249.967a103.884 103.884 0 0 1 145.518 43.638M269.176 91.18a63.664 63.664 0 0 1-25.69 115.92"/><path class="cls-5" d="M39.904 302.815v8.068a3.817 3.817 0 0 0-1.304-.243 3.912 3.912 0 1 0 3.869 4.347h.043v-9.564h3.478v-2.608h-6.086z"/><path class="cls-6" d="M95.576 231.408v-5.056a1.449 1.449 0 0 0-1.445-1.444H76.798a1.449 1.449 0 0 0-1.445 1.444v14.445a1.449 1.449 0 0 0 1.445 1.444H94.13a1.449 1.449 0 0 0 1.445-1.445v-5.055l5.777 5.778V225.63z"/><path class="cls-4" d="M298.344 266.288a55.812 55.812 0 0 1-52.837 66.018M114.98 334.914a63.771 63.771 0 0 1-47.74-36.236"/><circle class="cls-1" cx="63.873" cy="270.862" r="20.546"/><g class="cls-7"><path class="cls-2" d="M64.11 284.334a11.735 11.735 0 0 1 11.735 11.735v5.995h-23.47v-5.995a11.735 11.735 0 0 1 11.735-11.735z"/><g class="cls-8"><path class="cls-9" d="M51.836 286.82h25.438v1H51.836zM51.836 289.602h25.438v1H51.836zM51.836 292.383h25.438v1H51.836z"/></g><path class="cls-10" d="M55.745 269.175a1.678 1.678 0 0 0-1.679 1.679 1.678 1.678 0 0 0 1.678 1.678h1.635v-3.357h-1.634zM72.395 272.531a1.678 1.678 0 0 0 1.678-1.678 1.678 1.678 0 0 0-1.678-1.678h-1.634v3.356h1.634zM60.933 279.364h6.354v6.764a3.177 3.177 0 0 1-3.177 3.177 3.177 3.177 0 0 1-3.177-3.177v-6.764z"/><path class="cls-11" d="M60.933 279.364v4.072a9.454 9.454 0 0 0 6.354 0v-4.072h-6.354z"/><rect class="cls-10" x="55.886" y="257.779" width="16.448" height="24.978" rx="8.224" ry="8.224"/><circle class="cls-12" cx="60.459" cy="269.756" r=".999"/><circle class="cls-12" cx="67.761" cy="269.756" r=".999"/><path class="cls-13" d="M65.665 276.494a11.331 11.331 0 0 1-1.575.204 10.471 10.471 0 0 1-1.534-.204.564.564 0 0 0-.564.564.647.647 0 0 0 .564.564 6.239 6.239 0 0 0 1.5.204 6.785 6.785 0 0 0 1.609-.204.684.684 0 0 0 .563-.564.564.564 0 0 0-.563-.564z"/><path class="cls-14" d="M61.48 267.051l-3.13.232a.359.359 0 1 1-.052-.716l3.13-.231a.359.359 0 0 1 .053.715zM66.74 267.058l3.132.219a.359.359 0 1 0 .05-.716l-3.131-.22a.359.359 0 0 0-.05.716zM62.416 255.435c1.302-.283 5.958.625 6.458 2.5.364 1.367-1.07 3.09-1.81 2.991a29.729 29.729 0 0 0-2.899-.24 28.148 28.148 0 0 0-3.583.291s-1.75-2.125-3.417-.583a7.222 7.222 0 0 1 5.25-4.959z"/></g><circle class="cls-1" cx="31.927" cy="270.512" r="20.79"/><g class="cls-15"><path class="cls-16" d="M31.45 279.312h1.347a10.522 10.522 0 0 1 10.522 10.522v6.393H20.93v-6.393a10.522 10.522 0 0 1 10.522-10.522z"/><path class="cls-17" d="M32.124 284.054s-3.031-1.357-3.031-3.03v-6.454h6.062v6.453c0 1.674-3.031 3.031-3.031 3.031z"/><path class="cls-18" d="M29.093 276.518v3.885a9.02 9.02 0 0 0 6.062 0v-3.885h-6.062z"/><path class="cls-17" d="M24.142 266.798a1.6 1.6 0 0 0-1.6 1.6 1.6 1.6 0 0 0 1.6 1.602h1.56v-3.202h-1.56zM40.028 270a1.6 1.6 0 0 0 1.6-1.6 1.6 1.6 0 0 0-1.6-1.602h-1.56V270h1.56z"/><path class="cls-17" d="M32.124 279.755c-4.234 0-7.846-5.409-7.846-7.847v-8.137a7.846 7.846 0 0 1 7.846-7.846 7.846 7.846 0 0 1 7.846 7.846v8.137c0 2.414-3.613 7.847-7.846 7.847z"/><ellipse class="cls-19" cx="28.64" cy="267.448" rx=".953" ry=".66"/><ellipse class="cls-19" cx="35.607" cy="267.448" rx=".953" ry=".66"/><path class="cls-20" d="M33.358 274.112a3.752 3.752 0 0 0-1.09-.17c-.06.004-.1.19-.152.19-.075 0-.106-.18-.197-.188a3.212 3.212 0 0 0-1.045.168.504.504 0 0 0-.45.45.517.517 0 0 0 .45.45 4.83 4.83 0 0 0 1.242.244 4.468 4.468 0 0 0 1.242-.244.546.546 0 0 0 .45-.45.505.505 0 0 0-.45-.45z"/><path class="cls-21" d="M29.253 255.244c-1.656.39-1.566 1.382-1.566 1.382 0 3.859 3.4 4.008 5.738 4.592 3.8.585 4.384 7.89 4.384 7.89l1.071 7.744s2.364-7.795 2.364-8.948a15.486 15.486 0 0 0-1.73-10.29c-2.923-4.87-10.26-2.37-10.26-2.37zM29.545 265.052l-2.975-.343a.342.342 0 1 1 .078-.68l2.975.343a.342.342 0 0 1-.078.68z"/><path class="cls-21" d="M34.714 265.082l2.967-.404a.342.342 0 1 0-.093-.678l-2.967.404a.342.342 0 0 0 .093.678zM27.687 256.756a5.331 5.331 0 0 0-2.103.631 3.92 3.92 0 0 0-2.37 3.669c-.113 2.464 1.072 15.765 1.064 15.591 0 0 1.144-15.128 2.053-16.013a21.895 21.895 0 0 0 1.85-2.143z"/><path d="M28.664 293.218a2.623 2.623 0 0 1-2.78-1.897 1.633 1.633 0 0 0-.016.22c0 1.17 1.252 2.117 2.796 2.117s2.796-.948 2.796-2.117a1.621 1.621 0 0 0-.015-.22 2.623 2.623 0 0 1-2.781 1.897zM35.58 293.218a2.623 2.623 0 0 1-2.78-1.897 1.633 1.633 0 0 0-.016.22c0 1.17 1.252 2.117 2.796 2.117s2.796-.948 2.796-2.117a1.621 1.621 0 0 0-.016-.22 2.623 2.623 0 0 1-2.78 1.897z" class="cls-22"/><path class="cls-17" d="M24.545 295.894h-3.617v-5.72a11.166 11.166 0 0 1 3.638-8.26zM39.726 295.894h3.616v-5.72a11.166 11.166 0 0 0-3.637-8.26z"/></g><circle class="cls-1" cx="129.639" cy="35.623" r="27.79"/><g class="cls-23"><path class="cls-10" d="M118.843 30.928a2.326 2.326 0 0 0-2.327 2.326 2.326 2.326 0 0 0 2.327 2.327h2.265v-4.653h-2.265zM141.927 35.58a2.326 2.326 0 0 0 2.326-2.326 2.326 2.326 0 0 0-2.326-2.326h-2.266v4.653h2.266z"/><path class="cls-24" d="M123.469 51.944h13.944a9.296 9.296 0 0 1 9.296 9.296v15.284h-32.537V61.24a9.296 9.296 0 0 1 9.297-9.296z"/><path class="cls-10" d="M126.036 45.053h8.81v11.265a2.517 2.517 0 0 1-2.518 2.517h-3.775a2.517 2.517 0 0 1-2.517-2.517V45.053z"/><path class="cls-11" d="M126.036 45.053v5.646a13.106 13.106 0 0 0 8.81 0v-5.646h-8.81z"/><rect class="cls-10" x="119.039" y="15.128" width="22.803" height="34.628" rx="6.515" ry="6.515"/><ellipse class="cls-19" cx="125.379" cy="32.022" rx="1.385" ry=".909"/><ellipse class="cls-19" cx="135.502" cy="32.022" rx="1.385" ry=".909"/><path class="cls-13" d="M132.596 41.074a15.71 15.71 0 0 1-2.183.283 14.517 14.517 0 0 1-2.127-.283.781.781 0 0 0-.782.782.897.897 0 0 0 .782.781 8.65 8.65 0 0 0 2.08.283 9.406 9.406 0 0 0 2.23-.283.948.948 0 0 0 .78-.781.781.781 0 0 0-.78-.782z"/><path class="cls-25" d="M130.44 13.416h-3.639a2.808 2.808 0 0 0-2.807 2.807v.49c0 5.608 8.307 3.829 11.704 4.678 5.52.85 6.144 5.476 6.144 5.476V37.57a6.32 6.32 0 0 0 1.851-4.468V20.134a6.718 6.718 0 0 0-6.718-6.718h-6.534z"/><path class="cls-26" d="M130.44 12.85h-3.639a2.808 2.808 0 0 0-2.807 2.808v.49c0 5.607 8.307 3.828 11.704 4.677 5.52.85 6.144 5.476 6.144 5.476v10.703a6.32 6.32 0 0 0 1.851-4.469V19.568a6.718 6.718 0 0 0-6.718-6.718h-6.534z"/><path class="cls-27" d="M124.829 21.077a5.79 5.79 0 0 1-5.79 5.79V37.57a6.32 6.32 0 0 1-1.85-4.468V21.056a7.644 7.644 0 0 1 5.611-7.368 1.618 1.618 0 0 1 2.029 1.573v5.816z"/><path class="cls-28" d="M126.795 27.983l-4.34.321a.497.497 0 1 1-.073-.992l4.34-.32a.497.497 0 0 1 .073.991zM134.088 27.992l4.34.304a.497.497 0 1 0 .07-.992l-4.34-.304a.497.497 0 0 0-.07.992z"/><path class="cls-29" d="M126.551 51.942l3.89 6.893-5.831 1.243 1.941-8.136z"/><path class="cls-30" d="M126.036 50.698l4.405 8.137h-6.347l1.942-8.137z"/><path class="cls-29" d="M134.33 51.942l-3.889 6.893 5.831 1.243-1.942-8.136z"/><path class="cls-30" d="M134.845 50.698l-4.404 8.137h6.346l-1.942-8.137z"/><path class="cls-31" d="M130.441 76.524V61.445l-2.558 11.811 2.558 3.268zM130.441 58.835h-1.705l1.705 2.61 1.705-2.61h-1.705zM132.998 73.256l-2.557-11.811v15.079l2.557-3.268z"/><path class="cls-28" d="M124.829 20.794a5.79 5.79 0 0 1-5.79 5.79v10.703a6.32 6.32 0 0 1-1.85-4.469V20.773a7.644 7.644 0 0 1 5.611-7.368 1.618 1.618 0 0 1 2.029 1.573v5.816z"/></g><circle class="cls-32" cx="220.588" cy="84.312" r="40.336"/><path class="cls-5" d="M193.792 96.177h53.6v6.059h-53.6zM193.792 76.097h53.6v1.526h-53.6z"/><path class="cls-2" d="M198.924 99.785h42.709v2.475h-42.709z"/><path class="cls-6" d="M202.495 97.31h35.567v2.475h-35.567zM193.792 73.622h53.6v2.475h-53.6z"/><path class="cls-2" d="M217.463 76.082h6.163v21.227h-6.163z"/><path class="cls-33" d="M218.624 77.623v18.421M219.904 77.623v18.421M221.185 77.623v18.421M222.465 77.623v18.421"/><path class="cls-2" d="M204.977 76.082h6.163v21.227h-6.163z"/><path class="cls-33" d="M206.138 77.623v18.421M207.418 77.623v18.421M208.699 77.623v18.421M209.979 77.623v18.421"/><path class="cls-2" d="M229.949 76.082h6.163v21.227h-6.163z"/><path class="cls-33" d="M231.11 77.623v18.421M232.39 77.623v18.421M233.671 77.623v18.421M234.951 77.623v18.421"/><path class="cls-2" d="M193.792 77.616h5.391v18.568h-5.391z"/><path class="cls-33" d="M194.807 78.964v16.113M195.927 78.964v16.113M197.047 78.964v16.113M198.167 78.964v16.113"/><path class="cls-2" d="M241.978 77.68h5.391v18.568h-5.391z"/><path class="cls-33" d="M242.993 79.028v16.113M244.113 79.028v16.113M245.233 79.028v16.113M246.353 79.028v16.113"/><path class="cls-9" d="M202.511 73.615l17.887-9.251 17.68 9.251h-35.567z"/><path class="cls-34" d="M205.273 73.622l14.911-7.533 15.132 7.533h-30.043z"/><path class="cls-35" d="M217.474 76.09h6.163v.835h-6.163zM204.988 76.09h6.163v.835h-6.163zM229.949 76.09h6.163v.835h-6.163z"/><circle class="cls-36" cx="220.294" cy="70.262" r="2.36"/><path class="cls-6" transform="rotate(-45 246 73.629)" d="M245.011 72.64h1.978v1.978h-1.978z"/><path class="cls-6" transform="rotate(-45 195.175 73.664)" d="M194.186 72.675h1.978v1.978h-1.978z"/><rect class="cls-37" x="260.174" y="128.435" width="60" height="39.667" rx="4" ry="4"/><rect class="cls-2" x="260.174" y="127.435" width="60" height="39.667" rx="4" ry="4"/><rect class="cls-38" x="263.485" y="130.66" width="22.625" height="22.625" rx="4" ry="4"/><circle class="cls-2" cx="274.624" cy="137.806" r="5.603"/><circle class="cls-2" cx="274.624" cy="152.817" r="8.408"/><rect class="cls-39" x="263.485" y="130.66" width="22.375" height="22.375" rx="4" ry="4"/><rect class="cls-1" x="288.86" y="140.285" width="28.75" height="2.56" rx="1.28" ry="1.28"/><rect class="cls-1" x="288.86" y="145.422" width="28.75" height="2.56" rx="1.28" ry="1.28"/><rect class="cls-1" x="288.86" y="150.558" width="28.75" height="2.56" rx="1.28" ry="1.28"/><path class="cls-40" d="M268.63 161.536a15.517 15.517 0 0 1 3.549.182 8.687 8.687 0 0 0 3.533-.14 3.453 3.453 0 0 0 2.436-2.37 2.193 2.193 0 0 0-1.71-2.646 2.332 2.332 0 0 0-2.055 1.121 5.5 5.5 0 0 0-.742 2.323 1.873 1.873 0 0 0 .083 1.104 1.844 1.844 0 0 0 1.018.76 13.382 13.382 0 0 0 9.977.009c.922-.375 2.354-1.073 2.177-1.896s-2.188-.622-3.297-.37c-1.171.266-2.506 1.246-2.11 2.38.316.902 1.492 1.115 2.445 1.046 3.86-.281 9.748-5.624 8.86-6.533s-2.691 1.057-3.23 2.38-1.475 4.483-.473 4.222 5.065-3.556 5.753-3.346-.782 1.86.108 1.91 2.8-2.064 3.47-1.913-.079 1.223.438 1.526a2.722 2.722 0 0 0 1.753.193c1.64-.226 3.425-1.698 4.64-1.664s.994 1.971 1.743 2.77a3.861 3.861 0 0 0 2.888 1.337"/><path class="cls-41" d="M271.715 191.929h-1v-2a5 5 0 0 0-10 0v2h-1a2.006 2.006 0 0 0-2 2v10a2.006 2.006 0 0 0 2 2h12a2.006 2.006 0 0 0 2-2v-10a2.006 2.006 0 0 0-2-2zm-6 9a2 2 0 1 1 2-2 2.006 2.006 0 0 1-2 2zm3.1-9h-6.2v-2a3.1 3.1 0 1 1 6.2 0v2z"/><path class="cls-14" d="M59.672 259.727l-2.375 1.833a4.846 4.846 0 0 0-1.167 2.875c-.062.582-.083 4.917-.083 4.917l-.38-.177s.044-4.44.13-5.24a5.446 5.446 0 0 1 1.208-2.75c.458-.541 1.625-1.625 1.625-1.625zM68.103 259.604l2.56 1.956a4.846 4.846 0 0 1 1.167 2.875c.062.582.083 4.917.083 4.917l.38-.177s-.044-4.44-.13-5.24a5.446 5.446 0 0 0-1.208-2.75c-.458-.541-2.367-2.375-2.367-2.375z"/><circle class="cls-1" cx="95.819" cy="270.862" r="20.417"/><g class="cls-42"><path class="cls-43" d="M103.341 264.2s.141.65.747 2.464a13.746 13.746 0 0 1 .625 6.5s-.666 8.188-.541 8.521a2.332 2.332 0 0 0 .708 1.542s-1.583.167-1.833-.792.666 2.334.666 2.334-2.402-.861-2.5-1.875-1-6.292-.458-8.625 1.125-5.084.875-6.917 1.711-3.151 1.711-3.151zM92.341 264.2s.141.65.747 2.464a13.746 13.746 0 0 1 .625 6.5s-.666 8.188-.541 8.521a2.332 2.332 0 0 0 .708 1.542s-1.583.167-1.833-.792.666 2.334.666 2.334-2.402-.861-2.5-1.875-1-6.292-.458-8.625 1.125-5.084.875-6.917 1.711-3.151 1.711-3.151z"/><path class="cls-43" d="M89.122 264.2s-.141.65-.747 2.464a13.746 13.746 0 0 0-.625 6.5s.666 8.188.541 8.521a2.332 2.332 0 0 1-.708 1.542s1.583.167 1.833-.792-.666 2.334-.666 2.334 2.402-.861 2.5-1.875 1-6.292.458-8.625-1.125-5.084-.875-6.917-1.711-3.151-1.711-3.151zM100.341 264.2s.141.65.747 2.464a13.746 13.746 0 0 1 .625 6.5s-.666 8.188-.541 8.521a2.332 2.332 0 0 0 .708 1.542s-1.583.167-1.833-.792.666 2.334.666 2.334-2.402-.861-2.5-1.875-1-6.292-.458-8.625 1.125-5.084.875-6.917 1.711-3.151 1.711-3.151z"/><path class="cls-10" d="M87.742 269.186a1.667 1.667 0 0 0-1.668 1.667 1.667 1.667 0 0 0 1.668 1.668h1.624v-3.335h-1.624zM104.288 272.521a1.667 1.667 0 0 0 1.667-1.667 1.667 1.667 0 0 0-1.667-1.668h-1.624v3.335h1.624z"/><path class="cls-44" d="M96.055 284.25a11.66 11.66 0 0 1 11.66 11.66v5.958H84.395v-5.957a11.66 11.66 0 0 1 11.66-11.661z"/><path class="cls-10" d="M92.898 279.31h6.314v6.721a3.157 3.157 0 0 1-3.157 3.158 3.157 3.157 0 0 1-3.157-3.158v-6.721z"/><path class="cls-11" d="M92.898 279.31v4.047a9.394 9.394 0 0 0 6.314 0v-4.047h-6.314z"/><rect class="cls-10" x="87.882" y="257.861" width="16.345" height="24.821" rx="8.172" ry="8.172"/><ellipse class="cls-12" cx="92.427" cy="270.044" rx=".993" ry=".712"/><ellipse class="cls-12" cx="99.683" cy="270.044" rx=".993" ry=".712"/><path class="cls-13" d="M97.6 276.459a11.26 11.26 0 0 1-1.565.203 10.406 10.406 0 0 1-1.525-.203.56.56 0 0 0-.56.56.643.643 0 0 0 .56.56 6.2 6.2 0 0 0 1.491.203 6.742 6.742 0 0 0 1.598-.203.68.68 0 0 0 .56-.56.56.56 0 0 0-.56-.56z"/><path class="cls-43" d="M93.442 267.075l-3.11.23a.356.356 0 1 1-.053-.71l3.11-.23a.356.356 0 0 1 .053.71zM98.669 267.081l3.111.218a.356.356 0 1 0 .05-.71l-3.111-.219a.356.356 0 0 0-.05.711z"/><path class="cls-10" d="M88.994 301.868h-4.6v-5.957a11.65 11.65 0 0 1 5.14-9.67zM103.158 301.868h4.6v-5.957a11.65 11.65 0 0 0-5.14-9.67z"/><path class="cls-45" d="M100.988 292.08l-2.231 1.056.299-2.253 1.932 1.197z"/><ellipse class="cls-43" cx="89.981" cy="262.685" rx="3.684" ry="3.625"/><ellipse class="cls-43" cx="91.748" cy="260.251" rx="2.583" ry="2.542"/><ellipse class="cls-43" cx="88.18" cy="266.143" rx="2.583" ry="3.819" transform="rotate(-3.071 88.178 266.14)"/><path class="cls-43" d="M104.227 266.602c-.312.498-1.252-.672-1.8-.415-1.643.773-4.16.46-6.43-.963-3.028-1.897-4.47-5.05-3.223-7.041s4.715-2.068 7.742-.17 4.96 6.598 3.711 8.589z"/></g><path class="cls-43" d="M89.216 262.576a8.651 8.651 0 0 1 .497 3.443l-.36 5.583s.57 8.125.694 8.458a2.332 2.332 0 0 0 .708 1.542s-1.583.167-1.833-.792.666 2.334.666 2.334-3.431-1.861-3.466-2.88c-.075-2.204.626-5.228.508-7.62-.125-2.542-.25-4.5-.5-6.334s3.086-3.734 3.086-3.734zM104.091 262.576s.141.65.747 2.463a13.746 13.746 0 0 1 .625 6.5s-.666 8.188-.541 8.521a2.332 2.332 0 0 0 .708 1.542s-1.583.167-1.833-.792.666 2.334.666 2.334-2.402-.861-2.5-1.875-1-6.292-.458-8.625 1.125-5.084.875-6.917 1.711-3.151 1.711-3.151z"/><circle class="cls-46" cx="276.129" cy="257.98" r="15.896"/><circle class="cls-46" cx="320.627" cy="257.98" r="15.896"/><path class="cls-47" d="M274.944 258.76l9.122-23.891.229-.6 1.39-3.64 5.664-1.593"/><path class="cls-47" d="M305.748 240.147l16.206 17.816-21.116-.111-17.167-21.947"/><path class="cls-47" d="M300.838 257.852l5.343-20.952-4.429-.068"/><path class="cls-48" d="M276.028 258.76l9.122-23.891.23-.6 1.179-2.83 5.095-1.593M300.206 255.657l-15.451-19.752M312.237 245.946l10.567 11.616M301.922 257.852l3.86-15.602"/><path class="cls-9" d="M278.158 232.936c2.47 0 4.472 1.288 4.472 2.877s-2.002 2.877-4.472 2.877v-5.754z"/><path class="cls-2" d="M277.5 232.936h.658v5.746h-.658z"/><path class="cls-49" d="M272.776 289.987h13.883v43.745h-13.883z"/><path class="cls-50" d="M272.776 324.655h13.883v5.474h-13.883z"/><circle class="cls-49" cx="279.718" cy="311.99" r="16.415"/><circle class="cls-51" cx="279.718" cy="311.99" r="12.665"/><path class="cls-52" d="M290.16 324.657a16.417 16.417 0 0 1-20.865.016 22.607 22.607 0 0 0 20.864-.016z"/><path class="cls-22" d="M288.247 321.353a12.666 12.666 0 0 1-17.084-.023 14.099 14.099 0 0 0 8.512 2.535 14.486 14.486 0 0 0 8.572-2.512z"/><text class="cls-53" transform="translate(273.606 312.34)">72</text><text class="cls-54" transform="translate(273.606 318.208)">bpm</text><path class="cls-9" d="M71.12 321.94h26.576v18.521H71.12z"/><path class="cls-55" d="M71.12 321.411h26.32v18.521H71.12z"/><path class="cls-56" d="M71.12 332.6h26.32v1.554H71.12z"/><path class="cls-56" d="M71.12 331.747h26.32v1.554H71.12z"/><path class="cls-57" d="M71.12 330.844h26.32v2.248H71.12z"/><path class="cls-58" d="M71.12 329.534h26.32v2.248H71.12z"/><circle class="cls-59" cx="82.375" cy="332.064" r="2.927"/><circle class="cls-60" cx="82.375" cy="332.064" r="2.399"/><circle class="cls-61" cx="82.375" cy="332.064" r="1.889"/><path class="cls-62" d="M71.12 333.414s3.747-.174 5.88-.083c1.15.05 4.315-.141 5.412-.141s4.58.08 5.189.08 2.61.06 3.99.06 2.56-.11 3.412-.151 2.437.091 2.437.091v4.753H71.12v-4.61z"/><path class="cls-63" d="M97.44 334.428s-4.956-.096-6.093-.279a45.824 45.824 0 0 0-5.036.248c-1.096 0-4.55-.183-5.159-.183s-2.598.122-3.98.122-2.518-.111-3.371-.152a23.082 23.082 0 0 0-2.681.183v5.834h26.32v-5.773z"/><path class="cls-64" d="M90.698 336.176s-4.872-.37-5.395-.388c-.552-.018-6.903.62-7.396.62s-1.871-.224-2.145-.224-1.4.133-2.02.133a9.344 9.344 0 0 1-1.5-.293 3.122 3.122 0 0 0-1.122.308v2.637l16.897-1.013z"/><path class="cls-16" d="M97.44 336.194s-3.415-.115-4.23-.132c-.86-.019-10.751.62-11.52.62s-2.913-.224-3.34-.224-2.18.132-3.148.132a21.895 21.895 0 0 1-2.335-.293 7.024 7.024 0 0 0-1.747.308v2.637l26.32-1.012v-2.036z"/><ellipse class="cls-65" cx="88.927" cy="323.841" rx="3.245" ry=".166"/><ellipse class="cls-65" cx="91.909" cy="323.709" rx="2.445" ry=".442"/><path class="cls-65" d="M94.949 323.803c.28.089.174.21-.235.27a3.361 3.361 0 0 1-1.247-.05c-.28-.09-.174-.21.235-.272a3.361 3.361 0 0 1 1.247.052z"/><ellipse class="cls-65" cx="78.589" cy="323.926" rx="1.081" ry=".276"/><ellipse class="cls-65" cx="80.366" cy="323.882" rx="1.577" ry=".402"/><path class="cls-66" d="M97.44 338.23s-15.022-.1-15.79-.1-5.408-.15-6.375-.15-4.156.043-4.156.043v2.177h26.32v-1.97z"/><path class="cls-67" d="M75.263 325.482s.246-.442.469-.219c.058-.293.562-.156.562-.156M74.288 326.304s.154-.276.294-.136c.036-.184.352-.098.352-.098"/><path class="cls-9" d="M86.079 311.656h26.482v18.521H86.079z"/><path class="cls-63" d="M86.079 311.331h26.32v18.521h-26.32z"/><path class="cls-68" d="M86.079 321.159l7.798-5.848 5.524 7.473 3.412-4.224 4.061 4.386 2.6-3.736 2.925 2.599v8.043h-26.32v-8.693z"/><path class="cls-9" d="M86.079 320.891l7.798-5.849 5.524 7.474 3.412-4.224 4.061 4.386 2.6-3.737 2.925 2.6v2.888h-26.32v-3.538z"/><path class="cls-65" d="M101.531 319.879l1.282-1.587 1.822 1.967-.887-.521-.823.312-.609-.464-.785.293zM96.263 318.269l-2.385-3.227-3.444 2.583 1.647-.293.853.639 1.035-.487 1.097.792.213-.487.984.48zM108.198 320.776l1.276-1.835 1.614 1.435-.73-.181-.613.366-.483-.518-1.064.733z"/><path class="cls-69" d="M86.08 325.283s4.955-1.26 6.092-1.443 4.102 1.219 5.199 1.219 4.387-1.422 4.996-1.422 2.721 1.26 4.102 1.26 2.234-1.34 3.087-1.382a9.581 9.581 0 0 1 2.843.914v5.463H86.08v-4.61z"/><path class="cls-70" d="M112.4 328.045s-3.472-1.164-4.269-1.333-10.793 1.126-11.561 1.126-2.874-.73-3.3-.73-2.107.58-3.075.58-1.81-.702-2.408-.74a7.024 7.024 0 0 0-1.747.308v2.637h26.36v-1.849z"/><circle class="cls-65" cx="87.867" cy="314.092" r=".975"/><circle class="cls-65" cx="88.858" cy="314.547" r=".81"/><circle class="cls-65" cx="89.472" cy="314.022" r=".823"/><circle class="cls-65" cx="89.983" cy="314.523" r=".823"/><circle class="cls-65" cx="106.029" cy="315.041" r="1.063"/><circle class="cls-65" cx="107.776" cy="314.871" r="1.55"/><circle class="cls-65" cx="109.128" cy="315.671" r=".897" transform="rotate(-34.313 109.128 315.671)"/><circle class="cls-65" cx="101.714" cy="314.897" r=".704"/><circle class="cls-65" cx="102.871" cy="314.784" r="1.026"/><circle class="cls-65" cx="103.766" cy="315.314" r=".594" transform="rotate(-34.313 103.766 315.314)"/><path class="cls-41" d="M47.47 62.442l-10-6.24v-.76a1.993 1.993 0 0 1 2-2h16a2 2 0 0 1 2 2v.75l-10 6.25m10 5a2 2 0 0 1-2 2h-16a2 2 0 0 1-2-2v-8.89l2 1.25v7.64h16v-7.64l2-1.25v8.89z"/><path class="cls-4" d="M122.495 190.08A69.993 69.993 0 0 1 92.781 54.238"/><path class="cls-68" transform="rotate(-45 33.093 137.66)" d="M29.334 133.834h7.519v7.654h-7.519z"/><rect class="cls-70" x="19.165" y="103.846" width="44.044" height="34.256" rx="4" ry="4"/><path class="cls-68" d="M62.355 137.231a2.928 2.928 0 0 1-2.083.872h-38.17a2.927 2.927 0 0 1-2.074-.863"/><rect class="cls-65" x="23.692" y="109.474" width="15.966" height="3.303" rx="1.652" ry="1.652"/><rect class="cls-65" x="23.692" y="114.052" width="33.4" height="3.303" rx="1.652" ry="1.652"/><rect class="cls-65" x="23.692" y="118.629" width="21.655" height="3.303" rx="1.652" ry="1.652"/><rect class="cls-65" x="23.692" y="123.206" width="33.4" height="3.303" rx="1.652" ry="1.652"/><rect class="cls-65" x="23.692" y="127.784" width="26.059" height="3.303" rx="1.652" ry="1.652"/><path class="cls-62" transform="rotate(-135 82.774 176.786)" d="M79.014 172.959h7.519v7.654h-7.519z"/><rect class="cls-63" x="52.658" y="142.972" width="44.044" height="34.256" rx="4" ry="4" transform="rotate(-180 74.68 160.1)"/><path class="cls-62" d="M53.512 176.357a2.928 2.928 0 0 0 2.083.871h38.17a2.927 2.927 0 0 0 2.075-.863"/><rect class="cls-65" x="76.21" y="148.6" width="15.966" height="3.303" rx="1.652" ry="1.652" transform="rotate(180 84.192 150.251)"/><rect class="cls-65" x="58.776" y="153.177" width="33.4" height="3.303" rx="1.652" ry="1.652" transform="rotate(-180 75.476 154.829)"/><rect class="cls-65" x="70.521" y="157.754" width="21.655" height="3.303" rx="1.652" ry="1.652"/><rect class="cls-65" x="58.776" y="162.332" width="33.4" height="3.303" rx="1.652" ry="1.652"/><rect class="cls-65" x="66.116" y="166.909" width="26.059" height="3.303" rx="1.652" ry="1.652"/><path class="cls-62" transform="rotate(-135 99.236 110.152)" d="M95.477 106.325h7.519v7.654h-7.519z"/><rect class="cls-63" x="69.121" y="76.337" width="44.044" height="34.256" rx="4" ry="4" transform="rotate(-180 91.143 93.466)"/><path class="cls-62" d="M69.975 109.722a2.928 2.928 0 0 0 2.082.872h38.171a2.927 2.927 0 0 0 2.074-.863"/><rect class="cls-65" x="92.672" y="81.965" width="15.966" height="3.303" rx="1.652" ry="1.652" transform="rotate(180 100.655 83.617)"/><rect class="cls-65" x="75.238" y="86.543" width="33.4" height="3.303" rx="1.652" ry="1.652" transform="rotate(-180 91.938 88.194)"/><rect class="cls-65" x="86.983" y="91.12" width="21.655" height="3.303" rx="1.652" ry="1.652"/><rect class="cls-65" x="75.238" y="95.697" width="33.4" height="3.303" rx="1.652" ry="1.652"/><rect class="cls-65" x="82.579" y="100.275" width="26.059" height="3.303" rx="1.652" ry="1.652"/><path class="cls-1" d="M179.635 279.92a57.467 57.467 0 0 1 57.467 57.467v29.361H122.168v-29.36a57.467 57.467 0 0 1 57.467-57.468z"/><path class="cls-17" d="M179.635 304.262s-15.559-6.965-15.559-15.558v-33.126h31.118v33.126c0 8.593-15.559 15.558-15.559 15.558z"/><path class="cls-18" d="M164.076 265.579v19.943a46.298 46.298 0 0 0 31.118 0v-19.943h-31.118z"/><path class="cls-17" d="M138.666 215.683a8.218 8.218 0 0 0-8.218 8.218 8.218 8.218 0 0 0 8.218 8.218h8.003v-16.436h-8.003zM220.208 232.12a8.218 8.218 0 0 0 8.218-8.219 8.218 8.218 0 0 0-8.218-8.218h-8.003v16.436h8.003z"/><path class="cls-17" d="M179.635 282.192c-21.73 0-40.275-27.763-40.275-40.275v-41.772a40.275 40.275 0 0 1 40.275-40.275 40.275 40.275 0 0 1 40.275 40.275v41.772c0 12.39-18.544 40.275-40.275 40.275z"/><ellipse class="cls-19" cx="161.755" cy="219.02" rx="4.894" ry="3.388"/><ellipse class="cls-19" cx="197.515" cy="219.02" rx="4.894" ry="3.388"/><path class="cls-20" d="M185.972 253.227a19.26 19.26 0 0 0-5.593-.875c-.31.02-.519.98-.783.98-.385 0-.543-.926-1.01-.968a16.489 16.489 0 0 0-5.365.863c-1.322.415-2.313 1.035-2.313 2.312s1.13 1.975 2.313 2.312a24.796 24.796 0 0 0 6.375 1.254 22.937 22.937 0 0 0 6.376-1.254c1.064-.359 2.312-1.035 2.312-2.312s-1-1.902-2.312-2.311z"/><path class="cls-71" d="M164.9 156.376c-8.5 2-8.039 7.094-8.039 7.094 0 19.808 17.455 20.572 29.455 23.572 19.5 3 22.5 40.5 22.5 40.5l5.5 39.75s12.132-40.011 12.132-45.931c0 0 6.118-27.819-8.882-52.819s-52.667-12.166-52.667-12.166z"/><path class="cls-28" d="M166.397 206.722l-15.27-1.761a1.757 1.757 0 1 1 .403-3.49l15.269 1.76a1.757 1.757 0 0 1-.403 3.49zM192.929 206.873l15.23-2.073a1.757 1.757 0 1 0-.474-3.481l-15.23 2.073a1.757 1.757 0 0 0 .474 3.481z"/><path class="cls-72" d="M156.861 164.136a27.367 27.367 0 0 0-10.795 3.24c-4.667 2.833-11.588 6.186-12.167 18.833s5.501 34.726 5.46 33.833c0 0 5.874-31.458 10.54-36a112.39 112.39 0 0 0 9.5-11z"/><path d="M161.875 351.304c-7.422 0-13.528-4.268-14.273-9.74a8.382 8.382 0 0 0-.077 1.128c0 6.002 6.424 10.868 14.35 10.868s14.352-4.866 14.352-10.868a8.32 8.32 0 0 0-.078-1.128c-.745 5.472-6.85 9.74-14.274 9.74zM197.375 351.304c-7.422 0-13.528-4.268-14.273-9.74a8.382 8.382 0 0 0-.077 1.128c0 6.002 6.424 10.868 14.35 10.868s14.352-4.866 14.352-10.868a8.32 8.32 0 0 0-.078-1.128c-.745 5.472-6.85 9.74-14.274 9.74z" class="cls-22"/><path class="cls-17" d="M140.733 366.749h-18.565v-29.361a57.316 57.316 0 0 1 18.671-42.396zM218.656 366.749h18.565v-29.361a57.316 57.316 0 0 0-18.671-42.396z"/></g></g></svg>