<?xml version="1.0" encoding="utf-8"?>
<!-- Generator: Adobe Illustrator 19.2.1, SVG Export Plug-In . SVG Version: 6.00 Build 0)  -->
<svg version="1.1" id="Ebene_1" xmlns="http://www.w3.org/2000/svg" xmlns:xlink="http://www.w3.org/1999/xlink" x="0px" y="0px"
	 viewBox="0 0 106 152" style="enable-background:new 0 0 106 152;" xml:space="preserve">
<style type="text/css">
	.st0{fill:#575756;}
	.st1{font-family:'Chalet-LondonNineteenSixty';}
	.st2{font-size:18px;}
	.st3{fill:#A3A3A2;}
	.st4{fill:#7E7E7C;}
	.st5{fill:#80807F;}
</style>
<g>
	<g>
		<g>
			<text transform="matrix(1 0 0 1 3.3142 147.0928)"><tspan x="0" y="0" class="st0 st1 st2">JOL</tspan><tspan x="35.622" y="0" class="st0 st1 st2">O</tspan><tspan x="50.129" y="0" class="st0 st1 st2">C</tspan><tspan x="63.935" y="0" class="st0 st1 st2">O</tspan><tspan x="78.444" y="0" class="st0 st1 st2">M</tspan></text>
		</g>
	</g>
	<g>
		<g>
			<g>
				<path class="st3" d="M45.36,114.115c0.042,0.004,0.08,0.008,0.118,0.015c2.447,0.195,4.849,0.174,7.247,0.066
					c0.213-0.971,0.436-1.939,0.744-2.878c4.378-13.475,17.313-22.117,31.462-21.005c3.438,0.268,6.697,1.127,9.698,2.428
					c1.533-1.909,2.937-3.916,4.212-6.021c-4.079-1.963-8.568-3.252-13.348-3.625C68,81.723,52,92.404,46.578,109.08
					C46.047,110.723,45.664,112.409,45.36,114.115"/>
			</g>
		</g>
		<g>
			<g>
				<path class="st4" d="M35.916,112.496c0.387-2.168,0.895-4.312,1.571-6.395c6.784-20.88,26.833-34.264,48.752-32.543
					c5.953,0.463,11.637,2.047,16.862,4.561c0.429-1.076,0.861-2.155,1.218-3.271c0.44-1.328,0.805-2.688,1.138-4.064
					c-5.805-2.658-12.066-4.356-18.622-4.868c-25.459-1.997-48.748,13.555-56.64,37.819c-0.675,2.098-1.229,4.238-1.654,6.414
					C30.912,111.11,33.397,111.859,35.916,112.496"/>
			</g>
		</g>
		<g>
			<g>
				<path class="st3" d="M104.322,74.848c0.451-1.387,0.835-2.808,1.173-4.242c-9.501-5.758-15.519-16.516-14.6-28.335
					c0.19-2.398,0.66-4.764,1.396-7.029c1.173-3.618,2.986-6.866,5.255-9.686c-1.45-2.184-3.032-4.274-4.777-6.236
					c-3.415,3.836-6.098,8.404-7.771,13.553c-0.922,2.84-1.502,5.796-1.742,8.799c-1.203,15.444,7.054,29.466,19.855,36.406
					C103.541,77.013,103.966,75.949,104.322,74.848"/>
			</g>
		</g>
		<g>
			<g>
				<path class="st5" d="M94.734,92.62c1.499-1.891,2.884-3.878,4.136-5.961c-16.201-8.628-26.666-26.286-25.144-45.738
					c0.296-3.764,1.021-7.479,2.182-11.034c2.129-6.555,5.563-12.375,9.945-17.224c-1.886-1.518-3.874-2.899-5.938-4.172
					c-4.773,5.45-8.537,11.9-10.889,19.153c-1.332,4.104-2.178,8.378-2.527,12.709C64.768,62.46,76.492,82.535,94.734,92.62"/>
			</g>
		</g>
		<g>
			<g>
				<path class="st0" d="M54.045,45.553c1.764-5.431,2.895-11.1,3.339-16.85c0.781-9.969-0.493-19.637-3.472-28.572
					c-3.229-0.226-6.408-0.148-9.52,0.155c3.278,8.568,4.77,17.973,4.007,27.713c-0.395,5.035-1.381,10.013-2.926,14.769
					C38.485,64.268,21.024,79.817,0,84.91c1.548,2.791,3.365,5.409,5.354,7.9C27.91,86.24,46.43,68.997,54.045,45.553"/>
			</g>
		</g>
		<g>
			<g>
				<path class="st3" d="M28.696,4.122c6.131,9.916,16.702,16.905,29.189,17.888c10.533,0.827,20.508-2.743,27.975-9.336
					c-1.935-1.569-3.996-2.984-6.135-4.293c-5.866,4.608-13.379,7.033-21.278,6.41c-9.47-0.745-17.602-5.758-22.667-12.997
					C33.351,2.412,30.995,3.198,28.696,4.122"/>
			</g>
		</g>
		<g>
			<g>
				<path class="st4" d="M13.868,12.854c8.89,14.593,24.37,24.898,42.659,26.33c15.435,1.208,30.047-4.056,40.94-13.766
					c-1.434-2.129-2.99-4.168-4.682-6.088c-9.41,8.598-22.173,13.272-35.651,12.215c-15.939-1.25-29.405-10.314-37.009-23.112
					C17.943,9.773,15.852,11.245,13.868,12.854"/>
			</g>
		</g>
		<g>
			<g>
				<path class="st0" d="M105.195,42.624c-0.797-3.043-1.783-6.002-3.054-8.835C89.597,44.574,73.012,50.39,55.506,49.019
					c-17.002-1.337-32.467-9.212-43.554-22.177c-1.916-2.254-3.597-4.638-5.179-7.086c-2.037,2.345-3.893,4.853-5.528,7.524
					c1.275,1.797,2.622,3.544,4.071,5.238c12.593,14.733,30.176,23.689,49.507,25.209C73.506,59.191,91.293,53.475,105.195,42.624"
					/>
			</g>
		</g>
	</g>
</g>
</svg>
