<svg xmlns="http://www.w3.org/2000/svg" viewBox="0 0 230 155"><switch><g><path d="M9.119 146.703a4.038 4.038 0 0 1-.811 1.412 3.55 3.55 0 0 1-1.313.918c-.522.217-1.113.324-1.773.324a4.204 4.204 0 0 1-1.665-.324 4.019 4.019 0 0 1-1.323-.891c-.372-.377-.663-.818-.873-1.322s-.314-1.051-.314-1.639h1.512c0 .361.06.705.18 1.035s.294.619.522.865c.228.246.507.439.837.584s.705.217 1.125.217c.9 0 1.568-.271 2.007-.811.438-.541.657-1.26.657-2.16v-8.262h1.512v8.262a5.606 5.606 0 0 1-.28 1.792zm11.51-9.863c.756.33 1.412.785 1.971 1.367.558.582.996 1.27 1.313 2.061.318.793.478 1.65.478 2.574a6.694 6.694 0 0 1-1.809 4.627c-.558.588-1.215 1.049-1.971 1.385s-1.56.504-2.412.504c-.852 0-1.656-.168-2.412-.504s-1.413-.797-1.971-1.385-.999-1.279-1.323-2.07c-.324-.793-.485-1.645-.485-2.557a6.62 6.62 0 0 1 1.808-4.608c.557-.588 1.215-1.051 1.971-1.387s1.561-.504 2.412-.504a6.025 6.025 0 0 1 2.43.497zm-.612 10.654a4.668 4.668 0 0 0 1.485-1.07c.426-.455.762-.99 1.008-1.602a5.271 5.271 0 0 0 .369-1.98c0-.719-.12-1.385-.36-1.998a4.957 4.957 0 0 0-.99-1.592 4.586 4.586 0 0 0-1.484-1.062 4.426 4.426 0 0 0-1.846-.387c-.647 0-1.254.129-1.817.387a4.677 4.677 0 0 0-1.485 1.07c-.426.457-.763.99-1.008 1.602a5.267 5.267 0 0 0-.369 1.98c0 .709.123 1.371.369 1.99.245.617.582 1.15 1.008 1.602.426.449.921.803 1.485 1.061.563.26 1.17.389 1.817.389a4.305 4.305 0 0 0 1.818-.39zm15.21 1.649h-7.956V136.65h1.53v11.016h6.426v1.477zM45.74 136.84c.756.33 1.412.785 1.971 1.367.558.582.996 1.27 1.313 2.061.318.793.478 1.65.478 2.574a6.694 6.694 0 0 1-1.809 4.627c-.558.588-1.215 1.049-1.971 1.385s-1.56.504-2.412.504c-.852 0-1.656-.168-2.412-.504s-1.413-.797-1.971-1.385-.999-1.279-1.323-2.07c-.324-.793-.485-1.645-.485-2.557a6.62 6.62 0 0 1 1.808-4.608c.557-.588 1.215-1.051 1.971-1.387s1.561-.504 2.412-.504a6.032 6.032 0 0 1 2.43.497zm-.613 10.654a4.668 4.668 0 0 0 1.485-1.07c.426-.455.762-.99 1.008-1.602a5.271 5.271 0 0 0 .369-1.98c0-.719-.12-1.385-.36-1.998a4.957 4.957 0 0 0-.99-1.592 4.586 4.586 0 0 0-1.484-1.062 4.426 4.426 0 0 0-1.846-.387c-.647 0-1.254.129-1.817.387a4.677 4.677 0 0 0-1.485 1.07c-.426.457-.763.99-1.008 1.602a5.267 5.267 0 0 0-.369 1.98c0 .709.123 1.371.369 1.99.245.617.582 1.15 1.008 1.602.426.449.921.803 1.485 1.061.563.26 1.17.389 1.817.389a4.302 4.302 0 0 0 1.818-.39zm17.532-.584a5.88 5.88 0 0 1-1.296 1.314 5.865 5.865 0 0 1-1.638.836 6.026 6.026 0 0 1-1.908.297c-.852 0-1.656-.17-2.412-.512s-1.413-.807-1.971-1.396a6.61 6.61 0 0 1-1.323-2.068c-.324-.793-.485-1.639-.485-2.539s.161-1.742.485-2.529c.324-.785.766-1.473 1.323-2.061s1.215-1.053 1.971-1.395 1.561-.514 2.412-.514c.708 0 1.368.102 1.98.307a5.669 5.669 0 0 1 2.907 2.167c.354.512.633 1.072.837 1.684h-1.603a4.713 4.713 0 0 0-1.557-1.943c-.69-.504-1.545-.756-2.565-.756a4.23 4.23 0 0 0-1.817.395 4.769 4.769 0 0 0-1.485 1.09 5.21 5.21 0 0 0-1.008 1.611c-.246.611-.369 1.26-.369 1.943s.123 1.332.369 1.943c.245.613.582 1.15 1.008 1.611.426.463.921.826 1.485 1.09a4.23 4.23 0 0 0 1.817.396c.924 0 1.746-.244 2.466-.73.721-.484 1.272-1.143 1.656-1.971h1.603a6.486 6.486 0 0 1-.882 1.73zm11.394-10.07c.756.33 1.413.785 1.971 1.367.559.582.996 1.27 1.314 2.061.317.793.477 1.65.477 2.574 0 .912-.162 1.764-.485 2.557-.324.791-.766 1.482-1.323 2.07s-1.215 1.049-1.971 1.385a5.879 5.879 0 0 1-2.412.504c-.853 0-1.656-.168-2.412-.504s-1.413-.797-1.972-1.385a6.694 6.694 0 0 1-1.808-4.627 6.644 6.644 0 0 1 1.808-4.608c.559-.588 1.216-1.051 1.972-1.387s1.56-.504 2.412-.504a6.024 6.024 0 0 1 2.429.497zm-.612 10.654a4.646 4.646 0 0 0 1.485-1.07c.426-.455.762-.99 1.008-1.602s.369-1.271.369-1.98c0-.719-.12-1.385-.36-1.998a4.955 4.955 0 0 0-.989-1.592c-.421-.451-.915-.805-1.485-1.062s-1.186-.387-1.845-.387c-.648 0-1.254.129-1.818.387s-1.06.615-1.485 1.07c-.426.457-.762.99-1.008 1.602a5.267 5.267 0 0 0-.369 1.98c0 .709.123 1.371.369 1.99.246.617.582 1.15 1.008 1.602.426.449.921.803 1.485 1.061a4.29 4.29 0 0 0 1.818.389 4.304 4.304 0 0 0 1.817-.39zm19.243 1.649h-1.53v-10.459L87.5 149.143h-1.638l-3.654-10.459v10.459h-1.53V136.65h2.34l3.673 10.529 3.672-10.529h2.322v12.493z" fill="#575757"/><path d="M110.659 149.142h-7.956V136.65h1.53v11.017h6.426v1.475zm4.23 0h-1.53V136.65h1.53v12.492zm8.01-11.035v11.034h-1.53v-11.034h-3.924v-1.458h9.378v1.458h-3.924zm10.71 0v11.034h-1.53v-11.034h-3.924v-1.458h9.378v1.458h-3.924zm14.363 11.035h-7.955V136.65h1.529v11.017h6.426v1.475zm11.557-12.493v1.458h-7.398v3.78h6.678v1.458h-6.678v4.32h7.398v1.476h-8.928v-12.492h8.928zm17.262 10.567a3.288 3.288 0 0 1-.963 1.179c-.414.318-.912.558-1.494.72s-1.221.243-1.916.243c-.721 0-1.375-.099-1.963-.297s-1.089-.479-1.503-.846-.735-.808-.963-1.323-.342-1.086-.342-1.71h1.584c0 .84.294 1.503.882 1.989.588.485 1.355.729 2.305.729 1.079 0 1.881-.207 2.402-.621s.783-.975.783-1.683c0-.264-.039-.507-.117-.729-.078-.222-.231-.423-.459-.603-.229-.18-.555-.345-.98-.495-.427-.149-.981-.285-1.666-.405a12.809 12.809 0 0 1-1.854-.449c-.54-.181-.996-.405-1.368-.676a2.698 2.698 0 0 1-.846-.98c-.192-.384-.288-.847-.288-1.386 0-.54.102-1.026.306-1.458.204-.433.495-.802.873-1.107s.837-.543 1.377-.711 1.14-.252 1.8-.252c.685 0 1.299.09 1.846.27a4.007 4.007 0 0 1 1.395.774c.385.336.678.744.883 1.224.203.48.305 1.021.305 1.62h-1.547c0-.731-.244-1.319-.729-1.764s-1.196-.666-2.133-.666c-.972 0-1.687.188-2.142.566a1.798 1.798 0 0 0-.685 1.449c0 .276.042.517.126.721s.243.387.477.549c.234.162.555.309.963.44.408.133.93.259 1.566.378.684.133 1.299.285 1.846.459.545.175 1.01.402 1.395.685.384.282.678.627.882 1.035.204.407.306.912.306 1.512-.003.611-.116 1.151-.344 1.619zm4.806 1.926h-1.531V136.65h1.531v12.492zm11.988-1.926a3.29 3.29 0 0 1-.964 1.179 4.324 4.324 0 0 1-1.493.72 7.147 7.147 0 0 1-1.918.243c-.72 0-1.374-.099-1.962-.297s-1.089-.479-1.503-.846-.734-.808-.963-1.323-.342-1.086-.342-1.71h1.584c0 .84.294 1.503.882 1.989.588.485 1.356.729 2.304.729 1.08 0 1.881-.207 2.403-.621s.783-.975.783-1.683c0-.264-.039-.507-.117-.729-.078-.222-.231-.423-.459-.603s-.556-.345-.981-.495c-.426-.149-.98-.285-1.664-.405a12.712 12.712 0 0 1-1.854-.449c-.54-.181-.996-.405-1.368-.676a2.698 2.698 0 0 1-.846-.98c-.192-.384-.288-.847-.288-1.386 0-.54.102-1.026.306-1.458.204-.433.495-.802.873-1.107s.837-.543 1.377-.711 1.141-.252 1.801-.252c.684 0 1.299.09 1.844.27.547.181 1.012.438 1.396.774s.679.744.882 1.224c.204.48.307 1.021.307 1.62h-1.549c0-.731-.242-1.319-.729-1.764s-1.197-.666-2.133-.666c-.973 0-1.686.188-2.143.566a1.803 1.803 0 0 0-.684 1.449c0 .276.042.517.126.721s.243.387.478.549c.233.162.555.309.963.44.407.133.93.259 1.565.378.685.133 1.299.285 1.845.459.547.175 1.012.402 1.396.685s.678.627.882 1.035c.204.407.307.912.307 1.512-.002.611-.117 1.151-.344 1.619zm7.506-9.109v11.034h-1.531v-11.034h-3.924v-1.458h9.379v1.458h-3.924zm15.336-1.458v1.458h-7.398v3.78h6.678v1.458h-6.678v4.32h7.398v1.476h-8.929v-12.492h8.929zm12.213 11.782c.053.294.116.531.188.711h-1.548a2.878 2.878 0 0 1-.172-.585 4.243 4.243 0 0 1-.062-.765v-1.71c0-.612-.162-1.077-.486-1.396-.324-.317-.846-.477-1.565-.477h-4.087v4.932h-1.529v-12.492h5.525a4.94 4.94 0 0 1 1.711.279c.504.187.93.444 1.277.773.348.331.612.729.793 1.197.18.468.27.979.27 1.53 0 .672-.15 1.266-.45 1.782-.3.516-.72.93-1.26 1.241.876.517 1.313 1.393 1.313 2.629v1.548c0 .242.027.509.082.803zm-3.682-5.698c.744 0 1.338-.204 1.782-.611.443-.408.666-.973.666-1.692 0-.816-.226-1.407-.675-1.773-.45-.365-1.06-.549-1.828-.549h-3.996v4.626h4.051z" opacity=".9" fill="#953052"/><path d="M110.303 114.734c.042.004.08.008.118.015 2.447.195 4.849.174 7.247.066.213-.971.436-1.939.744-2.878 4.378-13.475 17.313-22.117 31.462-21.005a30.265 30.265 0 0 1 9.698 2.428 55.651 55.651 0 0 0 4.212-6.021c-4.079-1.963-8.568-3.252-13.348-3.625-17.491-1.372-33.492 9.309-38.914 25.985-.532 1.643-.915 3.329-1.219 5.035" fill="#a5a5a4"/><path d="M100.859 113.116c.387-2.168.895-4.312 1.571-6.395 6.784-20.88 26.833-34.264 48.752-32.543a47.277 47.277 0 0 1 16.862 4.561c.429-1.076.861-2.155 1.218-3.271.44-1.328.805-2.688 1.138-4.064-5.805-2.658-12.066-4.356-18.622-4.868-25.459-1.997-48.748 13.555-56.64 37.819a55.964 55.964 0 0 0-1.654 6.414c2.37.96 4.856 1.709 7.375 2.347" fill="#7e7e7c"/><path d="M169.265 75.468a53.192 53.192 0 0 0 1.173-4.242c-9.501-5.758-15.519-16.516-14.6-28.335.19-2.398.66-4.764 1.396-7.029a30.367 30.367 0 0 1 5.255-9.686 55.784 55.784 0 0 0-4.777-6.236 37.99 37.99 0 0 0-9.513 22.352c-1.203 15.444 7.054 29.466 19.855 36.406.429-1.066.854-2.13 1.211-3.23" fill="#a5a5a4"/><path d="M159.677 93.24a56.228 56.228 0 0 0 4.136-5.961c-16.201-8.628-26.666-26.286-25.144-45.738a47.596 47.596 0 0 1 2.182-11.034 47.54 47.54 0 0 1 9.945-17.224 58.033 58.033 0 0 0-5.938-4.172 54.564 54.564 0 0 0-10.889 19.153 55.691 55.691 0 0 0-2.527 12.709c-1.731 22.106 9.992 42.182 28.235 52.267" fill="#80807f"/><path d="M118.988 46.172a72.744 72.744 0 0 0 3.339-16.85c.781-9.969-.493-19.637-3.472-28.572a57.021 57.021 0 0 0-9.52.155 63.485 63.485 0 0 1 4.007 27.713 64.132 64.132 0 0 1-2.926 14.769c-6.989 21.5-24.45 37.049-45.474 42.143 1.548 2.791 3.365 5.409 5.354 7.9 22.557-6.57 41.077-23.813 48.692-47.258" fill="#575756"/><path d="M93.639 4.741c6.131 9.916 16.702 16.905 29.189 17.888a37.694 37.694 0 0 0 27.975-9.336c-1.935-1.569-3.996-2.984-6.135-4.293a30.464 30.464 0 0 1-21.278 6.41c-9.47-.745-17.602-5.758-22.667-12.997a56.33 56.33 0 0 0-7.084 2.328" fill="#a5a5a4"/><path d="M78.811 13.474c8.89 14.593 24.37 24.898 42.659 26.33 15.435 1.208 30.047-4.056 40.94-13.766a59.297 59.297 0 0 0-4.682-6.088c-9.41 8.598-22.173 13.272-35.651 12.215-15.939-1.25-29.405-10.314-37.009-23.112a58.65 58.65 0 0 0-6.257 4.421" fill="#7e7e7c"/><path d="M170.138 43.243c-.797-3.043-1.783-6.002-3.054-8.835-12.544 10.785-29.128 16.601-46.635 15.23-17.002-1.337-32.467-9.212-43.554-22.177-1.916-2.254-3.597-4.638-5.179-7.086a56.3 56.3 0 0 0-5.528 7.524 73.17 73.17 0 0 0 4.071 5.238c12.593 14.733 30.176 23.689 49.507 25.209 18.683 1.465 36.47-4.251 50.372-15.103" fill="#575756"/></g></switch></svg>