<svg xmlns="http://www.w3.org/2000/svg" width="200" height="200" viewBox="0 0 200 200"><path fill="#FFF" d="M156.223 67.115h-9.396V48.322c0-25.931-21.049-46.979-46.98-46.979-25.931 0-46.98 21.049-46.98 46.979v18.793h-9.396c-10.337 0-18.792 8.455-18.792 18.792v93.961c0 10.331 8.455 18.791 18.792 18.791h112.753c10.331 0 18.791-8.46 18.791-18.791V85.906c-.001-10.337-8.461-18.791-18.792-18.791zM99.846 151.68c-10.337 0-18.792-8.462-18.792-18.792 0-10.332 8.456-18.794 18.792-18.794 10.331 0 18.792 8.462 18.792 18.794 0 10.33-8.461 18.792-18.792 18.792zm29.124-84.565H70.717V48.322c0-16.066 13.062-29.128 29.129-29.128s29.124 13.062 29.124 29.128v18.793z"/></svg>