<?xml version="1.0" encoding="UTF-8"?>
<svg width="317px" height="426px" viewBox="0 0 317 426" version="1.1" xmlns="http://www.w3.org/2000/svg" xmlns:xlink="http://www.w3.org/1999/xlink">
    <!-- Generator: Sketch 42 (36781) - http://www.bohemiancoding.com/sketch -->
    <title>illu_wallet</title>
    <desc>Created with Sketch.</desc>
    <defs></defs>
    <g id="Page-1" stroke="none" stroke-width="1" fill="none" fill-rule="evenodd">
        <g id="illu_wallet">
            <g id="Group">
                <path d="M222.6606,113.4032 C222.6606,101.6725 213.1509,92.1637 201.4175,92.1637 L96.5063,92.1637 C84.7729,92.1637 75.263,101.6725 75.263,113.4032 L75.263,358.7769 C75.263,370.5112 84.7729,380.02 96.5063,380.02 L201.4174,380.02 C213.1508,380.02 222.6605,370.5112 222.6605,358.7769 L222.6605,113.4032 L222.6606,113.4032 Z M149.8286,368.1715 C142.164,368.1715 135.9579,361.9615 135.9579,354.296 C135.9579,346.6341 142.164,340.4224 149.8286,340.4224 C157.4905,340.4224 163.7022,346.6341 163.7022,354.296 C163.7022,361.9616 157.4905,368.1715 149.8286,368.1715 L149.8286,368.1715 Z M212.2554,329.7353 L85.6684,329.7353 L85.6684,140.7159 L212.2554,140.7159 L212.2554,329.7353 Z" id="Shape" stroke="#C3C6CC" stroke-width="1.5702"></path>
                <path d="M148.1868,241.7466 L120.0267,386.1362" id="Shape" stroke="#EFEFEF" stroke-width="4.7107"></path>
                <path d="M150.9248,236.6648 L175.9117,39.1427" id="Shape" stroke="#EFEFEF" stroke-width="4.7107"></path>
                <path d="M148.1868,241.7466 L207.7989,362.6828" id="Shape" stroke="#EFEFEF" stroke-width="4.7107"></path>
                <path d="M150.9248,236.6648 L93.1401,78.248" id="Shape" stroke="#EFEFEF" stroke-width="4.7107"></path>
                <path d="M128.4074,239.6853 L44.8706,240.2428" id="Shape" stroke="#EFEFEF" stroke-width="4.7107"></path>
                <circle id="Oval" fill="#EFEFEF" fill-rule="nonzero" cx="149.7887" cy="241.1749" r="52.8834"></circle>
                <g transform="translate(44.000000, 106.000000)" id="Shape" stroke-width="4.7107">
                    <g transform="translate(0.000000, 135.000000)" stroke="#EFEFEF">
                        <path d="M105.7686,0.8154 L0.2354,85.0874"></path>
                    </g>
                    <g transform="translate(30.000000, 0.000000)">
                        <path d="M75.7686,135.8154 L163.4492,0.1393" stroke="#EFEFEF"></path>
                        <path d="M75.7686,135.8154 L186.317,100.4734" stroke="#B6CB11"></path>
                        <path d="M75.7686,135.8154 L154.8556,176.1394" stroke="#EFEFEF"></path>
                        <path d="M75.7686,135.8154 L0.7384,71.6864" stroke="#EFEFEF"></path>
                    </g>
                </g>
                <path d="M198.9878,241.1753 C198.9878,268.3472 176.9606,290.3744 149.7887,290.3744 C122.6168,290.3744 100.5897,268.3472 100.5897,241.1753 L149.7887,241.1753 L149.7887,191.9763 C176.9606,191.9762 198.9878,214.0034 198.9878,241.1753 Z" id="Shape" fill="#D2D2D2" fill-rule="nonzero"></path>
                <g id="SVGID_1_-link" transform="translate(110.000000, 201.000000)" fill-rule="nonzero" fill="#FFFFFF">
                    <circle id="SVGID_1_" cx="39.7887" cy="40.1747" r="39.3965"></circle>
                </g>
                <circle id="Oval" fill="#F0F0F0" fill-rule="nonzero" cx="28.7811" cy="240.5078" r="24.1453"></circle>
                <circle id="Oval" fill="#A2B6D2" fill-rule="nonzero" cx="75.2619" cy="177.7337" r="24.1453"></circle>
                <circle id="Oval" fill="#A2B6D2" fill-rule="nonzero" cx="235.5242" cy="282.6189" r="24.1453"></circle>
                <circle id="Oval" fill="#B6CB11" fill-rule="nonzero" cx="281.1667" cy="199.8042" r="35.3788"></circle>
                <circle id="Oval" fill="#E9ECF2" fill-rule="nonzero" cx="237.3602" cy="109.0475" r="30.0946"></circle>
                <g transform="translate(52.000000, 52.000000)">
                    <circle id="Oval" fill="#E9ECF2" fill-rule="nonzero" cx="38.4069" cy="38.6298" r="38.2365"></circle>
                    <path d="M54.3406,53.6865 L22.4731,53.6865 C19.0186,53.6865 16.1921,50.8601 16.1921,47.4055 L16.1921,30.5946 C16.1921,27.1401 19.0185,24.3136 22.4731,24.3136 L54.3407,24.3136 C57.7952,24.3136 60.6217,27.14 60.6217,30.5946 L60.6217,47.4055 C60.6216,50.8601 57.7952,53.6865 54.3406,53.6865 Z" id="Shape" fill="#333333" fill-rule="nonzero"></path>
                    <path d="M54.3406,52.946 L22.4731,52.946 C19.0186,52.946 16.1921,50.1196 16.1921,46.665 L16.1921,29.8541 C16.1921,26.3996 19.0185,23.5731 22.4731,23.5731 L54.3407,23.5731 C57.7952,23.5731 60.6217,26.3995 60.6217,29.8541 L60.6217,46.665 C60.6216,50.1196 57.7952,52.946 54.3406,52.946 Z" id="Shape" fill="#7D828C" fill-rule="nonzero"></path>
                    <path d="M29.117,42.715 L24.9253,42.715 C21.4708,42.715 18.6443,39.8886 18.6443,36.434 L18.6443,32.2423 C18.6443,28.7878 21.4707,25.9613 24.9253,25.9613 L29.117,25.9613 C32.5715,25.9613 35.398,28.7877 35.398,32.2423 L35.398,36.434 C35.3979,39.8885 32.5715,42.715 29.117,42.715 Z" id="Shape" fill="#F7F7F7" fill-rule="nonzero"></path>
                    <circle id="Oval" fill="#7D828C" fill-rule="nonzero" cx="26.8926" cy="31.2528" r="4.1487"></circle>
                    <circle id="Oval" fill="#7D828C" fill-rule="nonzero" cx="26.8926" cy="42.3681" r="6.2262"></circle>
                    <path d="M28.9318,42.5298 L24.9252,42.5298 C21.4707,42.5298 18.6442,39.7034 18.6442,36.2488 L18.6442,32.2422 C18.6442,28.7877 21.4706,25.9612 24.9252,25.9612 L28.9318,25.9612 C32.3863,25.9612 35.2128,28.7876 35.2128,32.2422 L35.2128,36.2488 C35.2128,39.7034 32.3864,42.5298 28.9318,42.5298 Z" id="Shape" stroke="#F7F7F7" stroke-width="1.5702"></path>
                    <g transform="translate(37.000000, 33.000000)" id="Shape" fill-rule="nonzero" fill="#F0F0F0">
                        <path d="M20.7755,1.9845 L1.3823,1.9845 C0.8609,1.9845 0.4343,1.5579 0.4343,1.0365 L0.4343,1.0365 C0.4343,0.5151 0.8609,0.0885 1.3823,0.0885 L20.7755,0.0885 C21.2969,0.0885 21.7235,0.5151 21.7235,1.0365 L21.7235,1.0365 C21.7234,1.5579 21.2968,1.9845 20.7755,1.9845 Z"></path>
                        <path d="M20.7755,5.788 L1.3823,5.788 C0.8609,5.788 0.4343,5.3614 0.4343,4.84 L0.4343,4.84 C0.4343,4.3186 0.8609,3.892 1.3823,3.892 L20.7755,3.892 C21.2969,3.892 21.7235,4.3186 21.7235,4.84 L21.7235,4.84 C21.7234,5.3614 21.2968,5.788 20.7755,5.788 Z"></path>
                        <path d="M20.7755,9.5915 L1.3823,9.5915 C0.8609,9.5915 0.4343,9.1649 0.4343,8.6435 L0.4343,8.6435 C0.4343,8.1221 0.8609,7.6955 1.3823,7.6955 L20.7755,7.6955 C21.2969,7.6955 21.7235,8.1221 21.7235,8.6435 L21.7235,8.6435 C21.7234,9.165 21.2968,9.5915 20.7755,9.5915 Z"></path>
                    </g>
                    <path d="M22.4537,48.8251 C23.3268,48.7221 24.2077,48.8607 25.0813,48.9594 C25.9549,49.0581 26.8574,49.1146 27.6975,48.8554 C28.5376,48.5962 29.3114,47.9591 29.5014,47.1007 C29.6915,46.2423 29.1113,45.2236 28.2359,45.1416 C27.6314,45.085 27.0493,45.4657 26.7135,45.9715 C26.3777,46.4773 26.2474,47.0902 26.1646,47.6916 C26.1267,47.9668 26.1004,48.2615 26.2261,48.5092 C26.3712,48.795 26.6831,48.9503 26.9799,49.0715 C29.3175,50.026 32.0281,50.0285 34.3675,49.0785 C35.0504,48.8012 36.1105,48.2839 35.9793,47.6746 C35.8481,47.0653 34.3592,47.214 33.5385,47.4006 C32.671,47.5978 31.6824,48.323 31.9759,49.1628 C32.2093,49.8306 33.0805,49.9885 33.786,49.9372 C36.6444,49.7292 41.0046,45.7729 40.347,45.1001 C39.6894,44.4273 38.3542,45.8829 37.9552,46.8616 C37.5562,47.8403 36.863,50.1819 37.6051,49.9889 C38.3472,49.7959 41.3559,47.3552 41.8648,47.5111 C42.3737,47.667 41.2857,48.8882 41.9454,48.9255 C42.6051,48.9628 44.0184,47.3973 44.5151,47.509 C45.0117,47.6207 44.4565,48.4143 44.8393,48.6389 C45.2221,48.8635 45.6976,48.8427 46.1373,48.7821 C47.3514,48.6146 48.6737,47.5247 49.5733,47.5496 C50.4729,47.5745 50.3094,49.0091 50.8642,49.6002 C51.419,50.1913 52.1926,50.6286 53.0024,50.591" id="Shape" stroke="#F7F7F7" stroke-width="0.7851"></path>
                    <path d="M22.4537,48.8251 C23.3268,48.7221 24.2077,48.8607 25.0813,48.9594 C25.9549,49.0581 26.8574,49.1146 27.6975,48.8554 C28.5376,48.5962 29.3114,47.9591 29.5014,47.1007 C29.6915,46.2423 29.1113,45.2236 28.2359,45.1416 C27.6314,45.085 27.0493,45.4657 26.7135,45.9715 C26.3777,46.4773 26.2474,47.0902 26.1646,47.6916 C26.1267,47.9668 26.1004,48.2615 26.2261,48.5092 C26.3712,48.795 26.6831,48.9503 26.9799,49.0715 C29.3175,50.026 32.0281,50.0285 34.3675,49.0785 C35.0504,48.8012 36.1105,48.2839 35.9793,47.6746 C35.8481,47.0653 34.3592,47.214 33.5385,47.4006 C32.671,47.5978 31.6824,48.323 31.9759,49.1628 C32.2093,49.8306 33.0805,49.9885 33.786,49.9372 C36.6444,49.7292 41.0046,45.7729 40.347,45.1001 C39.6894,44.4273 38.3542,45.8829 37.9552,46.8616 C37.5562,47.8403 36.863,50.1819 37.6051,49.9889 C38.3472,49.7959 41.3559,47.3552 41.8648,47.5111 C42.3737,47.667 41.2857,48.8882 41.9454,48.9255 C42.6051,48.9628 44.0184,47.3973 44.5151,47.509 C45.0117,47.6207 44.4565,48.4143 44.8393,48.6389 C45.2221,48.8635 45.6976,48.8427 46.1373,48.7821 C47.3514,48.6146 48.6737,47.5247 49.5733,47.5496 C50.4729,47.5745 50.3094,49.0091 50.8642,49.6002 C51.419,50.1913 52.1926,50.6286 53.0024,50.591" id="Shape" stroke="#F7F7F7" stroke-width="0.7851"></path>
                </g>
                <circle id="Oval" fill="#B7C1D3" fill-rule="nonzero" cx="222.6601" cy="387.2682" r="38.2365"></circle>
                <g transform="translate(94.000000, 364.000000)" fill-rule="nonzero">
                    <g id="SVGID_3_-link" fill="#F0F0F0">
                        <circle id="SVGID_3_" cx="26.6299" cy="26.5333" r="25.849"></circle>
                    </g>
                    <g transform="translate(12.000000, 6.000000)">
                        <path d="M28.7939,52.5056 L0.9547,52.5056 L0.9547,45.3938 C0.9547,37.7062 7.1867,31.4742 14.8743,31.4742 L14.8743,31.4742 C22.5619,31.4742 28.7939,37.7062 28.7939,45.3938 L28.7939,52.5056 Z" id="Shape" fill="#F0F0F0"></path>
                        <path d="M14.8743,37.3703 L14.8743,37.3703 C14.8743,37.3703 11.1057,35.683 11.1057,33.6017 L11.1057,25.5782 L18.643,25.5782 L18.643,33.6017 C18.643,35.683 14.8743,37.3703 14.8743,37.3703 Z" id="Shape" fill="#C6A07E"></path>
                        <path d="M11.1057,28.0003 L11.1057,32.831 C12.2841,33.2528 13.5528,33.4832 14.8743,33.4832 C16.1959,33.4832 17.4645,33.2528 18.6429,32.831 L18.6429,28.0003 L11.1057,28.0003 Z" id="Shape" fill="#B79174"></path>
                        <path d="M4.9508,15.9148 C3.8515,15.9148 2.9603,16.806 2.9603,17.9053 L2.9603,17.9053 C2.9603,19.0046 3.8515,19.8958 4.9508,19.8958 L6.8893,19.8958 L6.8893,15.9148 L4.9508,15.9148 Z" id="Shape" fill="#C6A07E"></path>
                        <path d="M24.7018,19.8958 C25.8011,19.8958 26.6923,19.0046 26.6923,17.9053 L26.6923,17.9053 C26.6923,16.806 25.8011,15.9148 24.7018,15.9148 L22.7633,15.9148 L22.7633,19.8958 L24.7018,19.8958 Z" id="Shape" fill="#C6A07E"></path>
                        <path d="M14.8743,32.0244 C9.6107,32.0244 5.1189,25.2996 5.1189,22.269 L5.1189,12.151 C5.1189,6.7632 9.4865,2.3956 14.8743,2.3956 L14.8743,2.3956 C20.262,2.3956 24.6297,6.7632 24.6297,12.151 L24.6297,22.269 C24.6297,25.2701 20.1379,32.0244 14.8743,32.0244 Z" id="Shape" fill="#C6A07E"></path>
                        <g transform="translate(9.000000, 15.000000)" id="Oval" fill="#5A4A42">
                            <ellipse cx="1.5435" cy="1.7229" rx="1.1853" ry="0.8205"></ellipse>
                            <ellipse cx="10.2052" cy="1.7229" rx="1.1853" ry="0.8205"></ellipse>
                        </g>
                        <path d="M16.4093,25.0087 C16.4093,25.0087 15.6114,24.7591 15.0546,24.7966 C14.9793,24.8017 14.9289,25.0341 14.8649,25.0341 C14.7715,25.0341 14.7334,24.81 14.6203,24.7998 C14.0833,24.7516 13.3206,25.0087 13.3206,25.0087 C13.0004,25.1092 12.7606,25.2594 12.7606,25.5687 C12.7606,25.878 13.034,26.0469 13.3206,26.1287 C13.6072,26.2105 14.2901,26.4323 14.8649,26.4323 C15.4397,26.4323 16.1515,26.2157 16.4092,26.1287 C16.6669,26.0418 16.9692,25.878 16.9692,25.5687 C16.9692,25.2594 16.7272,25.1078 16.4093,25.0087 Z" id="Shape" fill="#AE6045"></path>
                        <path d="M11.3051,1.5494 C9.2462,2.0338 9.3582,3.2677 9.3582,3.2677 C9.3582,8.0656 13.586,8.2508 16.4926,8.9774 C21.2159,9.7041 21.9425,18.7872 21.9425,18.7872 L23.2747,28.4154 C23.2747,28.4154 26.2134,18.7239 26.2134,17.2899 C26.2134,17.2899 27.6952,10.5518 24.0619,4.4964 C20.4286,-1.5591 11.3051,1.5494 11.3051,1.5494 Z" id="Shape" fill="#432A18"></path>
                        <path d="M11.6677,13.7441 L7.9692,13.3176 C7.7358,13.2907 7.5683,13.0796 7.5953,12.8462 C7.6222,12.6127 7.8333,12.4454 8.0667,12.4723 L11.7652,12.8988 C11.9986,12.9257 12.166,13.1368 12.1391,13.3702 C12.1122,13.6036 11.9011,13.771 11.6677,13.7441 Z" id="Shape" fill="#7C5235"></path>
                        <path d="M18.0943,13.7808 L21.7833,13.2787 C22.0161,13.247 22.1792,13.0325 22.1475,12.7997 C22.1158,12.5669 21.9013,12.4038 21.6685,12.4355 L17.9795,12.9376 C17.7467,12.9693 17.5836,13.1837 17.6153,13.4166 C17.647,13.6495 17.8615,13.8125 18.0943,13.7808 Z" id="Shape" fill="#7C5235"></path>
                        <path d="M9.3582,3.4292 C9.3582,3.4292 7.8737,3.5276 6.7433,4.2138 C5.613,4.9001 3.9366,5.7123 3.7963,8.7756 C3.656,11.8389 5.1287,17.1867 5.1189,16.9707 C5.1189,16.9707 6.5415,9.3509 7.6718,8.2508 C8.7924,7.1601 9.9729,5.5864 9.9729,5.5864 L9.3582,3.4292 Z" id="Shape" fill="#4A3120"></path>
                        <g opacity="0.05" transform="translate(7.000000, 46.000000)" id="Shape" fill="#020203">
                            <path d="M3.5726,2.7645 C1.7747,2.7645 0.2958,1.7307 0.1153,0.4052 C0.1031,0.495 0.0966,0.586 0.0966,0.6784 C0.0966,2.1323 1.6528,3.311 3.5727,3.311 C5.4926,3.311 7.0488,2.1324 7.0488,0.6784 C7.0488,0.5861 7.0423,0.495 7.0301,0.4052 C6.8495,1.7307 5.3705,2.7645 3.5726,2.7645 Z"></path>
                        </g>
                        <g opacity="0.05" transform="translate(15.000000, 46.000000)" id="Shape" fill="#020203">
                            <path d="M4.1714,2.7645 C2.3735,2.7645 0.8946,1.7307 0.7141,0.4052 C0.7019,0.495 0.6954,0.586 0.6954,0.6784 C0.6954,2.1323 2.2516,3.311 4.1715,3.311 C6.0914,3.311 7.6476,2.1324 7.6476,0.6784 C7.6476,0.5861 7.6411,0.495 7.6289,0.4052 C7.4482,1.7307 5.9693,2.7645 4.1714,2.7645 Z"></path>
                        </g>
                        <path d="M5.4515,52.5056 L0.9547,52.5056 L0.9547,45.3938 C0.9547,41.3282 2.6977,37.6697 5.4772,35.1248 L5.4515,52.5056 Z" id="Shape" fill="#C6A07E"></path>
                        <path d="M24.326,52.5056 L28.8228,52.5056 L28.8228,45.3938 C28.8228,41.3282 27.0798,37.6697 24.3003,35.1248 L24.326,52.5056 Z" id="Shape" fill="#C6A07E"></path>
                    </g>
                </g>
                <g transform="translate(222.000000, 98.000000)" id="Shape" fill-rule="nonzero">
                    <path d="M26.3578,6.9045 L4.2339,6.9045 C3.704,6.9045 3.2704,7.3381 3.2704,7.868 L3.2704,7.868 C3.2704,8.3979 3.704,8.8315 4.2339,8.8315 L26.3578,8.8315 C26.8877,8.8315 27.3213,8.3979 27.3213,7.868 L27.3213,7.868 C27.3213,7.338 26.8877,6.9045 26.3578,6.9045 Z" fill="#C3C6CC"></path>
                    <g transform="translate(7.000000, 5.000000)" fill="#C3C6CC">
                        <path d="M4.1147,2.7169 L1.2783,2.7169 C0.744,2.7169 0.3069,2.2798 0.3069,1.7455 L0.3069,1.7455 C0.3069,1.2112 0.744,0.7741 1.2783,0.7741 L4.1147,0.7741 C4.649,0.7741 5.0861,1.2112 5.0861,1.7455 L5.0861,1.7455 C5.086,2.2798 4.6489,2.7169 4.1147,2.7169 Z"></path>
                        <path d="M15.3239,2.7169 L12.4875,2.7169 C11.9533,2.7169 11.5162,2.2798 11.5162,1.7455 L11.5162,1.7455 C11.5162,1.2112 11.9533,0.7741 12.4875,0.7741 L15.3239,0.7741 C15.8581,0.7741 16.2952,1.2112 16.2952,1.7455 L16.2952,1.7455 C16.2952,2.2798 15.8581,2.7169 15.3239,2.7169 Z"></path>
                    </g>
                    <path d="M4.2359,21.7945 L4.2359,21.7945 C3.2131,21.7945 2.3763,20.9577 2.3763,19.9349 L2.3763,16.6604 C2.3763,15.6376 3.2132,14.8008 4.2359,14.8008 L4.2359,14.8008 C5.2587,14.8008 6.0955,15.6376 6.0955,16.6604 L6.0955,19.9349 C6.0955,20.9577 5.2587,21.7945 4.2359,21.7945 Z" fill="#7D828C"></path>
                    <path d="M26.4606,21.7945 L26.4606,21.7945 C25.4378,21.7945 24.601,20.9577 24.601,19.9349 L24.601,16.6604 C24.601,15.6376 25.4379,14.8008 26.4606,14.8008 L26.4606,14.8008 C27.4834,14.8008 28.3202,15.6376 28.3202,16.6604 L28.3202,19.9349 C28.3202,20.9577 27.4834,21.7945 26.4606,21.7945 Z" fill="#7D828C"></path>
                    <path d="M29.723,14.0125 C29.723,11.1282 28.8985,8.7228 27.8003,8.1479 L25.1728,1.8122 C24.8705,0.9356 24.0236,0.3005 23.0261,0.3005 L7.6385,0.3005 C6.6404,0.3005 5.7935,0.9355 5.4912,1.8122 L2.8922,8.0672 C1.6531,8.341 0.6793,10.8817 0.6793,14.0125 C0.6793,16.1841 1.1471,17.5185 1.8471,18.1978 L28.3176,18.193 C29.1456,17.2374 29.723,16.4197 29.723,14.0125 Z M4.127,8.1285 L6.9227,1.3247 L23.6301,1.3247 L26.5369,8.1285 L4.127,8.1285 Z" fill="#A2B6D2"></path>
                    <path d="M0.7572,15.4365 C0.9177,16.788 1.3155,17.6819 1.8471,18.1979 L28.3176,18.1931 C28.9387,17.4764 29.4187,16.8373 29.6199,15.547 L0.7572,15.4365 Z" fill="#839BBF"></path>
                    <path d="M29.1207,8.1443 L27.722,8.1443 C27.145,8.1443 26.6729,7.6722 26.6729,7.0952 L26.6729,7.0952 C26.6729,6.5182 27.145,6.0461 27.722,6.0461 L29.1207,6.0461 C29.6977,6.0461 30.1698,6.5182 30.1698,7.0952 L30.1698,7.0952 C30.1698,7.6722 29.6977,8.1443 29.1207,8.1443 Z" fill="#7D828C"></path>
                    <path d="M2.9984,8.1443 L1.5996,8.1443 C1.0226,8.1443 0.5505,7.6722 0.5505,7.0952 L0.5505,7.0952 C0.5505,6.5182 1.0226,6.0461 1.5996,6.0461 L2.9984,6.0461 C3.5754,6.0461 4.0475,6.5182 4.0475,7.0952 L4.0475,7.0952 C4.0475,7.6722 3.5754,8.1443 2.9984,8.1443 Z" fill="#7D828C"></path>
                    <polygon fill="#F0F0F0" points="14.6807 8.1345 12.8545 8.1345 15.3412 1.3221 17.1673 1.3221"></polygon>
                    <polygon fill="#F0F0F0" points="10.9506 8.1345 10.3678 8.1345 12.8545 1.3221 13.4373 1.3221"></polygon>
                    <polygon fill="#F0F0F0" points="11.6803 8.1393 11.3975 8.1345 13.8841 1.3221 14.167 1.3268"></polygon>
                    <polygon fill="#F0F0F0" points="15.4492 8.1393 15.1663 8.1345 17.653 1.3221 17.9359 1.3268"></polygon>
                    <path d="M9.8051,15.4496 C10.3843,14.5194 11.3792,13.04 11.848,13.04 L18.8418,13.04 C19.3112,13.04 20.3078,14.5228 20.8867,15.4528" fill="#C3C6CC"></path>
                    <path d="M20.0884,17.4435 L10.6079,17.4435 C9.9241,17.4435 9.3646,16.884 9.3646,16.2002 C9.3646,16.2002 9.5502,15.8762 9.8249,15.4361 L20.8717,15.4363 C21.1463,15.8763 21.3318,16.2002 21.3318,16.2002 C21.3318,16.884 20.7723,17.4435 20.0884,17.4435 Z" fill="#9BA0AA"></path>
                    <path d="M6.5342,15.4878 L3.4258,15.4878 C2.742,15.4878 2.1825,15.0961 2.1825,14.6175 L2.1825,13.9103 C2.1825,13.4316 2.742,13.04 3.4258,13.04 L6.5342,13.04 C7.218,13.04 7.7775,13.4316 7.7775,13.9103 L7.7775,14.6175 C7.7775,15.0961 7.218,15.4878 6.5342,15.4878 Z" fill="#F7F7F7"></path>
                    <path d="M27.0493,15.4878 L23.9409,15.4878 C23.2571,15.4878 22.6976,15.0961 22.6976,14.6175 L22.6976,13.9103 C22.6976,13.4316 23.2571,13.04 23.9409,13.04 L27.0493,13.04 C27.7331,13.04 28.2926,13.4316 28.2926,13.9103 L28.2926,14.6175 C28.2927,15.0961 27.7332,15.4878 27.0493,15.4878 Z" fill="#F7F7F7"></path>
                </g>
                <g transform="translate(137.000000, 0.000000)">
                    <circle id="Oval" fill="#E9ECF2" fill-rule="nonzero" cx="38.9117" cy="39.1427" r="38.2365"></circle>
                    <g transform="translate(18.000000, 16.000000)">
                        <path d="M30.291,5.6055 L12.5511,5.6055 L8.1161,5.6055 L5.8986,5.6055 C3.4372,5.6055 1.4858,7.6012 1.4858,10.0405 L1.4636,41.0853 C1.4636,43.5245 3.4372,45.5203 5.8986,45.5203 L36.9434,45.5203 C39.3826,45.5203 41.3784,43.5246 41.3784,41.0853 L41.3784,10.0405 C41.3784,7.6013 39.3827,5.6055 36.9434,5.6055 L34.7259,5.6055 L30.291,5.6055 Z M36.9435,41.0853 L5.8987,41.0853 L36.9435,41.0853 Z" id="Shape" fill="#B1B4BA" fill-rule="nonzero"></path>
                        <path d="M29.2722,4.7565 L11.5323,4.7565 L7.0973,4.7565 L4.8798,4.7565 C2.4184,4.7565 0.467,6.7522 0.467,9.1915 L0.4448,40.2363 C0.4448,42.6755 2.4184,44.6713 4.8798,44.6713 L35.9246,44.6713 C38.3638,44.6713 40.3596,42.6756 40.3596,40.2363 L40.3596,9.1915 C40.3596,6.7523 38.3639,4.7565 35.9246,4.7565 L33.7071,4.7565 L29.2722,4.7565 L29.2722,4.7565 Z M35.9247,40.2363 L4.8799,40.2363 L4.8799,15.8439 L35.9247,15.8439 L35.9247,40.2363 Z" id="Shape" fill="#E4E4E4" fill-rule="nonzero"></path>
                        <path d="M29.2722,4.7557 L11.532,4.7557 L7.0973,4.7557 L4.8792,4.7557 C2.4182,4.7557 0.4677,6.7526 0.4677,9.1919 L0.4631,15.8199 L40.3596,15.8199 L40.3596,9.1919 C40.3596,6.7526 38.3642,4.7557 35.9249,4.7557 L33.7068,4.7557 L29.2722,4.7557 L29.2722,4.7557 Z M4.8798,15.8439 L35.9246,15.8439 L4.8798,15.8439 Z" id="Shape" fill="#953052" fill-rule="nonzero"></path>
                        <rect id="Rectangle-path" fill="#C3C6CC" fill-rule="nonzero" x="8.2511" y="0.7652" width="3.1678" height="8.7116"></rect>
                        <rect id="Rectangle-path" fill="#C3C6CC" fill-rule="nonzero" x="28.605" y="0.8398" width="3.1678" height="8.7116"></rect>
                        <g transform="translate(7.000000, 17.000000)" fill-rule="nonzero" id="Rectangle-path" fill="#E4E4E4">
                            <rect x="0.9289" y="0.837" width="5.9036" height="5.9036"></rect>
                            <rect x="7.4185" y="0.837" width="5.9036" height="5.9036"></rect>
                            <rect x="13.9082" y="0.837" width="5.9036" height="5.9036"></rect>
                            <rect x="20.3979" y="0.837" width="5.9036" height="5.9036"></rect>
                        </g>
                        <g transform="translate(7.000000, 24.000000)" fill-rule="nonzero" id="Rectangle-path" fill="#E4E4E4">
                            <rect x="0.9289" y="0.2717" width="5.9036" height="5.9036"></rect>
                            <rect x="7.4185" y="0.2717" width="5.9036" height="5.9036"></rect>
                            <rect x="13.9082" y="0.2717" width="5.9036" height="5.9036"></rect>
                            <rect x="20.3979" y="0.2717" width="5.9036" height="5.9036"></rect>
                        </g>
                        <g transform="translate(7.000000, 30.000000)" fill-rule="nonzero" id="Rectangle-path" fill="#E4E4E4">
                            <rect x="0.9289" y="0.7064" width="5.9036" height="5.9036"></rect>
                            <rect x="7.4185" y="0.7064" width="5.9036" height="5.9036"></rect>
                            <rect x="13.9082" y="0.7064" width="5.9036" height="5.9036"></rect>
                            <rect x="20.3979" y="0.7064" width="5.9036" height="5.9036"></rect>
                        </g>
                        <g transform="translate(15.000000, 25.000000)" id="Shape" stroke="#7D828C" stroke-width="0.4711">
                            <path d="M3.8641,0.6701 L0.7574,3.7769"></path>
                            <path d="M0.7574,0.6701 L3.8641,3.7769"></path>
                        </g>
                    </g>
                </g>
                <path d="M170.7358,255.0424 L170.7358,257.3058 C170.7358,259.7956 168.6987,261.8327 166.2089,261.8327 L134.5209,261.8327 C132.0085,261.8327 129.994,259.7956 129.994,257.3058 L129.994,225.6178 C129.994,223.128 132.0085,221.0909 134.5209,221.0909 L166.2089,221.0909 C168.6987,221.0909 170.7358,223.128 170.7358,225.6178 L170.7358,227.8812 L150.3649,227.8812 C147.8525,227.8812 145.838,229.9183 145.838,232.4081 L145.838,250.5156 C145.838,253.0054 147.8525,255.0425 150.3649,255.0425 L170.7358,255.0425 L170.7358,255.0424 Z M150.3649,250.5156 L172.9992,250.5156 L172.9992,232.4081 L150.3649,232.4081 L150.3649,250.5156 Z M159.4186,244.857 C157.54,244.857 156.0235,243.3405 156.0235,241.4618 C156.0235,239.5832 157.54,238.0667 159.4186,238.0667 C161.2972,238.0667 162.8137,239.5832 162.8137,241.4618 C162.8138,243.3405 161.2973,244.857 159.4186,244.857 Z" id="Shape" fill="#9BA0AA" fill-rule="nonzero"></path>
                <rect id="Rectangle-path" fill="#7D828C" fill-rule="nonzero" x="206.3311" y="366.0476" width="33.2867" height="42.4242"></rect>
                <rect id="Rectangle-path" fill="#F0F0F0" fill-rule="nonzero" x="205.6228" y="365.2907" width="33.2867" height="42.4242"></rect>
                <g transform="translate(218.000000, 368.000000)" fill-rule="nonzero" id="Rectangle-path" fill="#E8540C">
                    <rect x="3.4778" y="0.3238" width="1.5769" height="6.6312"></rect>
                    <rect transform="translate(4.266400, 3.639350) rotate(-90.000000) translate(-4.266400, -3.639350) " x="3.47795001" y="0.323750019" width="1.5769" height="6.6312"></rect>
                </g>
                <rect id="Rectangle-path" fill="#C3C6CC" fill-rule="nonzero" x="210.0219" y="378.8258" width="1.9372" height="1.9434"></rect>
                <rect id="Rectangle-path" fill="#C3C6CC" fill-rule="nonzero" x="210.0219" y="382.6859" width="1.9372" height="1.9434"></rect>
                <rect id="Rectangle-path" fill="#C3C6CC" fill-rule="nonzero" x="210.0219" y="386.5972" width="1.9372" height="1.9434"></rect>
                <rect id="Rectangle-path" fill="#C3C6CC" fill-rule="nonzero" x="212.9671" y="378.8258" width="18.0932" height="1.9434"></rect>
                <rect id="Rectangle-path" fill="#C3C6CC" fill-rule="nonzero" x="212.9671" y="382.706" width="14.7849" height="1.9434"></rect>
                <rect id="Rectangle-path" fill="#C3C6CC" fill-rule="nonzero" x="212.9671" y="386.5862" width="20.7999" height="1.9434"></rect>
                <rect id="Rectangle-path" fill="#C3C6CC" fill-rule="nonzero" x="212.9671" y="390.4664" width="7.9874" height="1.9434"></rect>
                <rect id="Rectangle-path" fill="#C3C6CC" fill-rule="nonzero" x="212.9671" y="394.3466" width="14.823" height="1.9434"></rect>
                <rect id="Rectangle-path" fill="#C3C6CC" fill-rule="nonzero" x="212.9671" y="398.2268" width="17.3655" height="1.9434"></rect>
                <rect id="Rectangle-path" fill="#C3C6CC" fill-rule="nonzero" x="210.0219" y="390.4858" width="1.9372" height="1.9434"></rect>
                <rect id="Rectangle-path" fill="#C3C6CC" fill-rule="nonzero" x="210.0219" y="394.3712" width="1.9372" height="1.9434"></rect>
                <rect id="Rectangle-path" fill="#C3C6CC" fill-rule="nonzero" x="210.0219" y="398.2404" width="1.9372" height="1.9434"></rect>
                <path d="M237.7136,285.0828 L233.3491,285.0828 C233.3981,286.505 233.7556,287.568 234.4218,288.2706 C235.0879,288.9738 236.042,289.3251 237.2845,289.3251 C238.1834,289.3251 239.0212,289.1902 239.7977,288.9205 L240.1409,291.4215 C239.1601,291.6583 238.1466,291.7768 237.1005,291.7768 C235.0081,291.7768 233.3614,291.1887 232.1599,290.0112 C230.9585,288.8344 230.3251,287.1917 230.2596,285.0828 L228.151,285.0828 L228.151,283.3547 L230.2596,283.3547 L230.2596,281.7852 L228.151,281.7852 L228.151,280.0565 L230.272,280.0565 C230.3781,277.9725 231.0443,276.3526 232.2703,275.1961 C233.4963,274.0396 235.143,273.4611 237.2109,273.4611 C238.0771,273.4611 239.0539,273.5892 240.141,273.8447 L239.7978,276.3786 C238.9642,276.101 238.1345,275.9621 237.3091,275.9621 C236.0749,275.9621 235.1268,276.3111 234.4649,277.0098 C233.8028,277.709 233.4351,278.7244 233.3616,280.0565 L237.7137,280.0565 L237.7137,281.7852 L233.3492,281.7852 L233.3492,283.3547 L237.7137,283.3547 L237.7137,285.0828 L237.7136,285.0828 Z" id="Shape" fill="#FFFFFF" fill-rule="nonzero"></path>
                <g transform="translate(0.000000, 215.000000)" fill-rule="nonzero">
                    <rect id="Rectangle-path" fill="#D2D2D2" x="7.8205" y="9.8327" width="31.2346" height="12.765"></rect>
                    <rect id="Rectangle-path" fill="#D2D2D2" x="7.8205" y="0.9107" width="31.2346" height="6.0782"></rect>
                    <rect id="Rectangle-path" fill="#D2D2D2" x="1.129" y="0.8172" width="4.402" height="21.7805"></rect>
                    <polygon id="Shape" fill="#D2D2D2" points="41.6166 19.2094 41.6166 0.8172 57.2538 0.8172"></polygon>
                    <polygon id="Shape" fill="#D2D2D2" points="62.3152 0.8172 70.2078 0.8172 70.2078 22.5977 44.4713 22.5977"></polygon>
                    <rect id="Rectangle-path" fill="#D2D2D2" x="23.2174" y="28.3552" width="15.8376" height="21.7805"></rect>
                    <rect id="Rectangle-path" fill="#D2D2D2" x="1.0626" y="28.3552" width="7.3992" height="21.7805"></rect>
                    <rect id="Rectangle-path" fill="#B6CB11" opacity="0.5" x="10.3895" y="37.809" width="10.863" height="7.2005"></rect>
                    <rect id="Rectangle-path" fill="#D2D2D2" x="41.6166" y="28.3552" width="11.6528" height="21.7805"></rect>
                    <rect id="Rectangle-path" fill="#D2D2D2" x="10.3672" y="28.3552" width="10.9145" height="7.2722"></rect>
                    <rect id="Rectangle-path" fill="#D2D2D2" x="10.3672" y="47.4377" width="10.9145" height="2.6879"></rect>
                    <rect id="Rectangle-path" fill="#D2D2D2" x="55.5143" y="28.3552" width="15.3081" height="13.5197"></rect>
                    <rect id="Rectangle-path" fill="#D2D2D2" x="55.5143" y="44.4576" width="15.3081" height="5.9133"></rect>
                    <rect id="Rectangle-path" fill="#D2D2D2" x="0.9531" y="24.7521" width="38.102" height="1.32"></rect>
                    <rect id="Rectangle-path" fill="#D2D2D2" x="41.6166" y="24.7521" width="29.106" height="1.32"></rect>
                </g>
                <path d="M17.2062,219.106 C15.4895,219.106 14.0978,217.7143 14.0978,215.9977 C14.0978,214.281 15.4895,212.8893 17.2062,212.8893 C18.9229,212.8893 20.3146,214.281 20.3146,215.9977 C20.3146,217.7143 18.9229,219.106 17.2062,219.106 L17.2062,219.106 Z M17.2062,207.2942 C12.3994,207.2942 8.5028,211.1908 8.5028,215.9976 C8.5028,222.5251 17.2062,232.161 17.2062,232.161 C17.2062,232.161 25.9096,222.5251 25.9096,215.9976 C25.9096,211.1909 22.013,207.2942 17.2062,207.2942 Z" id="Shape" fill="#839BBF" fill-rule="nonzero"></path>
                <g transform="translate(16.000000, 302.000000)" fill-rule="nonzero">
                    <circle id="Oval" fill="#B7C1D3" cx="24.3343" cy="24.5065" r="24.1453"></circle>
                    <path d="M18.2141,23.2246 C19.7387,26.2208 22.1949,28.6664 25.1911,30.2016 L27.5203,27.8724 C27.8062,27.5865 28.2296,27.4913 28.6002,27.6183 C29.786,28.01 31.067,28.2218 32.3798,28.2218 C32.9621,28.2218 33.4385,28.6982 33.4385,29.2805 L33.4385,32.9754 C33.4385,33.5577 32.9621,34.0341 32.3798,34.0341 C22.4384,34.0341 14.3815,25.9772 14.3815,16.0358 C14.3815,15.4535 14.8579,14.9771 15.4402,14.9771 L19.1457,14.9771 C19.728,14.9771 20.2044,15.4535 20.2044,16.0358 C20.2044,17.3592 20.4161,18.6297 20.8079,19.8154 C20.9244,20.1859 20.8397,20.5988 20.5432,20.8953 L18.2141,23.2246 Z" id="Shape" fill="#FFFFFF"></path>
                </g>
                <path d="M83.1523,169.9304 L67.1535,169.9304 C66.0536,169.9304 65.1636,170.8303 65.1636,171.9302 L65.1536,183.9293 C65.1536,185.0292 66.0535,185.9291 67.1535,185.9291 L83.1523,185.9291 C84.2522,185.9291 85.1522,185.0292 85.1522,183.9293 L85.1522,171.9302 C85.1522,170.8303 84.2522,169.9304 83.1523,169.9304 Z M83.1523,173.9301 L75.1529,178.9297 L67.1535,173.9301 L67.1535,171.9302 L75.1529,176.9298 L83.1523,171.9302 L83.1523,173.9301 Z" id="Shape" fill="#FFFFFF" fill-rule="nonzero"></path>
                <path d="M267.0648,198.0939 C267.938,197.9909 268.8188,198.1295 269.6924,198.2282 C270.566,198.3269 271.4685,198.3834 272.3086,198.1242 C273.1487,197.865 273.9225,197.2279 274.1126,196.3695 C274.3027,195.5111 273.7225,194.4924 272.8471,194.4104 C272.2426,194.3538 271.6605,194.7346 271.3246,195.2404 C270.9888,195.7462 270.8585,196.3591 270.7757,196.9605 C270.7378,197.2357 270.7115,197.5304 270.8372,197.7781 C270.9823,198.0639 271.2942,198.2192 271.591,198.3404 C273.9286,199.2949 276.6392,199.2975 278.9786,198.3474 C279.6615,198.0701 280.7216,197.5528 280.5904,196.9435 C280.4592,196.3342 278.9703,196.4829 278.1496,196.6695 C277.2821,196.8667 276.2935,197.5919 276.587,198.4317 C276.8204,199.0995 277.6916,199.2575 278.3972,199.2061 C281.2556,198.9981 285.6158,195.0418 284.9582,194.369 C284.3006,193.6962 282.9654,195.1517 282.5664,196.1305 C282.1674,197.1092 281.4742,199.4508 282.2163,199.2578 C282.9584,199.0648 285.9671,196.624 286.476,196.78 C286.9849,196.936 285.8969,198.1571 286.5566,198.1945 C287.2163,198.2318 288.6296,196.6663 289.1263,196.778 C289.6229,196.8897 289.0677,197.6833 289.4504,197.9079 C289.8332,198.1325 290.3087,198.1117 290.7484,198.051 C291.9625,197.8835 293.2848,196.7936 294.1844,196.8185 C295.084,196.8434 294.9205,198.278 295.4753,198.869 C296.0301,199.46 296.8037,199.8974 297.6135,199.8598" id="Shape" stroke="#F7F7F7" stroke-width="0.7851"></path>
                <path d="M259.13,205.8977 L305.5481,205.8977" id="Shape" stroke="#F7F7F7" stroke-width="0.7851"></path>
            </g>
        </g>
    </g>
</svg>