<?xml version="1.0" encoding="utf-8"?>
<!-- Generator: Adobe Illustrator 21.0.2, SVG Export Plug-In . SVG Version: 6.00 Build 0)  -->
<svg version="1.1" id="Ebene_2" xmlns="http://www.w3.org/2000/svg" xmlns:xlink="http://www.w3.org/1999/xlink" x="0px" y="0px"
	 viewBox="0 0 172 150" style="enable-background:new 0 0 172 150;" xml:space="preserve">
<style type="text/css">
	.st0{fill:#FFFFFF;}
	.st1{clip-path:url(#SVGID_2_);}
	.st2{fill:#F9DCB2;}
	.st3{fill:#F0F0F0;}
	.st4{fill:#F4D3AB;}
	.st5{fill:#5A4A42;}
	.st6{fill:#EF8671;}
	.st7{fill:#492B16;}
	.st8{fill:#6D4326;}
	.st9{fill:#492F1D;}
	.st10{fill:#7C5235;}
	.st11{fill:#FAFAFA;}
	.st12{fill:#633C38;}
	.st13{fill:#330A1E;}
	.st14{fill:#492A29;}
	.st15{fill:#333333;}
	.st16{fill:#7D828C;}
	.st17{fill:#F7F7F7;stroke:#F7F7F7;stroke-width:1.5317;stroke-miterlimit:10;}
	.st18{fill:none;stroke:#F7F7F7;stroke-width:0.7659;stroke-miterlimit:10;}
	.st19{clip-path:url(#SVGID_4_);}
</style>
<circle class="st0" cx="92.1608" cy="74.4507" r="69.879"/>
<g>
	<defs>
		<circle id="SVGID_1_" cx="92.1608" cy="74.4507" r="69.879"/>
	</defs>
	<clipPath id="SVGID_2_">
		<use xlink:href="#SVGID_1_"  style="overflow:visible;"/>
	</clipPath>
	<g class="st1">
		<path class="st2" d="M96.9393,46.0151c-2.8304,0-5.1247,2.2944-5.1247,5.1247v0c0,2.8303,2.2944,5.1248,5.1247,5.1248h4.9908
			V46.0151H96.9393z"/>
		<path class="st2" d="M147.7898,56.2646c2.8304,0,5.1247-2.2944,5.1247-5.1247v0c0-2.8303-2.2944-5.1248-5.1247-5.1248h-4.9908
			v10.2495H147.7898z"/>
		<path class="st3" d="M158.3252,146.4569H86.6511v-18.3098c0-19.7923,16.0448-35.837,35.837-35.837h0.0001
			c19.7923,0,35.837,16.0448,35.837,35.837V146.4569z"/>
		<path class="st2" d="M122.4882,107.49L122.4882,107.49c-5.3586,0-9.7026-4.344-9.7026-9.7026V77.1302h19.4052v20.6572
			C132.1908,103.146,127.8468,107.49,122.4882,107.49z"/>
		<path class="st4" d="M112.7855,77.1302v12.4369c3.0339,1.0858,6.3001,1.6792,9.7026,1.6792c3.4025,0,6.6687-0.5933,9.7026-1.6792
			V77.1302H112.7855z"/>
		<path class="st2" d="M122.4882,87.4904L122.4882,87.4904c-13.8712,0-25.116-11.2448-25.116-25.116V36.325
			c0-13.8712,11.2448-25.116,25.116-25.116h0.0001c13.8712,0,25.116,11.2448,25.116,25.116v26.0495
			C147.6041,76.2456,136.3593,87.4904,122.4882,87.4904z"/>
		<g>
			<ellipse class="st5" cx="111.338" cy="48.0957" rx="3.0516" ry="2.1125"/>
			<ellipse class="st5" cx="133.6383" cy="48.0957" rx="3.0516" ry="2.1125"/>
		</g>
		<path class="st6" d="M127.2351,68.3665c0,0-3.1583,0.6236-4.8078,0.6236s-4.6861-0.6236-4.6861-0.6236
			c-0.9507,0-1.7214,0.7707-1.7214,1.7214c0,0.9507,0.8405,1.47,1.7214,1.7214c0.881,0.2514,2.8158,0.6236,4.5827,0.6236
			c1.7669,0,4.1189-0.3564,4.9112-0.6236c0.7922-0.2672,1.7214-0.7707,1.7214-1.7214
			C128.9565,69.1372,128.1858,68.3665,127.2351,68.3665z"/>
		<path class="st7" d="M122.4882,7.4383h-8.0173c-3.4156,0-6.1845,2.7689-6.1845,6.1845v1.0786
			c0,12.3526,18.2989,8.4331,25.7822,10.304c12.1604,1.8708,13.5357,12.0624,13.5357,12.0624v23.5784v0
			c2.6106-2.6106,4.0772-6.1514,4.0772-9.8434v-28.566c0-8.173-6.6255-14.7985-14.7985-14.7985H122.4882z"/>
		<path class="st8" d="M122.4882,6.1911h-8.0173c-3.4156,0-6.1845,2.7689-6.1845,6.1845v1.0786
			c0,12.3526,18.2989,8.4331,25.7822,10.304c12.1604,1.8708,13.5357,12.0624,13.5357,12.0624v23.5784v0
			c2.6106-2.6106,4.0772-6.1514,4.0772-9.8434v-28.566c0-8.173-6.6255-14.7985-14.7985-14.7985H122.4882z"/>
		<path class="st9" d="M110.1251,24.3147c0,7.0433-5.7097,12.753-12.753,12.753l0,0v23.5784l0,0
			c-2.6106-2.6106-4.0772-6.1514-4.0772-9.8434V24.2685c0-7.7479,5.2355-14.273,12.3617-16.2306
			c2.2538-0.6191,4.4686,1.1272,4.4686,3.4645V24.3147z"/>
		<g>
			<path class="st10" d="M114.4574,39.5281l-9.5591,0.7071c-0.6032,0.0446-1.1287-0.4083-1.1733-1.0117s0.4084-1.1287,1.0117-1.1733
				l9.5591-0.7071c0.6032-0.0446,1.1286,0.4083,1.1733,1.0117C115.5136,38.9582,115.0606,39.4835,114.4574,39.5281z"/>
		</g>
		<g>
			<path class="st10" d="M130.5219,39.547l9.5618,0.6699c0.6034,0.0423,1.1271-0.4127,1.1694-1.0162s-0.4128-1.1271-1.0162-1.1693
				l-9.5618-0.6699c-0.6034-0.0423-1.127,0.4127-1.1693,1.0162C129.4634,38.9813,129.9185,39.5048,130.5219,39.547z"/>
		</g>
		<path class="st10" d="M110.1251,23.6911c0,7.0433-5.7097,12.753-12.753,12.753l0,0v23.5784l0,0
			c-2.6106-2.6106-4.0772-6.1514-4.0772-9.8434V23.6449c0-7.7479,5.2355-14.273,12.3617-16.2306
			c2.2538-0.6191,4.4686,1.1272,4.4686,3.4645V23.6911z"/>
		<path class="st11" d="M133.1633,96.9382h-0.9425v0.9086c0,4.8305-3.9156,8.7462-8.7459,8.7462h-1.8175
			c-4.8302,0-8.7459-3.9157-8.7459-8.7462v-0.9086h-0.9425h-1.1008v1.1008c0,5.8529,4.7444,10.5973,10.5969,10.5973h2.2019
			c5.8525,0,10.5969-4.7444,10.5969-10.5973v-1.1008H133.1633z"/>
		<path class="st12" d="M113.9791,146.4569h-27.328v-18.3098c0-16.4297,11.0562-30.2772,26.1343-34.508L113.9791,146.4569z"/>
		<polygon class="st13" points="112.7854,94.2626 100.9718,106.0762 113.1878,144.5859 113.9228,144.5873 		"/>
		<g>
			<polygon class="st14" points="112.7854,91.1446 100.9718,102.9582 113.9791,143.9625 			"/>
		</g>
		<path class="st12" d="M131.0053,146.4569h27.328v-18.3098c0-16.4297-11.0562-30.2772-26.1343-34.508L131.0053,146.4569z"/>
		<polygon class="st13" points="132.1991,94.2626 144.0126,106.0762 131.7966,144.5859 131.0616,144.5873 		"/>
		<g>
			<polygon class="st14" points="132.1991,91.1446 144.0126,102.9582 131.0053,143.9625 			"/>
		</g>
	</g>
</g>
<g>
	<path class="st7" d="M122.4882,7.4383h-8.0173c-3.4156,0-6.1845,2.7689-6.1845,6.1845v1.0786
		c0,12.3526,18.2989,8.4331,25.7822,10.304c12.1604,1.8708,13.5357,12.0624,13.5357,12.0624v23.5784v0
		c2.6106-2.6106,4.0772-6.1514,4.0772-9.8434v-28.566c0-8.173-6.6255-14.7985-14.7985-14.7985H122.4882z"/>
	<path class="st8" d="M122.4882,6.1911h-8.0173c-3.4156,0-6.1845,2.7689-6.1845,6.1845v1.0786
		c0,12.3526,18.2989,8.4331,25.7822,10.304c12.1604,1.8708,13.5357,12.0624,13.5357,12.0624v23.5784v0
		c2.6106-2.6106,4.0772-6.1514,4.0772-9.8434v-28.566c0-8.173-6.6255-14.7985-14.7985-14.7985H122.4882z"/>
</g>
<g>
	<path class="st15" d="M96.0693,134.6017l-78.2853,14.678c-3.3121,0.621-6.53-1.5808-7.151-4.8929L1.6945,96.7131
		c-0.621-3.3121,1.5808-6.53,4.8929-7.151l78.2853-14.678c3.3121-0.621,6.53,1.5808,7.151,4.8929l8.9385,47.6737
		C101.5831,130.7627,99.3813,133.9807,96.0693,134.6017z"/>
	<path class="st16" d="M95.787,133.0962l-78.2853,14.678c-3.3121,0.621-6.53-1.5808-7.151-4.8929L1.4122,95.2076
		c-0.621-3.3121,1.5808-6.53,4.8929-7.151l78.2853-14.678c3.3121-0.621,6.53,1.5808,7.151,4.8929l8.9385,47.6737
		C101.3009,129.2573,99.0991,132.4752,95.787,133.0962z"/>
	<path class="st17" d="M40.1581,121.6048l-21.6414,4.0576c-3.3121,0.621-6.53-1.5808-7.151-4.8929L7.3081,99.1282
		c-0.621-3.3121,1.5808-6.53,4.8929-7.151l21.6414-4.0576c3.3121-0.621,6.53,1.5808,7.151,4.8929l4.0576,21.6414
		C45.6719,117.7658,43.4701,120.9838,40.1581,121.6048z"/>
	<g>
		<path class="st3" d="M89.1757,96.5347l-39.4282,7.3925c-1.06,0.1987-2.0899-0.5059-2.2886-1.5659v0
			c-0.1987-1.06,0.5059-2.0899,1.5659-2.2886l39.4282-7.3925c1.06-0.1987,2.0899,0.5059,2.2886,1.5659v0
			C90.9404,95.306,90.2357,96.3359,89.1757,96.5347z"/>
		<path class="st3" d="M90.6256,104.2676l-39.4282,7.3925c-1.06,0.1987-2.0899-0.5059-2.2886-1.5659l0,0
			c-0.1987-1.06,0.5059-2.0899,1.5659-2.2886l39.4282-7.3925c1.06-0.1987,2.0899,0.5059,2.2886,1.5659l0,0
			C92.3902,103.0389,91.6856,104.0688,90.6256,104.2676z"/>
		<path class="st3" d="M92.0754,112.0005l-39.4282,7.3925c-1.06,0.1987-2.0899-0.5059-2.2886-1.5659l0,0
			c-0.1987-1.06,0.5059-2.0899,1.5659-2.2886l39.4282-7.3925c1.06-0.1987,2.0899,0.5059,2.2886,1.5659v0
			C93.8401,110.7719,93.1354,111.8018,92.0754,112.0005z"/>
	</g>
	<path class="st18" d="M22.6393,138.1383c1.7359-0.5423,3.5795-0.5963,5.3934-0.7286c1.8138-0.1323,3.6701-0.3615,5.2793-1.2087
		c1.6092-0.8472,2.9394-2.4374,2.9987-4.2551c0.0593-1.8177-1.5087-3.6677-3.3196-3.5006
		c-1.2505,0.1154-2.2889,1.1114-2.7789,2.2677s-0.5213,2.452-0.4603,3.7064c0.0279,0.5739,0.0867,1.1832,0.4367,1.6388
		c0.4039,0.5258,1.0973,0.7226,1.7468,0.8559c5.1165,1.0495,10.6282,0.0214,15.0223-2.8019
		c1.2827-0.8242,3.2407-2.2799,2.7417-3.4687c-0.499-1.1888-3.4694-0.3188-5.0669,0.3733c-1.6885,0.7316-3.422,2.5828-2.5052,4.1784
		c0.729,1.2688,2.5605,1.2578,3.9754,0.8844c5.7321-1.5125,13.0886-11.218,11.4953-12.3353
		c-1.5934-1.1173-3.7531,2.351-4.1912,4.493c-0.438,2.142-0.9549,7.1668,0.4803,6.4915s6.6217-6.7844,7.7158-6.6614
		c1.094,0.123-0.6524,3.0206,0.703,2.845c1.3554-0.1756,3.6321-3.8972,4.6844-3.8594s0.2259,1.8628,1.0897,2.1736
		c0.8638,0.3107,1.8228,0.0872,2.6935-0.2038c2.4044-0.8034,4.6775-3.5233,6.5159-3.8156s2.0529,2.6867,3.4062,3.6769
		c1.3533,0.9902,3.0928,1.5844,4.7249,1.1994"/>
	<g>
		<defs>
			<path id="SVGID_3_" d="M40.605,121.9106l-22.0177,4.1282c-3.3121,0.621-6.53-1.5808-7.151-4.8929L7.3081,99.1282
				c-0.621-3.3121,1.5808-6.53,4.8929-7.151l22.0177-4.1282c3.3121-0.621,6.53,1.5808,7.151,4.8929l4.1282,22.0177
				C46.1189,118.0716,43.9171,121.2896,40.605,121.9106z"/>
		</defs>
		<clipPath id="SVGID_4_">
			<use xlink:href="#SVGID_3_"  style="overflow:visible;"/>
		</clipPath>
		<g class="st19">
			<path class="st2" d="M17.9324,104.1949c-0.842,0.1579-1.3966,0.9684-1.2387,1.8105l0,0c0.1579,0.842,0.9684,1.3966,1.8105,1.2388
				l1.4847-0.2784l-0.5717-3.0492L17.9324,104.1949z"/>
			<path class="st2" d="M33.632,104.4077c0.842-0.1579,1.3966-0.9684,1.2388-1.8105h0c-0.1579-0.842-0.9684-1.3966-1.8105-1.2388
				l-1.4847,0.2784l0.5717,3.0492L33.632,104.4077z"/>
			<path class="st3" d="M41.7971,130.6521L20.4742,134.65l-1.0213-5.4471c-1.104-5.8882,2.7743-11.5564,8.6625-12.6604h0
				c5.8882-1.104,11.5564,2.7743,12.6604,8.6625L41.7971,130.6521z"/>
			<path class="st2" d="M28.9621,121.0584L28.9621,121.0584c-1.5942,0.2989-3.1288-0.7511-3.4277-2.3453l-1.1522-6.1455
				l5.773-1.0824l1.1522,6.1455C31.6063,119.2249,30.5563,120.7596,28.9621,121.0584z"/>
			<path class="st4" d="M24.3821,112.5677l0.6937,3.7c0.9631,0.1538,1.9679,0.1481,2.9802-0.0417
				c1.0122-0.1898,1.9508-0.5485,2.7929-1.0407l-0.6937-3.7L24.3821,112.5677z"/>
			<path class="st2" d="M27.8465,115.1086L27.8465,115.1086c-4.1267,0.7737-8.0992-1.9444-8.8729-6.071l-1.453-7.7497
				c-0.7737-4.1267,1.9444-8.0992,6.071-8.8729h0c4.1266-0.7737,8.0992,1.9444,8.8729,6.071l1.453,7.7497
				C34.6913,110.3624,31.9732,114.3349,27.8465,115.1086z"/>
			<g>
				
					<ellipse transform="matrix(0.9829 -0.1843 0.1843 0.9829 -18.7849 5.8967)" class="st5" cx="22.332" cy="104.0107" rx="0.9237" ry="0.6394"/>
				
					<ellipse transform="matrix(0.9829 -0.1843 0.1843 0.9829 -18.442 7.098)" class="st5" cx="28.9663" cy="102.7668" rx="0.9237" ry="0.6394"/>
			</g>
			<path class="st6" d="M28.192,109.1545c0,0-0.9048,0.3617-1.3955,0.4537c-0.4907,0.092-1.4289,0.0759-1.4289,0.0759
				c-0.2828,0.053-0.4691,0.3253-0.4161,0.6081c0.053,0.2828,0.332,0.3904,0.6081,0.4161s0.8725,0.0285,1.3981-0.0701
				c0.5256-0.0986,1.2055-0.3358,1.4263-0.4595c0.2208-0.1237,0.4691-0.3253,0.4161-0.6081
				C28.7471,109.2878,28.4749,109.1015,28.192,109.1545z"/>
			<path class="st7" d="M23.3813,91.2932l-2.3851,0.4472c-1.0161,0.1905-1.6854,1.1687-1.4949,2.1848l0.0602,0.3209
				c0.689,3.6749,5.9143,1.4882,8.2449,1.6273c3.722-0.1217,4.6997,2.8335,4.6997,2.8335l1.3152,7.0145v0
				c0.631-0.9223,0.8699-2.0575,0.6639-3.1558l-1.5934-8.4983c-0.4559-2.4314-2.7965-4.033-5.228-3.5771L23.3813,91.2932z"/>
			<path class="st8" d="M23.3118,90.9222l-2.3851,0.4472c-1.0161,0.1905-1.6854,1.1687-1.4949,2.1848l0.0602,0.3209
				c0.689,3.6749,5.9143,1.4882,8.2449,1.6273c3.722-0.1217,4.6997,2.8335,4.6997,2.8335l1.3152,7.0145v0
				c0.631-0.9223,0.8699-2.0575,0.6639-3.1558l-1.5934-8.4984c-0.4559-2.4314-2.7965-4.033-5.228-3.5771L23.3118,90.9222z"/>
			<path class="st9" d="M20.6447,97.0035c0.3929,2.0954-0.9873,4.1125-3.0826,4.5053l0,0l1.3152,7.0145l0,0
				c-0.9223-0.631-1.5561-1.6026-1.762-2.701l-1.4801-7.8939c-0.4322-2.305,0.7614-4.5382,2.7723-5.5181
				c0.636-0.3099,1.3923,0.0861,1.5226,0.7814L20.6447,97.0035z"/>
			<g>
				<path class="st10" d="M22.7821,101.2879l-2.8044,0.7436c-0.177,0.0469-0.3585-0.0585-0.4055-0.2355
					c-0.0469-0.177,0.0586-0.3586,0.2355-0.4055l2.8044-0.7436c0.177-0.0469,0.3585,0.0585,0.4055,0.2355
					C23.0646,101.0594,22.9591,101.2409,22.7821,101.2879z"/>
			</g>
			<g>
				<path class="st10" d="M27.5623,100.3974l2.882-0.3341c0.1819-0.0211,0.3123-0.1856,0.2912-0.3676
					c-0.0211-0.1819-0.1857-0.3123-0.3676-0.2912l-2.882,0.3341c-0.1819,0.0211-0.3123,0.1856-0.2912,0.3675
					C27.2159,100.2881,27.3805,100.4185,27.5623,100.3974z"/>
			</g>
			<path class="st10" d="M20.6099,96.818c0.3929,2.0954-0.9873,4.1125-3.0826,4.5053l0,0l1.3152,7.0145l0,0
				c-0.9223-0.631-1.5561-1.6026-1.762-2.701l-1.4801-7.8939c-0.4322-2.305,0.7614-4.5382,2.7723-5.5181
				c0.636-0.3099,1.3923,0.0861,1.5226,0.7814L20.6099,96.818z"/>
			<path class="st11" d="M31.5494,117.3239l-0.2804,0.0526l0.0507,0.2703c0.2694,1.4371-0.677,2.8204-2.114,3.0898l-0.5407,0.1014
				c-1.437,0.2694-2.8203-0.6771-3.0897-2.1141l-0.0507-0.2703l-0.2804,0.0526l-0.3275,0.0614l0.0614,0.3275
				c0.3265,1.7412,2.0026,2.888,3.7437,2.5616l0.6551-0.1228c1.7411-0.3265,2.8879-2.0025,2.5615-3.7438l-0.0614-0.3275
				L31.5494,117.3239z"/>
			<path class="st12" d="M28.6042,133.1257l-8.1301,1.5243l-1.0213-5.4471c-0.9164-4.8878,1.6004-9.6241,5.8501-11.7238
				L28.6042,133.1257z"/>
			<polygon class="st13" points="25.3377,117.6646 22.4821,121.838 28.2644,132.6132 28.4832,132.5726 			"/>
			<g>
				<polygon class="st14" points="25.1638,116.7369 22.3082,120.9104 28.4651,132.3836 				"/>
			</g>
			<path class="st12" d="M33.6695,132.176l8.13-1.5243l-1.0213-5.4471c-0.9164-4.8878-4.978-8.3907-9.6997-8.8083L33.6695,132.176z"
				/>
			<polygon class="st13" points="31.1133,116.5817 35.2867,119.4373 33.8005,131.5752 33.582,131.6166 			"/>
			<g>
				<polygon class="st14" points="30.9393,115.6541 35.1128,118.5096 33.5303,131.4339 				"/>
			</g>
		</g>
	</g>
</g>
</svg>
