<?xml version="1.0" encoding="utf-8"?>
<!-- Generator: Adobe Illustrator 21.0.2, SVG Export Plug-In . SVG Version: 6.00 Build 0)  -->
<svg version="1.1" id="Ebene_1" xmlns="http://www.w3.org/2000/svg" xmlns:xlink="http://www.w3.org/1999/xlink" x="0px" y="0px"
	 viewBox="0 0 283.4646 283.4646" style="enable-background:new 0 0 283.4646 283.4646;" xml:space="preserve">
<style type="text/css">
	.st0{fill:#96BA75;}
	.st1{fill:#FFFFFF;}
	.st2{opacity:0.3;}
	.st3{fill:#858585;}
	.st4{fill:none;stroke:#FFFFFF;stroke-width:11.4688;stroke-linecap:square;stroke-miterlimit:10;}
	.st5{fill:#D7D6D6;enable-background:new    ;}
</style>
<g>
	<g>
		<path class="st0" d="M4302.8706,468.3547c-13.4102-1.987-26.6494-4.6901-39.3164-9.7909
			c-8.5439-3.4385-16.9053-7.2933-25.0176-11.7058c-0.6504,0-1.2998,0-1.9507,0c-1.9189,1.3293-4.0532,2.2424-6.1235,3.2692
			c-10.7056,5.3256-21.6284,10.0768-33.1445,13.2877c-7.9995,2.2313-16.1724,3.5384-24.3345,4.9093
			c-2.521,0.4246-5.0464,0.8242-7.5635,1.2655c-0.5942,0.1055-1.1646,0.3413-1.7456,0.5162c0,3.4163,0,6.8326,0,10.2489
			c0.3799,2.2202,0.2744,4.4736,0.3843,6.7104c0.4399,9.0222,0.8867,18.0389,1.4888,27.0528
			c0.6201,9.2775,2.7671,18.222,5.0508,27.1609c5.1079,19.9899,14.5977,37.643,27.2402,53.5894
			c5.5308,6.9741,12.1875,12.7826,18.8452,18.5911c5.6016,4.8844,11.6655,8.9917,18.1787,12.4413
			c0.644,0.3414,1.3115,0.6355,1.9678,0.9491c0.4067,0,0.813,0,1.2197,0c0.083-0.0833,0.1528-0.1998,0.2524-0.2442
			c9.293-4.0379,16.9624-10.4764,24.5884-17.0814c12.6357-10.9426,22.3032-24.2443,30.2749-38.9473
			c5.7349-10.5735,9.5288-21.913,12.4858-33.6022c2.8916-11.4339,4.1738-23.0482,4.6538-34.8095
			c0.312-7.6124,0.7939-15.2193,0.9756-22.8372c0.0122-0.4912,0.1094-0.9824,0.168-1.4709c0-2.5837,0-5.1674,0-7.7512
			C4308.6387,469.2705,4305.7539,468.7821,4302.8706,468.3547z"/>
	</g>
	<g>
		<path class="st1" d="M4214.0366,523.6116v22.4292h9.6128v-22.4292H4214.0366z M4233.2617,523.6116v22.4292h9.6128v-22.4292
			H4233.2617z M4207.6284,562.0617h60.8794v-9.6125h-60.8794V562.0617z M4252.4868,523.6116v22.4292h9.6123v-22.4292H4252.4868z
			 M4238.0679,494.7741l-30.4395,16.0209v6.4083h60.8794v-6.4083L4238.0679,494.7741z"/>
	</g>
</g>
<g>
	<g class="st2">
		<path class="st3" d="M4702.519,474.1935c-13.4204-1.9886-26.6694-4.6938-39.3472-9.7986
			c-8.5498-3.4412-16.918-7.2989-25.0366-11.715c-0.6509,0-1.3008,0-1.9521,0c-1.9209,1.3304-4.0566,2.2441-6.1284,3.2718
			c-10.7139,5.3298-21.6455,10.0846-33.1704,13.2981c-8.0054,2.233-16.1851,3.5411-24.353,4.9132
			c-2.5234,0.4249-5.0508,0.8249-7.5698,1.2665c-0.5942,0.1055-1.165,0.3416-1.7471,0.5166c0,3.4189,0,6.8379,0,10.2568
			c0.3804,2.2219,0.2749,4.4771,0.3848,6.7157c0.4404,9.0292,0.8872,18.0529,1.4902,27.0739
			c0.6206,9.2847,2.769,18.2362,5.0547,27.1821c5.1118,20.0054,14.6089,37.6723,27.2612,53.631
			c5.5352,6.9796,12.1968,12.7926,18.8599,18.6057c5.606,4.8882,11.6748,8.9987,18.1929,12.4509
			c0.6445,0.3416,1.3125,0.636,1.9692,0.9499c0.4072,0,0.814,0,1.2207,0c0.0835-0.0833,0.1528-0.2,0.2529-0.2444
			c9.2998-4.0411,16.9751-10.4846,24.6074-17.0947c12.6455-10.9512,22.3203-24.2631,30.2983-38.9776
			c5.7393-10.5818,9.5361-21.9302,12.4956-33.6285c2.894-11.4427,4.1768-23.066,4.6572-34.8365
			c0.3125-7.6183,0.7944-15.2311,0.9766-22.855c0.0122-0.4916,0.1094-0.9832,0.168-1.472c0-2.5857,0-5.1714,0-7.7572
			C4708.292,475.11,4705.4048,474.6212,4702.519,474.1935z"/>
	</g>
	<g>
		<line class="st4" x1="4608.7056" y1="513.2672" x2="4665.6128" y2="570.1747"/>
		<line class="st4" x1="4665.6128" y1="513.2672" x2="4608.7056" y2="570.1747"/>
	</g>
</g>
<path class="st5" d="M206.6714,73.6206c-13.3335-1.9762-26.4977-4.6637-39.0936-9.7354c-8.4952-3.4184-16.81-7.2514-24.8757-11.6392
	c-0.6473,0-1.2923,0-1.9396,0c-1.9083,1.3214-4.0306,2.2297-6.0888,3.2506c-10.6451,5.2953-21.5065,10.0195-32.9571,13.2126
	c-7.9546,2.2185-16.0814,3.5183-24.1971,4.8815c-2.5071,0.4221-5.0179,0.8195-7.5206,1.258
	c-0.5906,0.1051-1.1574,0.3393-1.736,0.5138c0,3.3968,0,6.7943,0,10.191c0.3781,2.2073,0.2729,4.4482,0.3818,6.6727
	c0.4377,8.971,0.8814,17.9368,1.4802,26.8996c0.6167,9.2253,2.7517,18.1187,5.0224,27.007
	c5.0791,19.8764,14.5154,37.4299,27.086,53.2861c5.4997,6.9344,12.1187,12.71,18.7384,18.4856
	c5.5698,4.8561,11.5997,8.9404,18.0762,12.3707c0.6406,0.3386,1.3043,0.6316,1.9568,0.9433c0.4049,0,0.8091,0,1.2133,0
	c0.0828-0.0828,0.1521-0.1991,0.2513-0.2431c9.2402-4.015,16.8659-10.4169,24.4491-16.9845
	c12.5639-10.8808,22.1769-24.1069,30.1039-38.7267c5.7018-10.5139,9.4744-21.7892,12.4147-33.4119
	c2.8755-11.3685,4.1507-22.9174,4.6279-34.6118c0.3102-7.5698,0.789-15.1336,0.9702-22.7079
	c0.0119-0.4884,0.1089-0.9769,0.1663-1.4631c0-2.569,0-5.138,0-7.707C212.4067,74.5318,209.5379,74.0456,206.6714,73.6206z
	 M174.0298,164.9562c2.2282,2.2215,2.2282,5.833,0,8.0545c-1.1141,1.1141-2.5705,1.6674-4.0269,1.6674s-2.9128-0.5533-4.0269-1.6674
	l-24.2441-24.2433l-24.2433,24.2433c-1.1104,1.1141-2.5705,1.6674-4.0269,1.6674s-2.9165-0.5533-4.0269-1.6674
	c-2.2245-2.2215-2.2245-5.833,0-8.0545l24.2433-24.2433l-24.2433-24.2433c-2.2245-2.2245-2.2245-5.8293,0-8.0545
	c2.2215-2.2282,5.833-2.2282,8.0545,0l24.2426,24.2433l24.2433-24.2433c2.2282-2.2282,5.8255-2.2282,8.0545,0
	c2.2282,2.2245,2.2282,5.8293,0,8.0545l-24.2433,24.2433L174.0298,164.9562z"/>
</svg>
