<?xml version="1.0" encoding="utf-8"?>
<!-- Generator: Adobe Illustrator 21.0.2, SVG Export Plug-In . SVG Version: 6.00 Build 0)  -->
<svg version="1.1" id="Ebene_1" xmlns="http://www.w3.org/2000/svg" xmlns:xlink="http://www.w3.org/1999/xlink" x="0px" y="0px"
	 viewBox="0 0 360 380" style="enable-background:new 0 0 360 380;" xml:space="preserve">
<style type="text/css">
	.st0{fill:none;stroke:#EFEFEF;stroke-width:3;stroke-linecap:round;stroke-linejoin:round;}
	.st1{fill:none;stroke:#EFEFEF;stroke-width:3;stroke-linecap:round;stroke-linejoin:round;stroke-dasharray:0,4.769,0,4.769;}
	
		.st2{fill:none;stroke:#EFEFEF;stroke-width:3;stroke-linecap:round;stroke-linejoin:round;stroke-dasharray:0,4.769,0,4.769,0,4.769;}
	
		.st3{fill:none;stroke:#EFEFEF;stroke-width:3;stroke-linecap:round;stroke-linejoin:round;stroke-miterlimit:10;stroke-dasharray:0,5,0,5,0,5;}
	.st4{fill:#F0F0F0;}
	.st5{fill:#D2D2D2;}
	.st6{clip-path:url(#SVGID_2_);fill:#9BA0AA;}
	.st7{fill:#953052;}
	.st8{fill:#E9ECF2;}
</style>
<title>img_onboarding</title>
<g>
	<g>
		<line class="st0" x1="180" y1="211.1" x2="180" y2="211.1"/>
		<line class="st1" x1="175.9" y1="208.7" x2="169.8" y2="205"/>
		<line class="st2" x1="167.7" y1="203.7" x2="71.6" y2="146.1"/>
		<line class="st0" x1="69.6" y1="144.8" x2="69.6" y2="144.8"/>
	</g>
</g>
<polyline class="st3" points="269.5,127.1 311,235.6 272,321.6 183,214.6 306,235.1 "/>
<polyline class="st3" points="181.2,212.2 38,247.6 63,343.6 273,326.6 "/>
<line class="st3" x1="65.5" y1="338.6" x2="178" y2="215.6"/>
<polyline class="st3" points="38,247.6 65.5,142.6 116,73.6 188.5,48.6 269.5,127.1 119,77.1 181.2,212.2 269.5,127.1 307.4,35.1 
	188.5,48.6 "/>
<g>
	<circle class="st4" cx="181.2" cy="212.2" r="69.8"/>
	<path class="st5" d="M246.1,212.2c0,7.7-1.7,14.9-3.8,21.9c0,0.1-61.1-21.9-61.1-21.9v-64.9C217.1,147.3,246.1,176.4,246.1,212.2z"
		/>
	<g>
		<defs>
			<circle id="SVGID_1_" cx="181.2" cy="212.2" r="52"/>
		</defs>
		<use xlink:href="#SVGID_1_"  style="overflow:visible;fill:#FFFFFF;"/>
		<clipPath id="SVGID_2_">
			<use xlink:href="#SVGID_1_"  style="overflow:visible;"/>
		</clipPath>
		<path class="st6" d="M207.2,229.9v3c0,3.3-2.7,5.9-5.9,5.9h-41.6c-3.3,0-5.9-2.7-5.9-5.9v-41.6c0-3.3,2.6-5.9,5.9-5.9h41.6
			c3.3,0,5.9,2.7,5.9,5.9v3h-26.7c-3.3,0-5.9,2.7-5.9,5.9V224c0,3.3,2.6,5.9,5.9,5.9H207.2z M180.4,224h29.7v-23.8h-29.7V224z
			 M192.3,216.5c-2.5,0-4.5-2-4.5-4.5s2-4.5,4.5-4.5c2.5,0,4.5,2,4.5,4.5S194.8,216.5,192.3,216.5z"/>
	</g>
</g>
<path class="st7" d="M153.7,247.1h-4.7v-9.4c0-12.9-10.5-23.4-23.4-23.4c-12.9,0-23.4,10.5-23.4,23.4v9.4h-4.7
	c-5.1,0-9.4,4.2-9.4,9.4v46.8c0,5.1,4.2,9.4,9.4,9.4h56.2c5.1,0,9.4-4.2,9.4-9.4v-46.8C163.1,251.3,158.9,247.1,153.7,247.1z
	 M125.6,289.2c-5.1,0-9.4-4.2-9.4-9.4c0-5.1,4.2-9.4,9.4-9.4c5.1,0,9.4,4.2,9.4,9.4C135,285,130.8,289.2,125.6,289.2z M140.2,247.1
	h-29v-9.4c0-8,6.5-14.5,14.5-14.5c8,0,14.5,6.5,14.5,14.5V247.1z"/>
<line class="st3" x1="66" y1="141.6" x2="1" y2="145.5"/>
<line class="st3" x1="38" y1="247.6" x2="0" y2="229.5"/>
<line class="st3" x1="63" y1="343.6" x2="-0.5" y2="367.1"/>
<line class="st3" x1="34.5" y1="252.6" x2="0" y2="311"/>
<polyline class="st3" points="359,298 272,322 359,374.5 "/>
<line class="st3" x1="315.5" y1="237.6" x2="359.5" y2="229.6"/>
<line class="st3" x1="279" y1="121.1" x2="360" y2="107.1"/>
<polyline class="st3" points="359,37.5 312,36.6 295,0.5 "/>
<line class="st3" x1="182" y1="43.6" x2="166" y2="0"/>
<line class="st3" x1="115" y1="73.6" x2="0.5" y2="0"/>
<line class="st3" x1="61" y1="139.6" x2="-0.5" y2="60.5"/>
<circle class="st8" cx="269" cy="123.6" r="24.2"/>
<circle class="st8" cx="186" cy="47.6" r="15.1"/>
<circle class="st8" cx="307.4" cy="35.1" r="8.6"/>
<circle class="st8" cx="38" cy="247.6" r="8.6"/>
<circle class="st8" cx="311" cy="235.6" r="8.6"/>
<circle class="st8" cx="115" cy="73.6" r="8.6"/>
<circle class="st8" cx="63" cy="343.6" r="13.3"/>
<circle class="st8" cx="66" cy="141.6" r="24.2"/>
<circle class="st8" cx="272" cy="321.6" r="15.1"/>
</svg>
