<?xml version="1.0" encoding="utf-8"?>
<!-- Generator: Adobe Illustrator 21.1.0, SVG Export Plug-In . SVG Version: 6.00 Build 0)  -->
<svg version="1.1" id="Ebene_1" xmlns="http://www.w3.org/2000/svg" xmlns:xlink="http://www.w3.org/1999/xlink" x="0px" y="0px"
	 viewBox="0 0 201.5 273.5" style="enable-background:new 0 0 201.5 273.5;" xml:space="preserve">
<style type="text/css">
	.st0{fill:none;stroke:#BFC1C8;stroke-miterlimit:10;}
	.st1{fill:none;stroke:#F0EFEF;stroke-width:3;stroke-miterlimit:10;}
	.st2{fill:#F0EFEF;}
	.st3{fill:none;stroke:#F0EFEF;stroke-width:6;stroke-miterlimit:10;}
	.st4{fill:none;stroke:#BBCD2B;stroke-width:3;stroke-miterlimit:10;}
	.st5{fill:#D2D2D2;}
	.st6{fill:#F0F0F0;}
	.st7{fill:#A2B6D2;}
	.st8{fill:#BBCD2B;}
	.st9{fill:#E8EBF1;}
	.st10{fill:#333333;}
	.st11{fill:#7D828C;}
	.st12{fill:#F7F7F7;}
	.st13{fill:none;stroke:#F7F7F7;stroke-miterlimit:10;}
	.st14{fill:none;stroke:#F7F7F7;stroke-width:0.5;stroke-miterlimit:10;}
	.st15{fill:#B7C1D3;}
	.st16{clip-path:url(#SVGID_4_);}
	.st17{fill:#C6A07E;}
	.st18{fill:#B89274;}
	.st19{fill:#5B4A42;}
	.st20{fill:#AE6045;}
	.st21{fill:#442A16;}
	.st22{fill:#7D5335;}
	.st23{fill:#4A321F;}
	.st24{opacity:0.05;}
	.st25{fill:#0C0B0D;}
	.st26{fill:#BFC1C8;}
	.st27{fill:#839BBF;}
	.st28{fill:#9BA0AA;}
	.st29{fill:#A9AAB2;}
	.st30{fill:#E3E3E3;}
	.st31{fill:#953253;}
	.st32{fill:none;stroke:#7D828C;stroke-width:0.3;stroke-miterlimit:10;}
	.st33{fill:#7E838C;}
	.st34{fill:#E76133;}
	.st35{fill:#FFFFFF;}
	.st36{clip-path:url(#SVGID_6_);}
	.st37{opacity:0.5;fill:#BBCD2B;}
</style>
<g>
	<path class="st0" d="M139.7718,72.5131c0-7.4706-6.0562-13.5263-13.5286-13.5263H59.4311c-7.4724,0-13.5287,6.0556-13.5287,13.5263
		v156.2651c0,7.473,6.0564,13.5286,13.5287,13.5286h66.8122c7.4724,0,13.5286-6.0556,13.5286-13.5286V72.5131z M93.3891,234.7612
		c-4.8811,0-8.8335-3.9548-8.8335-8.8366c0-4.8794,3.9523-8.8353,8.8335-8.8353c4.8794,0,8.8353,3.9559,8.8353,8.8353
		C102.2245,230.8064,98.2686,234.7612,93.3891,234.7612 M133.1453,210.2832H52.529V89.9071h80.6164V210.2832z"/>
	<line class="st1" x1="92.3436" y1="154.248" x2="74.4099" y2="246.2019"/>
	<line class="st1" x1="94.0872" y1="151.0117" x2="110" y2="25.2207"/>
	<line class="st1" x1="92.3436" y1="154.248" x2="130.3073" y2="231.2657"/>
	<line class="st1" x1="94.0872" y1="151.0117" x2="57.2873" y2="50.1247"/>
	<line class="st1" x1="79.7471" y1="152.9353" x2="26.5471" y2="153.2903"/>
	<circle class="st2" cx="93.3637" cy="153.8839" r="33.6785"/>
	<g>
		<g>
			<path class="st3" d="M119.323,208.7438"/>
			<path class="st3" d="M93.3509,154.2919"/>
			<line class="st1" x1="93.3509" y1="154.2919" x2="26.1426" y2="207.9601"/>
		</g>
		<g>
			<line class="st1" x1="93.3509" y1="154.2919" x2="149.1899" y2="67.8872"/>
			<line class="st4" x1="93.3509" y1="154.2919" x2="163.7532" y2="131.7844"/>
			<line class="st1" x1="93.3509" y1="154.2919" x2="143.7171" y2="179.972"/>
			<line class="st1" x1="93.3509" y1="154.2919" x2="45.5683" y2="113.4516"/>
			<path class="st3" d="M92.3436,154.248"/>
		</g>
	</g>
	<path class="st5" d="M124.6959,153.8842c0,17.3043-14.0279,31.3322-31.3322,31.3322s-31.3322-14.0279-31.3322-31.3322h31.3322
		V122.552C110.668,122.552,124.6959,136.5799,124.6959,153.8842z"/>
	<g>
		<defs>
			<circle id="SVGID_1_" cx="93.3637" cy="153.8838" r="25.0895"/>
		</defs>
		<use xlink:href="#SVGID_1_"  style="overflow:visible;fill:#FFFFFF;"/>
		<clipPath id="SVGID_2_">
			<use xlink:href="#SVGID_1_"  style="overflow:visible;"/>
		</clipPath>
	</g>
	<circle class="st6" cx="16.3006" cy="153.4591" r="15.3768"/>
	<circle class="st7" cx="45.9017" cy="113.4817" r="15.3768"/>
	<g>
		<circle class="st7" cx="147.964" cy="180.2774" r="15.3768"/>
	</g>
	<circle class="st8" cx="177.0312" cy="127.5372" r="22.5308"/>
	<circle class="st9" cx="149.1332" cy="69.7393" r="19.1656"/>
	<g>
		<circle class="st9" cx="55.5467" cy="58.01" r="24.3507"/>
		<path class="st10" d="M65.694,67.5988H45.3993c-2.2,0-4-1.8-4-4v-10.706c0-2.2,1.8-4,4-4H65.694c2.2,0,4,1.8,4,4v10.706
			C69.694,65.7988,67.894,67.5988,65.694,67.5988z"/>
		<path class="st11" d="M65.694,67.1272H45.3993c-2.2,0-4-1.8-4-4v-10.706c0-2.2,1.8-4,4-4H65.694c2.2,0,4,1.8,4,4v10.706
			C69.694,65.3272,67.894,67.1272,65.694,67.1272z"/>
		<path class="st12" d="M49.6304,60.6116H46.961c-2.2,0-4-1.8-4-4v-2.6695c0-2.2,1.8-4,4-4h2.6695c2.2,0,4,1.8,4,4v2.6695
			C53.6304,58.8116,51.8304,60.6116,49.6304,60.6116z"/>
		<circle class="st11" cx="48.2139" cy="53.312" r="2.6421"/>
		<circle class="st11" cx="48.2139" cy="60.3907" r="3.9651"/>
		<path class="st13" d="M49.5125,60.4937H46.961c-2.2,0-4-1.8-4-4v-2.5516c0-2.2,1.8-4,4-4h2.5516c2.2,0,4,1.8,4,4v2.5516
			C53.5125,58.6937,51.7125,60.4937,49.5125,60.4937z"/>
		<g>
			<path class="st6" d="M67.8815,55.6885H55.531c-0.332,0-0.6037-0.2717-0.6037-0.6037l0,0c0-0.332,0.2717-0.6037,0.6037-0.6037
				h12.3505c0.332,0,0.6037,0.2717,0.6037,0.6037l0,0C68.4852,55.4168,68.2135,55.6885,67.8815,55.6885z"/>
			<path class="st6" d="M67.8815,58.1108H55.531c-0.332,0-0.6037-0.2717-0.6037-0.6037v0c0-0.332,0.2717-0.6037,0.6037-0.6037
				h12.3505c0.332,0,0.6037,0.2717,0.6037,0.6037v0C68.4852,57.8391,68.2135,58.1108,67.8815,58.1108z"/>
			<path class="st6" d="M67.8815,60.533l-12.3505,0c-0.332,0-0.6037-0.2717-0.6037-0.6037v0c0-0.332,0.2717-0.6037,0.6037-0.6037
				h12.3505c0.332,0,0.6037,0.2717,0.6037,0.6037v0C68.4852,60.2614,68.2135,60.533,67.8815,60.533z"/>
		</g>
		<path class="st14" d="M45.387,64.5029c0.5561-0.0656,1.117,0.0227,1.6734,0.0855c0.5564,0.0629,1.1311,0.0988,1.6661-0.0662
			s1.0278-0.5708,1.1488-1.1175c0.1211-0.5467-0.2484-1.1954-0.8059-1.2476c-0.385-0.036-0.7557,0.2064-0.9696,0.5285
			c-0.2139,0.3221-0.2968,0.7124-0.3496,1.0954c-0.0241,0.1752-0.0409,0.363,0.0392,0.5207c0.0924,0.182,0.291,0.2809,0.48,0.3581
			c1.4887,0.6079,3.2149,0.6095,4.7048,0.0044c0.4349-0.1766,1.11-0.506,1.0265-0.8941c-0.0835-0.388-1.0318-0.2933-1.5544-0.1745
			c-0.5525,0.1256-1.182,0.5874-0.9951,1.1223c0.1486,0.4253,0.7034,0.5259,1.1528,0.4932c1.8204-0.1325,4.5971-2.652,4.1783-3.0805
			c-0.4188-0.4285-1.2691,0.4985-1.5232,1.1218c-0.2541,0.6233-0.6956,2.1145-0.223,1.9916
			c0.4726-0.1229,2.3887-1.6773,2.7128-1.578c0.3241,0.0993-0.3688,0.877,0.0513,0.9008c0.4201,0.0238,1.3202-0.9732,1.6365-0.9021
			c0.3163,0.0711-0.0373,0.5765,0.2064,0.7196c0.2438,0.143,0.5466,0.1298,0.8266,0.0912c0.7732-0.1067,1.6153-0.8008,2.1882-0.7849
			s0.4688,0.9295,0.8221,1.3059c0.3533,0.3764,0.846,0.6549,1.3617,0.631"/>
		<path class="st14" d="M45.387,64.5029c0.5561-0.0656,1.117,0.0227,1.6734,0.0855c0.5564,0.0629,1.1311,0.0988,1.6661-0.0662
			s1.0278-0.5708,1.1488-1.1175c0.1211-0.5467-0.2484-1.1954-0.8059-1.2476c-0.385-0.036-0.7557,0.2064-0.9696,0.5285
			c-0.2139,0.3221-0.2968,0.7124-0.3496,1.0954c-0.0241,0.1752-0.0409,0.363,0.0392,0.5207c0.0924,0.182,0.291,0.2809,0.48,0.3581
			c1.4887,0.6079,3.2149,0.6095,4.7048,0.0044c0.4349-0.1766,1.11-0.506,1.0265-0.8941c-0.0835-0.388-1.0318-0.2933-1.5544-0.1745
			c-0.5525,0.1256-1.182,0.5874-0.9951,1.1223c0.1486,0.4253,0.7034,0.5259,1.1528,0.4932c1.8204-0.1325,4.5971-2.652,4.1783-3.0805
			c-0.4188-0.4285-1.2691,0.4985-1.5232,1.1218c-0.2541,0.6233-0.6956,2.1145-0.223,1.9916
			c0.4726-0.1229,2.3887-1.6773,2.7128-1.578c0.3241,0.0993-0.3688,0.877,0.0513,0.9008c0.4201,0.0238,1.3202-0.9732,1.6365-0.9021
			c0.3163,0.0711-0.0373,0.5765,0.2064,0.7196c0.2438,0.143,0.5466,0.1298,0.8266,0.0912c0.7732-0.1067,1.6153-0.8008,2.1882-0.7849
			s0.4688,0.9295,0.8221,1.3059c0.3533,0.3764,0.846,0.6549,1.3617,0.631"/>
	</g>
	<circle class="st15" cx="139.7715" cy="246.9228" r="24.3507"/>
	<g>
		<defs>
			<circle id="SVGID_3_" cx="74.7941" cy="249.0022" r="16.4618"/>
		</defs>
		<use xlink:href="#SVGID_3_"  style="overflow:visible;fill:#F0F0F0;"/>
		<clipPath id="SVGID_4_">
			<use xlink:href="#SVGID_3_"  style="overflow:visible;"/>
		</clipPath>
		<g class="st16">
			<path class="st6" d="M83.8144,269.3636H66.0851v-4.5291c0-4.8958,3.9688-8.8646,8.8646-8.8646h0
				c4.8958,0,8.8646,3.9688,8.8646,8.8646V269.3636z"/>
			<path class="st17" d="M74.9497,259.7247L74.9497,259.7247c0,0-2.4-1.0745-2.4-2.4v-5.1098h4.8001v5.1098
				C77.3498,258.6502,74.9497,259.7247,74.9497,259.7247z"/>
			<path class="st18" d="M72.5497,253.7575v3.0764c0.7505,0.2686,1.5584,0.4154,2.4,0.4154s1.6496-0.1468,2.4-0.4154v-3.0764
				H72.5497z"/>
			<path class="st17" d="M68.63,246.0609c-0.7001,0-1.2677,0.5676-1.2677,1.2677l0,0c0,0.7001,0.5675,1.2677,1.2677,1.2677h1.2345
				v-2.5353H68.63z"/>
			<path class="st17" d="M81.2083,248.5962c0.7001,0,1.2676-0.5676,1.2676-1.2677l0,0c0-0.7001-0.5675-1.2677-1.2676-1.2677h-1.2345
				v2.5353H81.2083z"/>
			<path class="st17" d="M74.9497,256.3202c-3.3521,0-6.2127-4.2826-6.2127-6.2127v-6.4436c0-3.4312,2.7815-6.2127,6.2127-6.2127h0
				c3.4312,0,6.2127,2.7815,6.2127,6.2127v6.4436C81.1624,252.0188,78.3018,256.3202,74.9497,256.3202z"/>
			<g>
				<ellipse class="st19" cx="72.1916" cy="246.5755" rx="0.7549" ry="0.5226"/>
				<ellipse class="st19" cx="77.7078" cy="246.5755" rx="0.7549" ry="0.5226"/>
			</g>
			<path class="st20" d="M75.9273,251.8523c0,0-0.5082-0.159-0.8627-0.1351c-0.0479,0.0032-0.0801,0.1512-0.1208,0.1512
				c-0.0595,0-0.0837-0.1427-0.1558-0.1492c-0.342-0.0307-0.8277,0.1331-0.8277,0.1331c-0.2039,0.064-0.3567,0.1597-0.3567,0.3567
				c0,0.197,0.1741,0.3046,0.3567,0.3566c0.1825,0.0521,0.6174,0.1933,0.9835,0.1933c0.3661,0,0.8194-0.138,0.9835-0.1933
				c0.1641-0.0553,0.3567-0.1597,0.3567-0.3566C76.2839,252.0119,76.1297,251.9154,75.9273,251.8523z"/>
			<path class="st21" d="M72.6767,236.9124c-1.3112,0.3085-1.2399,1.0943-1.2399,1.0943c0,3.0555,2.6925,3.1735,4.5435,3.6362
				c3.008,0.4628,3.4708,6.2474,3.4708,6.2474l0.8484,6.1317c0,0,1.8715-6.172,1.8715-7.0852c0,0,0.9437-4.2911-1.3702-8.1475
				C78.487,234.9327,72.6767,236.9124,72.6767,236.9124z"/>
			<g>
				<path class="st22" d="M72.9076,244.6785l-2.3554-0.2716c-0.1486-0.0172-0.2553-0.1516-0.2381-0.3002
					c0.0171-0.1487,0.1516-0.2553,0.3002-0.2381l2.3554,0.2716c0.1486,0.0171,0.2553,0.1516,0.2381,0.3002
					C73.1907,244.589,73.0563,244.6956,72.9076,244.6785z"/>
			</g>
			<g>
				<path class="st22" d="M77.0004,244.7019l2.3493-0.3198c0.1483-0.0202,0.2521-0.1568,0.232-0.305
					c-0.0202-0.1483-0.1568-0.2521-0.305-0.2319l-2.3493,0.3198c-0.1483,0.0202-0.2521,0.1567-0.2319,0.305
					S76.8521,244.7221,77.0004,244.7019z"/>
			</g>
			<path class="st23" d="M71.4368,238.1095c0,0-0.9454,0.0626-1.6653,0.4997s-1.7874,0.9543-1.8768,2.9052
				c-0.0893,1.9508,0.8486,5.3566,0.8423,5.219c0,0,0.906-4.8526,1.6258-5.5532c0.7137-0.6946,1.4654-1.6968,1.4654-1.6968
				L71.4368,238.1095z"/>
			<g class="st24">
				<path class="st25" d="M72.2102,266.9811c-1.145,0-2.0868-0.6584-2.2018-1.5025c-0.0078,0.0572-0.0119,0.1152-0.0119,0.174
					c0,0.9259,0.9911,1.6765,2.2137,1.6765c1.2226,0,2.2137-0.7506,2.2137-1.6765c0-0.0588-0.0041-0.1169-0.0119-0.174
					C74.2971,266.3227,73.3552,266.9811,72.2102,266.9811z"/>
			</g>
			<g class="st24">
				<path class="st25" d="M77.6863,266.9811c-1.145,0-2.0868-0.6584-2.2018-1.5025c-0.0078,0.0572-0.0119,0.1152-0.0119,0.174
					c0,0.9259,0.9911,1.6765,2.2137,1.6765c1.2226,0,2.2137-0.7506,2.2137-1.6765c0-0.0588-0.0041-0.1169-0.0119-0.174
					C79.7731,266.3227,78.8313,266.9811,77.6863,266.9811z"/>
			</g>
			<path class="st17" d="M68.9489,269.3636h-2.8638v-4.5291c0-2.5892,1.11-4.9191,2.8802-6.5398L68.9489,269.3636z"/>
			<path class="st17" d="M80.969,269.3636h2.8637v-4.5291c0-2.5892-1.11-4.9191-2.8802-6.5398L80.969,269.3636z"/>
		</g>
	</g>
	<g>
		<path class="st26" d="M156.137,67.1008h-14.0895c-0.3375,0-0.6136,0.2761-0.6136,0.6136l0,0c0,0.3375,0.2761,0.6136,0.6136,0.6136
			h14.0895c0.3375,0,0.6136-0.2761,0.6136-0.6136l0,0C156.7506,67.3769,156.4745,67.1008,156.137,67.1008z"/>
		<g>
			<path class="st26" d="M146.4295,67.6181h-1.8063c-0.3402,0-0.6186-0.2784-0.6186-0.6186l0,0
				c0-0.3402,0.2784-0.6186,0.6186-0.6186h1.8063c0.3402,0,0.6186,0.2784,0.6186,0.6186l0,0
				C147.0481,67.3398,146.7697,67.6181,146.4295,67.6181z"/>
			<path class="st26" d="M153.568,67.6181h-1.8063c-0.3402,0-0.6186-0.2784-0.6186-0.6186l0,0c0-0.3402,0.2784-0.6186,0.6186-0.6186
				h1.8063c0.3402,0,0.6186,0.2784,0.6186,0.6186l0,0C154.1866,67.3398,153.9082,67.6181,153.568,67.6181z"/>
		</g>
		<path class="st11" d="M142.0487,76.5834L142.0487,76.5834c-0.6514,0-1.1843-0.5329-1.1843-1.1843v-2.0854
			c0-0.6514,0.5329-1.1843,1.1843-1.1843h0c0.6514,0,1.1843,0.5329,1.1843,1.1843v2.0854
			C143.233,76.0505,142.7001,76.5834,142.0487,76.5834z"/>
		<path class="st11" d="M156.2024,76.5834L156.2024,76.5834c-0.6514,0-1.1843-0.5329-1.1843-1.1843v-2.0854
			c0-0.6514,0.5329-1.1843,1.1843-1.1843l0,0c0.6514,0,1.1843,0.5329,1.1843,1.1843v2.0854
			C157.3867,76.0505,156.8538,76.5834,156.2024,76.5834z"/>
		<path class="st7" d="M158.2801,71.6275c0-1.8369-0.525-3.3687-1.2245-3.7348l-1.6733-4.0349
			c-0.1926-0.5583-0.7319-0.9627-1.3671-0.9627h-9.7995c-0.6356,0-1.175,0.4044-1.3675,0.9627l-1.6552,3.9834
			c-0.7891,0.1744-1.4093,1.7924-1.4093,3.7863c0,1.3829,0.2979,2.2328,0.7437,2.6654l16.8576-0.0031
			C157.9124,73.6813,158.2801,73.1605,158.2801,71.6275z M141.9794,67.8803l1.7804-4.333h10.64l1.8512,4.333H141.9794z"/>
		<path class="st27" d="M139.8334,72.5343c0.1022,0.8607,0.3555,1.43,0.6941,1.7586l16.8576-0.0031
			c0.3955-0.4564,0.7012-0.8635,0.8294-1.6852L139.8334,72.5343z"/>
		<path class="st11" d="M157.8966,67.8903h-0.8908c-0.3675,0-0.6681-0.3006-0.6681-0.6681l0,0c0-0.3675,0.3006-0.6681,0.6681-0.6681
			h0.8908c0.3674,0,0.6681,0.3006,0.6681,0.6681l0,0C158.5647,67.5897,158.264,67.8903,157.8966,67.8903z"/>
		<path class="st11" d="M141.2607,67.8903h-0.8908c-0.3674,0-0.6681-0.3006-0.6681-0.6681l0,0c0-0.3675,0.3006-0.6681,0.6681-0.6681
			h0.8908c0.3674,0,0.6681,0.3006,0.6681,0.6681l0,0C141.9288,67.5897,141.6281,67.8903,141.2607,67.8903z"/>
		<polygon class="st6" points="148.7005,67.8841 147.5375,67.8841 149.1211,63.5456 150.2841,63.5456 		"/>
		<polygon class="st6" points="146.325,67.8841 145.9538,67.8841 147.5375,63.5456 147.9086,63.5456 		"/>
		<polygon class="st6" points="146.7897,67.8872 146.6096,67.8841 148.1932,63.5456 148.3733,63.5487 		"/>
		<polygon class="st6" points="149.1899,67.8872 149.0098,67.8841 150.5934,63.5456 150.7735,63.5487 		"/>
		<path class="st26" d="M145.5954,72.5427c0.3689-0.5924,1.0024-1.5346,1.301-1.5346h4.454c0.2989,0,0.9336,0.9443,1.3023,1.5366"/>
		<path class="st28" d="M152.1444,73.8125h-6.0376c-0.4355,0-0.7918-0.3563-0.7918-0.7918c0,0,0.1182-0.2063,0.2931-0.4866
			l7.0351,0.0001c0.1749,0.2802,0.293,0.4865,0.293,0.4865C152.9362,73.4562,152.5799,73.8125,152.1444,73.8125z"/>
		<path class="st12" d="M143.5124,72.567h-1.9795c-0.4355,0-0.7918-0.2494-0.7918-0.5543v-0.4503
			c0-0.3048,0.3563-0.5543,0.7918-0.5543h1.9795c0.4355,0,0.7918,0.2494,0.7918,0.5543v0.4503
			C144.3042,72.3176,143.9479,72.567,143.5124,72.567z"/>
		<path class="st12" d="M156.5774,72.567h-1.9795c-0.4355,0-0.7918-0.2494-0.7918-0.5543v-0.4503
			c0-0.3048,0.3563-0.5543,0.7918-0.5543h1.9795c0.4355,0,0.7918,0.2494,0.7918,0.5543v0.4503
			C157.3692,72.3176,157.0129,72.567,156.5774,72.567z"/>
	</g>
	<g>
		<circle class="st9" cx="110" cy="25.2207" r="24.3507"/>
		<g>
			<path class="st29" d="M115.9732,14.0522h-11.2976h-2.8244h-1.4122c-1.5675,0-2.8103,1.271-2.8103,2.8244l-0.0141,19.7708
				c0,1.5534,1.2569,2.8244,2.8244,2.8244h19.7708c1.5534,0,2.8244-1.271,2.8244-2.8244V16.8766
				c0-1.5534-1.271-2.8244-2.8244-2.8244h-1.4122H115.9732z M120.2098,36.6473H100.439"/>
			<path class="st30" d="M115.3244,13.5115h-11.2976h-2.8244h-1.4122c-1.5675,0-2.8103,1.271-2.8103,2.8244l-0.0141,19.7708
				c0,1.5534,1.2569,2.8244,2.8244,2.8244h19.7708c1.5534,0,2.8244-1.271,2.8244-2.8244V16.3359
				c0-1.5534-1.271-2.8244-2.8244-2.8244h-1.4122H115.3244z M119.561,36.1067H99.7902V20.5725h19.7708V36.1067z"/>
			<path class="st31" d="M115.3243,13.511h-11.2978h-2.8242h-1.4126c-1.5672,0-2.8094,1.2717-2.8094,2.8252l-0.003,4.221h25.4079
				v-4.221c0-1.5535-1.2707-2.8252-2.8242-2.8252h-1.4126H115.3243z M99.7902,20.5725h19.7708"/>
			<rect x="101.9372" y="10.9697" class="st26" width="2.0174" height="5.5479"/>
			<rect x="114.8995" y="11.0172" class="st26" width="2.0174" height="5.5479"/>
			<g>
				<rect x="101.732" y="21.8418" class="st30" width="3.7597" height="3.7597"/>
				<rect x="105.8649" y="21.8418" class="st30" width="3.7597" height="3.7597"/>
				<rect x="109.9978" y="21.8418" class="st30" width="3.7597" height="3.7597"/>
				<rect x="114.1307" y="21.8418" class="st30" width="3.7597" height="3.7597"/>
			</g>
			<g>
				<rect x="101.732" y="25.9397" class="st30" width="3.7597" height="3.7597"/>
				<rect x="105.8649" y="25.9397" class="st30" width="3.7597" height="3.7597"/>
				<rect x="109.9978" y="25.9397" class="st30" width="3.7597" height="3.7597"/>
				<rect x="114.1307" y="25.9397" class="st30" width="3.7597" height="3.7597"/>
			</g>
			<g>
				<rect x="101.732" y="30.0376" class="st30" width="3.7597" height="3.7597"/>
				<rect x="105.8649" y="30.0376" class="st30" width="3.7597" height="3.7597"/>
				<rect x="109.9978" y="30.0376" class="st30" width="3.7597" height="3.7597"/>
				<rect x="114.1307" y="30.0376" class="st30" width="3.7597" height="3.7597"/>
			</g>
			<g>
				<line class="st32" x1="108.696" y1="26.8302" x2="106.7175" y2="28.8088"/>
				<line class="st32" x1="106.7175" y1="26.8302" x2="108.696" y2="28.8088"/>
			</g>
		</g>
	</g>
	<path class="st28" d="M106.7038,162.7154v1.4415c0,1.5856-1.2973,2.8829-2.8829,2.8829H83.6405c-1.6,0-2.8829-1.2973-2.8829-2.8829
		v-20.1804c0-1.5856,1.2829-2.8829,2.8829-2.8829h20.1804c1.5856,0,2.8829,1.2973,2.8829,2.8829v1.4415H93.7307
		c-1.6,0-2.8829,1.2973-2.8829,2.8829v11.5316c0,1.5856,1.2829,2.8829,2.8829,2.8829H106.7038z M93.7307,159.8325h14.4146v-11.5316
		H93.7307V159.8325z M99.4965,156.2289c-1.1964,0-2.1622-0.9658-2.1622-2.1622s0.9658-2.1622,2.1622-2.1622
		s2.1622,0.9658,2.1622,2.1622S100.6929,156.2289,99.4965,156.2289z"/>
	<rect x="129.3725" y="233.4085" class="st33" width="21.1985" height="27.0176"/>
	<rect x="128.9214" y="232.9265" class="st6" width="21.1985" height="27.0176"/>
	<g>
		<rect x="139.0186" y="234.8581" class="st34" width="1.0043" height="4.223"/>

			<rect x="139.0186" y="234.8581" transform="matrix(3.984819e-11 -1 1 3.984819e-11 -97.4489 376.4904)" class="st34" width="1.0043" height="4.223"/>
	</g>
	<rect x="131.7229" y="241.5463" class="st26" width="1.2337" height="1.2377"/>
	<rect x="131.7229" y="244.0045" class="st26" width="1.2337" height="1.2377"/>
	<rect x="131.7229" y="246.4955" class="st26" width="1.2337" height="1.2377"/>
	<rect x="133.5986" y="241.5463" class="st26" width="11.5226" height="1.2377"/>
	<rect x="133.5986" y="244.0174" class="st26" width="9.4157" height="1.2377"/>
	<rect x="133.5986" y="246.4885" class="st26" width="13.2463" height="1.2377"/>
	<rect x="133.5986" y="248.9596" class="st26" width="5.0867" height="1.2377"/>
	<rect x="133.5986" y="251.4306" class="st26" width="9.4399" height="1.2377"/>
	<rect x="133.5986" y="253.9017" class="st26" width="11.0591" height="1.2377"/>
	<rect x="131.7229" y="248.9719" class="st26" width="1.2337" height="1.2377"/>
	<rect x="131.7229" y="251.4463" class="st26" width="1.2337" height="1.2377"/>
	<rect x="131.7229" y="253.9104" class="st26" width="1.2337" height="1.2377"/>
	<g>
		<g>
			<path class="st35" d="M149.3583,181.8465h-2.7795c0.0312,0.9057,0.2589,1.5827,0.6832,2.0301
				c0.4242,0.4478,1.0318,0.6715,1.8231,0.6715c0.5725,0,1.106-0.0859,1.6005-0.2576l0.2186,1.5928
				c-0.6246,0.1508-1.2701,0.2262-1.9363,0.2262c-1.3325,0-2.3812-0.3746-3.1464-1.1244c-0.7651-0.7495-1.1685-1.7956-1.2102-3.1386
				h-1.3429v-1.1006h1.3429v-0.9995h-1.3429v-1.1009h1.3507c0.0676-1.3272,0.4918-2.3588,1.2726-3.0953s1.8295-1.1049,3.1464-1.1049
				c0.5517,0,1.1737,0.0815,1.866,0.2443l-0.2186,1.6137c-0.5309-0.1768-1.0593-0.2652-1.5849-0.2652
				c-0.786,0-1.3898,0.2223-1.8113,0.6672c-0.4216,0.4453-0.6558,1.0919-0.7027,1.9403h2.7716v1.1009h-2.7795v0.9995h2.7795
				V181.8465z"/>
		</g>
	</g>
	<g>
		<defs>
			<circle id="SVGID_5_" cx="16.3006" cy="153.4591" r="15.3768"/>
		</defs>
		<clipPath id="SVGID_6_">
			<use xlink:href="#SVGID_5_"  style="overflow:visible;"/>
		</clipPath>
		<g class="st36">
			<rect x="2.9519" y="143.4765" class="st5" width="19.8916" height="8.1293"/>
			<rect x="2.9519" y="137.7946" class="st5" width="19.8916" height="3.8708"/>
			<rect x="-1.3095" y="137.735" class="st5" width="2.8034" height="13.8708"/>
			<polygon class="st5" points="24.4748,149.448 24.4748,137.735 34.4333,137.735 			"/>
			<polygon class="st5" points="37.6566,137.735 42.683,137.735 42.683,151.6058 26.2928,151.6058 			"/>
			<rect x="12.7574" y="155.2725" class="st5" width="10.0861" height="13.8708"/>
			<rect x="-1.3518" y="155.2725" class="st5" width="4.7122" height="13.8708"/>
			<rect x="4.588" y="161.293" class="st37" width="6.9181" height="4.5856"/>
			<rect x="24.4748" y="155.2725" class="st5" width="7.421" height="13.8708"/>
			<rect x="4.5738" y="155.2725" class="st5" width="6.9508" height="4.6313"/>
			<rect x="4.5738" y="167.4251" class="st5" width="6.9508" height="1.7118"/>
			<rect x="33.3255" y="155.2725" class="st5" width="9.7489" height="8.6099"/>
			<rect x="33.3255" y="165.5272" class="st5" width="9.7489" height="3.7659"/>
			<rect x="-1.4216" y="152.9779" class="st5" width="24.2651" height="0.8406"/>
			<rect x="24.4748" y="152.9779" class="st5" width="18.536" height="0.8406"/>
		</g>
	</g>
	<path class="st27" d="M8.9292,139.8295c-1.0933,0-1.9795-0.8863-1.9795-1.9795c0-1.0933,0.8863-1.9795,1.9795-1.9795
		s1.9795,0.8863,1.9795,1.9795C10.9087,138.9432,10.0225,139.8295,8.9292,139.8295 M8.9292,132.3072
		c-3.0612,0-5.5427,2.4816-5.5427,5.5427c0,4.157,5.5427,10.2936,5.5427,10.2936s5.5427-6.1366,5.5427-10.2936
		C14.4719,134.7888,11.9904,132.3072,8.9292,132.3072z"/>
	<g>
		<circle class="st15" cx="23.6582" cy="208.227" r="15.3768"/>
		<path class="st35" d="M19.7606,207.4106c0.9709,1.9081,2.5352,3.4656,4.4433,4.4433l1.4833-1.4833
			c0.182-0.182,0.4517-0.2427,0.6877-0.1618c0.7552,0.2495,1.571,0.3843,2.407,0.3843c0.3708,0,0.6742,0.3034,0.6742,0.6742v2.3531
			c0,0.3708-0.3034,0.6743-0.6742,0.6743c-6.3311,0-11.4621-5.131-11.4621-11.4621c0-0.3708,0.3034-0.6742,0.6742-0.6742h2.3599
			c0.3708,0,0.6742,0.3034,0.6742,0.6742c0,0.8428,0.1348,1.6519,0.3843,2.407c0.0742,0.236,0.0202,0.4989-0.1686,0.6877
			L19.7606,207.4106z"/>
	</g>
	<g>
		<path class="st35" d="M50.9266,108.5122H40.7379c-0.7005,0-1.2672,0.5731-1.2672,1.2736l-0.0064,7.6416
			c0,0.7005,0.5731,1.2736,1.2736,1.2736h10.1888c0.7005,0,1.2736-0.5731,1.2736-1.2736v-7.6416
			C52.2002,109.0853,51.6271,108.5122,50.9266,108.5122z M50.9266,111.0594l-5.0944,3.184l-5.0944-3.184v-1.2736l5.0944,3.184
			l5.0944-3.184V111.0594z"/>
	</g>
	<path class="st14" d="M168.0504,126.448c0.556-0.0656,1.117,0.0227,1.6734,0.0855c0.5564,0.0629,1.1311,0.0988,1.6661-0.0662
		c0.535-0.1651,1.0278-0.5708,1.1488-1.1175c0.121-0.5467-0.2484-1.1954-0.8059-1.2476c-0.3849-0.036-0.7557,0.2064-0.9696,0.5285
		s-0.2969,0.7124-0.3496,1.0954c-0.0241,0.1752-0.0409,0.363,0.0392,0.5207c0.0924,0.182,0.291,0.2809,0.48,0.3581
		c1.4887,0.6079,3.2149,0.6095,4.7048,0.0044c0.4349-0.1766,1.11-0.506,1.0264-0.8941c-0.0835-0.388-1.0318-0.2933-1.5544-0.1745
		c-0.5525,0.1256-1.1821,0.5874-0.9951,1.1223c0.1486,0.4253,0.7034,0.5259,1.1528,0.4932c1.8203-0.1325,4.5971-2.652,4.1783-3.0805
		s-1.2691,0.4985-1.5232,1.1218c-0.2541,0.6233-0.6956,2.1145-0.2229,1.9916c0.4726-0.1229,2.3887-1.6773,2.7127-1.578
		c0.3241,0.0993-0.3688,0.877,0.0513,0.9008c0.4201,0.0238,1.3202-0.9732,1.6365-0.9021c0.3163,0.0711-0.0373,0.5765,0.2064,0.7196
		c0.2438,0.143,0.5466,0.1298,0.8266,0.0912c0.7732-0.1067,1.6153-0.8008,2.1882-0.7849s0.4688,0.9295,0.8221,1.3059
		c0.3533,0.3764,0.846,0.6549,1.3617,0.631"/>
	<line class="st14" x1="162.9972" y1="131.4179" x2="192.5584" y2="131.4179"/>
</g>
</svg>
