<svg id="Ebene_1" data-name="Ebene 1" xmlns="http://www.w3.org/2000/svg" viewBox="0 0 360 380"><defs><style>.cls-1{fill:#f0f0f0}.cls-2{fill:#7d828c}.cls-3{clip-path:url(#clip-path)}.cls-4{fill:#1a1a1a}.cls-5{fill:#fccc80}.cls-6{fill:#633c38}.cls-7{fill:#f9dcb2}.cls-8{fill:#f4d3ab}.cls-9{fill:#0e2c59}.cls-10{fill:#ef8671}.cls-11{fill:#333}.cls-12{fill:#4c142c}.cls-13{clip-path:url(#clip-path-2)}.cls-14{clip-path:url(#clip-path-3)}.cls-15{fill:#c3c6cc}.cls-16{fill:#575756}.cls-17{fill:#fff}.cls-18,.cls-19,.cls-29,.cls-39{fill:none}.cls-18,.cls-19{stroke:#fff}.cls-18,.cls-19,.cls-25,.cls-28,.cls-29,.cls-39{stroke-miterlimit:10}.cls-19{stroke-width:.5px}.cls-20{fill:#fafafa}.cls-21,.cls-25{fill:#b7c1d3}.cls-22{fill:#5a4a42}.cls-23{fill:#6d4326}.cls-24{fill:#7c5235}.cls-25{stroke:#a2b6d2}.cls-26,.cls-28{fill:#9eabc0}.cls-27{fill:#a2b6d2}.cls-28{stroke:#9eabc0;stroke-width:2px}.cls-28,.cls-39{stroke-linecap:round}.cls-29,.cls-39{stroke:#7d828c}.cls-30{fill:#e3e9f1}.cls-31,.cls-32,.cls-33,.cls-34{fill:#fce277}.cls-31{opacity:.66}.cls-32{opacity:.3}.cls-33{opacity:.15}.cls-35{fill:#ffea85}.cls-36{fill:#fff0b3}.cls-37{fill:#839bbf}.cls-38{fill:#ffe0b6}.cls-39{stroke-width:.2px}.cls-40{fill:#90a41a}.cls-41{fill:#aeba0f}.cls-42{fill:#b5ca11}</style><clipPath id="clip-path"><circle class="cls-1" cx="60.827" cy="179.893" r="30.25"/></clipPath><clipPath id="clip-path-2"><circle class="cls-1" cx="94.172" cy="248.477" r="20.546"/></clipPath><clipPath id="clip-path-3"><path class="cls-2" d="M94.41 261.95a11.735 11.735 0 0 1 11.734 11.735v5.995h-23.47v-5.995A11.735 11.735 0 0 1 94.41 261.95z"/></clipPath></defs><title>img_onboarding</title><circle class="cls-1" cx="60.827" cy="179.893" r="30.25"/><g class="cls-3"><path class="cls-4" d="M48.215 178.52l-1.583 12 .146 3.207s.354-2.541 4.145-3.833 20.75-.5 20.75-.5a5.842 5.842 0 0 1 1.292 4.458l4.458-7.208-6.916-9.333z"/><path class="cls-5" d="M48.86 177.41a2.47 2.47 0 0 0-2.471 2.47 2.47 2.47 0 0 0 2.47 2.471h2.406v-4.941H48.86zM73.374 182.351a2.47 2.47 0 0 0 2.47-2.47 2.47 2.47 0 0 0-2.47-2.47h-2.406v4.94h2.406z"/><path class="cls-6" d="M61.176 199.729a17.277 17.277 0 0 1 17.278 17.277v8.827H43.899v-8.827a17.277 17.277 0 0 1 17.277-17.277z"/><path class="cls-7" d="M56.499 192.41h9.355v9.96a4.678 4.678 0 0 1-4.678 4.678 4.678 4.678 0 0 1-4.677-4.678v-9.959z"/><path class="cls-8" d="M56.499 192.41v5.996a13.92 13.92 0 0 0 9.355 0v-5.995h-9.355z"/><rect class="cls-7" x="49.068" y="160.63" width="24.217" height="36.775" rx="12.108" ry="12.108"/><circle class="cls-9" cx="55.801" cy="178.265" r="1.471"/><circle class="cls-9" cx="66.552" cy="178.265" r="1.471"/><path class="cls-10" d="M63.465 188.186a16.684 16.684 0 0 1-2.318.3 15.417 15.417 0 0 1-2.26-.3.83.83 0 0 0-.83.83.952.952 0 0 0 .83.83 9.186 9.186 0 0 0 2.21.3 9.99 9.99 0 0 0 2.368-.3 1.007 1.007 0 0 0 .83-.83.83.83 0 0 0-.83-.83z"/><path d="M66.923 158.21h-3.25c-1.647 0-1.042 1.476-1.042 3.122v.52c0 5.956.52 3.926 4.128 4.828 5.863.902 6.526 5.815 6.526 5.815v11.368l-.32 9.99c1.258-1.26 5.5-4.054 5.5-5.834l-3.215-22.674a7.134 7.134 0 0 0-7.134-7.134h-1.193z"/><path class="cls-11" d="M66.923 157.836h-3.25c-1.647 0-1.042 1.475-1.042 3.121v.52c0 5.956.52 3.926 4.128 4.828 5.863.902 6.526 5.815 6.526 5.815v11.368l-.32 9.99c1.258-1.26 5.5-4.054 5.5-5.834L75.25 164.97a7.134 7.134 0 0 0-7.134-7.134h-1.193zM57.305 174.283l-4.609.34a.528.528 0 1 1-.078-1.053l4.609-.34a.528.528 0 0 1 .078 1.053z"/><path class="cls-11" d="M65.05 174.292l4.61.323a.528.528 0 1 0 .073-1.054l-4.61-.323a.528.528 0 0 0-.074 1.054z"/><path d="M62.73 165.69a1.353 1.353 0 0 1-.431.995c-6.664 6.276-7.267 5.8-11.375 6.417l-3.93 19.058-.216 1.567c-1.258-1.259-3.5-4.408-3.5-6.188l3.25-20.875c.863-4.314 3.497-7.032 6.956-7.96a14.867 14.867 0 0 1 8.37-.741.887.887 0 0 1 .776.77z"/><path class="cls-11" d="M62.73 165.399a1.353 1.353 0 0 1-.431.995c-6.664 6.275-7.267 5.799-11.375 6.417l-3.93 19.058-.216 1.567c-1.258-1.259-3.5-4.408-3.5-6.188l3.25-20.875c.863-4.314 3.497-7.032 6.956-7.96a14.867 14.867 0 0 1 8.37-.741.887.887 0 0 1 .776.77z"/><path class="cls-7" d="M50.715 225.833h-6.816v-8.827a17.26 17.26 0 0 1 7.618-14.326zM71.701 225.833h6.816v-8.827a17.26 17.26 0 0 0-7.618-14.326z"/><path class="cls-12" d="M68.486 211.33l-3.305 1.565.442-3.339 2.863 1.774z"/></g><circle class="cls-1" cx="94.172" cy="248.477" r="20.546"/><g class="cls-13"><path class="cls-2" d="M94.41 261.95a11.735 11.735 0 0 1 11.734 11.735v5.995h-23.47v-5.995A11.735 11.735 0 0 1 94.41 261.95z"/><g class="cls-14"><path class="cls-15" d="M82.134 264.436h25.438v1H82.134zM82.134 267.217h25.438v1H82.134zM82.134 269.998h25.438v1H82.134z"/></g><path class="cls-7" d="M86.043 246.79a1.678 1.678 0 0 0-1.678 1.679 1.678 1.678 0 0 0 1.678 1.678h1.635v-3.356h-1.635zM102.694 250.147a1.678 1.678 0 0 0 1.678-1.678 1.678 1.678 0 0 0-1.678-1.678h-1.634v3.356h1.634zM91.232 256.98h6.354v6.763a3.177 3.177 0 0 1-3.177 3.177 3.177 3.177 0 0 1-3.177-3.177v-6.764z"/><path class="cls-8" d="M91.232 256.98v4.071a9.454 9.454 0 0 0 6.354 0v-4.072h-6.354z"/><rect class="cls-7" x="86.185" y="235.394" width="16.448" height="24.978" rx="8.224" ry="8.224"/><circle class="cls-9" cx="90.758" cy="247.371" r=".999"/><circle class="cls-9" cx="98.06" cy="247.371" r=".999"/><path class="cls-10" d="M95.963 254.11a11.331 11.331 0 0 1-1.574.204 10.471 10.471 0 0 1-1.534-.204.564.564 0 0 0-.564.564.647.647 0 0 0 .564.563 6.239 6.239 0 0 0 1.5.205 6.785 6.785 0 0 0 1.608-.205.684.684 0 0 0 .564-.563.564.564 0 0 0-.564-.564z"/><path class="cls-16" d="M91.78 244.667l-3.13.231a.359.359 0 1 1-.053-.715l3.13-.232a.359.359 0 0 1 .053.716zM97.04 244.673l3.13.22a.359.359 0 1 0 .05-.716l-3.13-.22a.359.359 0 0 0-.05.716z"/><path class="cls-16" d="M87.384 238.56a14.17 14.17 0 0 0-1.406 5.5c-.013 1.143.247 3.856.247 3.856l.69-.168s.484-4.292.636-4.444a11.765 11.765 0 0 1 1.977-.989l1.262-2.348zM101.759 238.56a14.17 14.17 0 0 1 1.406 5.5c.013 1.143-.247 3.856-.247 3.856l-.69-.168s-.484-4.292-.636-4.444a11.765 11.765 0 0 0-1.976-.989l-1.263-2.348z"/></g><rect class="cls-11" x="90.713" y="64.04" width="60" height="39.667" rx="4" ry="4"/><rect class="cls-2" x="90.713" y="63.04" width="60" height="39.667" rx="4" ry="4"/><rect class="cls-17" x="94.025" y="66.265" width="22.625" height="22.625" rx="4" ry="4"/><circle class="cls-2" cx="105.164" cy="73.411" r="5.603"/><circle class="cls-2" cx="105.164" cy="88.421" r="8.408"/><rect class="cls-18" x="94.025" y="66.265" width="22.375" height="22.375" rx="4" ry="4"/><rect class="cls-17" x="119.4" y="66.168" width="28.75" height="4.5" rx="2.25" ry="2.25"/><rect class="cls-17" x="119.4" y="75.195" width="28.75" height="4.5" rx="2.25" ry="2.25"/><rect class="cls-17" x="119.4" y="84.223" width="28.75" height="4.5" rx="2.25" ry="2.25"/><path class="cls-19" d="M99.17 97.141a15.517 15.517 0 0 1 3.548.182 8.687 8.687 0 0 0 3.533-.14 3.453 3.453 0 0 0 2.436-2.37 2.193 2.193 0 0 0-1.71-2.646 2.332 2.332 0 0 0-2.055 1.12 5.5 5.5 0 0 0-.742 2.324 1.873 1.873 0 0 0 .083 1.104 1.844 1.844 0 0 0 1.018.76 13.382 13.382 0 0 0 9.977.009 3.439 3.439 0 0 0 2.177-1.896 4.291 4.291 0 0 0-3.297-.37c-1.171.266-2.506 1.245-2.11 2.38.316.902 1.492 1.115 2.445 1.045a10.557 10.557 0 0 0 8.86-6.532 3.552 3.552 0 0 0-3.23 2.379 10.416 10.416 0 0 0-.473 4.223q2.798-1.804 5.753-3.346l.108 1.91a8.935 8.935 0 0 0 3.47-1.913 1.103 1.103 0 0 0 .439 1.526 2.722 2.722 0 0 0 1.753.193 12.018 12.018 0 0 0 4.64-1.664 11.44 11.44 0 0 0 1.743 2.77 3.861 3.861 0 0 0 2.888 1.337"/><path class="cls-1" d="M178.746 279.858a57.467 57.467 0 0 1 57.467 57.467v29.361H121.28v-29.36a57.467 57.467 0 0 1 57.467-57.468z"/><path class="cls-7" d="M163.187 255.516h31.118v33.125a15.559 15.559 0 0 1-15.559 15.559 15.559 15.559 0 0 1-15.559-15.559v-33.125z"/><path class="cls-8" d="M163.187 265.516v19.944a46.298 46.298 0 0 0 31.118 0v-19.944h-31.118z"/><path class="cls-20" d="M195.864 287.28h-1.511v1.457a14.025 14.025 0 0 1-14.025 14.025h-2.914a14.025 14.025 0 0 1-14.025-14.025v-1.457h-3.276v1.765a16.993 16.993 0 0 0 16.992 16.994h3.531a16.993 16.993 0 0 0 16.993-16.994v-1.765h-1.765z"/><path class="cls-21" d="M165.101 366.686H121.28v-29.36a57.492 57.492 0 0 1 41.908-55.337z"/><path class="cls-7" d="M137.777 215.621a8.218 8.218 0 0 0-8.218 8.218 8.218 8.218 0 0 0 8.218 8.218h8.003V215.62h-8.003zM219.319 232.057a8.218 8.218 0 0 0 8.218-8.218 8.218 8.218 0 0 0-8.218-8.218h-8.003v16.436h8.003z"/><path class="cls-7" d="M178.746 282.13c-21.73 0-40.275-27.763-40.275-40.275v-41.773a40.275 40.275 0 0 1 40.275-40.275 40.275 40.275 0 0 1 40.275 40.275v41.772c0 12.39-18.544 40.276-40.275 40.276z"/><ellipse class="cls-22" cx="160.866" cy="218.958" rx="4.894" ry="3.388"/><ellipse class="cls-22" cx="196.626" cy="218.958" rx="4.894" ry="3.388"/><path class="cls-10" d="M186.358 251.463a55.493 55.493 0 0 1-7.71 1 51.281 51.281 0 0 1-7.514-1 2.76 2.76 0 0 0-2.76 2.76c0 1.525 1.347 2.357 2.76 2.76a30.554 30.554 0 0 0 7.348 1 33.226 33.226 0 0 0 7.876-1c1.27-.428 2.76-1.236 2.76-2.76a2.76 2.76 0 0 0-2.76-2.76z"/><path class="cls-23" d="M178.746 151.76H165.89a9.917 9.917 0 0 0-9.917 9.917v1.73c0 19.808 29.343 13.523 41.343 16.523 19.5 3 21.706 19.343 21.706 19.343v37.81a22.323 22.323 0 0 0 6.538-15.784V175.49a23.73 23.73 0 0 0-23.73-23.73h-23.084z"/><path class="cls-24" d="M165.868 205.219l-15.329 1.134a1.757 1.757 0 1 1-.259-3.504l15.329-1.134a1.757 1.757 0 0 1 .26 3.504zM191.629 205.25l15.333 1.073a1.757 1.757 0 1 0 .245-3.504l-15.333-1.075a1.757 1.757 0 0 0-.245 3.505z"/><path class="cls-21" d="M192.404 366.686h43.822v-29.36a57.492 57.492 0 0 0-41.908-55.337z"/><path class="cls-25" d="M162.741 281.987l1.914 84.697"/><path class="cls-26" d="M138.459 286.334a49.588 49.588 0 0 1 24.786-6.479c0 .057.309 17.32.309 17.32a131.552 131.552 0 0 0-25.095-10.841z"/><path class="cls-27" d="M163.554 297.174l.45 19.885s-12.474-20.67-19.989-25.329l-2.292 1.606-3.264-7.003a57.416 57.416 0 0 1 25.095 10.841z"/><circle class="cls-26" cx="160.349" cy="304.48" r="1.583"/><path class="cls-28" d="M160.37 305.043s-.998 26.499-1.167 29.125"/><path class="cls-25" d="M194.911 282.041l-1.915 84.697"/><path class="cls-26" d="M219.192 286.388a49.588 49.588 0 0 0-24.786-6.478c0 .057-.308 17.319-.308 17.319a131.552 131.552 0 0 1 25.094-10.84z"/><path class="cls-27" d="M194.098 297.229l-.45 19.885s12.473-20.671 19.988-25.33l2.293 1.606 3.263-7.002a57.416 57.416 0 0 0-25.094 10.841z"/><circle class="cls-26" cx="197.303" cy="304.535" r="1.583"/><path class="cls-28" d="M197.282 305.098s.997 26.498 1.167 29.124"/><circle class="cls-23" cx="172.14" cy="155.921" r="13.125"/><circle class="cls-24" cx="148.316" cy="162.662" r="13.125"/><circle class="cls-24" cx="137.941" cy="169.324" r="9.113"/><circle class="cls-24" cx="136.895" cy="179.825" r="9.113"/><circle class="cls-24" cx="153.209" cy="178.48" r="9.113"/><circle class="cls-24" cx="145.12" cy="185.82" r="13.041"/><circle class="cls-24" cx="139.239" cy="199.179" r="6.691"/><circle class="cls-24" cx="138.921" cy="207.241" r="4.557" transform="rotate(-39.168 138.921 207.241)"/><circle class="cls-24" cx="138.765" cy="213.73" r="3.655" transform="rotate(-39.168 138.765 213.73)"/><circle class="cls-23" cx="189.225" cy="158.692" r="9.29"/><circle class="cls-23" cx="203.092" cy="158.112" r="11.498"/><circle class="cls-23" cx="216.067" cy="166.771" r="11.498"/><circle class="cls-23" cx="214.996" cy="181.823" r="15.619"/><circle class="cls-23" cx="228.085" cy="194.422" r="9.473"/><circle class="cls-23" cx="191.699" cy="172.351" r="15.629"/><circle class="cls-23" cx="222.97" cy="203.178" r="12.961"/><circle class="cls-23" cx="221.365" cy="216.139" r="5.954"/><path class="cls-29" d="M137.366 229.332l.005 4.023"/><path class="cls-15" d="M255.494 232.497h47.726v33.261h-47.726z"/><path class="cls-30" d="M255.494 231.548h47.265v33.261h-47.265z"/><path class="cls-31" d="M255.494 251.641h47.265v2.79h-47.265z"/><path class="cls-31" d="M255.494 250.109h47.265v2.79h-47.265z"/><path class="cls-32" d="M255.494 248.488h47.265v4.036h-47.265z"/><path class="cls-33" d="M255.494 246.136h47.265v4.036h-47.265z"/><circle class="cls-34" cx="275.706" cy="250.679" r="5.256"/><circle class="cls-35" cx="275.706" cy="250.679" r="4.307"/><circle class="cls-36" cx="275.706" cy="250.679" r="3.392"/><path class="cls-37" d="M255.494 253.102s6.73-.312 10.559-.148c2.067.089 7.749-.254 9.718-.254s8.225.145 9.319.145 4.686.109 7.166.109 4.595-.2 6.127-.274 4.376.165 4.376.165v8.535h-47.265v-8.278z"/><path class="cls-27" d="M302.759 254.923s-8.899-.171-10.94-.5-7.074.446-9.044.446-8.17-.329-9.265-.329-4.666.22-7.146.22-4.523-.201-6.055-.274a41.45 41.45 0 0 0-4.815.328v10.477h47.265v-10.368z"/><path class="cls-26" d="M290.653 258.063s-8.75-.666-9.689-.697c-.991-.033-12.396 1.114-13.281 1.114s-3.36-.402-3.852-.402-2.513.238-3.629.238a16.78 16.78 0 0 1-2.693-.527 5.606 5.606 0 0 0-2.014.554v4.735l30.344-1.817z"/><path class="cls-21" d="M302.759 258.096s-6.13-.207-7.593-.239c-1.544-.033-19.309 1.114-20.689 1.114s-5.233-.402-6-.402-3.914.238-5.652.238a39.318 39.318 0 0 1-4.194-.526 12.614 12.614 0 0 0-3.137.553v4.735l47.265-1.817v-3.657z"/><ellipse class="cls-17" cx="287.472" cy="235.911" rx="5.828" ry=".298"/><ellipse class="cls-17" cx="292.827" cy="235.674" rx="4.391" ry=".794"/><path class="cls-17" d="M298.287 235.842c.502.16.312.378-.423.487a6.036 6.036 0 0 1-2.24-.091c-.501-.16-.312-.378.423-.488a6.036 6.036 0 0 1 2.24.092z"/><ellipse class="cls-17" cx="268.907" cy="236.064" rx="1.942" ry=".495"/><ellipse class="cls-17" cx="272.098" cy="235.985" rx="2.831" ry=".722"/><path class="cls-38" d="M302.759 261.752s-26.975-.18-28.355-.18-9.71-.27-11.448-.27-7.462.078-7.462.078v3.91h47.265v-3.539z"/><path class="cls-39" d="M262.935 238.858s.442-.793.842-.393c.105-.526 1.01-.28 1.01-.28M261.184 240.335s.277-.496.527-.246c.066-.329.632-.175.632-.175"/><path class="cls-15" d="M282.359 214.029h47.557v33.261h-47.557z"/><path class="cls-27" d="M282.359 213.445h47.265v33.261h-47.265z"/><path class="cls-40" d="M282.359 231.096l14.004-10.503 9.919 13.42 6.127-7.585 7.294 7.877 4.668-6.71 5.253 4.668v14.443h-47.265v-15.61z"/><path class="cls-15" d="M282.359 230.614l14.004-10.503 9.919 13.42 6.127-7.585 7.294 7.877 4.668-6.71 5.253 4.668v5.187h-47.265v-6.354z"/><path class="cls-17" d="M310.107 228.796l2.302-2.85 3.272 3.534-1.593-.936-1.478.559-1.093-.833-1.41.526zM300.646 225.906l-4.283-5.795-6.183 4.637 2.956-.526 1.532 1.149 1.86-.875 1.969 1.422.383-.875 1.766.863zM322.079 230.407l2.292-3.294 2.898 2.575-1.31-.324-1.101.658-.869-.931-1.91 1.316z"/><path class="cls-41" d="M282.359 238.501s8.899-2.261 10.94-2.59 7.368 2.188 9.337 2.188 7.878-2.553 8.972-2.553 4.887 2.261 7.367 2.261 4.011-2.407 5.543-2.48 5.106 1.642 5.106 1.642v9.81h-47.265V238.5z"/><path class="cls-42" d="M329.625 243.46s-6.235-2.089-7.666-2.393-19.382 2.022-20.762 2.022-5.16-1.31-5.926-1.31-3.784 1.04-5.522 1.04-3.252-1.26-4.325-1.328a12.614 12.614 0 0 0-3.137.553v4.736h47.338v-3.32z"/><circle class="cls-17" cx="285.568" cy="218.405" r="1.751"/><circle class="cls-17" cx="287.348" cy="219.222" r="1.456"/><circle class="cls-17" cx="288.451" cy="218.278" r="1.478"/><circle class="cls-17" cx="289.37" cy="219.178" r="1.478"/><circle class="cls-17" cx="318.184" cy="220.108" r="1.909"/><circle class="cls-17" cx="321.321" cy="219.803" r="2.784"/><circle class="cls-17" cx="323.749" cy="221.241" r="1.612" transform="rotate(-34.313 323.75 221.24)"/><circle class="cls-17" cx="310.436" cy="219.849" r="1.264"/><circle class="cls-17" cx="312.513" cy="219.647" r="1.843"/><circle class="cls-17" cx="314.121" cy="220.599" r="1.067" transform="rotate(-34.313 314.121 220.599)"/><path class="cls-40" transform="rotate(-45 227.351 85.394)" d="M222.853 80.815h8.996v9.157h-8.996z"/><rect class="cls-42" x="210.686" y="44.936" width="52.696" height="40.986" rx="4" ry="4"/><path class="cls-40" d="M262.361 84.88a3.503 3.503 0 0 1-2.491 1.042H214.2a3.502 3.502 0 0 1-2.482-1.031"/><rect class="cls-17" x="216.102" y="51.669" width="19.102" height="3.952" rx="1.976" ry="1.976"/><rect class="cls-17" x="216.102" y="57.146" width="39.961" height="3.952" rx="1.976" ry="1.976"/><rect class="cls-17" x="216.102" y="62.623" width="25.909" height="3.952" rx="1.976" ry="1.976"/><rect class="cls-17" x="216.102" y="68.1" width="39.961" height="3.952" rx="1.976" ry="1.976"/><rect class="cls-17" x="216.102" y="73.576" width="31.179" height="3.952" rx="1.976" ry="1.976"/><path class="cls-37" transform="rotate(-135 277.75 136.333)" d="M273.252 131.755h8.996v9.157h-8.996z"/><rect class="cls-27" x="241.719" y="95.876" width="52.696" height="40.986" rx="4" ry="4" transform="rotate(-180 268.067 116.369)"/><path class="cls-37" d="M242.74 135.82a3.503 3.503 0 0 0 2.492 1.042h45.67a3.502 3.502 0 0 0 2.48-1.032"/><rect class="cls-17" x="269.896" y="102.609" width="19.102" height="3.952" rx="1.976" ry="1.976" transform="rotate(180 279.448 104.585)"/><rect class="cls-17" x="249.037" y="108.086" width="39.961" height="3.952" rx="1.976" ry="1.976" transform="rotate(-180 269.018 110.062)"/><rect class="cls-17" x="263.09" y="113.563" width="25.909" height="3.952" rx="1.976" ry="1.976"/><rect class="cls-17" x="249.037" y="119.039" width="39.961" height="3.952" rx="1.976" ry="1.976"/><rect class="cls-17" x="257.82" y="124.516" width="31.179" height="3.952" rx="1.976" ry="1.976"/></svg>