<?xml version="1.0" encoding="utf-8"?>
<!-- Generator: Adobe Illustrator 21.0.2, SVG Export Plug-In . SVG Version: 6.00 Build 0)  -->
<svg version="1.1" id="Ebene_1" xmlns="http://www.w3.org/2000/svg" xmlns:xlink="http://www.w3.org/1999/xlink" x="0px" y="0px"
	 viewBox="0 0 283.4646 283.4646" style="enable-background:new 0 0 283.4646 283.4646;" xml:space="preserve">
<style type="text/css">
	.st0{fill:#333333;}
	.st1{fill:#858585;}
	.st2{fill:#F7F7F7;stroke:#F7F7F7;stroke-width:2.0421;stroke-miterlimit:10;}
	.st3{fill:#F0F0F0;}
	.st4{fill:none;stroke:#F7F7F7;stroke-width:1.0211;stroke-miterlimit:10;}
	.st5{clip-path:url(#SVGID_2_);}
	.st6{fill:#F9DCB2;}
	.st7{fill:#F4D3AB;}
	.st8{fill:#5A4A42;}
	.st9{fill:#EF8671;}
	.st10{fill:#492B16;}
	.st11{fill:#6D4326;}
	.st12{fill:#492F1D;}
	.st13{fill:#7C5235;}
	.st14{fill:#FAFAFA;}
	.st15{fill:#82A567;}
	.st16{fill:#50633B;}
	.st17{fill:#69844D;}
	.st18{fill:#D2D2D2;}
	.st19{fill:#BFAC67;}
	.st20{fill:#DFC156;}
	.st21{fill:#A29876;}
	.st22{fill:#FED546;}
	.st23{fill:#C1C1C1;}
	.st24{fill:#FDBC38;}
	.st25{fill:#FDB131;}
	.st26{fill:#FDA72C;}
</style>
<g>
	<g>
		<g>
			<path class="st0" d="M182.4838,157.641L78.9511,181.2533c-4.3802,0.999-8.7814-1.7675-9.7804-6.1477l-14.3793-63.0487
				c-0.999-4.3802,1.7675-8.7814,6.1477-9.7804l103.5327-23.6123c4.3802-0.999,8.7814,1.7675,9.7804,6.1477l14.3793,63.0488
				C189.6305,152.2408,186.8641,156.642,182.4838,157.641z"/>
			<path class="st1" d="M182.0298,155.65L78.4971,179.2623c-4.3802,0.999-8.7814-1.7675-9.7804-6.1477l-14.3793-63.0487
				c-0.999-4.3802,1.7675-8.7814,6.1477-9.7804l103.5327-23.6123c4.3802-0.999,8.7814,1.7675,9.7804,6.1477l14.3793,63.0488
				C189.1765,150.2498,186.41,154.651,182.0298,155.65z"/>
			<path class="st2" d="M107.3239,143.2244l-28.6208,6.5274c-4.3802,0.999-8.7814-1.7675-9.7804-6.1477l-6.5274-28.6208
				c-0.999-4.3802,1.7675-8.7814,6.1477-9.7804l28.6208-6.5274c4.3802-0.999,8.7814,1.7675,9.7804,6.1477l6.5274,28.6208
				C114.4706,137.8242,111.7041,142.2254,107.3239,143.2244z"/>
			<g>
				<path class="st3" d="M171.3268,107.2845l-52.144,11.8923c-1.4019,0.3197-2.8104-0.5657-3.1301-1.9675l0,0
					c-0.3197-1.4019,0.5657-2.8104,1.9675-3.1301l52.144-11.8923c1.4019-0.3197,2.8104,0.5657,3.1301,1.9675v0
					C173.6141,105.5562,172.7287,106.9648,171.3268,107.2845z"/>
				<path class="st3" d="M173.6592,117.5113l-52.144,11.8923c-1.4019,0.3197-2.8104-0.5657-3.1301-1.9675v0
					c-0.3197-1.4019,0.5657-2.8104,1.9675-3.1301l52.144-11.8923c1.4019-0.3197,2.8104,0.5657,3.1301,1.9675v0
					C175.9465,115.783,175.0611,117.1916,173.6592,117.5113z"/>
				<path class="st3" d="M175.9916,127.7381l-52.144,11.8923c-1.4019,0.3197-2.8104-0.5657-3.1301-1.9675v0
					c-0.3197-1.4019,0.5657-2.8104,1.9675-3.1301l52.144-11.8923c1.4019-0.3197,2.8104,0.5657,3.1301,1.9675l0,0
					C178.2789,126.0099,177.3935,127.4184,175.9916,127.7381z"/>
			</g>
			<path class="st4" d="M84.842,166.1587c2.2845-0.8125,4.7378-0.9799,7.1474-1.2502s4.8706-0.6718,6.9706-1.8839
				s3.7897-3.3996,3.7744-5.8242c-0.0153-2.4246-2.2-4.808-4.6039-4.4915c-1.66,0.2185-2.9918,1.5992-3.5846,3.1651
				c-0.5928,1.5658-0.5673,3.2937-0.4211,4.9616c0.0669,0.7631,0.1768,1.5718,0.6668,2.1607
				c0.5654,0.6795,1.4993,0.9058,2.3715,1.0496c6.8707,1.1329,14.1602-0.5223,19.8679-4.5115
				c1.6662-1.1645,4.1991-3.2053,3.4728-4.7631c-0.7263-1.5579-4.6386-0.2449-6.7309,0.76
				c-2.2116,1.0622-4.425,3.6183-3.1209,5.6965c1.037,1.6525,3.4763,1.5429,5.3419,0.9722
				c7.558-2.3122,16.8555-15.6233,14.6749-17.0292c-2.1807-1.4059-4.8782,3.3267-5.3507,6.2029s-0.9007,9.5973,0.9764,8.6232
				c1.877-0.9741,8.47-9.3816,9.9338-9.2745c1.4639,0.1071-0.7126,4.0579,1.0841,3.7537c1.7966-0.3042,4.6368-5.3802,6.0406-5.3844
				c1.4038-0.0042,0.3975,2.47,1.5644,2.8392c1.1669,0.3692,2.4329,0.0216,3.5777-0.4111c3.1616-1.1949,6.0488-4.9362,8.4829-5.4209
				c2.4341-0.4847,2.8741,3.4728,4.7284,4.7219s4.2024,1.9504,6.3568,1.353"/>
			<g>
				<defs>
					<path id="SVGID_1_" d="M107.9352,143.6086l-29.1186,6.641c-4.3802,0.999-8.7814-1.7675-9.7804-6.1477l-6.641-29.1186
						c-0.999-4.3802,1.7675-8.7814,6.1477-9.7804l29.1186-6.641c4.3802-0.999,8.7814,1.7675,9.7804,6.1477l6.641,29.1186
						C115.0819,138.2085,112.3154,142.6096,107.9352,143.6086z"/>
				</defs>
				<clipPath id="SVGID_2_">
					<use xlink:href="#SVGID_1_"  style="overflow:visible;"/>
				</clipPath>
				<g class="st5">
					<path class="st6" d="M76.8118,121.1825c-1.1136,0.254-1.8104,1.3626-1.5564,2.4761v0c0.254,1.1136,1.3625,1.8104,2.4761,1.5564
						l1.9636-0.4478l-0.9197-4.0326L76.8118,121.1825z"/>
					<path class="st6" d="M97.7383,120.6523c1.1136-0.254,1.8104-1.3626,1.5564-2.4761v0c-0.254-1.1136-1.3625-1.8104-2.4761-1.5565
						l-1.9636,0.4478l0.9197,4.0326L97.7383,120.6523z"/>
					<path class="st3" d="M109.9764,155.1924l-28.1997,6.4314l-1.643-7.2039c-1.776-7.7871,3.097-15.5396,10.8841-17.3155h0
						c7.7871-1.776,15.5396,3.097,17.3155,10.8841L109.9764,155.1924z"/>
					<path class="st6" d="M92.38,143.0769L92.38,143.0769c-2.1083,0.4808-4.2072-0.8385-4.6881-2.9468l-1.8536-8.1274l7.6349-1.7413
						l1.8536,8.1274C95.8077,140.4971,94.4883,142.596,92.38,143.0769z"/>
					<path class="st7" d="M85.8384,132.0026l1.116,4.8932c1.2911,0.155,2.6294,0.0953,3.9681-0.21
						c1.3387-0.3053,2.5705-0.8318,3.6667-1.5313l-1.116-4.8932L85.8384,132.0026z"/>
					<path class="st6" d="M90.5855,135.2082L90.5855,135.2082c-5.4575,1.2447-10.8907-2.1705-12.1354-7.628l-2.3374-10.249
						c-1.2447-5.4575,2.1705-10.8907,7.628-12.1354l0,0c5.4575-1.2447,10.8907,2.1705,12.1354,7.628l2.3374,10.249
						C99.4582,128.5303,96.043,133.9635,90.5855,135.2082z"/>
					<g>
						
							<ellipse transform="matrix(0.975 -0.2224 0.2224 0.975 -24.771 21.4027)" class="st8" cx="82.6636" cy="120.7091" rx="1.2315" ry="0.8525"/>
						
							<ellipse transform="matrix(0.975 -0.2224 0.2224 0.975 -24.1064 23.3035)" class="st8" cx="91.4375" cy="118.7081" rx="1.2315" ry="0.8525"/>
					</g>
					<path class="st9" d="M90.7371,127.2581c0,0-1.1867,0.5287-1.8356,0.6768c-0.649,0.148-1.8997,0.1751-1.8997,0.1751
						c-0.3741,0.0853-0.6081,0.4577-0.5228,0.8318c0.0853,0.374,0.4626,0.5029,0.8318,0.5228s1.1638-0.0073,1.859-0.1659
						c0.6952-0.1585,1.5886-0.5098,1.8763-0.686c0.2877-0.1762,0.6081-0.4577,0.5228-0.8317
						C91.4835,127.4068,91.1112,127.1728,90.7371,127.2581z"/>
					<path class="st10" d="M83.4023,103.7122l-3.1544,0.7194c-1.3438,0.3065-2.1848,1.6443-1.8783,2.9882l0.0968,0.4244
						c1.1084,4.86,7.9563,1.676,11.0684,1.7406c4.9523-0.3551,6.4079,3.5313,6.4079,3.5313l2.1157,9.2768l0,0
						c0.7929-1.2614,1.0522-2.7861,0.7209-4.2387l-2.5633-11.2391c-0.7334-3.2156-3.9346-5.2278-7.1502-4.4945L83.4023,103.7122z"/>
					<path class="st11" d="M83.2904,103.2215l-3.1544,0.7194c-1.3438,0.3065-2.1848,1.6443-1.8783,2.9882l0.0968,0.4244
						c1.1084,4.86,7.9563,1.676,11.0684,1.7406c4.9523-0.3551,6.4079,3.5313,6.4079,3.5313l2.1157,9.2768v0
						c0.7929-1.2614,1.0522-2.7861,0.7209-4.2387l-2.5633-11.2391c-0.7334-3.2156-3.9346-5.2278-7.1502-4.4945L83.2904,103.2215z"/>
					<path class="st12" d="M80.0525,111.4615c0.632,2.7711-1.1021,5.5299-3.8732,6.1619l0,0l2.1157,9.2768l0,0
						c-1.2614-0.7929-2.1561-2.0544-2.4874-3.507l-2.3809-10.4397c-0.6952-3.0484,0.7791-6.0854,3.4072-7.495
						c0.8312-0.4458,1.8593,0.0425,2.069,0.9621L80.0525,111.4615z"/>
					<g>
						<path class="st13" d="M83.1221,117.0583l-3.6975,1.1359c-0.2333,0.0717-0.4807-0.0594-0.5524-0.2928
							c-0.0717-0.2334,0.0594-0.4807,0.2928-0.5524l3.6975-1.1359c0.2333-0.0717,0.4807,0.0594,0.5524,0.2927
							C83.4865,116.7393,83.3554,116.9867,83.1221,117.0583z"/>
					</g>
					<g>
						<path class="st13" d="M89.4443,115.6243l3.8221-0.5944c0.2412-0.0375,0.4064-0.2635,0.3689-0.5048
							c-0.0375-0.2413-0.2635-0.4064-0.5048-0.3689l-3.8221,0.5944c-0.2412,0.0375-0.4064,0.2635-0.3689,0.5047
							C88.977,115.4967,89.2031,115.6618,89.4443,115.6243z"/>
					</g>
					<path class="st13" d="M79.9965,111.2161c0.632,2.7711-1.1021,5.5299-3.8732,6.1619l0,0l2.1157,9.2768l0,0
						c-1.2614-0.7929-2.1561-2.0544-2.4874-3.507l-2.381-10.4397c-0.6952-3.0484,0.7791-6.0854,3.4072-7.495
						c0.8312-0.4458,1.8593,0.0425,2.069,0.9621L79.9965,111.2161z"/>
					<path class="st14" d="M95.6333,137.9675l-0.3708,0.0846l0.0815,0.3575c0.4334,1.9005-0.7558,3.7925-2.6562,4.2259
						l-0.7151,0.1631c-1.9004,0.4334-3.7924-0.7558-4.2258-2.6564l-0.0815-0.3575l-0.3708,0.0846l-0.4331,0.0988l0.0988,0.4331
						c0.5252,2.3028,2.8176,3.7437,5.1202,3.2186l0.8663-0.1976c2.3026-0.5251,3.7436-2.8175,3.2184-5.1203l-0.0988-0.4331
						L95.6333,137.9675z"/>
					<path class="st15" d="M92.5288,159.1717l-10.752,2.4522l-1.643-7.2039c-1.4743-6.4642,1.6332-12.9044,7.1859-15.922
						L92.5288,159.1717z"/>
					<polygon class="st16" points="87.3756,138.7433 83.7877,144.4513 92.0495,158.5065 92.3388,158.4411 					"/>
					<g>
						<polygon class="st17" points="87.0959,137.5165 83.5079,143.2246 92.3049,158.1902 						"/>
					</g>
					<path class="st15" d="M99.2276,157.6439l10.752-2.4522l-1.643-7.2039c-1.4743-6.4642-7.0668-10.9203-13.3788-11.2319
						L99.2276,157.6439z"/>
					<polygon class="st16" points="95.0138,137.0013 100.7218,140.5892 99.3711,156.8367 99.082,156.9033 					"/>
					<g>
						<polygon class="st17" points="94.734,135.7745 100.4421,139.3625 99.0038,156.6625 						"/>
					</g>
				</g>
			</g>
		</g>
		<g>
			<path class="st6" d="M157.4417,53.819c-3.2225-0.3097-6.0858,2.0516-6.3954,5.274l0,0c-0.3097,3.2225,2.0515,6.0858,5.274,6.3955
				l5.6822,0.5461l1.1214-11.6695L157.4417,53.819z"/>
			<path class="st6" d="M214.2158,71.0523c3.2225,0.3097,6.0858-2.0516,6.3954-5.274l0,0c0.3097-3.2225-2.0515-6.0858-5.274-6.3955
				l-5.6822-0.5461l-1.1214,11.6695L214.2158,71.0523z"/>
			<path class="st3" d="M216.3426,174.8929l-81.6042-7.8421l2.0033-20.8465c2.1655-22.5343,22.1888-39.0465,44.7231-36.881l0.0001,0
				c22.5343,2.1655,39.0465,22.1887,36.881,44.7231L216.3426,174.8929z"/>
			<path class="st6" d="M179.804,126.6062L179.804,126.6062c-6.101-0.5863-10.5716-6.0074-9.9853-12.1084l2.2602-23.5191
				l22.0937,2.1232l-2.2602,23.5191C191.3262,122.722,185.905,127.1926,179.804,126.6062z"/>
			<path class="st7" d="M172.0789,90.9787l-1.3608,14.16c3.3354,1.5682,6.9892,2.6011,10.8632,2.9734
				c3.8739,0.3723,7.6575,0.0541,11.2306-0.8502l1.3608-14.16L172.0789,90.9787z"/>
			<path class="st6" d="M181.9923,103.8359L181.9923,103.8359c-15.793-1.5177-27.3654-15.5507-25.8477-31.3437l2.8502-29.6585
				c1.5177-15.7929,15.5507-27.3653,31.3437-25.8476l0.0001,0c15.7929,1.5177,27.3653,15.5507,25.8476,31.3437l-2.8502,29.6585
				C211.8182,93.7812,197.7852,105.3536,181.9923,103.8359z"/>
			<g>
				
					<ellipse transform="matrix(0.0957 -0.9954 0.9954 0.0957 99.5021 225.0492)" class="st8" cx="173.6076" cy="57.7633" rx="2.4163" ry="3.4904"/>
				
					<ellipse transform="matrix(0.0957 -0.9954 0.9954 0.0957 120.0345 252.5293)" class="st8" cx="198.9975" cy="60.2033" rx="2.4163" ry="3.4904"/>
			</g>
			<path class="st9" d="M189.4892,82.5819c0,0-3.6641,0.3644-5.5421,0.184c-1.878-0.1805-5.2671-1.2227-5.2671-1.2227
				c-1.0825-0.104-2.0443,0.6891-2.1483,1.7716c-0.104,1.0824,0.7961,1.7656,1.7716,2.1483s3.1377,1.0181,5.1494,1.2114
				c2.0117,0.1933,4.7286,0.0448,5.6598-0.1727c0.9312-0.2175,2.0443-0.6892,2.1483-1.7716
				C191.3648,83.6477,190.5717,82.6859,189.4892,82.5819z"/>
			<path class="st10" d="M190.751,12.693l-9.1281-0.8772c-3.8888-0.3737-7.3443,2.4758-7.718,6.3647l-0.118,1.228
				c-1.3515,14.064,19.9114,11.6036,28.2268,14.5524c13.6404,3.4605,14.0912,15.2146,14.0912,15.2146l-2.5798,26.8451v0
				c3.2579-2.6867,5.3152-6.5575,5.7191-10.761l3.1255-32.5237c0.8942-9.3053-5.9243-17.5736-15.2296-18.4679L190.751,12.693z"/>
			<path class="st11" d="M190.8875,11.273l-9.1281-0.8772c-3.8888-0.3737-7.3443,2.4758-7.718,6.3647l-0.118,1.228
				c-1.3515,14.064,19.9114,11.6036,28.2268,14.5524c13.6404,3.4605,14.0912,15.2146,14.0912,15.2146l-2.5798,26.8451v0
				c3.2579-2.6867,5.3152-6.5575,5.7191-10.761l3.1255-32.5237c0.8942-9.3053-5.9243-17.5736-15.2296-18.4679L190.8875,11.273z"/>
			<path class="st12" d="M174.8287,30.5549c-0.7706,8.0191-7.8961,13.8951-15.9152,13.1245l0,0l-2.5798,26.8451l0,0
				c-2.6866-3.2579-3.9691-7.4497-3.5651-11.6532l2.9032-30.2104c0.8477-8.8213,7.5225-15.6776,15.8502-17.1267
				c2.6338-0.4583,4.9643,1.7723,4.7086,4.4334L174.8287,30.5549z"/>
			<g>
				<path class="st13" d="M178.0965,48.35l-10.9608-0.2409c-0.6917-0.0152-1.2404-0.5883-1.2252-1.2802
					c0.0152-0.6919,0.5885-1.2403,1.2802-1.2251l10.9608,0.2409c0.6917,0.0152,1.2403,0.5883,1.2251,1.2802
					C179.3615,47.8168,178.7882,48.3652,178.0965,48.35z"/>
			</g>
			<g>
				<path class="st13" d="M196.3846,50.1292l10.8133,1.8089c0.6824,0.1142,1.3284-0.3465,1.4425-1.0291
					c0.1142-0.6826-0.3467-1.3284-1.0291-1.4425l-10.8132-1.8089c-0.6824-0.1141-1.3283,0.3465-1.4425,1.0291
					S195.7023,50.0151,196.3846,50.1292z"/>
			</g>
			<path class="st13" d="M174.8969,29.8449c-0.7706,8.0191-7.8961,13.8951-15.9152,13.1245l0,0l-2.5798,26.8451l0,0
				c-2.6866-3.2579-3.9691-7.4497-3.5651-11.6532l2.9032-30.2104c0.8477-8.8213,7.5225-15.6776,15.8501-17.1267
				c2.6339-0.4583,4.9644,1.7723,4.7086,4.4334L174.8969,29.8449z"/>
			<path class="st14" d="M193.1126,115.7606l-1.0731-0.1031l-0.0994,1.0344c-0.5285,5.4998-5.4151,9.5295-10.9145,9.001
				l-2.0693-0.1989c-5.4994-0.5285-9.5291-5.4151-9.0006-10.9148l0.0994-1.0345l-1.0731-0.1031l-1.2533-0.1204l-0.1205,1.2533
				c-0.6404,6.6637,4.2422,12.5846,10.9056,13.2249l2.507,0.2409c6.6634,0.6404,12.5842-4.2423,13.2246-10.906l0.1204-1.2533
				L193.1126,115.7606z"/>
			<path class="st15" d="M165.8526,170.0408l-31.1142-2.9901l2.0033-20.8465c1.7976-18.706,15.9007-33.2622,33.5307-36.4295
				L165.8526,170.0408z"/>
			<polygon class="st16" points="170.2042,110.4848 155.4613,122.6425 165.1563,167.824 165.993,167.9061 			"/>
			<g>
				<polygon class="st17" points="170.5454,106.9347 155.8025,119.0925 166.1255,167.2008 				"/>
			</g>
			<path class="st15" d="M185.2376,171.9037l31.1142,2.9901l2.0033-20.8465c1.7976-18.706-9.2752-35.6816-25.9794-42.1484
				L185.2376,171.9037z"/>
			<polygon class="st16" points="192.3075,112.6089 204.4653,127.3517 186.3434,169.86 185.5064,169.7813 			"/>
			<g>
				<polygon class="st17" points="192.6487,109.0588 204.8064,123.8017 185.5106,169.0637 				"/>
			</g>
		</g>
		<circle class="st3" cx="152.036" cy="195.2673" r="68.6265"/>
		<path class="st18" d="M215.8814,195.2678c0,35.2608-28.5845,63.8454-63.8454,63.8454s-63.8454-28.5845-63.8454-63.8454h63.8454
			v-63.8454C187.2969,131.4225,215.8814,160.007,215.8814,195.2678z"/>
		<path class="st18" d="M207.3277,163.3452c17.6304,30.5368,7.1677,69.584-23.369,87.2144s-69.584,7.1678-87.2144-23.369
			l55.2917-31.9227l-31.9227-55.2917C150.6501,122.3457,189.6973,132.8084,207.3277,163.3452z"/>
		<path class="st18" d="M184.2311,140.0078c30.5368,17.6304,40.9994,56.6776,23.369,87.2144s-56.6776,40.9994-87.2144,23.369
			l31.9227-55.2917l-55.2917-31.9227C114.6471,132.84,153.6943,122.3774,184.2311,140.0078z"/>
		<path class="st18" d="M152.0534,131.4105c35.2608,0,63.8453,28.5846,63.8453,63.8454c0,35.2608-28.5846,63.8454-63.8454,63.8453
			l0-63.8454l-63.8454,0C88.2081,159.995,116.7926,131.4104,152.0534,131.4105z"/>
		<g>
			<defs>
				<circle id="SVGID_3_" cx="152.036" cy="195.267" r="51.1246"/>
			</defs>
			<use xlink:href="#SVGID_3_"  style="overflow:visible;fill:#FFFFFF;"/>
			<clipPath id="SVGID_4_">
				<use xlink:href="#SVGID_3_"  style="overflow:visible;"/>
			</clipPath>
		</g>
		<path class="st1" d="M175.6908,209.8129v2.5973c0,2.857-2.3375,5.1945-5.1945,5.1945h-36.3618
			c-2.857,0-5.1945-2.3375-5.1945-5.1945v-36.3618c0-2.857,2.3375-5.1945,5.1945-5.1945h36.3618
			c2.857,0,5.1945,2.3375,5.1945,5.1945v2.5973h-23.3754c-2.857,0-5.1945,2.3376-5.1945,5.1945v20.7782
			c0,2.857,2.3375,5.1945,5.1945,5.1945 M152.3154,204.6183h25.9727v-20.7782h-25.9727 M162.7045,198.1251
			c-2.0778,0-3.8959-1.8181-3.8959-3.8959s1.8181-3.8959,3.8959-3.8959s3.8959,1.8181,3.8959,3.8959
			S164.7823,198.1251,162.7045,198.1251z"/>
	</g>
	<path class="st0" d="M198.0776,139.1784c-1.0126-0.8316-1.1572-2.3325-0.3255-3.3451l0,0
		c0.8316-1.0215,2.3325-1.1574,3.3449-0.3258l0,0c1.0126,0.8316,1.1572,2.3325,0.3255,3.3451l0,0
		c-0.4701,0.5694-1.1481,0.8678-1.8352,0.8678l0,0C199.0538,139.7205,198.5205,139.5395,198.0776,139.1784z"/>
	<path class="st0" d="M190.3299,133.6094c-1.112-0.6869-1.4556-2.1603-0.7595-3.2727l0,0c0.6961-1.1124,2.1608-1.4558,3.2727-0.7592
		l0,0c1.121,0.6957,1.4554,2.1603,0.7592,3.2727l0,0c-0.452,0.7231-1.2203,1.1203-2.016,1.1203l0,0
		C191.1525,133.9705,190.7186,133.8531,190.3299,133.6094z"/>
	<path class="st19" d="M149.0066,273.1017c-1.3199-0.045-2.3415-1.1477-2.2963-2.4587l0,0c0.0453-1.311,1.1481-2.3413,2.459-2.2963
		l0,0c1.3108,0.045,2.3325,1.1477,2.2963,2.4587l0,0c-0.0452,1.2837-1.1029,2.2963-2.3777,2.2963l0,0
		C149.0609,273.1017,149.0337,273.1017,149.0066,273.1017z"/>
	<path class="st19" d="M156.5642,270.643c-0.1265-1.3022,0.8228-2.4684,2.1336-2.5947l0,0c1.3018-0.1263,2.468,0.8316,2.5945,2.1339
		l0,0c0.1267,1.3101-0.8226,2.4675-2.1334,2.5938l0,0c-0.0724,0.0097-0.1536,0.0186-0.226,0.0186l0,0
		C157.7213,272.7945,156.6818,271.8719,156.5642,270.643z"/>
	<path class="st20" d="M138.8905,272.0891c-1.2929-0.2172-2.1608-1.4461-1.9529-2.7395l0,0c0.217-1.2925,1.4465-2.1691,2.7393-1.952
		l0,0c1.2927,0.2163,2.1696,1.4373,1.9526,2.7386l0,0c-0.1989,1.1574-1.2022,1.9802-2.3413,1.9802l0,0
		C139.1525,272.1165,139.026,272.1077,138.8905,272.0891z"/>
	<path class="st19" d="M166.3278,269.3594c-0.2984-1.2837,0.5063-2.5585,1.7809-2.8569l0,0
		c1.2748-0.2984,2.5585,0.497,2.8569,1.7807l0,0c0.2891,1.2748-0.5063,2.5585-1.7811,2.8569l0,0
		c-0.1808,0.0362-0.3615,0.0538-0.5332,0.0538l0,0C167.5664,271.1939,166.5809,270.4532,166.3278,269.3594z"/>
	<path class="st20" d="M129.0002,269.7478c-1.2475-0.3796-1.9617-1.7083-1.573-2.9655l0,0
		c0.3889-1.2563,1.7087-1.9617,2.9653-1.5724l0,0c1.2567,0.3796,1.9617,1.7083,1.5821,2.9646l0,0
		c-0.3163,1.0215-1.2565,1.6818-2.2782,1.6818l0,0C129.4703,269.8564,129.2352,269.8202,129.0002,269.7478z"/>
	<path class="st21" d="M175.8473,266.8097c-0.4611-1.2298,0.1627-2.6035,1.3923-3.0644l0,0
		c1.2294-0.452,2.6035,0.1624,3.0555,1.3923l0,0c0.4611,1.2386-0.1536,2.6035-1.3923,3.0644l0,0
		c-0.271,0.0998-0.5513,0.1536-0.8316,0.1536l0,0C177.1128,268.3556,176.1998,267.7588,175.8473,266.8097z"/>
	<path class="st22" d="M119.5078,266.1502c-1.1932-0.5429-1.7266-1.9529-1.1841-3.1465l0,0
		c0.5423-1.2024,1.9526-1.7268,3.1551-1.1839v0.0088c1.1932,0.5421,1.7176,1.9529,1.1751,3.1456l0,0
		c-0.3977,0.8775-1.2656,1.3922-2.1696,1.3922l0,0C120.1587,266.3665,119.8243,266.2941,119.5078,266.1502z"/>
	<path class="st21" d="M184.96,263.0488c-0.6239-1.1662-0.181-2.6035,0.9762-3.218l0,0c1.1662-0.6154,2.6037-0.1721,3.2184,0.9853
		l0,0c0.6147,1.1574,0.1717,2.5947-0.9855,3.218l0,0c-0.3525,0.181-0.7321,0.2719-1.1119,0.2719l0,0
		C186.2075,264.3059,185.3849,263.8539,184.96,263.0488z"/>
	<path class="st22" d="M110.558,261.3581c-1.121-0.6957-1.4646-2.1692-0.7685-3.2815l0,0c0.6961-1.1115,2.1608-1.4549,3.2727-0.7592
		l0,0c1.121,0.6966,1.4554,2.1603,0.7683,3.2727l0,0c-0.452,0.7231-1.2294,1.1212-2.025,1.1212l0,0
		C111.3805,261.7113,110.9466,261.5938,110.558,261.3581z"/>
	<path class="st21" d="M193.494,258.1313c-0.7595-1.0674-0.5154-2.5585,0.5604-3.3177l0,0c1.0669-0.7601,2.5585-0.5156,3.318,0.5597
		l0,0c0.7592,1.0674,0.5063,2.5585-0.5606,3.3186l0,0c-0.4158,0.2975-0.904,0.4335-1.3742,0.4335l0,0
		C194.6874,259.1254,193.9642,258.782,193.494,258.1313z"/>
	<path class="st22" d="M102.295,255.4281c-1.0124-0.8316-1.157-2.3325-0.3253-3.3451l0,0c0.8316-1.0126,2.3325-1.1574,3.3449-0.3258
		l0,0c1.0126,0.8325,1.1572,2.3325,0.3256,3.3451l0,0c-0.4701,0.5694-1.1481,0.8678-1.8352,0.8678l0,0
		C103.2714,255.9701,102.7381,255.7891,102.295,255.4281z"/>
	<path class="st23" d="M201.3229,252.1465c-0.895-0.9588-0.8407-2.4684,0.1176-3.3636l0,0c0.9583-0.8943,2.468-0.8405,3.363,0.1183
		l0,0c0.895,0.9579,0.8407,2.4676-0.1176,3.3628l0,0c-0.4611,0.4247-1.0396,0.633-1.618,0.633l0,0
		C202.4258,252.8969,201.793,252.6436,201.3229,252.1465z"/>
	<path class="st24" d="M94.891,248.4668c-0.895-0.9579-0.8497-2.4676,0.1176-3.3628l0,0c0.9581-0.8864,2.4589-0.8414,3.3539,0.1263
		v-0.0088c0.895,0.9676,0.8497,2.4676-0.1176,3.3628l0,0c-0.452,0.4247-1.0396,0.6418-1.618,0.6418l0,0
		C95.9939,249.2261,95.352,248.9736,94.891,248.4668z"/>
	<path class="st23" d="M208.302,245.1853c-1.0124-0.8316-1.157-2.3325-0.3253-3.3451l0,0c0.8316-1.0214,2.3325-1.1662,3.3449-0.3249
		l0,0c1.0126,0.8316,1.1572,2.3228,0.3255,3.3442l0,0c-0.4701,0.5694-1.1572,0.8678-1.8352,0.8678l0,0
		C209.2784,245.7273,208.745,245.5472,208.302,245.1853z"/>
	<path class="st24" d="M88.4634,240.6015c-0.7595-1.0753-0.5154-2.5585,0.5513-3.3177l0,0c1.0669-0.7592,2.5585-0.5147,3.318,0.5518
		v0.0088c0.7592,1.0665,0.5151,2.5497-0.5516,3.3089l0,0c-0.4249,0.2984-0.904,0.4432-1.3832,0.4432l0,0
		C89.6566,241.5965,88.9245,241.2434,88.4634,240.6015z"/>
	<path class="st23" d="M214.2959,237.3562c-1.112-0.6869-1.4556-2.1515-0.7595-3.2639l0,0
		c0.6961-1.1203,2.1608-1.4638,3.2727-0.7681l0,0c1.121,0.6966,1.4554,2.1603,0.7683,3.2727l0,0
		c-0.452,0.7231-1.2294,1.1212-2.025,1.1212l0,0C215.1275,237.7182,214.6846,237.6007,214.2959,237.3562z"/>
	<path class="st24" d="M83.1204,231.9594c-0.6147-1.1662-0.1717-2.6035,0.9855-3.2189l0,0
		c1.1572-0.6145,2.5945-0.1713,3.2094,0.9861l0,0c0.6147,1.1565,0.1808,2.5938-0.9855,3.2092l0,0
		c-0.3525,0.1898-0.7323,0.2799-1.1119,0.2799l0,0C84.3681,233.2157,83.5453,232.7548,83.1204,231.9594z"/>
	<path class="st23" d="M219.2228,228.8314c-1.1934-0.5518-1.7176-1.9529-1.1753-3.1553l0,0c0.5425-1.1936,1.9529-1.718,3.146-1.1751
		l0,0c1.1934,0.5421,1.7178,1.9529,1.1753,3.1456l0,0c-0.3977,0.8775-1.2565,1.3923-2.1606,1.3923l0,0
		C219.8737,229.0389,219.5393,228.9762,219.2228,228.8314z"/>
	<path class="st24" d="M78.9439,222.693c-0.4611-1.2298,0.1627-2.5947,1.3923-3.0555l0,0c1.2294-0.4617,2.6035,0.1624,3.0555,1.3922
		l0,0c0.4611,1.2289-0.1536,2.5947-1.3832,3.0555l0,0c-0.2803,0.1086-0.5604,0.1536-0.8407,0.1536l0,0
		C80.2095,224.2389,79.3054,223.6509,78.9439,222.693z"/>
	<path class="st1" d="M223.0016,219.7275c-1.2565-0.3884-1.9617-1.7171-1.573-2.9655l0,0c0.3889-1.2563,1.7178-1.9617,2.9653-1.5821
		l0,0c1.2567,0.3893,1.9619,1.718,1.5821,2.9743l0,0c-0.3163,1.0215-1.2565,1.6818-2.2691,1.6818l0,0
		C223.4717,219.8361,223.2367,219.7999,223.0016,219.7275z"/>
	<path class="st25" d="M76.0058,212.9746c-0.2894-1.2837,0.5063-2.5585,1.7809-2.8569l0,0c1.2837-0.2984,2.5585,0.497,2.8567,1.7807
		l0,0c0.2984,1.2748-0.5061,2.5497-1.7809,2.8481l0,0c-0.1808,0.045-0.3615,0.0636-0.5423,0.0636l0,0
		C77.2442,214.8101,76.268,214.0685,76.0058,212.9746z"/>
	<path class="st1" d="M225.5782,210.2175c-1.3018-0.2172-2.1696-1.447-1.9526-2.7395l0,0c0.2169-1.2925,1.4373-2.17,2.739-1.9529
		l0,0c1.2929,0.2172,2.1608,1.4461,1.9438,2.7395l0,0c-0.1898,1.1574-1.1934,1.9793-2.3325,1.9793l0,0
		C225.8404,210.244,225.7047,210.2352,225.5782,210.2175z"/>
	<path class="st25" d="M74.3604,202.949c-0.1265-1.311,0.8316-2.4684,2.1336-2.5947l0,0c1.3108-0.136,2.468,0.8228,2.5945,2.133l0,0
		c0.1357,1.3022-0.8226,2.4684-2.1334,2.5947l0,0c-0.0724,0.0097-0.1538,0.0097-0.2351,0.0097l0,0
		C75.5176,205.0917,74.478,204.178,74.3604,202.949z"/>
	<path class="st1" d="M226.8709,200.4444c-1.3108-0.045-2.3322-1.1477-2.2963-2.4499l0,0c0.0453-1.3199,1.1481-2.3413,2.4592-2.2963
		l0,0c1.3108,0.045,2.3413,1.1486,2.2961,2.4587l0,0c0,0,0,0,0-0.0088l0,0c-0.045,1.2934-1.1029,2.2963-2.3775,2.2963l0,0
		C226.9252,200.4444,226.8981,200.4444,226.8709,200.4444z"/>
	<path class="st25" d="M76.3311,195.2462c-1.3108-0.045-2.3413-1.1389-2.2961-2.4499l0,0c0.045-1.311,1.1479-2.3413,2.4589-2.2963
		l0,0c1.3108,0.045,2.3413,1.1389,2.2961,2.4587l0,0c-0.045,1.2748-1.0938,2.2875-2.3775,2.2875l0,0
		C76.3854,195.2462,76.3583,195.2462,76.3311,195.2462z"/>
	<path class="st0" d="M224.2765,188.4571c-0.1267-1.3022,0.8316-2.4684,2.1424-2.5947l0,0c1.3018-0.1263,2.459,0.8316,2.5856,2.1338
		l0,0c0.1355,1.311-0.8228,2.4676-2.1336,2.5947l0,0c-0.0722,0.0088-0.1536,0.0177-0.226,0.0177l0,0
		C225.4336,190.6086,224.3939,189.6869,224.2765,188.4571z"/>
	<path class="st26" d="M77.0001,185.4193c-1.2927-0.2163-2.1605-1.4461-1.9526-2.7386l0,0c0.217-1.2934,1.4465-2.17,2.7393-1.9529
		l0,0c1.2927,0.2172,2.1696,1.4373,1.9526,2.7386l0,0c-0.1898,1.1574-1.2022,1.9802-2.3413,1.9802l0,0
		C77.2713,185.4466,77.1358,185.4378,77.0001,185.4193z"/>
	<path class="st0" d="M222.7396,179.046c-0.2984-1.2748,0.497-2.5585,1.7719-2.8569l0,0c1.2837-0.2887,2.5583,0.5067,2.8567,1.7816
		l0,0c0.2984,1.2836-0.5063,2.5576-1.7809,2.856l0,0c-0.1808,0.0362-0.3615,0.0636-0.5335,0.0636l0,0
		C223.969,180.8903,222.9926,180.1398,222.7396,179.046z"/>
	<path class="st26" d="M78.962,175.7645c-1.2567-0.3885-1.9619-1.718-1.573-2.9743l0,0c0.3796-1.2563,1.7085-1.9617,2.9653-1.5732
		l0,0c1.2565,0.3796,1.9617,1.7092,1.573,2.9655l0,0c-0.3165,1.0215-1.2567,1.6818-2.2691,1.6818l0,0
		C79.4231,175.8642,79.188,175.828,78.962,175.7645z"/>
	<path class="st0" d="M219.9823,169.9156c-0.4611-1.2298,0.1627-2.6035,1.3923-3.0652l0,0c1.2294-0.4608,2.6035,0.1633,3.0555,1.402
		l0,0c0.4611,1.2201-0.1627,2.5938-1.3922,3.0555l0,0c-0.2713,0.0989-0.5513,0.1448-0.8316,0.1448l0,0
		C221.2478,171.4526,220.3348,170.8647,219.9823,169.9156z"/>
	<path class="st0" d="M216.0677,161.2187v-0.0088c-0.6147-1.1574-0.1717-2.5947,0.9855-3.21l0,0
		c1.1572-0.6145,2.5945-0.1713,3.2092,0.9861l0,0c0.6149,1.1565,0.1719,2.5938-0.9853,3.2092l0,0
		c-0.3527,0.1898-0.7323,0.2799-1.1119,0.2799l0,0C217.3154,162.475,216.4926,162.0141,216.0677,161.2187z"/>
	<path class="st0" d="M211.0503,153.1c-0.7592-1.0753-0.5063-2.5585,0.5606-3.3177l0,0c1.0667-0.7592,2.5492-0.5147,3.3177,0.5606
		l0,0c0.7595,1.0665,0.5063,2.5497-0.5604,3.3089l0,0c-0.416,0.2984-0.904,0.4432-1.3741,0.4432l0,0
		C212.2528,154.095,211.5204,153.7516,211.0503,153.1z"/>
	<path class="st0" d="M205.0205,145.7053c-0.895-0.9579-0.8407-2.4587,0.1174-3.3539l0,0c0.9583-0.8952,2.468-0.8405,3.3632,0.1174
		l0,0c0.895,0.9588,0.8407,2.4684-0.1176,3.3539l0,0c-0.4611,0.4344-1.0396,0.6418-1.6183,0.6418l0,0
		C206.1234,146.4646,205.4906,146.2112,205.0205,145.7053z"/>
	<path class="st26" d="M83.1657,166.6155c-0.1536,0-0.3163-0.0177-0.4701-0.045c-0.1446-0.0362-0.2982-0.0812-0.4339-0.136
		c-0.1446-0.0627-0.2803-0.1351-0.4158-0.2163c-0.1265-0.0909-0.2441-0.1898-0.3615-0.2984
		c-0.1086-0.1086-0.2081-0.2357-0.2984-0.362c-0.0814-0.1262-0.1536-0.271-0.217-0.407c-0.0543-0.1448-0.0995-0.2887-0.1357-0.4432
		c-0.0269-0.1536-0.045-0.3161-0.045-0.4697c0-0.1536,0.0181-0.3072,0.0541-0.4608c0.0271-0.1536,0.0724-0.3072,0.1267-0.452
		c0.0633-0.136,0.1355-0.2807,0.226-0.407c0.0812-0.1262,0.1808-0.2534,0.2894-0.362c0.8859-0.8855,2.4861-0.8855,3.363,0
		c0.1084,0.1086,0.2079,0.2357,0.2982,0.362c0.0814,0.1263,0.1538,0.271,0.217,0.407c0.0633,0.1448,0.1086,0.2984,0.1357,0.452
		c0.0272,0.1536,0.0452,0.3072,0.0452,0.4608c0,0.1536-0.0181,0.3161-0.0452,0.4697c-0.0271,0.1545-0.0724,0.2984-0.1357,0.4432
		c-0.0541,0.136-0.1265,0.2807-0.217,0.407c-0.0903,0.1263-0.1898,0.2534-0.2982,0.362
		C84.4043,166.3621,83.8075,166.6155,83.1657,166.6155z"/>
</g>
</svg>
