<?xml version="1.0" encoding="utf-8"?>
<!-- Generator: Adobe Illustrator 21.0.2, SVG Export Plug-In . SVG Version: 6.00 Build 0)  -->
<svg version="1.1" id="Ebene_1" xmlns="http://www.w3.org/2000/svg" xmlns:xlink="http://www.w3.org/1999/xlink" x="0px" y="0px"
	 viewBox="0 0 283.4646 283.4646" style="enable-background:new 0 0 283.4646 283.4646;" xml:space="preserve">
<style type="text/css">
	.st0{fill:#F9DCB2;}
	.st1{fill:#F0F0F0;}
	.st2{fill:#F4D3AB;}
	.st3{fill:#5A4A42;}
	.st4{fill:#EF8671;}
	.st5{fill:#492B16;}
	.st6{fill:#6D4326;}
	.st7{fill:#492F1D;}
	.st8{fill:#7C5235;}
	.st9{fill:#FAFAFA;}
	.st10{fill:#82A567;}
	.st11{fill:#50633B;}
	.st12{fill:#69844D;}
	.st13{fill:#333333;}
	.st14{fill:#7D828C;}
	.st15{fill:#F7F7F7;stroke:#F7F7F7;stroke-width:1.9731;stroke-miterlimit:10;}
	.st16{fill:none;stroke:#F7F7F7;stroke-width:0.9865;stroke-miterlimit:10;}
	.st17{clip-path:url(#SVGID_2_);}
	.st18{fill:#96BA75;}
	.st19{fill:#FFFFFF;}
</style>
<g>
	<g>
		<g>
			<path class="st0" d="M144.8698,87.3919c-3.1278,0-5.6633,2.5356-5.6633,5.6633v0c0,3.1278,2.5355,5.6633,5.6633,5.6633h5.5153
				V87.3919H144.8698z"/>
			<path class="st0" d="M201.0644,98.7186c3.1278,0,5.6633-2.5356,5.6633-5.6633v0c0-3.1278-2.5355-5.6633-5.6633-5.6633h-5.5153
				v11.3267H201.0644z"/>
			<path class="st1" d="M212.7071,198.3897h-79.2067v-20.2341c0-21.8723,17.731-39.6033,39.6033-39.6033h0.0001
				c21.8723,0,39.6033,17.731,39.6033,39.6033V198.3897z"/>
			<path class="st0" d="M173.1037,155.3275L173.1037,155.3275c-5.9218,0-10.7223-4.8005-10.7223-10.7223V121.777h21.4446v22.8281
				C183.826,150.5269,179.0255,155.3275,173.1037,155.3275z"/>
			<path class="st2" d="M162.3814,121.777v13.7439c3.3528,1.1999,6.9622,1.8556,10.7223,1.8556
				c3.7601,0,7.3696-0.6557,10.7223-1.8556V121.777H162.3814z"/>
			<path class="st0" d="M173.1037,133.2261L173.1037,133.2261c-15.329,0-27.7556-12.4266-27.7556-27.7555V76.6834
				c0-15.329,12.4266-27.7555,27.7555-27.7555h0.0001c15.3289,0,27.7555,12.4266,27.7555,27.7555v28.7871
				C200.8593,120.7995,188.4327,133.2261,173.1037,133.2261z"/>
			<g>
				<ellipse class="st3" cx="160.7817" cy="89.6912" rx="3.3723" ry="2.3346"/>
				<ellipse class="st3" cx="185.4257" cy="89.6912" rx="3.3723" ry="2.3346"/>
			</g>
			<path class="st4" d="M178.3495,112.0923c0,0-3.4902,0.6891-5.313,0.6891c-1.8228,0-5.1786-0.6891-5.1786-0.6891
				c-1.0507,0-1.9024,0.8517-1.9024,1.9024c0,1.0506,0.9288,1.6245,1.9024,1.9023c0.9736,0.2778,3.1117,0.6891,5.0643,0.6891
				s4.5518-0.3939,5.4273-0.6891c0.8755-0.2953,1.9023-0.8517,1.9023-1.9023C180.2518,112.944,179.4001,112.0923,178.3495,112.0923z
				"/>
			<path class="st5" d="M173.1037,44.7608h-8.8599c-3.7746,0-6.8345,3.0599-6.8345,6.8345v1.192
				c0,13.6508,20.222,9.3194,28.4918,11.3869c13.4384,2.0674,14.9582,13.3301,14.9582,13.3301v26.0564v0
				c2.885-2.885,4.5058-6.7979,4.5058-10.8779V61.1146c0-9.0319-7.3218-16.3537-16.3537-16.3537H173.1037z"/>
			<path class="st6" d="M173.1037,43.3826h-8.8599c-3.7746,0-6.8345,3.0599-6.8345,6.8345v1.192
				c0,13.6508,20.222,9.3194,28.4918,11.3869c13.4384,2.0674,14.9582,13.3301,14.9582,13.3301v26.0564v0
				c2.885-2.885,4.5058-6.7979,4.5058-10.8779V59.7363c0-9.0319-7.3218-16.3537-16.3537-16.3537H173.1037z"/>
			<path class="st7" d="M159.4414,63.411c0,7.7835-6.3098,14.0933-14.0933,14.0933l0,0v26.0564l0,0
				c-2.885-2.885-4.5057-6.7979-4.5057-10.8779V63.3598c0-8.5622,5.7857-15.7731,13.6608-17.9363
				c2.4907-0.6842,4.9382,1.2456,4.9382,3.8286V63.411z"/>
			<g>
				<path class="st8" d="M164.2289,80.2232l-10.5637,0.7814c-0.6666,0.0493-1.2473-0.4512-1.2966-1.118
					c-0.0493-0.6668,0.4514-1.2473,1.118-1.2966l10.5637-0.7814c0.6666-0.0493,1.2473,0.4512,1.2966,1.118
					C165.3962,79.5934,164.8955,80.1739,164.2289,80.2232z"/>
			</g>
			<g>
				<path class="st8" d="M181.9817,80.2441l10.5667,0.7403c0.6668,0.0467,1.2455-0.456,1.2922-1.123
					c0.0467-0.667-0.4562-1.2455-1.123-1.2922l-10.5667-0.7403c-0.6668-0.0467-1.2455,0.456-1.2922,1.123
					C180.812,79.6189,181.3149,80.1974,181.9817,80.2441z"/>
			</g>
			<path class="st8" d="M159.4414,62.7218c0,7.7835-6.3098,14.0933-14.0933,14.0933l0,0v26.0564l0,0
				c-2.885-2.885-4.5057-6.7979-4.5057-10.8779V62.6707c0-8.5622,5.7857-15.7731,13.6608-17.9363
				c2.4907-0.6842,4.9382,1.2456,4.9382,3.8286V62.7218z"/>
			<path class="st9" d="M184.9007,143.6668h-1.0415v1.0041c0,5.3382-4.3272,9.6654-9.665,9.6654h-2.0085
				c-5.3378,0-9.665-4.3272-9.665-9.6654v-1.0041h-1.0415h-1.2165v1.2165c0,6.468,5.243,11.711,11.7106,11.711h2.4333
				c6.4676,0,11.7106-5.243,11.7106-11.711v-1.2165H184.9007z"/>
			<path class="st10" d="M163.7004,198.3897h-30.2001v-20.2341c0-18.1564,12.2181-33.4591,28.8809-38.1347L163.7004,198.3897z"/>
			<polygon class="st11" points="162.3812,140.71 149.326,153.7652 162.8259,196.322 163.6381,196.3236 			"/>
			<g>
				<polygon class="st12" points="162.3812,137.2643 149.326,150.3194 163.7004,195.6331 				"/>
			</g>
			<path class="st10" d="M182.5159,198.3897h30.2001v-20.2341c0-18.1564-12.2181-33.4591-28.8809-38.1347L182.5159,198.3897z"/>
			<polygon class="st11" points="183.8352,140.71 196.8903,153.7652 183.3905,196.322 182.5782,196.3236 			"/>
			<g>
				<polygon class="st12" points="183.8352,137.2643 196.8903,150.3194 182.5159,195.6331 				"/>
			</g>
		</g>
		<g>
			<path class="st13" d="M145.4787,206.4166L44.6372,225.3237c-4.2664,0.7999-8.4115-2.0363-9.2114-6.3026l-11.514-61.4099
				c-0.7999-4.2664,2.0363-8.4115,6.3026-9.2114l100.8415-18.9071c4.2664-0.7999,8.4115,2.0363,9.2114,6.3026l11.514,61.4099
				C152.5813,201.4716,149.7451,205.6167,145.4787,206.4166z"/>
			<path class="st14" d="M145.1151,204.4774L44.2736,223.3845c-4.2664,0.7999-8.4115-2.0363-9.2114-6.3026l-11.514-61.4099
				c-0.7999-4.2664,2.0363-8.4115,6.3026-9.2114l100.8415-18.9071c4.2664-0.7999,8.4115,2.0363,9.2114,6.3026l11.5139,61.4099
				C152.2177,199.5323,149.3815,203.6774,145.1151,204.4774z"/>
			<path class="st15" d="M73.4579,189.6749l-27.8769,5.2267c-4.2664,0.7999-8.4115-2.0363-9.2114-6.3027l-5.2267-27.8769
				c-0.7999-4.2664,2.0363-8.4115,6.3026-9.2114l27.8769-5.2267c4.2664-0.7999,8.4115,2.0363,9.2114,6.3027l5.2267,27.8769
				C80.5604,184.7299,77.7242,188.875,73.4579,189.6749z"/>
			<g>
				<path class="st1" d="M136.5989,157.3813l-50.7886,9.5225c-1.3654,0.256-2.692-0.6517-2.9481-2.0171l0,0
					c-0.256-1.3654,0.6517-2.692,2.0171-2.9481l50.7886-9.5225c1.3654-0.256,2.692,0.6517,2.948,2.0171v0
					C138.872,155.7987,137.9643,157.1254,136.5989,157.3813z"/>
				<path class="st1" d="M138.4665,167.3423l-50.7886,9.5225c-1.3654,0.256-2.692-0.6517-2.9481-2.0171l0,0
					c-0.256-1.3654,0.6517-2.692,2.0171-2.948l50.7886-9.5225c1.3654-0.256,2.692,0.6517,2.9481,2.0171l0,0
					C140.7396,165.7597,139.8319,167.0863,138.4665,167.3423z"/>
				<path class="st1" d="M140.3341,177.3034l-50.7886,9.5225c-1.3654,0.256-2.692-0.6517-2.9481-2.0171v0
					c-0.256-1.3654,0.6517-2.692,2.0171-2.948l50.7886-9.5225c1.3654-0.256,2.692,0.6517,2.9481,2.0171l0,0
					C142.6073,175.7207,141.6996,177.0473,140.3341,177.3034z"/>
			</g>
			<path class="st16" d="M50.8914,210.9722c2.2361-0.6986,4.6109-0.7681,6.9473-0.9385s4.7275-0.4656,6.8004-1.5569
				c2.0729-1.0913,3.7864-3.1397,3.8627-5.4811s-1.9434-4.7244-4.2761-4.5092c-1.6108,0.1486-2.9485,1.4316-3.5796,2.921
				c-0.6311,1.4895-0.6714,3.1585-0.593,4.7743c0.0359,0.7392,0.1117,1.5241,0.5626,2.111
				c0.5203,0.6773,1.4134,0.9308,2.2501,1.1024c6.5907,1.3519,13.6905,0.0276,19.3507-3.6092
				c1.6523-1.0617,4.1744-2.9368,3.5317-4.4681c-0.6427-1.5313-4.469-0.4107-6.5268,0.4809c-2.1751,0.9424-4.408,3.327-3.227,5.3823
				c0.9391,1.6344,3.2982,1.6202,5.1208,1.1392c7.3836-1.9483,16.8599-14.4502,14.8074-15.8894
				c-2.0525-1.4392-4.8345,3.0285-5.3988,5.7876s-1.23,9.2318,0.6187,8.3619s8.5297-8.7392,9.9389-8.5808
				c1.4092,0.1584-0.8404,3.8909,0.9056,3.6647c1.746-0.2262,4.6787-5.0201,6.0341-4.9715s0.291,2.3996,1.4037,2.7998
				c1.1127,0.4003,2.348,0.1123,3.4695-0.2624c3.0972-1.0348,6.0252-4.5384,8.3933-4.9149
				c2.3682-0.3765,2.6444,3.4608,4.3876,4.7363c1.7432,1.2755,3.9839,2.0408,6.0863,1.545"/>
			<g>
				<defs>
					<path id="SVGID_1_" d="M74.0336,190.0688l-28.3617,5.3176c-4.2664,0.7999-8.4115-2.0363-9.2114-6.3027l-5.3176-28.3617
						c-0.7999-4.2664,2.0363-8.4115,6.3026-9.2114l28.3617-5.3176c4.2664-0.7999,8.4115,2.0363,9.2114,6.3027l5.3176,28.3617
						C81.1361,185.1238,78.2999,189.2689,74.0336,190.0688z"/>
				</defs>
				<clipPath id="SVGID_2_">
					<use xlink:href="#SVGID_1_"  style="overflow:visible;"/>
				</clipPath>
				<g class="st17">
					<path class="st0" d="M44.8283,167.2487c-1.0846,0.2034-1.799,1.2475-1.5957,2.3321h0c0.2034,1.0846,1.2475,1.799,2.3321,1.5957
						l1.9125-0.3586l-0.7364-3.9278L44.8283,167.2487z"/>
					<path class="st0" d="M65.0515,167.5228c1.0846-0.2034,1.799-1.2475,1.5957-2.3321l0,0
						c-0.2034-1.0846-1.2475-1.799-2.3321-1.5957l-1.9125,0.3586l0.7364,3.9278L65.0515,167.5228z"/>
					<path class="st1" d="M75.5692,201.329l-27.4667,5.1498l-1.3156-7.0166c-1.4221-7.5847,3.5737-14.8862,11.1584-16.3083h0
						c7.5847-1.4221,14.8862,3.5737,16.3082,11.1584L75.5692,201.329z"/>
					<path class="st0" d="M59.036,188.9712L59.036,188.9712c-2.0535,0.385-4.0303-0.9675-4.4153-3.0211l-1.4842-7.9162
						l7.4364-1.3943l1.4842,7.9162C62.4421,186.6093,61.0895,188.5862,59.036,188.9712z"/>
					<path class="st2" d="M53.1364,178.0339L54.03,182.8c1.2407,0.1981,2.535,0.1908,3.8389-0.0536
						c1.3039-0.2445,2.5129-0.7065,3.5976-1.3406l-0.8936-4.766L53.1364,178.0339z"/>
					<path class="st0" d="M57.599,181.307L57.599,181.307c-5.3157,0.9967-10.4328-2.5046-11.4295-7.8203l-1.8717-9.9826
						c-0.9967-5.3157,2.5046-10.4328,7.8203-11.4294l0,0c5.3157-0.9966,10.4328,2.5046,11.4294,7.8203l1.8717,9.9826
						C66.4159,175.1932,62.9147,180.3104,57.599,181.307z"/>
					<g>
						
							<ellipse transform="matrix(0.9829 -0.1843 0.1843 0.9829 -29.9124 12.1658)" class="st3" cx="50.4956" cy="167.0115" rx="1.1898" ry="0.8237"/>
						
							<ellipse transform="matrix(0.9829 -0.1843 0.1843 0.9829 -29.4708 13.7132)" class="st3" cx="59.0414" cy="165.4092" rx="1.1898" ry="0.8237"/>
					</g>
					<path class="st4" d="M58.0441,173.6374c0,0-1.1655,0.4659-1.7976,0.5844c-0.6321,0.1185-1.8406,0.0977-1.8406,0.0977
						c-0.3643,0.0683-0.6043,0.419-0.536,0.7834c0.0683,0.3643,0.4277,0.5029,0.7834,0.536
						c0.3557,0.0331,1.1239,0.0367,1.801-0.0903c0.6771-0.1269,1.5528-0.4325,1.8372-0.5918
						c0.2844-0.1593,0.6043-0.419,0.536-0.7834C58.7591,173.809,58.4084,173.569,58.0441,173.6374z"/>
					<path class="st5" d="M51.8472,150.6297l-3.0724,0.576c-1.3089,0.2454-2.1711,1.5054-1.9256,2.8144l0.0775,0.4133
						c0.8875,4.7337,7.6184,1.9169,10.6205,2.0962c4.7945-0.1568,6.0538,3.65,6.0538,3.65l1.6941,9.0356v0
						c0.8129-1.188,1.1205-2.6503,0.8552-4.0651l-2.0525-10.947c-0.5872-3.132-3.6023-5.195-6.7343-4.6077L51.8472,150.6297z"/>
					<path class="st6" d="M51.7576,150.1518l-3.0724,0.576c-1.3089,0.2454-2.1711,1.5054-1.9256,2.8144l0.0775,0.4133
						c0.8875,4.7337,7.6184,1.9169,10.6205,2.0962c4.7945-0.1568,6.0538,3.65,6.0538,3.65l1.6941,9.0356v0
						c0.8129-1.188,1.1205-2.6503,0.8552-4.0651l-2.0525-10.947c-0.5872-3.132-3.6023-5.195-6.7343-4.6077L51.7576,150.1518z"/>
					<path class="st7" d="M48.3221,157.9854c0.5061,2.6991-1.2717,5.2974-3.9709,5.8035l0,0l1.6941,9.0356h0
						c-1.188-0.8129-2.0044-2.0644-2.2697-3.4792l-1.9065-10.1684c-0.5567-2.9691,0.9808-5.8458,3.571-7.108
						c0.8192-0.3992,1.7934,0.1109,1.9614,1.0066L48.3221,157.9854z"/>
					<g>
						<path class="st8" d="M51.0754,163.5041l-3.6124,0.9578c-0.228,0.0604-0.4619-0.0754-0.5223-0.3034
							c-0.0605-0.228,0.0754-0.4619,0.3034-0.5223l3.6124-0.9578c0.228-0.0604,0.4618,0.0754,0.5223,0.3034
							C51.4392,163.2098,51.3033,163.4437,51.0754,163.5041z"/>
					</g>
					<g>
						<path class="st8" d="M57.2329,162.3571l3.7124-0.4303c0.2343-0.0272,0.4023-0.2391,0.3751-0.4735
							c-0.0272-0.2343-0.2392-0.4022-0.4735-0.3751l-3.7124,0.4303c-0.2343,0.0272-0.4023,0.2391-0.3751,0.4734
							C56.7866,162.2163,56.9987,162.3843,57.2329,162.3571z"/>
					</g>
					<path class="st8" d="M48.2773,157.7464c0.5061,2.6991-1.2717,5.2974-3.9708,5.8035l0,0l1.6941,9.0356l0,0
						c-1.188-0.8129-2.0044-2.0644-2.2697-3.4792l-1.9065-10.1684c-0.5567-2.9691,0.9808-5.8458,3.571-7.108
						c0.8192-0.3992,1.7934,0.1109,1.9614,1.0066L48.2773,157.7464z"/>
					<path class="st9" d="M62.3687,184.1606l-0.3612,0.0677l0.0653,0.3482c0.3471,1.8512-0.8721,3.633-2.7231,3.9801l-0.6965,0.1306
						c-1.851,0.347-3.6329-0.8721-3.98-2.7233l-0.0653-0.3482l-0.3612,0.0677l-0.4218,0.0791l0.0791,0.4218
						c0.4205,2.2429,2.5796,3.7202,4.8223,3.2997l0.8438-0.1582c2.2428-0.4205,3.72-2.5795,3.2995-4.8224l-0.0791-0.4218
						L62.3687,184.1606z"/>
					<path class="st10" d="M58.575,204.5153l-10.4725,1.9635l-1.3156-7.0166c-1.1805-6.2961,2.0615-12.3971,7.5357-15.1018
						L58.575,204.5153z"/>
					<polygon class="st11" points="54.3674,184.5994 50.689,189.9754 58.1373,203.8552 58.4191,203.8029 					"/>
					<g>
						<polygon class="st12" points="54.1433,183.4045 50.465,188.7805 58.3958,203.5594 						"/>
					</g>
					<path class="st10" d="M65.0997,203.292l10.4725-1.9635l-1.3156-7.0166c-1.1805-6.2961-6.4123-10.8083-12.4945-11.3463
						L65.0997,203.292z"/>
					<polygon class="st11" points="61.807,183.2045 67.183,186.8829 65.2685,202.5181 64.987,202.5715 					"/>
					<g>
						<polygon class="st12" points="61.583,182.0096 66.9589,185.688 64.9205,202.3361 						"/>
					</g>
				</g>
			</g>
		</g>
	</g>
	<g>
		<g>
			<path class="st18" d="M254.8908,144.7299c-8.0675-1.1954-16.0323-2.8216-23.6531-5.8903
				c-5.1398-2.0686-10.1703-4.3877-15.0506-7.0423c-0.3915,0-0.7822,0-1.1737,0c-1.1545,0.7997-2.4384,1.349-3.684,1.9668
				c-6.4404,3.2039-13.012,6.0623-19.9399,7.994c-4.8126,1.3424-9.7296,2.1287-14.6398,2.9535
				c-1.5168,0.2554-3.0361,0.4959-4.5505,0.7613c-0.3573,0.0634-0.7004,0.2054-1.0502,0.3105c0,2.0553,0,4.1105,0,6.1658
				c0.2287,1.3357,0.1653,2.6914,0.2312,4.0371c0.2646,5.4278,0.5334,10.8524,0.8957,16.2752
				c0.3732,5.5815,1.6646,10.9625,3.0387,16.3403c3.0729,12.0261,8.7821,22.6464,16.3879,32.2398
				c3.3275,4.1957,7.332,7.6901,11.3374,11.1846c3.3701,2.9385,7.0181,5.4095,10.9367,7.4848
				c0.3873,0.2054,0.7889,0.3823,1.1837,0.571c0.2446,0,0.4892,0,0.7338,0c0.0501-0.0501,0.0918-0.1202,0.1519-0.1469
				c5.5906-2.4293,10.2046-6.3027,14.7926-10.2763c7.6017-6.5832,13.4177-14.5856,18.2136-23.4311
				c3.4502-6.3611,5.7326-13.1831,7.5115-20.2154c1.7397-6.8787,2.5111-13.866,2.7999-20.9417
				c0.1878-4.5797,0.4775-9.1561,0.5869-13.7391c0.0075-0.2955,0.0659-0.591,0.101-0.8849c0-1.5544,0-3.1088,0-4.6632
				C258.361,145.2809,256.6255,144.987,254.8908,144.7299z"/>
		</g>
		<g>
			<path class="st19" d="M201.4476,177.973v13.4936h5.783V177.973H201.4476z M213.0136,177.973v13.4936h5.783V177.973H213.0136z
				 M197.5923,201.1049h36.6255v-5.783h-36.6255V201.1049z M224.5795,177.973v13.4936h5.783V177.973H224.5795z M215.9051,160.6241
				l-18.3127,9.6383v3.8553h36.6255v-3.8553L215.9051,160.6241z"/>
		</g>
	</g>
</g>
</svg>
