<?xml version="1.0" encoding="utf-8"?>
<!-- Generator: Adobe Illustrator 19.2.1, SVG Export Plug-In . SVG Version: 6.00 Build 0)  -->
<svg version="1.1" xmlns="http://www.w3.org/2000/svg" xmlns:xlink="http://www.w3.org/1999/xlink" x="0px" y="0px"
	 viewBox="0 0 221.1025 85.039" style="enable-background:new 0 0 221.1025 85.039;" xml:space="preserve">
<style type="text/css">
	.st0{opacity:0.9;}
	.st1{fill:#58585A;}
	.st2{fill:#A5A6A8;}
	.st3{fill:#7E7F7F;}
	.st4{fill:#808183;}
	.st5{display:none;}
	.st6{display:inline;}
	.st7{opacity:0.46;}
	.st8{fill:#FFFFFF;}
	.st9{opacity:0.64;}
	.st10{opacity:0.63;}
	.st11{opacity:0.8;}
	.st12{font-family:'Chalet-LondonNineteenSixty';}
	.st13{font-size:25.3854px;}
	.st14{letter-spacing:1;}
</style>
<g id="BLACK">
	<g class="st0">
		<g>
			<g>
				<path class="st1" d="M76.4482,47.5292c-0.2617,0.7705-0.6426,1.4346-1.1416,1.9932c-0.499,0.5581-1.1172,0.9897-1.8535,1.2944
					c-0.7354,0.3047-1.5693,0.457-2.501,0.457c-0.8457,0-1.6289-0.1523-2.3477-0.457s-1.3418-0.7236-1.8652-1.2563
					c-0.5254-0.5332-0.9355-1.1553-1.2314-1.8662c-0.2959-0.7104-0.4443-1.4805-0.4443-2.3101h2.1328
					c0,0.5078,0.084,0.9946,0.2539,1.46c0.168,0.4653,0.4141,0.8716,0.7363,1.2183c0.3203,0.3472,0.7139,0.6221,1.1797,0.8252
					c0.4648,0.2031,0.9941,0.3047,1.5859,0.3047c1.2695,0,2.2129-0.3809,2.8311-1.1426c0.6182-0.7612,0.9268-1.7769,0.9268-3.0459
					V33.3515h2.1328v11.6523C76.8428,45.9174,76.7109,46.7597,76.4482,47.5292z"/>
				<path class="st1" d="M92.6826,33.6181c1.0664,0.4658,1.9932,1.1089,2.7803,1.9292c0.7861,0.8213,1.4043,1.79,1.8525,2.9067
					c0.4492,1.1172,0.6738,2.3271,0.6738,3.6304c0,1.2861-0.2285,2.4878-0.6855,3.6045c-0.457,1.1172-1.0801,2.0903-1.8662,2.9194
					c-0.7871,0.8296-1.7139,1.481-2.7803,1.9546s-2.1992,0.7109-3.4014,0.7109s-2.335-0.2373-3.4014-0.7109
					s-1.9932-1.125-2.7793-1.9546c-0.7871-0.8291-1.4102-1.8022-1.8672-2.9194c-0.4561-1.1167-0.6846-2.3184-0.6846-3.6045
					s0.2285-2.4834,0.6846-3.5923c0.457-1.1079,1.0801-2.0771,1.8672-2.9067c0.7861-0.8286,1.7129-1.4805,2.7793-1.9546
					c1.0664-0.4736,2.1992-0.7104,3.4014-0.7104C90.4746,32.9204,91.6162,33.1528,92.6826,33.6181z M91.8193,48.6464
					c0.7959-0.3638,1.4941-0.8672,2.0947-1.5103s1.0752-1.3965,1.4219-2.2593c0.3467-0.8633,0.5205-1.7939,0.5205-2.7925
					c0-1.0156-0.1699-1.9546-0.5078-2.8179c-0.3389-0.8633-0.8047-1.6118-1.3965-2.2466s-1.291-1.1338-2.0938-1.4976
					c-0.8047-0.3638-1.6719-0.5459-2.6025-0.5459c-0.9141,0-1.7686,0.1821-2.5635,0.5459
					c-0.7959,0.3638-1.4941,0.8672-2.0947,1.5103s-1.0752,1.396-1.4209,2.2593c-0.3477,0.8633-0.5215,1.7939-0.5215,2.7925
					s0.1738,1.9336,0.5215,2.8052c0.3457,0.8716,0.8203,1.6245,1.4209,2.2593c0.6006,0.6343,1.2988,1.1338,2.0947,1.4976
					c0.7949,0.3643,1.6494,0.5459,2.5635,0.5459S91.0244,49.0107,91.8193,48.6464z"/>
				<path class="st1" d="M113.2705,50.9692h-11.2207V33.3515h2.1582v15.5361h9.0625V50.9692z"/>
				<path class="st1" d="M128.0957,33.6181c1.0654,0.4658,1.9932,1.1089,2.7803,1.9292c0.7861,0.8213,1.4043,1.79,1.8525,2.9067
					c0.4482,1.1172,0.6729,2.3271,0.6729,3.6304c0,1.2861-0.2285,2.4878-0.6855,3.6045c-0.457,1.1172-1.0791,2.0903-1.8652,2.9194
					c-0.7871,0.8296-1.7148,1.481-2.7803,1.9546c-1.0664,0.4736-2.2002,0.7109-3.4014,0.7109c-1.2021,0-2.3359-0.2373-3.4023-0.7109
					s-1.9922-1.125-2.7793-1.9546c-0.7871-0.8291-1.4092-1.8022-1.8662-2.9194c-0.4561-1.1167-0.6846-2.3184-0.6846-3.6045
					s0.2285-2.4834,0.6846-3.5923c0.457-1.1079,1.0791-2.0771,1.8662-2.9067c0.7871-0.8286,1.7129-1.4805,2.7793-1.9546
					c1.0664-0.4736,2.2002-0.7104,3.4023-0.7104C125.8877,32.9204,127.0293,33.1528,128.0957,33.6181z M127.2324,48.6464
					c0.7959-0.3638,1.4932-0.8672,2.0947-1.5103c0.5996-0.6431,1.0742-1.3965,1.4219-2.2593
					c0.3457-0.8633,0.5195-1.7939,0.5195-2.7925c0-1.0156-0.1689-1.9546-0.5078-2.8179c-0.3379-0.8633-0.8037-1.6118-1.3965-2.2466
					c-0.5918-0.6348-1.29-1.1338-2.0937-1.4976c-0.8047-0.3638-1.6719-0.5459-2.6016-0.5459c-0.9141,0-1.7695,0.1821-2.5645,0.5459
					s-1.4941,0.8672-2.0938,1.5103c-0.6016,0.6431-1.0752,1.396-1.4219,2.2593c-0.3477,0.8633-0.5205,1.7939-0.5205,2.7925
					s0.1729,1.9336,0.5205,2.8052c0.3467,0.8716,0.8203,1.6245,1.4219,2.2593c0.5996,0.6343,1.2988,1.1338,2.0938,1.4976
					c0.7949,0.3643,1.6504,0.5459,2.5645,0.5459S126.4365,49.0107,127.2324,48.6464z"/>
				<path class="st1" d="M151.958,47.8212c-0.5254,0.728-1.1348,1.3457-1.8281,1.8535c-0.6943,0.5073-1.4639,0.9009-2.3105,1.1802
					c-0.8457,0.2793-1.7422,0.4189-2.6904,0.4189c-1.2021,0-2.335-0.2412-3.4014-0.7236s-1.9932-1.1377-2.7793-1.9673
					c-0.7871-0.8291-1.4102-1.8022-1.8672-2.9194c-0.4561-1.1167-0.6846-2.3101-0.6846-3.5791c0-1.2695,0.2285-2.458,0.6846-3.5669
					c0.457-1.1079,1.0801-2.0771,1.8672-2.9067c0.7861-0.8286,1.7129-1.4849,2.7793-1.9673
					c1.0664-0.4819,2.1992-0.7231,3.4014-0.7231c0.999,0,1.9287,0.1436,2.792,0.4312c0.8633,0.2881,1.6377,0.6899,2.3232,1.2061
					c0.6855,0.5166,1.2783,1.1338,1.7764,1.853c0.5,0.7197,0.8926,1.5107,1.1816,2.3735h-2.2598
					c-0.4912-1.1167-1.2227-2.0308-2.1953-2.7417c-0.9746-0.7104-2.1797-1.0659-3.6182-1.0659
					c-0.9141,0-1.7686,0.1865-2.5635,0.5586c-0.7959,0.3721-1.4941,0.8843-2.0947,1.5356c-0.6006,0.6519-1.0752,1.4087-1.4209,2.272
					c-0.3477,0.8633-0.5215,1.7769-0.5215,2.7417c0,0.9644,0.1738,1.8784,0.5215,2.7417c0.3457,0.8628,0.8203,1.6206,1.4209,2.272
					s1.2988,1.1636,2.0947,1.5356c0.7949,0.3726,1.6494,0.5586,2.5635,0.5586c1.3037,0,2.4619-0.3428,3.4775-1.0283
					s1.7939-1.6118,2.3359-2.7798h2.2598C152.8974,46.2817,152.4814,47.0942,151.958,47.8212z"/>
				<path class="st1" d="M168.0264,33.6181c1.0664,0.4658,1.9932,1.1089,2.7803,1.9292c0.7861,0.8213,1.4043,1.79,1.8525,2.9067
					c0.4492,1.1172,0.6738,2.3271,0.6738,3.6304c0,1.2861-0.2285,2.4878-0.6855,3.6045c-0.457,1.1172-1.0801,2.0903-1.8662,2.9194
					c-0.7871,0.8296-1.7139,1.481-2.7803,1.9546s-2.1992,0.7109-3.4014,0.7109s-2.335-0.2373-3.4014-0.7109
					s-1.9932-1.125-2.7793-1.9546c-0.7871-0.8291-1.4102-1.8022-1.8672-2.9194c-0.4561-1.1167-0.6846-2.3184-0.6846-3.6045
					s0.2285-2.4834,0.6846-3.5923c0.457-1.1079,1.0801-2.0771,1.8672-2.9067c0.7861-0.8286,1.7129-1.4805,2.7793-1.9546
					c1.0664-0.4736,2.1992-0.7104,3.4014-0.7104C165.8183,32.9204,166.9599,33.1528,168.0264,33.6181z M167.1631,48.6464
					c0.7959-0.3638,1.4941-0.8672,2.0947-1.5103s1.0752-1.3965,1.4219-2.2593c0.3467-0.8633,0.5205-1.7939,0.5205-2.7925
					c0-1.0156-0.1699-1.9546-0.5078-2.8179c-0.3389-0.8633-0.8047-1.6118-1.3965-2.2466s-1.291-1.1338-2.0938-1.4976
					c-0.8047-0.3638-1.6719-0.5459-2.6025-0.5459c-0.9141,0-1.7686,0.1821-2.5635,0.5459
					c-0.7959,0.3638-1.4941,0.8672-2.0947,1.5103s-1.0752,1.396-1.4209,2.2593c-0.3477,0.8633-0.5215,1.7939-0.5215,2.7925
					s0.1738,1.9336,0.5215,2.8052c0.3457,0.8716,0.8203,1.6245,1.4209,2.2593c0.6006,0.6343,1.2988,1.1338,2.0947,1.4976
					c0.7949,0.3643,1.6494,0.5459,2.5635,0.5459S166.3681,49.0107,167.1631,48.6464z"/>
				<path class="st1" d="M194.3008,50.9692h-2.1572v-14.749l-5.1543,14.749h-2.3096l-5.1533-14.749v14.749h-2.1582V33.3515h3.3008
					l5.1787,14.8506l5.1787-14.8506h3.2744V50.9692z"/>
			</g>
		</g>
	</g>
	<g>
		<g>
			<path class="st2" d="M37.4023,56.6357c0.0108,0.001,0.0205,0.002,0.0303,0.0039c0.6299,0.0503,1.2481,0.0449,1.8652,0.0171
				c0.0547-0.25,0.1123-0.499,0.1915-0.7407c1.1269-3.4683,4.456-5.6924,8.0976-5.4063c0.8848,0.0689,1.7236,0.2901,2.4961,0.625
				c0.3945-0.4912,0.7559-1.0078,1.084-1.5498c-1.0498-0.5053-2.2051-0.8369-3.4356-0.9331
				c-4.5019-0.353-8.6201,2.396-10.0156,6.688C37.5791,55.7627,37.4805,56.1967,37.4023,56.6357"/>
		</g>
	</g>
	<g>
		<g>
			<path class="st3" d="M34.9717,56.2192c0.0996-0.5581,0.2304-1.1099,0.4043-1.646c1.7461-5.374,6.9062-8.8188,12.5478-8.376
				c1.5322,0.1192,2.9951,0.5269,4.3399,1.1739c0.1103-0.2769,0.2216-0.5547,0.3134-0.8418
				c0.1133-0.3418,0.2071-0.6919,0.293-1.0459c-1.4941-0.6841-3.1055-1.1211-4.793-1.253
				c-6.5527-0.5141-12.5468,3.4888-14.5781,9.7339c-0.1738,0.5401-0.3164,1.0908-0.4258,1.6509
				C33.6836,55.8623,34.3232,56.0551,34.9717,56.2192"/>
		</g>
	</g>
	<g>
		<g>
			<path class="st2" d="M52.5781,46.5293c0.1162-0.357,0.2149-0.7227,0.3018-1.0918c-2.4453-1.482-3.9942-4.251-3.7578-7.293
				c0.0488-0.6172,0.1699-1.2261,0.3593-1.8091c0.3018-0.9311,0.7686-1.7671,1.3526-2.4931
				c-0.3731-0.5621-0.7803-1.1001-1.2295-1.605c-0.8789,0.9873-1.5694,2.1631-2,3.4883c-0.2373,0.7309-0.3867,1.4917-0.4483,2.2646
				c-0.3095,3.9751,1.8155,7.584,5.1104,9.3701C52.3769,47.0864,52.4863,46.8125,52.5781,46.5293"/>
		</g>
	</g>
	<g>
		<g>
			<path class="st4" d="M50.1103,51.1035c0.3858-0.4868,0.7422-0.9981,1.0645-1.5342c-4.1699-2.2207-6.8633-6.7656-6.4717-11.772
				c0.0762-0.9687,0.2627-1.9248,0.5615-2.8398c0.5479-1.687,1.4317-3.1851,2.5596-4.4331
				c-0.4853-0.3906-0.9971-0.7461-1.5283-1.0737c-1.2285,1.4028-2.1973,3.0629-2.8027,4.9296
				c-0.3428,1.0562-0.5606,2.1563-0.6504,3.271C42.3975,43.3408,45.415,48.5078,50.1103,51.1035"/>
		</g>
	</g>
	<g>
		<g>
			<path class="st1" d="M39.6377,38.9892c0.4541-1.3979,0.7451-2.8569,0.8594-4.3369c0.2011-2.5659-0.127-5.0542-0.8936-7.354
				c-0.831-0.0581-1.6494-0.0381-2.4502,0.04c0.8438,2.2051,1.2276,4.626,1.0313,7.1329c-0.1016,1.2959-0.3555,2.5771-0.753,3.8012
				c-1.7988,5.5337-6.2929,9.5357-11.7041,10.8467c0.3985,0.7183,0.8662,1.3921,1.378,2.0332
				C32.9111,49.4614,37.6777,45.0234,39.6377,38.9892"/>
		</g>
	</g>
	<g>
		<g>
			<path class="st2" d="M33.1133,28.3257c1.5781,2.5522,4.2988,4.351,7.5127,4.604c2.7109,0.2128,5.2783-0.7061,7.2002-2.4029
				c-0.4981-0.4038-1.0284-0.768-1.5791-1.105c-1.5098,1.1861-3.4434,1.8101-5.4766,1.6499
				c-2.4375-0.1918-4.5303-1.4819-5.834-3.3452C34.3115,27.8857,33.7051,28.0879,33.1133,28.3257"/>
		</g>
	</g>
	<g>
		<g>
			<path class="st3" d="M29.2969,30.5732c2.2881,3.7559,6.2724,6.4082,10.9795,6.7769c3.9726,0.311,7.7334-1.044,10.5371-3.543
				c-0.3692-0.5479-0.7696-1.0728-1.2051-1.5669c-2.4219,2.2129-5.707,3.416-9.1758,3.144
				c-4.1025-0.3217-7.5683-2.6547-9.5254-5.9487C30.3457,29.7802,29.8076,30.1591,29.2969,30.5732"/>
		</g>
	</g>
	<g>
		<g>
			<path class="st1" d="M52.8027,38.2353c-0.2051-0.7832-0.459-1.5449-0.7861-2.2739c-3.2285,2.7759-7.4971,4.2729-12.0029,3.9199
				c-4.376-0.3442-8.3565-2.3711-11.21-5.708c-0.4932-0.5801-0.9258-1.1938-1.333-1.8237c-0.5244,0.6035-1.002,1.249-1.4229,1.9365
				c0.3282,0.4624,0.6748,0.9121,1.0479,1.3481c3.2412,3.792,7.7666,6.0972,12.7422,6.4883
				C44.6465,42.4995,49.2246,41.0283,52.8027,38.2353"/>
		</g>
	</g>
</g>
<g id="WHITE" class="st5">
	<g class="st6">
		<g class="st7">
			<g>
				<path class="st8" d="M36.9326,56.6352c0.0108,0.001,0.0195,0.002,0.0303,0.003c0.6299,0.0512,1.25,0.0459,1.8662,0.017
					c0.0537-0.249,0.1123-0.498,0.1914-0.7402c1.126-3.4678,4.4551-5.6919,8.0957-5.4058c0.8867,0.0689,1.7246,0.2911,2.4981,0.626
					c0.3935-0.4907,0.7548-1.0088,1.083-1.5508c-1.0489-0.5053-2.2051-0.8374-3.4356-0.9321
					c-4.5019-0.353-8.6201,2.395-10.0146,6.687C37.1094,55.7622,37.0117,56.1963,36.9326,56.6352"/>
			</g>
		</g>
		<g class="st9">
			<g>
				<path class="st8" d="M34.5019,56.2187c0.0987-0.5581,0.2315-1.1098,0.4053-1.645c1.7461-5.374,6.9053-8.8188,12.5469-8.377
					c1.5342,0.1192,2.9961,0.5259,4.3408,1.1749c0.1104-0.2779,0.2207-0.5557,0.3145-0.8428
					c0.1113-0.3423,0.2041-0.6919,0.292-1.0449c-1.4942-0.6841-3.1065-1.1211-4.793-1.254
					c-6.5537-0.5141-12.5479,3.4888-14.5772,9.7349c-0.1757,0.5391-0.3183,1.0908-0.4267,1.6499
					C33.2148,55.8618,33.8525,56.0547,34.5019,56.2187"/>
			</g>
		</g>
		<g class="st7">
			<g>
				<path class="st8" d="M52.1094,46.5288c0.1152-0.356,0.2148-0.7232,0.3017-1.0928c-2.4443-1.48-3.9951-4.2515-3.7578-7.292
					c0.0479-0.6172,0.1699-1.2251,0.3594-1.8091c0.3017-0.9311,0.7676-1.7671,1.3525-2.4931
					c-0.374-0.5611-0.7822-1.1001-1.2295-1.605c-0.8779,0.9868-1.5693,2.164-2,3.4878c-0.2373,0.7314-0.3886,1.4922-0.4492,2.2651
					c-0.3096,3.9751,1.8145,7.584,5.1123,9.3711C51.9082,47.0859,52.0176,46.811,52.1094,46.5288"/>
			</g>
		</g>
		<g class="st10">
			<g>
				<path class="st8" d="M49.6406,51.104c0.3867-0.4878,0.7432-1,1.0664-1.5352c-4.1728-2.2207-6.8652-6.7646-6.4726-11.772
					c0.0761-0.9687,0.2636-1.9238,0.5605-2.8398c0.5488-1.687,1.4317-3.1851,2.5606-4.4321
					c-0.4854-0.3921-0.9971-0.7471-1.5293-1.0747c-1.2286,1.4028-2.1953,3.0639-2.8028,4.9306
					c-0.3427,1.0552-0.5605,2.1553-0.6484,3.27C41.9277,43.3398,44.9463,48.5068,49.6406,51.104"/>
			</g>
		</g>
		<g class="st11">
			<g>
				<path class="st8" d="M39.1689,38.9897c0.4541-1.3989,0.7442-2.8569,0.8594-4.3379c0.2002-2.5649-0.1269-5.0532-0.8945-7.354
					c-0.8311-0.0571-1.6485-0.0371-2.4502,0.041c0.8457,2.2041,1.2275,4.626,1.0312,7.1328
					c-0.1005,1.295-0.3545,2.5762-0.7529,3.8013c-1.7978,5.5327-6.292,9.5347-11.7041,10.8457
					c0.4004,0.7183,0.8662,1.3931,1.3789,2.0332C32.4404,49.4599,37.209,45.0229,39.1689,38.9897"/>
			</g>
		</g>
		<g class="st7">
			<g>
				<path class="st8" d="M32.6445,28.3257c1.5781,2.5512,4.2989,4.351,7.5108,4.604c2.7109,0.2128,5.2802-0.7061,7.2021-2.4039
					c-0.499-0.4028-1.0293-0.7661-1.5801-1.103c-1.5097,1.1831-3.4433,1.8081-5.4765,1.648
					c-2.4375-0.1909-4.5303-1.481-5.833-3.3452C33.8418,27.8867,33.2353,28.0879,32.6445,28.3257"/>
			</g>
		</g>
		<g class="st9">
			<g>
				<path class="st8" d="M28.8281,30.5737c2.2881,3.7559,6.2705,6.4072,10.9795,6.7769c3.9717,0.311,7.7334-1.045,10.5352-3.544
					c-0.3672-0.5469-0.7686-1.0718-1.2032-1.5659c-2.4228,2.2119-5.708,3.415-9.1767,3.1431
					c-4.1016-0.3223-7.5684-2.6543-9.5254-5.9493C29.8769,29.7798,29.3379,30.1577,28.8281,30.5737"/>
			</g>
		</g>
		<g class="st11">
			<g>
				<path class="st8" d="M52.333,38.2358c-0.2041-0.7842-0.458-1.5459-0.7861-2.2739c-3.2285,2.7759-7.4971,4.2729-12.003,3.9189
					c-4.3759-0.3437-8.3574-2.3711-11.2089-5.707c-0.4932-0.5801-0.9268-1.1948-1.3331-1.8242
					c-0.5244,0.6045-1.0019,1.248-1.4238,1.9365c0.3281,0.4629,0.6758,0.9116,1.0479,1.3477
					c3.2412,3.7919,7.7666,6.0981,12.7431,6.4882C44.1777,42.498,48.7559,41.0288,52.333,38.2358"/>
			</g>
		</g>
		<g class="st0">
			<g>
				<text transform="matrix(1 0 0 1 64.2151 50.2778)"><tspan x="0" y="0" class="st8 st12 st13 st14">J</tspan><tspan x="14.825" y="0" class="st8 st12 st13">O</tspan><tspan x="35.2858" y="0" class="st8 st12 st13 st14">L</tspan><tspan x="50.2114" y="0" class="st8 st12 st13">O</tspan><tspan x="70.6721" y="0" class="st8 st12 st13 st14">C</tspan><tspan x="90.1427" y="0" class="st8 st12 st13">O</tspan><tspan x="110.6034" y="0" class="st8 st12 st13">M</tspan></text>
			</g>
		</g>
	</g>
</g>
</svg>
