<svg xmlns="http://www.w3.org/2000/svg" viewBox="-147 273 24 24"><switch><g><path fill="none" d="M-147 273h24v24h-24v-24z"/><path fill="#4B132B" d="M-137.3 287.2c.2.9.5 1.5.8 2-1-.4-1.9-1.1-2.5-2h1.7zm.9-6.5c-1.1.3-1.9 1.1-2.5 2h1.6c.3-.8.6-1.5.9-2zm1.4 8.7c.3-.3.9-.9 1.2-2.1h-2.4c.3 1.2.9 1.8 1.2 2.1zm0-8.8c-.3.3-.9.9-1.2 2.1h2.4c-.3-1.2-.9-1.8-1.2-2.1zm3.9 2.2c-.5-.9-1.4-1.7-2.5-2 .3.5.6 1.1.8 2h1.7zm-6.4 2.2c0-.5 0-.9.1-1.2h-1.9c-.1.4-.2.8-.2 1.2s.1.9.2 1.2h1.9c-.1-.3-.1-.7-.1-1.2zm3.9-1.2h-2.8c-.1.4-.1.8-.1 1.2 0 .5 0 .9.1 1.2h2.8c0-.4.1-.8.1-1.2 0-.5 0-.9-.1-1.2zm6.6-6.8v16c0 1.1-.9 2-2 2h-12c-1.1 0-2-.9-2-2v-16c0-1.1.9-2 2-2h12c1.1 0 2 .9 2 2zm-2.5 8c0-3-2.5-5.5-5.5-5.5s-5.5 2.5-5.5 5.5 2.5 5.5 5.5 5.5 5.5-2.5 5.5-5.5zm-3 0c0 .5 0 .9-.1 1.2h1.9c.1-.4.2-.8.2-1.2s-.1-.9-.2-1.2h-1.9c.1.3.1.7.1 1.2zm-1.1 4.2c1-.4 1.9-1.1 2.4-2h-1.6c-.1.9-.4 1.6-.8 2z"/></g></switch></svg>