<?xml version="1.0" encoding="utf-8"?>
<!-- Generator: Adobe Illustrator 21.0.2, SVG Export Plug-In . SVG Version: 6.00 Build 0)  -->
<svg version="1.1" id="Ebene_1" xmlns="http://www.w3.org/2000/svg" xmlns:xlink="http://www.w3.org/1999/xlink" x="0px" y="0px"
	 viewBox="0 0 360 640" style="enable-background:new 0 0 360 640;" xml:space="preserve">
<style type="text/css">
	.st0{fill:none;stroke:#C3C6CC;stroke-width:1.5702;stroke-miterlimit:10;}
	.st1{fill:none;stroke:#EFEFEF;stroke-width:4.7107;stroke-miterlimit:10;}
	.st2{fill:#EFEFEF;}
	.st3{fill:none;stroke:#EFEFEF;stroke-width:9.4214;stroke-miterlimit:10;}
	.st4{fill:none;stroke:#B6CB11;stroke-width:4.7107;stroke-miterlimit:10;}
	.st5{fill:#D2D2D2;}
	.st6{fill:#F0F0F0;}
	.st7{fill:#A2B6D2;}
	.st8{fill:#B6CB11;}
	.st9{fill:#E9ECF2;}
	.st10{fill:#333333;}
	.st11{fill:#7D828C;}
	.st12{fill:#F7F7F7;}
	.st13{fill:none;stroke:#F7F7F7;stroke-width:1.5702;stroke-miterlimit:10;}
	.st14{fill:none;stroke:#F7F7F7;stroke-width:0.7851;stroke-miterlimit:10;}
	.st15{fill:#B7C1D3;}
	.st16{clip-path:url(#SVGID_4_);}
	.st17{fill:#C6A07E;}
	.st18{fill:#B79174;}
	.st19{fill:#5A4A42;}
	.st20{fill:#AE6045;}
	.st21{fill:#432A18;}
	.st22{fill:#7C5235;}
	.st23{fill:#4A3120;}
	.st24{opacity:0.05;}
	.st25{fill:#020203;}
	.st26{fill:#C3C6CC;}
	.st27{fill:#839BBF;}
	.st28{fill:#9BA0AA;}
	.st29{fill:#B1B4BA;}
	.st30{fill:#E4E4E4;}
	.st31{fill:#953052;}
	.st32{fill:none;stroke:#7D828C;stroke-width:0.4711;stroke-miterlimit:10;}
	.st33{fill:#E8540C;}
	.st34{fill:#FFFFFF;}
	.st35{clip-path:url(#SVGID_6_);}
	.st36{opacity:0.5;fill:#B6CB11;}
</style>
<g>
	<path class="st0" d="M243.6606,220.4032c0-11.7307-9.5097-21.2395-21.2431-21.2395H117.5063
		c-11.7334,0-21.2433,9.5088-21.2433,21.2395v245.3737c0,11.7343,9.5099,21.2431,21.2433,21.2431h104.9111
		c11.7334,0,21.2431-9.5088,21.2431-21.2431V220.4032z M170.8286,475.1715c-7.6646,0-13.8707-6.21-13.8707-13.8755
		c0-7.6619,6.2061-13.8736,13.8707-13.8736c7.6619,0,13.8736,6.2117,13.8736,13.8736
		C184.7022,468.9616,178.4905,475.1715,170.8286,475.1715 M233.2554,436.7353h-126.587V247.7159h126.587V436.7353z"/>
	<line class="st1" x1="169.1868" y1="348.7466" x2="141.0267" y2="493.1362"/>
	<line class="st1" x1="171.9248" y1="343.6648" x2="196.9117" y2="146.1427"/>
	<line class="st1" x1="169.1868" y1="348.7466" x2="228.7989" y2="469.6828"/>
	<line class="st1" x1="171.9248" y1="343.6648" x2="114.1401" y2="185.248"/>
	<line class="st1" x1="149.4074" y1="346.6853" x2="65.8706" y2="347.2428"/>
	<circle class="st2" cx="170.7887" cy="348.1749" r="52.8834"/>
	<g>
		<g>
			<path class="st3" d="M211.5509,434.3179"/>
			<path class="st3" d="M170.7686,348.8154"/>
			<line class="st1" x1="170.7686" y1="348.8154" x2="65.2354" y2="433.0874"/>
		</g>
		<g>
			<line class="st1" x1="170.7686" y1="348.8154" x2="258.4492" y2="213.1393"/>
			<line class="st4" x1="170.7686" y1="348.8154" x2="281.317" y2="313.4734"/>
			<line class="st1" x1="170.7686" y1="348.8154" x2="249.8556" y2="389.1394"/>
			<line class="st1" x1="170.7686" y1="348.8154" x2="95.7384" y2="284.6864"/>
			<path class="st3" d="M169.1868,348.7466"/>
		</g>
	</g>
	<path class="st5" d="M219.9878,348.1753c0,27.1719-22.0272,49.1991-49.1991,49.1991s-49.199-22.0272-49.199-49.1991h49.199v-49.199
		C197.9606,298.9762,219.9878,321.0034,219.9878,348.1753z"/>
	<g>
		<defs>
			<circle id="SVGID_1_" cx="170.7887" cy="348.1747" r="39.3965"/>
		</defs>
		<use xlink:href="#SVGID_1_"  style="overflow:visible;fill:#FFFFFF;"/>
		<clipPath id="SVGID_2_">
			<use xlink:href="#SVGID_1_"  style="overflow:visible;"/>
		</clipPath>
	</g>
	<circle class="st6" cx="49.7811" cy="347.5078" r="24.1453"/>
	<circle class="st7" cx="96.2619" cy="284.7337" r="24.1453"/>
	<g>
		<circle class="st7" cx="256.5242" cy="389.6189" r="24.1453"/>
	</g>
	<circle class="st8" cx="302.1667" cy="306.8042" r="35.3788"/>
	<circle class="st9" cx="258.3602" cy="216.0475" r="30.0946"/>
	<g>
		<circle class="st9" cx="111.4069" cy="197.6298" r="38.2365"/>
		<path class="st10" d="M127.3406,212.6865H95.4731c-3.4545,0-6.281-2.8264-6.281-6.281v-16.8109c0-3.4545,2.8264-6.281,6.281-6.281
			h31.8676c3.4545,0,6.281,2.8264,6.281,6.281v16.8109C133.6216,209.8601,130.7952,212.6865,127.3406,212.6865z"/>
		<path class="st11" d="M127.3406,211.946H95.4731c-3.4545,0-6.281-2.8264-6.281-6.281v-16.8109c0-3.4545,2.8264-6.281,6.281-6.281
			h31.8676c3.4545,0,6.281,2.8264,6.281,6.281v16.8109C133.6216,209.1196,130.7952,211.946,127.3406,211.946z"/>
		<path class="st12" d="M102.117,201.715h-4.1917c-3.4545,0-6.281-2.8264-6.281-6.281v-4.1917c0-3.4545,2.8264-6.281,6.281-6.281
			h4.1917c3.4545,0,6.281,2.8264,6.281,6.281v4.1917C108.3979,198.8885,105.5715,201.715,102.117,201.715z"/>
		<circle class="st11" cx="99.8926" cy="190.2528" r="4.1487"/>
		<circle class="st11" cx="99.8926" cy="201.3681" r="6.2262"/>
		<path class="st13" d="M101.9318,201.5298h-4.0066c-3.4545,0-6.281-2.8264-6.281-6.281v-4.0066c0-3.4545,2.8264-6.281,6.281-6.281
			h4.0066c3.4545,0,6.281,2.8264,6.281,6.281v4.0066C108.2128,198.7034,105.3864,201.5298,101.9318,201.5298z"/>
		<g>
			<path class="st6" d="M130.7755,193.9845h-19.3932c-0.5214,0-0.948-0.4266-0.948-0.948l0,0c0-0.5214,0.4266-0.948,0.948-0.948
				h19.3932c0.5214,0,0.948,0.4266,0.948,0.948l0,0C131.7234,193.5579,131.2968,193.9845,130.7755,193.9845z"/>
			<path class="st6" d="M130.7755,197.788h-19.3932c-0.5214,0-0.948-0.4266-0.948-0.948l0,0c0-0.5214,0.4266-0.948,0.948-0.948
				h19.3932c0.5214,0,0.948,0.4266,0.948,0.948l0,0C131.7234,197.3614,131.2968,197.788,130.7755,197.788z"/>
			<path class="st6" d="M130.7755,201.5915h-19.3932c-0.5214,0-0.948-0.4266-0.948-0.948l0,0c0-0.5214,0.4266-0.948,0.948-0.948
				h19.3932c0.5214,0,0.948,0.4266,0.948,0.948l0,0C131.7234,201.165,131.2968,201.5915,130.7755,201.5915z"/>
		</g>
		<path class="st14" d="M95.4537,207.8251c0.8731-0.103,1.754,0.0356,2.6276,0.1343c0.8736,0.0987,1.7761,0.1552,2.6162-0.104
			c0.8401-0.2592,1.6139-0.8963,1.8039-1.7547c0.1901-0.8584-0.3901-1.8771-1.2655-1.9591
			c-0.6045-0.0566-1.1866,0.3241-1.5224,0.8299c-0.3358,0.5058-0.4661,1.1187-0.5489,1.7201
			c-0.0379,0.2752-0.0642,0.5699,0.0615,0.8176c0.1451,0.2858,0.457,0.4411,0.7538,0.5623c2.3376,0.9545,5.0482,0.957,7.3876,0.007
			c0.6829-0.2773,1.743-0.7946,1.6118-1.4039c-0.1312-0.6093-1.6201-0.4606-2.4408-0.274
			c-0.8675,0.1972-1.8561,0.9224-1.5626,1.7622c0.2334,0.6678,1.1046,0.8257,1.8101,0.7744c2.8584-0.208,7.2186-4.1643,6.561-4.8371
			c-0.6576-0.6728-1.9928,0.7828-2.3918,1.7615c-0.399,0.9787-1.0922,3.3203-0.3501,3.1273s3.7508-2.6337,4.2597-2.4778
			c0.5089,0.1559-0.5791,1.3771,0.0806,1.4144c0.6597,0.0373,2.073-1.5282,2.5697-1.4165c0.4966,0.1117-0.0586,0.9053,0.3242,1.1299
			c0.3828,0.2246,0.8583,0.2038,1.298,0.1432c1.2141-0.1675,2.5364-1.2574,3.436-1.2325c0.8996,0.0249,0.7361,1.4595,1.2909,2.0506
			c0.5548,0.5911,1.3284,1.0284,2.1382,0.9908"/>
		<path class="st14" d="M95.4537,207.8251c0.8731-0.103,1.754,0.0356,2.6276,0.1343c0.8736,0.0987,1.7761,0.1552,2.6162-0.104
			c0.8401-0.2592,1.6139-0.8963,1.8039-1.7547c0.1901-0.8584-0.3901-1.8771-1.2655-1.9591
			c-0.6045-0.0566-1.1866,0.3241-1.5224,0.8299c-0.3358,0.5058-0.4661,1.1187-0.5489,1.7201
			c-0.0379,0.2752-0.0642,0.5699,0.0615,0.8176c0.1451,0.2858,0.457,0.4411,0.7538,0.5623c2.3376,0.9545,5.0482,0.957,7.3876,0.007
			c0.6829-0.2773,1.743-0.7946,1.6118-1.4039c-0.1312-0.6093-1.6201-0.4606-2.4408-0.274
			c-0.8675,0.1972-1.8561,0.9224-1.5626,1.7622c0.2334,0.6678,1.1046,0.8257,1.8101,0.7744c2.8584-0.208,7.2186-4.1643,6.561-4.8371
			c-0.6576-0.6728-1.9928,0.7828-2.3918,1.7615c-0.399,0.9787-1.0922,3.3203-0.3501,3.1273s3.7508-2.6337,4.2597-2.4778
			c0.5089,0.1559-0.5791,1.3771,0.0806,1.4144c0.6597,0.0373,2.073-1.5282,2.5697-1.4165c0.4966,0.1117-0.0586,0.9053,0.3242,1.1299
			c0.3828,0.2246,0.8583,0.2038,1.298,0.1432c1.2141-0.1675,2.5364-1.2574,3.436-1.2325c0.8996,0.0249,0.7361,1.4595,1.2909,2.0506
			c0.5548,0.5911,1.3284,1.0284,2.1382,0.9908"/>
	</g>
	<circle class="st15" cx="243.6601" cy="494.2682" r="38.2365"/>
	<g>
		<defs>
			<circle id="SVGID_3_" cx="141.6299" cy="497.5333" r="25.849"/>
		</defs>
		<use xlink:href="#SVGID_3_"  style="overflow:visible;fill:#F0F0F0;"/>
		<clipPath id="SVGID_4_">
			<use xlink:href="#SVGID_3_"  style="overflow:visible;"/>
		</clipPath>
		<g class="st16">
			<path class="st6" d="M155.7939,529.5056h-27.8392v-7.1118c0-7.6876,6.232-13.9196,13.9196-13.9196h0
				c7.6876,0,13.9196,6.232,13.9196,13.9196V529.5056z"/>
			<path class="st17" d="M141.8743,514.3703L141.8743,514.3703c0,0-3.7686-1.6873-3.7686-3.7686v-8.0235h7.5373v8.0235
				C145.643,512.683,141.8743,514.3703,141.8743,514.3703z"/>
			<path class="st18" d="M138.1057,505.0003v4.8307c1.1784,0.4218,2.4471,0.6522,3.7686,0.6522
				c1.3216,0,2.5902-0.2304,3.7686-0.6522v-4.8307H138.1057z"/>
			<path class="st17" d="M131.9508,492.9148c-1.0993,0-1.9905,0.8912-1.9905,1.9905l0,0c0,1.0993,0.8912,1.9905,1.9905,1.9905
				h1.9385v-3.981H131.9508z"/>
			<path class="st17" d="M151.7018,496.8958c1.0993,0,1.9905-0.8912,1.9905-1.9905l0,0c0-1.0993-0.8912-1.9905-1.9905-1.9905
				h-1.9385v3.981H151.7018z"/>
			<path class="st17" d="M141.8743,509.0244c-5.2636,0-9.7554-6.7248-9.7554-9.7554v-10.118c0-5.3878,4.3676-9.7554,9.7554-9.7554h0
				c5.3877,0,9.7554,4.3676,9.7554,9.7554v10.118C151.6297,502.2701,147.1379,509.0244,141.8743,509.0244z"/>
			<g>
				<ellipse class="st19" cx="137.5435" cy="493.7229" rx="1.1853" ry="0.8205"/>
				<ellipse class="st19" cx="146.2052" cy="493.7229" rx="1.1853" ry="0.8205"/>
			</g>
			<path class="st20" d="M143.4093,502.0087c0,0-0.7979-0.2496-1.3547-0.2121c-0.0753,0.0051-0.1257,0.2375-0.1897,0.2375
				c-0.0934,0-0.1315-0.2241-0.2446-0.2343c-0.537-0.0482-1.2997,0.2089-1.2997,0.2089c-0.3202,0.1005-0.56,0.2507-0.56,0.56
				s0.2734,0.4782,0.56,0.56c0.2866,0.0818,0.9695,0.3036,1.5443,0.3036c0.5748,0,1.2866-0.2166,1.5443-0.3036
				c0.2577-0.0869,0.56-0.2507,0.56-0.56S143.7272,502.1078,143.4093,502.0087z"/>
			<path class="st21" d="M138.3051,478.5494c-2.0589,0.4844-1.9469,1.7183-1.9469,1.7183c0,4.7979,4.2278,4.9831,7.1344,5.7097
				c4.7233,0.7267,5.4499,9.8098,5.4499,9.8098l1.3322,9.6282c0,0,2.9387-9.6915,2.9387-11.1255c0,0,1.4818-6.7381-2.1515-12.7935
				C147.4286,475.4409,138.3051,478.5494,138.3051,478.5494z"/>
			<g>
				<path class="st22" d="M138.6677,490.7441l-3.6985-0.4265c-0.2334-0.0269-0.4009-0.238-0.3739-0.4714
					c0.0269-0.2335,0.238-0.4008,0.4714-0.3739l3.6985,0.4265c0.2334,0.0269,0.4008,0.238,0.3739,0.4714
					S138.9011,490.771,138.6677,490.7441z"/>
			</g>
			<g>
				<path class="st22" d="M145.0943,490.7808l3.689-0.5021c0.2328-0.0317,0.3959-0.2462,0.3642-0.479s-0.2462-0.3959-0.479-0.3642
					l-3.689,0.5021c-0.2328,0.0317-0.3959,0.2461-0.3642,0.479C144.647,490.6495,144.8615,490.8125,145.0943,490.7808z"/>
			</g>
			<path class="st23" d="M136.3582,480.4292c0,0-1.4845,0.0984-2.6149,0.7846c-1.1303,0.6863-2.8067,1.4985-2.947,4.5618
				c-0.1403,3.0633,1.3324,8.4111,1.3226,8.1951c0,0,1.4226-7.6198,2.5529-8.7199c1.1206-1.0907,2.3011-2.6644,2.3011-2.6644
				L136.3582,480.4292z"/>
			<g class="st24">
				<path class="st25" d="M137.5726,525.7645c-1.7979,0-3.2768-1.0338-3.4573-2.3593c-0.0122,0.0898-0.0187,0.1808-0.0187,0.2732
					c0,1.4539,1.5562,2.6326,3.4761,2.6326s3.4761-1.1786,3.4761-2.6326c0-0.0923-0.0065-0.1834-0.0187-0.2732
					C140.8495,524.7307,139.3705,525.7645,137.5726,525.7645z"/>
			</g>
			<g class="st24">
				<path class="st25" d="M146.1714,525.7645c-1.7979,0-3.2768-1.0338-3.4573-2.3593c-0.0122,0.0898-0.0187,0.1808-0.0187,0.2732
					c0,1.4539,1.5562,2.6326,3.4761,2.6326s3.4761-1.1786,3.4761-2.6326c0-0.0923-0.0065-0.1834-0.0187-0.2732
					C149.4482,524.7307,147.9693,525.7645,146.1714,525.7645z"/>
			</g>
			<path class="st17" d="M132.4515,529.5056h-4.4968v-7.1118c0-4.0656,1.743-7.7241,4.5225-10.269L132.4515,529.5056z"/>
			<path class="st17" d="M151.326,529.5056h4.4968v-7.1118c0-4.0656-1.743-7.7241-4.5225-10.269L151.326,529.5056z"/>
		</g>
	</g>
	<g>
		<path class="st26" d="M269.3578,211.9045h-22.1239c-0.5299,0-0.9635,0.4336-0.9635,0.9635l0,0
			c0,0.5299,0.4336,0.9635,0.9635,0.9635h22.1239c0.5299,0,0.9635-0.4336,0.9635-0.9635l0,0
			C270.3213,212.338,269.8877,211.9045,269.3578,211.9045z"/>
		<g>
			<path class="st26" d="M254.1147,212.7169h-2.8364c-0.5343,0-0.9714-0.4371-0.9714-0.9714l0,0
				c0-0.5343,0.4371-0.9714,0.9714-0.9714h2.8364c0.5343,0,0.9714,0.4371,0.9714,0.9714l0,0
				C255.086,212.2798,254.6489,212.7169,254.1147,212.7169z"/>
			<path class="st26" d="M265.3239,212.7169h-2.8364c-0.5342,0-0.9713-0.4371-0.9713-0.9714l0,0
				c0-0.5343,0.4371-0.9714,0.9713-0.9714h2.8364c0.5342,0,0.9713,0.4371,0.9713,0.9714l0,0
				C266.2952,212.2798,265.8581,212.7169,265.3239,212.7169z"/>
		</g>
		<path class="st11" d="M247.2359,226.7945L247.2359,226.7945c-1.0228,0-1.8596-0.8368-1.8596-1.8596l0-3.2745
			c0-1.0228,0.8369-1.8596,1.8596-1.8596h0c1.0228,0,1.8596,0.8368,1.8596,1.8596v3.2745
			C249.0955,225.9577,248.2587,226.7945,247.2359,226.7945z"/>
		<path class="st11" d="M269.4606,226.7945L269.4606,226.7945c-1.0228,0-1.8596-0.8368-1.8596-1.8596v-3.2745
			c0-1.0228,0.8369-1.8596,1.8596-1.8596l0,0c1.0228,0,1.8596,0.8368,1.8596,1.8596v3.2745
			C271.3202,225.9577,270.4834,226.7945,269.4606,226.7945z"/>
		<path class="st7" d="M272.723,219.0125c0-2.8843-0.8245-5.2897-1.9227-5.8646l-2.6275-6.3357
			c-0.3023-0.8766-1.1492-1.5117-2.1467-1.5117h-15.3876c-0.9981,0-1.845,0.635-2.1473,1.5117l-2.599,6.255
			c-1.2391,0.2738-2.2129,2.8145-2.2129,5.9453c0,2.1716,0.4678,3.506,1.1678,4.1853l26.4705-0.0048
			C272.1456,222.2374,272.723,221.4197,272.723,219.0125z M247.127,213.1285l2.7957-6.8038h16.7074l2.9068,6.8038H247.127z"/>
		<path class="st27" d="M243.7572,220.4365c0.1605,1.3515,0.5583,2.2454,1.0899,2.7614l26.4705-0.0048
			c0.6211-0.7167,1.1011-1.3558,1.3023-2.6461L243.7572,220.4365z"/>
		<path class="st11" d="M272.1207,213.1443h-1.3987c-0.577,0-1.0491-0.4721-1.0491-1.0491l0,0c0-0.577,0.4721-1.0491,1.0491-1.0491
			h1.3987c0.577,0,1.0491,0.4721,1.0491,1.0491l0,0C273.1698,212.6722,272.6977,213.1443,272.1207,213.1443z"/>
		<path class="st11" d="M245.9984,213.1443h-1.3988c-0.577,0-1.0491-0.4721-1.0491-1.0491l0,0c0-0.577,0.4721-1.0491,1.0491-1.0491
			h1.3988c0.577,0,1.0491,0.4721,1.0491,1.0491l0,0C247.0475,212.6722,246.5754,213.1443,245.9984,213.1443z"/>
		<polygon class="st6" points="257.6807,213.1345 255.8545,213.1345 258.3412,206.3221 260.1673,206.3221 		"/>
		<polygon class="st6" points="253.9506,213.1345 253.3678,213.1345 255.8545,206.3221 256.4373,206.3221 		"/>
		<polygon class="st6" points="254.6803,213.1393 254.3975,213.1345 256.8841,206.3221 257.167,206.3268 		"/>
		<polygon class="st6" points="258.4492,213.1393 258.1663,213.1345 260.653,206.3221 260.9359,206.3268 		"/>
		<path class="st26" d="M252.8051,220.4496c0.5792-0.9302,1.5741-2.4096,2.0429-2.4096h6.9938c0.4694,0,1.466,1.4828,2.0449,2.4128"
			/>
		<path class="st28" d="M263.0884,222.4435h-9.4805c-0.6838,0-1.2433-0.5595-1.2433-1.2433c0,0,0.1856-0.324,0.4603-0.7641
			l11.0468,0.0002c0.2746,0.44,0.4601,0.7639,0.4601,0.7639C264.3318,221.884,263.7723,222.4435,263.0884,222.4435z"/>
		<path class="st12" d="M249.5342,220.4878h-3.1084c-0.6838,0-1.2433-0.3917-1.2433-0.8703v-0.7072
			c0-0.4787,0.5595-0.8703,1.2433-0.8703h3.1084c0.6838,0,1.2433,0.3916,1.2433,0.8703v0.7072
			C250.7775,220.0961,250.218,220.4878,249.5342,220.4878z"/>
		<path class="st12" d="M270.0493,220.4878h-3.1084c-0.6838,0-1.2433-0.3917-1.2433-0.8703v-0.7072
			c0-0.4787,0.5595-0.8703,1.2433-0.8703h3.1084c0.6838,0,1.2433,0.3916,1.2433,0.8703v0.7072
			C271.2927,220.0961,270.7332,220.4878,270.0493,220.4878z"/>
	</g>
	<g>
		<circle class="st9" cx="196.9117" cy="146.1427" r="38.2365"/>
		<g>
			<path class="st29" d="M206.291,128.6055h-17.7399h-4.435h-2.2175c-2.4614,0-4.4128,1.9957-4.4128,4.435l-0.0222,31.0448
				c0,2.4392,1.9736,4.435,4.435,4.435h31.0448c2.4392,0,4.435-1.9957,4.435-4.435v-31.0448c0-2.4392-1.9957-4.435-4.435-4.435
				h-2.2175H206.291z M212.9435,164.0853h-31.0448"/>
			<path class="st30" d="M205.2722,127.7565h-17.7399h-4.435h-2.2175c-2.4614,0-4.4128,1.9957-4.4128,4.435l-0.0222,31.0448
				c0,2.4392,1.9736,4.435,4.435,4.435h31.0448c2.4392,0,4.435-1.9957,4.435-4.435v-31.0448c0-2.4392-1.9957-4.435-4.435-4.435
				h-2.2175H205.2722z M211.9247,163.2363h-31.0448v-24.3924h31.0448V163.2363z"/>
			<path class="st31" d="M205.2722,127.7557h-17.7402h-4.4347h-2.2181c-2.461,0-4.4115,1.9969-4.4115,4.4362l-0.0046,6.628h39.8965
				v-6.628c0-2.4393-1.9954-4.4362-4.4347-4.4362h-2.2181H205.2722z M180.8798,138.8439h31.0448"/>
			<rect x="184.2511" y="123.7652" class="st26" width="3.1678" height="8.7116"/>
			<rect x="204.605" y="123.8398" class="st26" width="3.1678" height="8.7116"/>
			<g>
				<rect x="183.9289" y="140.837" class="st30" width="5.9036" height="5.9036"/>
				<rect x="190.4185" y="140.837" class="st30" width="5.9036" height="5.9036"/>
				<rect x="196.9082" y="140.837" class="st30" width="5.9036" height="5.9036"/>
				<rect x="203.3979" y="140.837" class="st30" width="5.9036" height="5.9036"/>
			</g>
			<g>
				<rect x="183.9289" y="147.2717" class="st30" width="5.9036" height="5.9036"/>
				<rect x="190.4185" y="147.2717" class="st30" width="5.9036" height="5.9036"/>
				<rect x="196.9082" y="147.2717" class="st30" width="5.9036" height="5.9036"/>
				<rect x="203.3979" y="147.2717" class="st30" width="5.9036" height="5.9036"/>
			</g>
			<g>
				<rect x="183.9289" y="153.7064" class="st30" width="5.9036" height="5.9036"/>
				<rect x="190.4185" y="153.7064" class="st30" width="5.9036" height="5.9036"/>
				<rect x="196.9082" y="153.7064" class="st30" width="5.9036" height="5.9036"/>
				<rect x="203.3979" y="153.7064" class="st30" width="5.9036" height="5.9036"/>
			</g>
			<g>
				<line class="st32" x1="194.8641" y1="148.6701" x2="191.7574" y2="151.7769"/>
				<line class="st32" x1="191.7574" y1="148.6701" x2="194.8641" y2="151.7769"/>
			</g>
		</g>
	</g>
	<path class="st28" d="M191.7358,362.0424v2.2634c0,2.4898-2.0371,4.5269-4.5269,4.5269h-31.688
		c-2.5124,0-4.5269-2.0371-4.5269-4.5269v-31.688c0-2.4898,2.0145-4.5269,4.5269-4.5269h31.688
		c2.4898,0,4.5269,2.0371,4.5269,4.5269v2.2634h-20.3709c-2.5124,0-4.5269,2.0371-4.5269,4.5269v18.1075
		c0,2.4898,2.0145,4.5269,4.5269,4.5269H191.7358z M171.3649,357.5156h22.6343v-18.1075h-22.6343V357.5156z M180.4186,351.857
		c-1.8786,0-3.3951-1.5165-3.3951-3.3952c0-1.8786,1.5165-3.3951,3.3951-3.3951s3.3951,1.5165,3.3951,3.3951
		C183.8138,350.3405,182.2973,351.857,180.4186,351.857z"/>
	<rect x="227.3311" y="473.0476" class="st11" width="33.2867" height="42.4242"/>
	<rect x="226.6228" y="472.2907" class="st6" width="33.2867" height="42.4242"/>
	<g>
		<rect x="242.4778" y="475.3238" class="st33" width="1.5769" height="6.6312"/>
		
			<rect x="242.4778" y="475.3238" transform="matrix(3.921936e-11 -1 1 3.921936e-11 -235.373 721.9056)" class="st33" width="1.5769" height="6.6312"/>
	</g>
	<rect x="231.0219" y="485.8258" class="st26" width="1.9372" height="1.9434"/>
	<rect x="231.0219" y="489.6859" class="st26" width="1.9372" height="1.9434"/>
	<rect x="231.0219" y="493.5972" class="st26" width="1.9372" height="1.9434"/>
	<rect x="233.9671" y="485.8258" class="st26" width="18.0932" height="1.9434"/>
	<rect x="233.9671" y="489.706" class="st26" width="14.7849" height="1.9434"/>
	<rect x="233.9671" y="493.5862" class="st26" width="20.7999" height="1.9434"/>
	<rect x="233.9671" y="497.4664" class="st26" width="7.9874" height="1.9434"/>
	<rect x="233.9671" y="501.3466" class="st26" width="14.823" height="1.9434"/>
	<rect x="233.9671" y="505.2268" class="st26" width="17.3655" height="1.9434"/>
	<rect x="231.0219" y="497.4858" class="st26" width="1.9372" height="1.9434"/>
	<rect x="231.0219" y="501.3712" class="st26" width="1.9372" height="1.9434"/>
	<rect x="231.0219" y="505.2404" class="st26" width="1.9372" height="1.9434"/>
	<g>
		<g>
			<path class="st34" d="M258.7136,392.0828h-4.3645c0.049,1.4222,0.4065,2.4852,1.0727,3.1878
				c0.6661,0.7032,1.6202,1.0545,2.8627,1.0545c0.8989,0,1.7367-0.1349,2.5132-0.4046l0.3432,2.501
				c-0.9808,0.2368-1.9943,0.3553-3.0404,0.3553c-2.0924,0-3.7391-0.5881-4.9406-1.7656c-1.2014-1.1768-1.8348-2.8195-1.9003-4.9284
				h-2.1086v-1.7281h2.1086v-1.5695h-2.1086v-1.7287h2.121c0.1061-2.084,0.7723-3.7039,1.9983-4.8604
				c1.226-1.1565,2.8727-1.735,4.9406-1.735c0.8662,0,1.843,0.1281,2.9301,0.3836l-0.3432,2.5339
				c-0.8336-0.2776-1.6633-0.4165-2.4887-0.4165c-1.2342,0-2.1823,0.349-2.8442,1.0477c-0.6621,0.6992-1.0298,1.7146-1.1033,3.0467
				h4.3521v1.7287h-4.3645v1.5695h4.3645V392.0828z"/>
		</g>
	</g>
	<g>
		<defs>
			<circle id="SVGID_5_" cx="49.7811" cy="347.5078" r="24.1453"/>
		</defs>
		<clipPath id="SVGID_6_">
			<use xlink:href="#SVGID_5_"  style="overflow:visible;"/>
		</clipPath>
		<g class="st35">
			<rect x="28.8205" y="331.8327" class="st5" width="31.2346" height="12.765"/>
			<rect x="28.8205" y="322.9107" class="st5" width="31.2346" height="6.0782"/>
			<rect x="22.129" y="322.8172" class="st5" width="4.402" height="21.7805"/>
			<polygon class="st5" points="62.6166,341.2094 62.6166,322.8172 78.2538,322.8172 			"/>
			<polygon class="st5" points="83.3152,322.8172 91.2078,322.8172 91.2078,344.5977 65.4713,344.5977 			"/>
			<rect x="44.2174" y="350.3552" class="st5" width="15.8376" height="21.7805"/>
			<rect x="22.0626" y="350.3552" class="st5" width="7.3992" height="21.7805"/>
			<rect x="31.3895" y="359.809" class="st36" width="10.863" height="7.2005"/>
			<rect x="62.6166" y="350.3552" class="st5" width="11.6528" height="21.7805"/>
			<rect x="31.3672" y="350.3552" class="st5" width="10.9145" height="7.2722"/>
			<rect x="31.3672" y="369.4377" class="st5" width="10.9145" height="2.6879"/>
			<rect x="76.5143" y="350.3552" class="st5" width="15.3081" height="13.5197"/>
			<rect x="76.5143" y="366.4576" class="st5" width="15.3081" height="5.9133"/>
			<rect x="21.9531" y="346.7521" class="st5" width="38.102" height="1.32"/>
			<rect x="62.6166" y="346.7521" class="st5" width="29.106" height="1.32"/>
		</g>
	</g>
	<path class="st27" d="M38.2062,326.106c-1.7167,0-3.1084-1.3917-3.1084-3.1083c0-1.7167,1.3917-3.1084,3.1084-3.1084
		c1.7167,0,3.1084,1.3917,3.1084,3.1084C41.3146,324.7143,39.9229,326.106,38.2062,326.106 M38.2062,314.2942
		c-4.8068,0-8.7034,3.8966-8.7034,8.7034c0,6.5275,8.7034,16.1634,8.7034,16.1634s8.7034-9.6359,8.7034-16.1634
		C46.9096,318.1909,43.013,314.2942,38.2062,314.2942z"/>
	<g>
		<circle class="st15" cx="61.3343" cy="433.5065" r="24.1453"/>
		<path class="st34" d="M55.2141,432.2246c1.5246,2.9962,3.9808,5.4418,6.977,6.977l2.3292-2.3292
			c0.2859-0.2859,0.7093-0.3811,1.0799-0.2541c1.1858,0.3917,2.4668,0.6035,3.7796,0.6035c0.5823,0,1.0587,0.4764,1.0587,1.0587
			v3.6949c0,0.5823-0.4764,1.0587-1.0587,1.0587c-9.9414,0-17.9983-8.0569-17.9983-17.9983c0-0.5823,0.4764-1.0587,1.0587-1.0587
			h3.7055c0.5823,0,1.0587,0.4764,1.0587,1.0587c0,1.3234,0.2117,2.5939,0.6035,3.7796c0.1165,0.3705,0.0318,0.7834-0.2647,1.0799
			L55.2141,432.2246z"/>
	</g>
	<g>
		<path class="st34" d="M104.1523,276.9304H88.1535c-1.0999,0-1.9899,0.8999-1.9899,1.9998l-0.01,11.9991
			c0,1.0999,0.8999,1.9998,1.9999,1.9998h15.9988c1.0999,0,1.9999-0.8999,1.9999-1.9998v-11.9991
			C106.1522,277.8303,105.2522,276.9304,104.1523,276.9304z M104.1523,280.9301l-7.9994,4.9996l-7.9994-4.9996v-1.9999
			l7.9994,4.9996l7.9994-4.9996V280.9301z"/>
	</g>
	<path class="st14" d="M288.0648,305.0939c0.8732-0.103,1.754,0.0356,2.6276,0.1343s1.7761,0.1552,2.6162-0.104
		c0.8401-0.2592,1.6139-0.8963,1.804-1.7547s-0.3901-1.8771-1.2655-1.9591c-0.6045-0.0566-1.1866,0.3242-1.5225,0.83
		c-0.3358,0.5058-0.4661,1.1187-0.5489,1.7201c-0.0379,0.2752-0.0642,0.5699,0.0615,0.8176
		c0.1451,0.2858,0.457,0.4411,0.7538,0.5623c2.3376,0.9545,5.0482,0.9571,7.3876,0.007c0.6829-0.2773,1.743-0.7946,1.6118-1.4039
		c-0.1312-0.6093-1.6201-0.4606-2.4408-0.274c-0.8675,0.1972-1.8561,0.9224-1.5626,1.7622
		c0.2334,0.6678,1.1046,0.8258,1.8102,0.7744c2.8584-0.208,7.2186-4.1643,6.561-4.8371c-0.6576-0.6728-1.9928,0.7827-2.3918,1.7615
		c-0.399,0.9787-1.0922,3.3203-0.3501,3.1273s3.7508-2.6338,4.2597-2.4778s-0.5791,1.3771,0.0806,1.4145
		c0.6597,0.0373,2.073-1.5282,2.5697-1.4165c0.4966,0.1117-0.0586,0.9053,0.3241,1.1299c0.3828,0.2246,0.8583,0.2038,1.298,0.1431
		c1.2141-0.1675,2.5364-1.2574,3.436-1.2325s0.7361,1.4595,1.2909,2.0505s1.3284,1.0284,2.1382,0.9908"/>
	<line class="st14" x1="280.13" y1="312.8977" x2="326.5481" y2="312.8977"/>
</g>
</svg>
