<?xml version="1.0" encoding="utf-8"?>
<!-- Generator: Adobe Illustrator 21.0.2, SVG Export Plug-In . SVG Version: 6.00 Build 0)  -->
<svg version="1.1" id="Ebene_1" xmlns="http://www.w3.org/2000/svg" xmlns:xlink="http://www.w3.org/1999/xlink" x="0px" y="0px"
	 viewBox="0 0 283.4646 283.4646" style="enable-background:new 0 0 283.4646 283.4646;" xml:space="preserve">
<style type="text/css">
	.st0{fill:#333333;}
	.st1{fill:#7D828C;}
	.st2{fill:#F7F7F7;stroke:#F7F7F7;stroke-width:2.4955;stroke-miterlimit:10;}
	.st3{fill:#F0F0F0;}
	.st4{fill:none;stroke:#F7F7F7;stroke-width:1.2477;stroke-miterlimit:10;}
	.st5{clip-path:url(#SVGID_2_);}
	.st6{fill:#F9DCB2;}
	.st7{fill:#F4D3AB;}
	.st8{fill:#5A4A42;}
	.st9{fill:#EF8671;}
	.st10{fill:#492B16;}
	.st11{fill:#6D4326;}
	.st12{fill:#492F1D;}
	.st13{fill:#7C5235;}
	.st14{fill:#FAFAFA;}
	.st15{fill:#82A567;}
	.st16{fill:#50633B;}
	.st17{fill:#69844D;}
</style>
<g>
	<path class="st0" d="M215.9541,180.5758L88.4115,204.4892c-5.396,1.0117-10.6387-2.5755-11.6505-7.9715l-14.5627-77.6702
		c-1.0117-5.396,2.5754-10.6387,7.9715-11.6505l127.5427-23.9134c5.396-1.0117,10.6387,2.5754,11.6505,7.9715l14.5627,77.6702
		C224.9373,174.3213,221.3502,179.564,215.9541,180.5758z"/>
	<path class="st1" d="M215.4943,178.123L87.9516,202.0364c-5.396,1.0117-10.6387-2.5755-11.6505-7.9715l-14.5626-77.6702
		c-1.0117-5.396,2.5754-10.6387,7.9715-11.6505l127.5427-23.9134c5.396-1.0117,10.6387,2.5754,11.6505,7.9715l14.5626,77.6702
		C224.4775,171.8686,220.8903,177.1113,215.4943,178.123z"/>
	<path class="st2" d="M124.8634,159.4012l-35.2582,6.6107c-5.396,1.0117-10.6387-2.5754-11.6505-7.9715l-6.6107-35.2582
		c-1.0117-5.396,2.5754-10.6387,7.9715-11.6505l35.2582-6.6107c5.396-1.0117,10.6387,2.5754,11.6505,7.9715l6.6107,35.2582
		C133.8466,153.1467,130.2594,158.3894,124.8634,159.4012z"/>
	<g>
		<path class="st3" d="M204.7231,118.5568l-64.2365,12.0439c-1.727,0.3238-3.4048-0.8242-3.7286-2.5512v0
			c-0.3238-1.727,0.8242-3.4049,2.5512-3.7286l64.2365-12.0439c1.727-0.3238,3.4048,0.8242,3.7286,2.5512v0
			C207.5981,116.5551,206.4501,118.233,204.7231,118.5568z"/>
		<path class="st3" d="M207.0852,131.1553l-64.2365,12.0439c-1.727,0.3238-3.4048-0.8243-3.7286-2.5512l0,0
			c-0.3238-1.727,0.8242-3.4049,2.5512-3.7287l64.2365-12.0439c1.727-0.3238,3.4048,0.8243,3.7286,2.5512v0
			C209.9602,129.1536,208.8122,130.8315,207.0852,131.1553z"/>
		<path class="st3" d="M209.4474,143.7538l-64.2365,12.0439c-1.727,0.3238-3.4048-0.8242-3.7286-2.5512l0,0
			c-0.3238-1.727,0.8243-3.4048,2.5512-3.7286l64.2365-12.0439c1.727-0.3238,3.4049,0.8242,3.7287,2.5512l0,0
			C212.3224,141.7521,211.1743,143.43,209.4474,143.7538z"/>
	</g>
	<path class="st4" d="M96.3218,186.3375c2.8281-0.8835,5.8318-0.9715,8.7869-1.187s5.9793-0.5889,8.6011-1.9692
		s4.789-3.9711,4.8855-6.9325c0.0965-2.9613-2.4579-5.9754-5.4083-5.7032c-2.0373,0.188-3.7292,1.8106-4.5274,3.6945
		c-0.7983,1.8839-0.8492,3.9948-0.75,6.0384c0.0454,0.935,0.1412,1.9277,0.7115,2.67c0.6581,0.8566,1.7877,1.1773,2.8459,1.3944
		c8.3358,1.7098,17.3155,0.0349,24.4744-4.5649c2.0898-1.3428,5.2797-3.7144,4.4668-5.6512s-5.6524-0.5194-8.255,0.6082
		c-2.751,1.1919-5.5751,4.208-4.0815,6.8075c1.1878,2.0671,4.1715,2.0492,6.4767,1.4409
		c9.3387-2.4642,21.3241-18.2764,18.7281-20.0966c-2.596-1.8202-6.1146,3.8303-6.8283,7.32
		c-0.7137,3.4897-1.5558,11.6762,0.7825,10.5759c2.3383-1.1003,10.7882-11.0532,12.5705-10.8528
		c1.7824,0.2004-1.0629,4.9211,1.1454,4.6351c2.2083-0.2861,5.9175-6.3493,7.6318-6.2878s0.368,3.0349,1.7754,3.5412
		c1.4073,0.5063,2.9697,0.142,4.3882-0.3319c3.9173-1.3088,7.6206-5.7401,10.6158-6.2163c2.9952-0.4762,3.3446,4.3771,5.5493,5.9904
		c2.2048,1.6133,5.0388,2.5812,7.6978,1.9541"/>
	<g>
		<defs>
			<path id="SVGID_1_" d="M125.5915,159.8994l-35.8714,6.7256c-5.396,1.0117-10.6387-2.5755-11.6505-7.9715l-6.7256-35.8714
				c-1.0117-5.396,2.5754-10.6387,7.9715-11.6505l35.8714-6.7256c5.396-1.0117,10.6387,2.5754,11.6505,7.9715l6.7256,35.8714
				C134.5748,153.6449,130.9876,158.8876,125.5915,159.8994z"/>
		</defs>
		<clipPath id="SVGID_2_">
			<use xlink:href="#SVGID_1_"  style="overflow:visible;"/>
		</clipPath>
		<g class="st5">
			<path class="st6" d="M88.6532,131.0368c-1.3718,0.2572-2.2754,1.5778-2.0182,2.9496l0,0
				c0.2572,1.3718,1.5778,2.2754,2.9496,2.0182l2.4189-0.4535l-0.9314-4.9678L88.6532,131.0368z"/>
			<path class="st6" d="M114.2311,131.3836c1.3718-0.2572,2.2754-1.5778,2.0182-2.9496v0
				c-0.2572-1.3718-1.5778-2.2754-2.9496-2.0182l-2.419,0.4535l0.9314,4.9678L114.2311,131.3836z"/>
			<path class="st3" d="M127.5337,174.1411l-34.7394,6.5134l-1.6639-8.8745c-1.7986-9.593,4.52-18.8278,14.113-20.6264h0
				c9.593-1.7986,18.8278,4.52,20.6264,14.113L127.5337,174.1411z"/>
			<path class="st6" d="M106.6229,158.511L106.6229,158.511c-2.5973,0.487-5.0975-1.2238-5.5845-3.821l-1.8772-10.0122
				l9.4054-1.7635l1.8772,10.0122C110.9308,155.5238,109.2201,158.0241,106.6229,158.511z"/>
			<path class="st7" d="M99.1612,144.6778l1.1302,6.028c1.5692,0.2506,3.2062,0.2413,4.8553-0.0679
				c1.6491-0.3092,3.1783-0.8936,4.5501-1.6956l-1.1302-6.028L99.1612,144.6778z"/>
			<path class="st6" d="M104.8054,148.8176L104.8054,148.8176c-6.7232,1.2605-13.1952-3.1678-14.4558-9.8909l-2.3672-12.6258
				c-1.2605-6.7232,3.1678-13.1952,9.8909-14.4558l0,0c6.7232-1.2605,13.1952,3.1678,14.4558,9.8909l2.3672,12.6258
				C115.9569,141.0849,111.5286,147.557,104.8054,148.8176z"/>
			<g>
				
					<ellipse transform="matrix(0.9829 -0.1843 0.1843 0.9829 -22.4514 19.8972)" class="st8" cx="95.8211" cy="130.7368" rx="1.5049" ry="1.0418"/>
				
					<ellipse transform="matrix(0.9829 -0.1843 0.1843 0.9829 -21.8928 21.8543)" class="st8" cx="106.6297" cy="128.7102" rx="1.5049" ry="1.0418"/>
			</g>
			<path class="st9" d="M105.3683,139.1171c0,0-1.4741,0.5893-2.2736,0.7392c-0.7995,0.1499-2.3279,0.1236-2.3279,0.1236
				c-0.4608,0.0864-0.7643,0.53-0.6779,0.9908c0.0864,0.4608,0.5409,0.6361,0.9908,0.6779
				c0.4498,0.0418,1.4215,0.0464,2.2778-0.1142c0.8564-0.1606,1.964-0.5471,2.3237-0.7486s0.7643-0.53,0.6779-0.9908
				C106.2727,139.3342,105.8291,139.0307,105.3683,139.1171z"/>
			<path class="st10" d="M97.5307,110.0174l-3.8859,0.7286c-1.6555,0.3104-2.7459,1.9041-2.4355,3.5596l0.098,0.5228
				c1.1225,5.9871,9.6356,2.4245,13.4326,2.6512c6.064-0.1983,7.6567,4.6164,7.6567,4.6164l2.1427,11.4281v0
				c1.0281-1.5026,1.4172-3.352,1.0817-5.1415l-2.5959-13.8455c-0.7427-3.9613-4.5561-6.5705-8.5174-5.8278L97.5307,110.0174z"/>
			<path class="st11" d="M97.4173,109.4129l-3.8859,0.7286c-1.6555,0.3104-2.7459,1.9041-2.4355,3.5596l0.098,0.5228
				c1.1226,5.9871,9.6356,2.4245,13.4326,2.6512c6.064-0.1983,7.6567,4.6164,7.6567,4.6164l2.1427,11.4281v0
				c1.0281-1.5026,1.4172-3.352,1.0817-5.1415l-2.5959-13.8455c-0.7427-3.9613-4.5561-6.5705-8.5174-5.8278L97.4173,109.4129z"/>
			<path class="st12" d="M93.0721,119.3207c0.6401,3.4138-1.6085,6.7001-5.0223,7.3401l0,0l2.1427,11.4281l0,0
				c-1.5026-1.0281-2.5352-2.611-2.8707-4.4004l-2.4113-12.8608c-0.7041-3.7553,1.2405-7.3937,4.5166-8.9901
				c1.0361-0.5049,2.2683,0.1402,2.4807,1.2731L93.0721,119.3207z"/>
			<g>
				<path class="st13" d="M96.5544,126.3007l-4.5689,1.2114c-0.2883,0.0764-0.5841-0.0953-0.6606-0.3837
					c-0.0765-0.2884,0.0954-0.5842,0.3837-0.6606l4.5689-1.2114c0.2883-0.0764,0.5841,0.0953,0.6606,0.3837
					C97.0146,125.9285,96.8427,126.2243,96.5544,126.3007z"/>
			</g>
			<g>
				<path class="st13" d="M104.3424,124.85l4.6953-0.5443c0.2963-0.0343,0.5088-0.3024,0.4744-0.5988s-0.3025-0.5088-0.5988-0.4744
					l-4.6953,0.5443c-0.2963,0.0343-0.5088,0.3024-0.4744,0.5988S104.0461,124.8844,104.3424,124.85z"/>
			</g>
			<path class="st13" d="M93.0155,119.0185c0.6401,3.4138-1.6085,6.7001-5.0223,7.3401l0,0l2.1427,11.4281h0
				c-1.5026-1.0281-2.5352-2.611-2.8707-4.4004l-2.4113-12.8608c-0.7041-3.7553,1.2405-7.3937,4.5166-8.9901
				c1.0361-0.5049,2.2683,0.1402,2.4807,1.2731L93.0155,119.0185z"/>
			<path class="st14" d="M110.8381,152.4267l-0.4568,0.0856l0.0826,0.4404c0.439,2.3413-1.1031,4.595-3.4442,5.0339l-0.8809,0.1652
				c-2.3411,0.4389-4.5948-1.1031-5.0338-3.4444l-0.0826-0.4404l-0.4568,0.0856l-0.5335,0.1l0.1,0.5335
				c0.5319,2.8368,3.2626,4.7052,6.0992,4.1733l1.0672-0.2001c2.8366-0.5318,4.705-3.2625,4.1731-6.0993l-0.1-0.5335
				L110.8381,152.4267z"/>
			<path class="st15" d="M106.0398,178.171l-13.2455,2.4834l-1.6639-8.8745c-1.4931-7.9633,2.6073-15.6796,9.531-19.1005
				L106.0398,178.171z"/>
			<polygon class="st16" points="100.718,152.9817 96.0657,159.7812 105.4862,177.3361 105.8426,177.27 			"/>
			<g>
				<polygon class="st17" points="100.4347,151.4704 95.7824,158.2699 105.8131,176.962 				"/>
			</g>
			<path class="st15" d="M114.2922,176.6238l13.2455-2.4834l-1.6639-8.8745c-1.4931-7.9633-8.1102-13.6702-15.8028-14.3506
				L114.2922,176.6238z"/>
			<polygon class="st16" points="110.1276,151.2175 116.927,155.8698 114.5057,175.645 114.1496,175.7125 			"/>
			<g>
				<polygon class="st17" points="109.8442,149.7062 116.6437,154.3585 114.0655,175.4147 				"/>
			</g>
		</g>
	</g>
</g>
</svg>
