<?xml version="1.0" encoding="utf-8"?>
<!-- Generator: Adobe Illustrator 21.0.2, SVG Export Plug-In . SVG Version: 6.00 Build 0)  -->
<svg version="1.1" id="Ebene_1" xmlns="http://www.w3.org/2000/svg" xmlns:xlink="http://www.w3.org/1999/xlink" x="0px" y="0px"
	 viewBox="0 0 360 380" style="enable-background:new 0 0 360 380;" xml:space="preserve">
<style type="text/css">
	.st0{fill:none;stroke:#EFEFEF;stroke-width:3;stroke-miterlimit:10;}
	.st1{fill:none;stroke:#B6CB11;stroke-width:3;stroke-miterlimit:10;}
	.st2{fill:#D2D2D2;}
	.st3{fill:#B7C1D3;}
	.st4{fill:#FFFFFF;}
	.st5{fill:#F0F0F0;}
	.st6{fill:#F7F7F7;}
	.st7{fill:#7D828C;}
	.st8{fill:none;stroke:#F7F7F7;stroke-width:0.3735;stroke-miterlimit:10;}
	.st9{fill:none;stroke:#9BA0AA;stroke-width:0.205;stroke-miterlimit:10;}
	.st10{fill:#9BA0AA;stroke:#F7F7F7;stroke-width:0.205;stroke-miterlimit:10;}
	.st11{fill:#333333;}
	.st12{fill:none;stroke:#9BA0AA;stroke-width:0.2833;stroke-miterlimit:10;}
	.st13{fill:#E8540C;}
	.st14{fill:#C3C6CC;}
	.st15{clip-path:url(#SVGID_2_);fill:#9BA0AA;}
	.st16{fill:#B6CB11;}
	.st17{fill:none;stroke:#F7F7F7;stroke-miterlimit:10;}
	.st18{fill:none;stroke:#7D828C;stroke-width:0.5;stroke-miterlimit:10;}
	.st19{fill:#953052;}
	.st20{fill:#E9ECF2;}
	.st21{fill:none;stroke:#9BA0AA;stroke-width:0.3811;stroke-miterlimit:10;}
</style>
<title>img_onboarding</title>
<g>
	<line class="st0" x1="211" y1="334.1" x2="181.3" y2="212.3"/>
	<line class="st1" x1="182" y1="212.3" x2="209" y2="99.6"/>
	<line class="st0" x1="45" y1="231.6" x2="179" y2="215.6"/>
	<g>
		<path class="st2" d="M126,108.3c-0.4,0.1-0.8,0-1.2-0.1c-10.3-3.6-18.9-4.5-28.8-3.1c-9.9,1.4-18.9,5.1-26.8,11
			c-1.1,0.8-2.7,0.6-3.5-0.5c-0.8-1.1-0.6-2.7,0.5-3.5c8.6-6.4,18.4-10.4,29.1-11.9c10.6-1.5,20.3-0.5,31.2,3.3
			c1.3,0.5,2,1.9,1.5,3.2C127.7,107.6,126.9,108.2,126,108.3z M58.2,144.7c-0.5,0.1-1,0-1.5-0.2c-1.3-0.6-1.7-2.1-1.1-3.4
			c4-7.7,9.5-14.1,16.4-19c14.5-10.3,34.6-13.2,51.5-7.3c8,2.8,15.1,7.3,21,13.6c1,1,0.9,2.6-0.1,3.6c-1,1-2.6,0.9-3.6-0.1
			c-5.4-5.7-11.8-9.8-19-12.3c-15.4-5.3-33.7-2.7-46.9,6.7c-6.3,4.5-11.3,10.3-14.9,17.2C59.7,144.1,59,144.5,58.2,144.7z M98,200.5
			c-0.6,0.1-1.3-0.1-1.9-0.5c-5-3.7-7.7-6.2-11.9-11.8c-4.3-5.7-7.2-12.9-8.3-20.9c-2.1-14.8,8.9-28.7,24.5-30.9s30,8.1,32.1,22.9
			c0.2,1.4-0.7,2.7-2.1,2.8s-2.7-0.7-2.8-2.1c-1.7-12.1-13.5-20.4-26.4-18.6c-12.8,1.8-21.9,13.1-20.2,25.2c1,7.2,3.6,13.6,7.4,18.6
			c4,5.3,6.6,7.4,10.9,10.8c1.1,0.9,1.3,2.4,0.5,3.5C99.2,200.1,98.6,200.4,98,200.5z M132.5,186.2c-5.9,0.8-11.4,0.1-16.1-2.3
			c-8.2-4-13.8-11.6-15-20.2c-0.2-1.4,0.7-2.7,2.1-2.8c1.4-0.2,2.7,0.7,2.8,2.1c1,7,5.5,13.2,12.2,16.4c3.9,1.9,8.2,2.5,13.2,1.8
			c1.2-0.2,3.2-0.6,5.1-1.2c1.3-0.4,2.7,0.3,3.2,1.6c0.4,1.3-0.3,2.7-1.6,3.2C135.7,185.7,133.2,186.1,132.5,186.2z M123.9,197.9
			c-0.2,0-0.5,0-0.7,0c-8.3-1.1-13.9-3.3-20.1-7.9c-8-6-13.1-14.6-14.5-24.5c-1.1-8.1,4.8-15.7,13.3-16.9
			c8.5-1.2,16.3,4.4,17.5,12.5c0.8,5.3,6,9,11.8,8.2c5.7-0.8,9.8-5.8,9-11.2c-2.7-18.8-21-31.8-41-29C85,131.3,73.1,141,69,154
			c-1.4,4.3-1.7,9.2-1,14.4c0.6,3.9,1.8,10,5.9,17.6c0.7,1.2,0.2,2.8-1,3.4c-1.2,0.7-2.8,0.2-3.4-1c-3.4-6.2-5.5-12.5-6.4-19.3
			c-0.8-6-0.5-11.6,1.1-16.7c4.7-14.9,18.1-26,34.3-28.3c22.7-3.2,43.7,11.7,46.7,33.3c1.1,8.1-4.8,15.7-13.3,16.9
			s-16.3-4.4-17.5-12.5c-0.8-5.3-6-9-11.8-8.2c-5.7,0.8-9.8,5.8-9,11.2c1.2,8.5,5.6,16.1,12.5,21.2c5.4,4,10.3,6,17.6,6.9
			c1.4,0.2,2.3,1.5,2.2,2.8C125.9,196.9,124.9,197.8,123.9,197.9z"/>
		<rect x="55.3" y="136.5" transform="matrix(0.9902 -0.14 0.14 0.9902 -18.8712 9.4414)" class="st2" width="4.7" height="4.7"/>
		<rect x="57.4" y="132.4" transform="matrix(0.9902 -0.14 0.14 0.9902 -18.2715 9.6848)" class="st2" width="4.7" height="4.7"/>
		<rect x="61" y="127.3" transform="matrix(0.9902 -0.14 0.14 0.9902 -17.5302 10.1384)" class="st2" width="4.7" height="4.7"/>
		<rect x="65.1" y="122.7" transform="matrix(0.9902 -0.14 0.14 0.9902 -16.8374 10.6668)" class="st2" width="4.7" height="4.7"/>
		<rect x="69.4" y="119.8" transform="matrix(0.9902 -0.14 0.14 0.9902 -16.391 11.2478)" class="st2" width="4.7" height="4.7"/>
		<rect x="73.8" y="116.9" transform="matrix(0.9902 -0.14 0.14 0.9902 -15.9446 11.8289)" class="st2" width="4.7" height="4.7"/>
		<rect x="78.3" y="114.9" transform="matrix(0.9902 -0.14 0.14 0.9902 -15.6214 12.4363)" class="st2" width="4.7" height="4.7"/>
		<rect x="64.9" y="110.2" transform="matrix(0.9902 -0.14 0.14 0.9902 -15.0969 10.5201)" class="st2" width="4.7" height="4.7"/>
		<rect x="69.2" y="106.7" transform="matrix(0.9902 -0.14 0.14 0.9902 -14.5581 11.0814)" class="st2" width="4.7" height="4.7"/>
		<rect x="73.6" y="104.3" transform="matrix(0.9902 -0.14 0.14 0.9902 -14.1734 11.6757)" class="st2" width="4.7" height="4.7"/>
		<rect x="78.1" y="102.3" transform="matrix(0.9902 -0.14 0.14 0.9902 -13.8502 12.2831)" class="st2" width="4.7" height="4.7"/>
		<rect x="82.5" y="100" transform="matrix(0.9902 -0.14 0.14 0.9902 -13.4962 12.8839)" class="st2" width="4.7" height="4.7"/>
		<rect x="87" y="98.5" transform="matrix(0.9902 -0.14 0.14 0.9902 -13.2347 13.5045)" class="st2" width="4.7" height="4.7"/>
		<rect x="91.6" y="97.4" transform="matrix(0.9902 -0.14 0.14 0.9902 -13.0347 14.1382)" class="st2" width="4.7" height="4.7"/>
		<rect x="96.4" y="97.2" transform="matrix(0.9902 -0.14 0.14 0.9902 -12.958 14.7983)" class="st2" width="4.7" height="4.7"/>
		<rect x="101.2" y="97.6" transform="matrix(0.9902 -0.14 0.14 0.9902 -12.9737 15.4782)" class="st2" width="4.7" height="4.7"/>
		<rect x="106.1" y="98.5" transform="matrix(0.9902 -0.14 0.14 0.9902 -13.051 16.1712)" class="st2" width="4.7" height="4.7"/>
		<rect x="110.9" y="99" transform="matrix(0.9902 -0.14 0.14 0.9902 -13.0667 16.8511)" class="st2" width="4.7" height="4.7"/>
		<rect x="115.8" y="99.6" transform="matrix(0.9902 -0.14 0.14 0.9902 -13.1132 17.5376)" class="st2" width="4.7" height="4.7"/>
		<rect x="120.7" y="101" transform="matrix(0.9902 -0.14 0.14 0.9902 -13.2522 18.2438)" class="st2" width="4.7" height="4.7"/>
		<rect x="125.7" y="102.6" transform="matrix(0.9902 -0.14 0.14 0.9902 -13.4219 18.9566)" class="st2" width="4.7" height="4.7"/>
		<rect x="124.2" y="104.6" transform="matrix(0.9902 -0.14 0.14 0.9902 -13.7211 18.7628)" class="st2" width="4.7" height="4.7"/>
		<rect x="119.3" y="103.9" transform="matrix(0.9902 -0.14 0.14 0.9902 -13.6745 18.0764)" class="st2" width="4.7" height="4.7"/>
		<rect x="114.3" y="102.3" transform="matrix(0.9902 -0.14 0.14 0.9902 -13.5048 17.3636)" class="st2" width="4.7" height="4.7"/>
		<rect x="109.4" y="101.2" transform="matrix(0.9902 -0.14 0.14 0.9902 -13.3967 16.6639)" class="st2" width="4.7" height="4.7"/>
		<rect x="104.6" y="100.6" transform="matrix(0.9902 -0.14 0.14 0.9902 -13.3502 15.9775)" class="st2" width="4.7" height="4.7"/>
		<rect x="99.8" y="100.5" transform="matrix(0.9902 -0.14 0.14 0.9902 -13.3961 15.3108)" class="st2" width="4.7" height="4.7"/>
		<rect x="95" y="100.5" transform="matrix(0.9902 -0.14 0.14 0.9902 -13.442 14.6441)" class="st2" width="4.7" height="4.7"/>
		<rect x="90.4" y="101.6" transform="matrix(0.9902 -0.14 0.14 0.9902 -13.6419 14.0103)" class="st2" width="4.7" height="4.7"/>
		<rect x="85.8" y="102.7" transform="matrix(0.9902 -0.14 0.14 0.9902 -13.8419 13.3766)" class="st2" width="4.7" height="4.7"/>
		<rect x="81.2" y="103.9" transform="matrix(0.9902 -0.14 0.14 0.9902 -14.0418 12.7428)" class="st2" width="4.7" height="4.7"/>
		<rect x="81.3" y="104.1" transform="matrix(0.9902 -0.14 0.14 0.9902 -14.0726 12.7494)" class="st2" width="4.7" height="4.7"/>
		<rect x="76.7" y="105.8" transform="matrix(0.9902 -0.14 0.14 0.9902 -14.365 12.1354)" class="st2" width="4.7" height="4.7"/>
		<rect x="72.9" y="107.7" transform="matrix(0.9902 -0.14 0.14 0.9902 -14.6684 11.6204)" class="st2" width="4.7" height="4.7"/>
		<rect x="69.6" y="109.6" transform="matrix(0.9902 -0.14 0.14 0.9902 -14.9586 11.167)" class="st2" width="4.7" height="4.7"/>
		<rect x="66.9" y="111.3" transform="matrix(0.9902 -0.14 0.14 0.9902 -15.2291 10.8061)" class="st2" width="4.7" height="4.7"/>
		<rect x="64.4" y="112.8" transform="matrix(0.9902 -0.14 0.14 0.9902 -15.4622 10.4693)" class="st2" width="4.7" height="4.7"/>
		<rect x="76.9" y="130.8" transform="matrix(0.9902 -0.14 0.14 0.9902 -17.8525 12.3979)" class="st2" width="4.7" height="4.7"/>
		<rect x="81.2" y="127.9" transform="matrix(0.9902 -0.14 0.14 0.9902 -17.4061 12.979)" class="st2" width="4.7" height="4.7"/>
		<rect x="85.7" y="126.1" transform="matrix(0.9902 -0.14 0.14 0.9902 -17.1137 13.5929)" class="st2" width="4.7" height="4.7"/>
		<rect x="90.3" y="124.6" transform="matrix(0.9902 -0.14 0.14 0.9902 -16.8522 14.2135)" class="st2" width="4.7" height="4.7"/>
		<rect x="94.8" y="123" transform="matrix(0.9902 -0.14 0.14 0.9902 -16.5906 14.8341)" class="st2" width="4.7" height="4.7"/>
		<rect x="99.6" y="123" transform="matrix(0.9902 -0.14 0.14 0.9902 -16.5447 15.5008)" class="st2" width="4.7" height="4.7"/>
		<rect x="104.3" y="123" transform="matrix(0.9902 -0.14 0.14 0.9902 -16.4988 16.1675)" class="st2" width="4.7" height="4.7"/>
		<rect x="109.1" y="123.3" transform="matrix(0.9902 -0.14 0.14 0.9902 -16.4837 16.8408)" class="st2" width="4.7" height="4.7"/>
		<rect x="114" y="123.9" transform="matrix(0.9902 -0.14 0.14 0.9902 -16.5302 17.5272)" class="st2" width="4.7" height="4.7"/>
		<rect x="118.9" y="125.1" transform="matrix(0.9902 -0.14 0.14 0.9902 -16.6383 18.2269)" class="st2" width="4.7" height="4.7"/>
		<rect x="124.1" y="127.7" transform="matrix(0.9902 -0.14 0.14 0.9902 -16.9621 18.9726)" class="st2" width="4.7" height="4.7"/>
		<rect x="129.3" y="130.8" transform="matrix(0.9902 -0.14 0.14 0.9902 -17.3475 19.7315)" class="st2" width="4.7" height="4.7"/>
		<rect x="132.3" y="134.9" transform="matrix(0.9902 -0.14 0.14 0.9902 -17.8911 20.2021)" class="st2" width="4.7" height="4.7"/>
		<rect x="135.2" y="139.1" transform="matrix(0.9902 -0.14 0.14 0.9902 -18.4414 20.6419)" class="st2" width="4.7" height="4.7"/>
		<rect x="137.4" y="143.5" transform="matrix(0.9902 -0.14 0.14 0.9902 -19.0422 20.9959)" class="st2" width="4.7" height="4.7"/>
		<rect x="139.1" y="147.6" transform="matrix(0.9902 -0.14 0.14 0.9902 -19.5946 21.2751)" class="st2" width="4.7" height="4.7"/>
		<rect x="140.2" y="152.2" transform="matrix(0.9902 -0.14 0.14 0.9902 -20.2284 21.475)" class="st2" width="4.7" height="4.7"/>
		<rect x="141.1" y="156.8" transform="matrix(0.9902 -0.14 0.14 0.9902 -20.8687 21.6441)" class="st2" width="4.7" height="4.7"/>
		<rect x="140.9" y="161.6" transform="matrix(0.9902 -0.14 0.14 0.9902 -21.542 21.6592)" class="st2" width="4.7" height="4.7"/>
		<rect x="139.2" y="165.9" transform="matrix(0.9902 -0.14 0.14 0.9902 -22.1624 21.4698)" class="st2" width="4.7" height="4.7"/>
		<rect x="135" y="168.6" transform="matrix(0.9902 -0.14 0.14 0.9902 -22.5714 20.9129)" class="st2" width="4.7" height="4.7"/>
		<rect x="130.5" y="169.9" transform="matrix(0.9902 -0.14 0.14 0.9902 -22.8021 20.2857)" class="st2" width="4.7" height="4.7"/>
		<rect x="125.7" y="170.1" transform="matrix(0.9902 -0.14 0.14 0.9902 -22.8788 19.6256)" class="st2" width="4.7" height="4.7"/>
		<rect x="120.9" y="169.9" transform="matrix(0.9902 -0.14 0.14 0.9902 -22.8939 18.9524)" class="st2" width="4.7" height="4.7"/>
		<rect x="118.2" y="167.8" transform="matrix(0.9902 -0.14 0.14 0.9902 -22.6275 18.541)" class="st2" width="4.7" height="4.7"/>
		<rect x="116" y="165.6" transform="matrix(0.9902 -0.14 0.14 0.9902 -22.3413 18.2221)" class="st2" width="4.7" height="4.7"/>
		<rect x="114.8" y="163.1" transform="matrix(0.9902 -0.14 0.14 0.9902 -21.998 18.0199)" class="st2" width="4.7" height="4.7"/>
		<rect x="113.4" y="158.5" transform="matrix(0.9902 -0.14 0.14 0.9902 -21.3708 17.7891)" class="st2" width="4.7" height="4.7"/>
		<rect x="110.3" y="154.2" transform="matrix(0.9902 -0.14 0.14 0.9902 -20.7964 17.3119)" class="st2" width="4.7" height="4.7"/>
		<rect x="105.1" y="151" transform="matrix(0.9902 -0.14 0.14 0.9902 -20.411 16.553)" class="st2" width="4.7" height="4.7"/>
		<rect x="100.2" y="149.7" transform="matrix(0.9902 -0.14 0.14 0.9902 -20.2721 15.8468)" class="st2" width="4.7" height="4.7"/>
		<rect x="95.7" y="151.5" transform="matrix(0.9902 -0.14 0.14 0.9902 -20.5644 15.2328)" class="st2" width="4.7" height="4.7"/>
		<rect x="92.2" y="154" transform="matrix(0.9902 -0.14 0.14 0.9902 -20.9537 14.7684)" class="st2" width="4.7" height="4.7"/>
		<rect x="90.4" y="157.4" transform="matrix(0.9902 -0.14 0.14 0.9902 -21.4508 14.5525)" class="st2" width="4.7" height="4.7"/>
		<rect x="89.6" y="161.8" transform="matrix(0.9902 -0.14 0.14 0.9902 -22.0757 14.4928)" class="st2" width="4.7" height="4.7"/>
		<rect x="91.2" y="166.4" transform="matrix(0.9902 -0.14 0.14 0.9902 -22.6962 14.7544)" class="st2" width="4.7" height="4.7"/>
		<rect x="93" y="170.9" transform="matrix(0.9902 -0.14 0.14 0.9902 -23.3102 15.0468)" class="st2" width="4.7" height="4.7"/>
		<rect x="95.2" y="175.3" transform="matrix(0.9902 -0.14 0.14 0.9902 -23.9111 15.4007)" class="st2" width="4.7" height="4.7"/>
		<rect x="98.1" y="179.7" transform="matrix(0.9902 -0.14 0.14 0.9902 -24.4921 15.8471)" class="st2" width="4.7" height="4.7"/>
		<rect x="101.5" y="183.1" transform="matrix(0.9902 -0.14 0.14 0.9902 -24.9302 16.3596)" class="st2" width="4.7" height="4.7"/>
		<rect x="105.3" y="185.9" transform="matrix(0.9902 -0.14 0.14 0.9902 -25.2935 16.9205)" class="st2" width="4.7" height="4.7"/>
		<rect x="108.6" y="188.4" transform="matrix(0.9902 -0.14 0.14 0.9902 -25.6083 17.4066)" class="st2" width="4.7" height="4.7"/>
		<rect x="112.9" y="189.8" transform="matrix(0.9902 -0.14 0.14 0.9902 -25.767 18.0204)" class="st2" width="4.7" height="4.7"/>
		<rect x="116.5" y="191.4" transform="matrix(0.9902 -0.14 0.14 0.9902 -25.9455 18.5418)" class="st2" width="4.7" height="4.7"/>
		<rect x="120.9" y="192.1" transform="matrix(0.9902 -0.14 0.14 0.9902 -26.0052 19.1666)" class="st2" width="4.7" height="4.7"/>
		<rect x="122.5" y="193.5" transform="matrix(0.9902 -0.14 0.14 0.9902 -26.1813 19.3975)" class="st2" width="4.7" height="4.7"/>
		<rect x="117.7" y="193.7" transform="matrix(0.9902 -0.14 0.14 0.9902 -26.258 18.7374)" class="st2" width="4.7" height="4.7"/>
		<rect x="112.8" y="192.8" transform="matrix(0.9902 -0.14 0.14 0.9902 -26.1807 18.0444)" class="st2" width="4.7" height="4.7"/>
		<rect x="107.9" y="191.2" transform="matrix(0.9902 -0.14 0.14 0.9902 -26.0109 17.3316)" class="st2" width="4.7" height="4.7"/>
		<rect x="103.6" y="188.7" transform="matrix(0.9902 -0.14 0.14 0.9902 -25.6916 16.7157)" class="st2" width="4.7" height="4.7"/>
		<rect x="100.3" y="185.7" transform="matrix(0.9902 -0.14 0.14 0.9902 -25.3152 16.2164)" class="st2" width="4.7" height="4.7"/>
		<rect x="96.5" y="182.9" transform="matrix(0.9902 -0.14 0.14 0.9902 -24.9519 15.6555)" class="st2" width="4.7" height="4.7"/>
		<rect x="95.4" y="194.8" transform="matrix(0.9902 -0.14 0.14 0.9902 -26.6328 15.6283)" class="st2" width="4.7" height="4.7"/>
		<rect x="95.2" y="196.4" transform="matrix(0.9902 -0.14 0.14 0.9902 -26.8617 15.6128)" class="st2" width="4.7" height="4.7"/>
		<rect x="91.8" y="194.9" transform="matrix(0.9902 -0.14 0.14 0.9902 -26.6766 15.1223)" class="st2" width="4.7" height="4.7"/>
		<rect x="88.7" y="191.9" transform="matrix(0.9902 -0.14 0.14 0.9902 -26.2936 14.6538)" class="st2" width="4.7" height="4.7"/>
		<rect x="85.8" y="188.9" transform="matrix(0.9902 -0.14 0.14 0.9902 -25.9039 14.2161)" class="st2" width="4.7" height="4.7"/>
		<rect x="83.2" y="185.4" transform="matrix(0.9902 -0.14 0.14 0.9902 -25.4395 13.8269)" class="st2" width="4.7" height="4.7"/>
		<rect x="81.4" y="181.8" transform="matrix(0.9902 -0.14 0.14 0.9902 -24.9553 13.5301)" class="st2" width="4.7" height="4.7"/>
		<rect x="78.7" y="179" transform="matrix(0.9902 -0.14 0.14 0.9902 -24.5899 13.1298)" class="st2" width="4.7" height="4.7"/>
		<rect x="77.2" y="174.5" transform="matrix(0.9902 -0.14 0.14 0.9902 -23.9693 12.8682)" class="st2" width="4.7" height="4.7"/>
		<rect x="76" y="169.9" transform="matrix(0.9902 -0.14 0.14 0.9902 -23.3356 12.6683)" class="st2" width="4.7" height="4.7"/>
		<rect x="75.2" y="165.2" transform="matrix(0.9902 -0.14 0.14 0.9902 -22.6952 12.4992)" class="st2" width="4.7" height="4.7"/>
		<rect x="75" y="160.5" transform="matrix(0.9902 -0.14 0.14 0.9902 -22.0351 12.4224)" class="st2" width="4.7" height="4.7"/>
		<rect x="75" y="155.8" transform="matrix(0.9902 -0.14 0.14 0.9902 -21.3684 12.3765)" class="st2" width="4.7" height="4.7"/>
		<rect x="76.1" y="150.8" transform="matrix(0.9902 -0.14 0.14 0.9902 -20.6688 12.4846)" class="st2" width="4.7" height="4.7"/>
		<rect x="78.7" y="146.6" transform="matrix(0.9902 -0.14 0.14 0.9902 -20.0529 12.804)" class="st2" width="4.7" height="4.7"/>
		<rect x="81.9" y="142.5" transform="matrix(0.9902 -0.14 0.14 0.9902 -19.448 13.2223)" class="st2" width="4.7" height="4.7"/>
		<rect x="86.3" y="139.6" transform="matrix(0.9902 -0.14 0.14 0.9902 -19.0016 13.8033)" class="st2" width="4.7" height="4.7"/>
		<rect x="90.7" y="137.4" transform="matrix(0.9902 -0.14 0.14 0.9902 -18.6476 14.4042)" class="st2" width="4.7" height="4.7"/>
		<rect x="95.2" y="135.7" transform="matrix(0.9902 -0.14 0.14 0.9902 -18.3553 15.0182)" class="st2" width="4.7" height="4.7"/>
		<rect x="99.9" y="135.2" transform="matrix(0.9902 -0.14 0.14 0.9902 -18.2478 15.6717)" class="st2" width="4.7" height="4.7"/>
		<rect x="104.7" y="135" transform="matrix(0.9902 -0.14 0.14 0.9902 -18.1711 16.3318)" class="st2" width="4.7" height="4.7"/>
		<rect x="109.5" y="135.2" transform="matrix(0.9902 -0.14 0.14 0.9902 -18.1559 17.0051)" class="st2" width="4.7" height="4.7"/>
		<rect x="114.5" y="136.8" transform="matrix(0.9902 -0.14 0.14 0.9902 -18.3257 17.7179)" class="st2" width="4.7" height="4.7"/>
		<rect x="119.6" y="139.5" transform="matrix(0.9902 -0.14 0.14 0.9902 -18.6495 18.4636)" class="st2" width="4.7" height="4.7"/>
		<rect x="123.1" y="143.7" transform="matrix(0.9902 -0.14 0.14 0.9902 -19.2108 19.0024)" class="st2" width="4.7" height="4.7"/>
		<rect x="125.6" y="148.1" transform="matrix(0.9902 -0.14 0.14 0.9902 -19.805 19.3872)" class="st2" width="4.7" height="4.7"/>
		<rect x="127.1" y="152.7" transform="matrix(0.9902 -0.14 0.14 0.9902 -20.4256 19.6487)" class="st2" width="4.7" height="4.7"/>
		<rect x="128.5" y="157.3" transform="matrix(0.9902 -0.14 0.14 0.9902 -21.0527 19.8795)" class="st2" width="4.7" height="4.7"/>
		<rect x="127.4" y="157.9" transform="matrix(0.9902 -0.14 0.14 0.9902 -21.1473 19.7386)" class="st2" width="4.7" height="4.7"/>
		<rect x="125.9" y="155.1" transform="matrix(0.9902 -0.14 0.14 0.9902 -20.7797 19.499)" class="st2" width="4.7" height="4.7"/>
		<rect x="123.9" y="150.7" transform="matrix(0.9902 -0.14 0.14 0.9902 -20.1723 19.1758)" class="st2" width="4.7" height="4.7"/>
		<rect x="121.2" y="146.3" transform="matrix(0.9902 -0.14 0.14 0.9902 -19.5847 18.7602)" class="st2" width="4.7" height="4.7"/>
		<rect x="118.7" y="143" transform="matrix(0.9902 -0.14 0.14 0.9902 -19.1511 18.3776)" class="st2" width="4.7" height="4.7"/>
		<rect x="114.6" y="141.3" transform="matrix(0.9902 -0.14 0.14 0.9902 -18.955 17.788)" class="st2" width="4.7" height="4.7"/>
		<rect x="110.4" y="138.9" transform="matrix(0.9902 -0.14 0.14 0.9902 -18.6665 17.1786)" class="st2" width="4.7" height="4.7"/>
		<rect x="106.8" y="137.4" transform="matrix(0.9902 -0.14 0.14 0.9902 -18.488 16.6573)" class="st2" width="4.7" height="4.7"/>
		<rect x="102.4" y="136.9" transform="matrix(0.9902 -0.14 0.14 0.9902 -18.4592 16.039)" class="st2" width="4.7" height="4.7"/>
		<rect x="97.8" y="138" transform="matrix(0.9902 -0.14 0.14 0.9902 -18.6591 15.4053)" class="st2" width="4.7" height="4.7"/>
		<rect x="93.8" y="138.1" transform="matrix(0.9902 -0.14 0.14 0.9902 -18.716 14.8376)" class="st2" width="4.7" height="4.7"/>
		<rect x="90.9" y="140.1" transform="matrix(0.9902 -0.14 0.14 0.9902 -19.0239 14.4524)" class="st2" width="4.7" height="4.7"/>
		<rect x="86.7" y="142.8" transform="matrix(0.9902 -0.14 0.14 0.9902 -19.4329 13.8956)" class="st2" width="4.7" height="4.7"/>
		<rect x="83.7" y="145.7" transform="matrix(0.9902 -0.14 0.14 0.9902 -19.8706 13.5059)" class="st2" width="4.7" height="4.7"/>
		<rect x="80.9" y="148.1" transform="matrix(0.9902 -0.14 0.14 0.9902 -20.2401 13.1339)" class="st2" width="4.7" height="4.7"/>
		<rect x="77" y="159.1" transform="matrix(0.9902 -0.14 0.14 0.9902 -21.8152 12.6976)" class="st2" width="4.7" height="4.7"/>
		<rect x="76.8" y="163.9" transform="matrix(0.9902 -0.14 0.14 0.9902 -22.4885 12.7127)" class="st2" width="4.7" height="4.7"/>
		<rect x="79.4" y="173" transform="matrix(0.9902 -0.14 0.14 0.9902 -23.7428 13.1742)" class="st2" width="4.7" height="4.7"/>
		<rect x="81.2" y="177.5" transform="matrix(0.9902 -0.14 0.14 0.9902 -24.3568 13.4665)" class="st2" width="4.7" height="4.7"/>
		<rect x="83.4" y="182" transform="matrix(0.9902 -0.14 0.14 0.9902 -24.9577 13.8205)" class="st2" width="4.7" height="4.7"/>
		<rect x="86.4" y="185.2" transform="matrix(0.9902 -0.14 0.14 0.9902 -25.3781 14.2647)" class="st2" width="4.7" height="4.7"/>
		<rect x="89.8" y="188.8" transform="matrix(0.9902 -0.14 0.14 0.9902 -25.847 14.7838)" class="st2" width="4.7" height="4.7"/>
		<rect x="93.2" y="191.5" transform="matrix(0.9902 -0.14 0.14 0.9902 -26.1926 15.2765)" class="st2" width="4.7" height="4.7"/>
		<rect x="78.3" y="168.4" transform="matrix(0.9902 -0.14 0.14 0.9902 -23.1091 12.9742)" class="st2" width="4.7" height="4.7"/>
		<rect x="78.6" y="154.3" transform="matrix(0.9902 -0.14 0.14 0.9902 -21.1332 12.8739)" class="st2" width="4.7" height="4.7"/>
		<rect x="79.5" y="151.3" transform="matrix(0.9902 -0.14 0.14 0.9902 -20.6932 12.9731)" class="st2" width="4.7" height="4.7"/>
		<rect x="93.4" y="178.5" transform="matrix(0.9902 -0.14 0.14 0.9902 -24.3774 15.1783)" class="st2" width="4.7" height="4.7"/>
		<rect x="90.9" y="174.1" transform="matrix(0.9902 -0.14 0.14 0.9902 -23.7832 14.7935)" class="st2" width="4.7" height="4.7"/>
		<rect x="89.4" y="169.6" transform="matrix(0.9902 -0.14 0.14 0.9902 -23.1626 14.532)" class="st2" width="4.7" height="4.7"/>
		<rect x="88.1" y="165" transform="matrix(0.9902 -0.14 0.14 0.9902 -22.5354 14.3012)" class="st2" width="4.7" height="4.7"/>
		<rect x="87.8" y="160.3" transform="matrix(0.9902 -0.14 0.14 0.9902 -21.8753 14.2245)" class="st2" width="4.7" height="4.7"/>
		<rect x="88.5" y="155.4" transform="matrix(0.9902 -0.14 0.14 0.9902 -21.1889 14.271)" class="st2" width="4.7" height="4.7"/>
		<rect x="91" y="152.1" transform="matrix(0.9902 -0.14 0.14 0.9902 -20.7027 14.5859)" class="st2" width="4.7" height="4.7"/>
		<rect x="94.2" y="149" transform="matrix(0.9902 -0.14 0.14 0.9902 -20.2277 14.9997)" class="st2" width="4.7" height="4.7"/>
		<rect x="98.7" y="147.4" transform="matrix(0.9902 -0.14 0.14 0.9902 -19.9661 15.6203)" class="st2" width="4.7" height="4.7"/>
		<rect x="103.5" y="147.6" transform="matrix(0.9902 -0.14 0.14 0.9902 -19.951 16.2936)" class="st2" width="4.7" height="4.7"/>
		<rect x="108.4" y="148.5" transform="matrix(0.9902 -0.14 0.14 0.9902 -20.0283 16.9866)" class="st2" width="4.7" height="4.7"/>
		<rect x="112.3" y="150.7" transform="matrix(0.9902 -0.14 0.14 0.9902 -20.2926 17.5586)" class="st2" width="4.7" height="4.7"/>
		<rect x="114.8" y="155.1" transform="matrix(0.9902 -0.14 0.14 0.9902 -20.8869 17.9433)" class="st2" width="4.7" height="4.7"/>
		<rect x="116.3" y="159.7" transform="matrix(0.9902 -0.14 0.14 0.9902 -21.5074 18.2049)" class="st2" width="4.7" height="4.7"/>
		<rect x="118.5" y="164.1" transform="matrix(0.9902 -0.14 0.14 0.9902 -22.1083 18.5589)" class="st2" width="4.7" height="4.7"/>
		<rect x="122.6" y="167.2" transform="matrix(0.9902 -0.14 0.14 0.9902 -22.4958 19.1572)" class="st2" width="4.7" height="4.7"/>
		<rect x="127.6" y="168.7" transform="matrix(0.9902 -0.14 0.14 0.9902 -22.6655 19.87)" class="st2" width="4.7" height="4.7"/>
		<rect x="132" y="166.3" transform="matrix(0.9902 -0.14 0.14 0.9902 -22.2807 20.4642)" class="st2" width="4.7" height="4.7"/>
		<rect x="136.3" y="163.2" transform="matrix(0.9902 -0.14 0.14 0.9902 -21.8035 21.0387)" class="st2" width="4.7" height="4.7"/>
		<rect x="139" y="158" transform="matrix(0.9902 -0.14 0.14 0.9902 -21.0578 21.3624)" class="st2" width="4.7" height="4.7"/>
		<rect x="139.2" y="153.2" transform="matrix(0.9902 -0.14 0.14 0.9902 -20.3845 21.3473)" class="st2" width="4.7" height="4.7"/>
		<rect x="135.5" y="144.3" transform="matrix(0.9902 -0.14 0.14 0.9902 -19.1631 20.7318)" class="st2" width="4.7" height="4.7"/>
		<rect x="132.4" y="140.4" transform="matrix(0.9902 -0.14 0.14 0.9902 -18.6503 20.2678)" class="st2" width="4.7" height="4.7"/>
		<rect x="129.1" y="136.3" transform="matrix(0.9902 -0.14 0.14 0.9902 -18.1132 19.7664)" class="st2" width="4.7" height="4.7"/>
		<rect x="126.6" y="133" transform="matrix(0.9902 -0.14 0.14 0.9902 -17.6796 19.3837)" class="st2" width="4.7" height="4.7"/>
		<rect x="124.1" y="131.3" transform="matrix(0.9902 -0.14 0.14 0.9902 -17.4682 19.0164)" class="st2" width="4.7" height="4.7"/>
		<rect x="121.6" y="129.7" transform="matrix(0.9902 -0.14 0.14 0.9902 -17.2568 18.649)" class="st2" width="4.7" height="4.7"/>
		<rect x="116.7" y="128.5" transform="matrix(0.9902 -0.14 0.14 0.9902 -17.1487 17.9494)" class="st2" width="4.7" height="4.7"/>
		<rect x="111.6" y="126.5" transform="matrix(0.9902 -0.14 0.14 0.9902 -16.9173 17.2234)" class="st2" width="4.7" height="4.7"/>
		<rect x="106.7" y="125.2" transform="matrix(0.9902 -0.14 0.14 0.9902 -16.7784 16.5172)" class="st2" width="4.7" height="4.7"/>
		<rect x="101.9" y="124.7" transform="matrix(0.9902 -0.14 0.14 0.9902 -16.7627 15.8373)" class="st2" width="4.7" height="4.7"/>
		<rect x="97.1" y="124.7" transform="matrix(0.9902 -0.14 0.14 0.9902 -16.8086 15.1707)" class="st2" width="4.7" height="4.7"/>
		<rect x="92.6" y="126.3" transform="matrix(0.9902 -0.14 0.14 0.9902 -17.0701 14.5501)" class="st2" width="4.7" height="4.7"/>
		<rect x="88" y="127.4" transform="matrix(0.9902 -0.14 0.14 0.9902 -17.2701 13.9163)" class="st2" width="4.7" height="4.7"/>
		<rect x="83.7" y="129.4" transform="matrix(0.9902 -0.14 0.14 0.9902 -17.5867 13.3397)" class="st2" width="4.7" height="4.7"/>
		<rect x="80.1" y="131.4" transform="matrix(0.9902 -0.14 0.14 0.9902 -17.9143 12.8621)" class="st2" width="4.7" height="4.7"/>
		<rect x="77.1" y="134.1" transform="matrix(0.9902 -0.14 0.14 0.9902 -18.3211 12.4659)" class="st2" width="4.7" height="4.7"/>
		<rect x="73.9" y="137.3" transform="matrix(0.9902 -0.14 0.14 0.9902 -18.7962 12.052)" class="st2" width="4.7" height="4.7"/>
		<rect x="71" y="140.4" transform="matrix(0.9902 -0.14 0.14 0.9902 -19.2647 11.669)" class="st2" width="4.7" height="4.7"/>
		<rect x="68.8" y="143.9" transform="matrix(0.9902 -0.14 0.14 0.9902 -19.775 11.3915)" class="st2" width="4.7" height="4.7"/>
		<rect x="66.9" y="148.3" transform="matrix(0.9902 -0.14 0.14 0.9902 -20.402 11.1712)" class="st2" width="4.7" height="4.7"/>
		<rect x="65" y="152.9" transform="matrix(0.9902 -0.14 0.14 0.9902 -21.0598 10.9575)" class="st2" width="4.7" height="4.7"/>
		<rect x="63.8" y="157.3" transform="matrix(0.9902 -0.14 0.14 0.9902 -21.6978 10.8362)" class="st2" width="4.7" height="4.7"/>
		<rect x="63.4" y="161.9" transform="matrix(0.9902 -0.14 0.14 0.9902 -22.3468 10.8139)" class="st2" width="4.7" height="4.7"/>
		<rect x="64.5" y="166.5" transform="matrix(0.9902 -0.14 0.14 0.9902 -22.9806 11.0139)" class="st2" width="4.7" height="4.7"/>
		<rect x="65.6" y="171.1" transform="matrix(0.9902 -0.14 0.14 0.9902 -23.6144 11.2138)" class="st2" width="4.7" height="4.7"/>
		<rect x="66" y="175.8" transform="matrix(0.9902 -0.14 0.14 0.9902 -24.2679 11.3213)" class="st2" width="4.7" height="4.7"/>
		<rect x="67.9" y="179.7" transform="matrix(0.9902 -0.14 0.14 0.9902 -24.7829 11.6247)" class="st2" width="4.7" height="4.7"/>
		<rect x="70.1" y="184.1" transform="matrix(0.9902 -0.14 0.14 0.9902 -25.3837 11.9787)" class="st2" width="4.7" height="4.7"/>
		<rect x="69.2" y="185.4" transform="matrix(0.9902 -0.14 0.14 0.9902 -25.5707 11.8576)" class="st2" width="4.7" height="4.7"/>
		<rect x="67" y="183" transform="matrix(0.9902 -0.14 0.14 0.9902 -25.2537 11.5321)" class="st2" width="4.7" height="4.7"/>
		<rect x="64.8" y="178.5" transform="matrix(0.9902 -0.14 0.14 0.9902 -24.6529 11.1781)" class="st2" width="4.7" height="4.7"/>
		<rect x="63.5" y="173.9" transform="matrix(0.9902 -0.14 0.14 0.9902 -24.0257 10.9474)" class="st2" width="4.7" height="4.7"/>
		<rect x="62.4" y="169.3" transform="matrix(0.9902 -0.14 0.14 0.9902 -23.3919 10.7475)" class="st2" width="4.7" height="4.7"/>
		<rect x="62.1" y="164.6" transform="matrix(0.9902 -0.14 0.14 0.9902 -22.7318 10.6707)" class="st2" width="4.7" height="4.7"/>
		<rect x="61.9" y="159.9" transform="matrix(0.9902 -0.14 0.14 0.9902 -22.0717 10.594)" class="st2" width="4.7" height="4.7"/>
		<rect x="61.9" y="155.1" transform="matrix(0.9902 -0.14 0.14 0.9902 -21.405 10.5481)" class="st2" width="4.7" height="4.7"/>
		<rect x="63.2" y="151.1" transform="matrix(0.9902 -0.14 0.14 0.9902 -20.8286 10.6826)" class="st2" width="4.7" height="4.7"/>
		<rect x="64.4" y="146.6" transform="matrix(0.9902 -0.14 0.14 0.9902 -20.1906 10.8039)" class="st2" width="4.7" height="4.7"/>
		<rect x="69" y="137.8" transform="matrix(0.9902 -0.14 0.14 0.9902 -18.9103 11.3677)" class="st2" width="4.7" height="4.7"/>
		<rect x="72.4" y="133" transform="matrix(0.9902 -0.14 0.14 0.9902 -18.2064 11.7971)" class="st2" width="4.7" height="4.7"/>
		<rect x="66.2" y="141.8" transform="matrix(0.9902 -0.14 0.14 0.9902 -19.502 11.011)" class="st2" width="4.7" height="4.7"/>
		<rect x="137.5" y="148.7" transform="matrix(0.9902 -0.14 0.14 0.9902 -19.7705 21.055)" class="st2" width="4.7" height="4.7"/>
		<rect x="82.8" y="113.2" transform="matrix(0.9902 -0.14 0.14 0.9902 -15.3291 13.0503)" class="st2" width="4.7" height="4.7"/>
		<rect x="87.3" y="111.8" transform="matrix(0.9902 -0.14 0.14 0.9902 -15.0983 13.6775)" class="st2" width="4.7" height="4.7"/>
		<rect x="91.9" y="110.5" transform="matrix(0.9902 -0.14 0.14 0.9902 -14.8676 14.3046)" class="st2" width="4.7" height="4.7"/>
		<rect x="96.7" y="110.7" transform="matrix(0.9902 -0.14 0.14 0.9902 -14.8525 14.9779)" class="st2" width="4.7" height="4.7"/>
		<rect x="101.5" y="111" transform="matrix(0.9902 -0.14 0.14 0.9902 -14.8374 15.6512)" class="st2" width="4.7" height="4.7"/>
		<rect x="106.3" y="111" transform="matrix(0.9902 -0.14 0.14 0.9902 -14.7915 16.3179)" class="st2" width="4.7" height="4.7"/>
		<rect x="111.1" y="111.4" transform="matrix(0.9902 -0.14 0.14 0.9902 -14.8072 16.9977)" class="st2" width="4.7" height="4.7"/>
		<rect x="115.9" y="111.9" transform="matrix(0.9902 -0.14 0.14 0.9902 -14.8229 17.6776)" class="st2" width="4.7" height="4.7"/>
		<rect x="120.8" y="113" transform="matrix(0.9902 -0.14 0.14 0.9902 -14.931 18.3772)" class="st2" width="4.7" height="4.7"/>
		<rect x="125.8" y="114.8" transform="matrix(0.9902 -0.14 0.14 0.9902 -15.1316 19.0966)" class="st2" width="4.7" height="4.7"/>
		<rect x="130.9" y="117" transform="matrix(0.9902 -0.14 0.14 0.9902 -15.3937 19.8292)" class="st2" width="4.7" height="4.7"/>
		<rect x="136.1" y="119.9" transform="matrix(0.9902 -0.14 0.14 0.9902 -15.7483 20.5815)" class="st2" width="4.7" height="4.7"/>
		<rect x="139.6" y="123.9" transform="matrix(0.9902 -0.14 0.14 0.9902 -16.2788 21.1137)" class="st2" width="4.7" height="4.7"/>
		<rect x="141.2" y="128.5" transform="matrix(0.9902 -0.14 0.14 0.9902 -16.8994 21.3753)" class="st2" width="4.7" height="4.7"/>
		<rect x="138.1" y="127.6" transform="matrix(0.9902 -0.14 0.14 0.9902 -16.8002 20.9353)" class="st2" width="4.7" height="4.7"/>
		<rect x="134.3" y="124.7" transform="matrix(0.9902 -0.14 0.14 0.9902 -16.4369 20.3744)" class="st2" width="4.7" height="4.7"/>
		<rect x="130.2" y="121.6" transform="matrix(0.9902 -0.14 0.14 0.9902 -16.0494 19.7761)" class="st2" width="4.7" height="4.7"/>
		<rect x="127.3" y="118.7" transform="matrix(0.9902 -0.14 0.14 0.9902 -15.6597 19.3384)" class="st2" width="4.7" height="4.7"/>
		<rect x="123.5" y="117.4" transform="matrix(0.9902 -0.14 0.14 0.9902 -15.5187 18.7928)" class="st2" width="4.7" height="4.7"/>
		<rect x="119.4" y="115.7" transform="matrix(0.9902 -0.14 0.14 0.9902 -15.3226 18.2032)" class="st2" width="4.7" height="4.7"/>
		<rect x="114.5" y="114.3" transform="matrix(0.9902 -0.14 0.14 0.9902 -15.1836 17.497)" class="st2" width="4.7" height="4.7"/>
		<rect x="109.5" y="113.2" transform="matrix(0.9902 -0.14 0.14 0.9902 -15.0755 16.7974)" class="st2" width="4.7" height="4.7"/>
		<rect x="104.7" y="112.6" transform="matrix(0.9902 -0.14 0.14 0.9902 -15.029 16.1109)" class="st2" width="4.7" height="4.7"/>
		<rect x="99.9" y="112.5" transform="matrix(0.9902 -0.14 0.14 0.9902 -15.0749 15.4443)" class="st2" width="4.7" height="4.7"/>
		<rect x="95.2" y="112.8" transform="matrix(0.9902 -0.14 0.14 0.9902 -15.1516 14.7841)" class="st2" width="4.7" height="4.7"/>
		<rect x="90.6" y="113.9" transform="matrix(0.9902 -0.14 0.14 0.9902 -15.3516 14.1504)" class="st2" width="4.7" height="4.7"/>
		<rect x="86.1" y="116.1" transform="matrix(0.9902 -0.14 0.14 0.9902 -15.7056 13.5496)" class="st2" width="4.7" height="4.7"/>
		<rect x="81.6" y="118.1" transform="matrix(0.9902 -0.14 0.14 0.9902 -16.0287 12.9422)" class="st2" width="4.7" height="4.7"/>
		<rect x="77.1" y="119.8" transform="matrix(0.9902 -0.14 0.14 0.9902 -16.3211 12.3282)" class="st2" width="4.7" height="4.7"/>
		<rect x="72.8" y="122.5" transform="matrix(0.9902 -0.14 0.14 0.9902 -16.7367 11.7405)" class="st2" width="4.7" height="4.7"/>
		<rect x="68.4" y="125.2" transform="matrix(0.9902 -0.14 0.14 0.9902 -17.1522 11.1529)" class="st2" width="4.7" height="4.7"/>
		<rect x="65.6" y="128.3" transform="matrix(0.9902 -0.14 0.14 0.9902 -17.6141 10.8006)" class="st2" width="4.7" height="4.7"/>
		<rect x="62.3" y="130.1" transform="matrix(0.9902 -0.14 0.14 0.9902 -17.9044 10.3472)" class="st2" width="4.7" height="4.7"/>
		<rect x="61.2" y="133.7" transform="matrix(0.9902 -0.14 0.14 0.9902 -18.4126 10.2304)" class="st2" width="4.7" height="4.7"/>
		<rect x="58" y="135.5" transform="matrix(0.9902 -0.14 0.14 0.9902 -18.6962 9.8078)" class="st2" width="4.7" height="4.7"/>
		<rect x="57.6" y="138.5" transform="matrix(0.9902 -0.14 0.14 0.9902 -19.123 9.7702)" class="st2" width="4.7" height="4.7"/>
		<rect x="55.4" y="140.8" transform="matrix(0.9902 -0.14 0.14 0.9902 -19.4727 9.4907)" class="st2" width="4.7" height="4.7"/>
		<rect x="101.2" y="160.2" transform="matrix(0.9902 -0.14 0.14 0.9902 -21.7331 16.0948)" class="st2" width="4.7" height="4.7"/>
		<rect x="102.8" y="161.8" transform="matrix(0.9902 -0.14 0.14 0.9902 -21.9401 16.3323)" class="st2" width="4.7" height="4.7"/>
		<rect x="101.4" y="164.9" transform="matrix(0.9902 -0.14 0.14 0.9902 -22.3932 16.1715)" class="st2" width="4.7" height="4.7"/>
		<rect x="103.9" y="166.4" transform="matrix(0.9902 -0.14 0.14 0.9902 -22.5738 16.5322)" class="st2" width="4.7" height="4.7"/>
		<rect x="106.5" y="170.3" transform="matrix(0.9902 -0.14 0.14 0.9902 -23.0998 16.9346)" class="st2" width="4.7" height="4.7"/>
		<rect x="103.2" y="169.4" transform="matrix(0.9902 -0.14 0.14 0.9902 -23.0072 16.4638)" class="st2" width="4.7" height="4.7"/>
		<rect x="105.6" y="173.9" transform="matrix(0.9902 -0.14 0.14 0.9902 -23.6015 16.8486)" class="st2" width="4.7" height="4.7"/>
		<rect x="109" y="178.2" transform="matrix(0.9902 -0.14 0.14 0.9902 -24.1694 17.3566)" class="st2" width="4.7" height="4.7"/>
		<rect x="113.8" y="180.6" transform="matrix(0.9902 -0.14 0.14 0.9902 -24.4689 18.065)" class="st2" width="4.7" height="4.7"/>
		<rect x="109.3" y="173.8" transform="matrix(0.9902 -0.14 0.14 0.9902 -23.5577 17.3547)" class="st2" width="4.7" height="4.7"/>
		<rect x="111.4" y="176.4" transform="matrix(0.9902 -0.14 0.14 0.9902 -23.9055 17.6868)" class="st2" width="4.7" height="4.7"/>
		<rect x="113.9" y="177.9" transform="matrix(0.9902 -0.14 0.14 0.9902 -24.0861 18.0475)" class="st2" width="4.7" height="4.7"/>
		<rect x="116.8" y="179.3" transform="matrix(0.9902 -0.14 0.14 0.9902 -24.2535 18.4699)" class="st2" width="4.7" height="4.7"/>
		<rect x="120.2" y="180.4" transform="matrix(0.9902 -0.14 0.14 0.9902 -24.3769 18.9473)" class="st2" width="4.7" height="4.7"/>
		<rect x="124.8" y="180.9" transform="matrix(0.9902 -0.14 0.14 0.9902 -24.3992 19.5964)" class="st2" width="4.7" height="4.7"/>
		<rect x="129.3" y="180.9" transform="matrix(0.9902 -0.14 0.14 0.9902 -24.3598 20.2322)" class="st2" width="4.7" height="4.7"/>
		<rect x="133.9" y="179.6" transform="matrix(0.9902 -0.14 0.14 0.9902 -24.1291 20.8594)" class="st2" width="4.7" height="4.7"/>
		<rect x="135.5" y="179.8" transform="matrix(0.9902 -0.14 0.14 0.9902 -24.1446 21.0882)" class="st2" width="4.7" height="4.7"/>
		<rect x="134.5" y="180.9" transform="matrix(0.9902 -0.14 0.14 0.9902 -24.3008 20.9605)" class="st2" width="4.7" height="4.7"/>
		<rect x="129.9" y="182" transform="matrix(0.9902 -0.14 0.14 0.9902 -24.5007 20.3268)" class="st2" width="4.7" height="4.7"/>
		<rect x="125.6" y="182.1" transform="matrix(0.9902 -0.14 0.14 0.9902 -24.5642 19.7283)" class="st2" width="4.7" height="4.7"/>
		<rect x="121.8" y="182" transform="matrix(0.9902 -0.14 0.14 0.9902 -24.5838 19.1848)" class="st2" width="4.7" height="4.7"/>
		<rect x="117.4" y="181.5" transform="matrix(0.9902 -0.14 0.14 0.9902 -24.5549 18.5666)" class="st2" width="4.7" height="4.7"/>
	</g>
	<g>
		<circle class="st3" cx="44.3" cy="232" r="19.5"/>
		<path class="st4" d="M39.3,231c1.2,2.4,3.2,4.4,5.6,5.6l1.9-1.9c0.2-0.2,0.6-0.3,0.9-0.2c1,0.3,2,0.5,3.1,0.5
			c0.5,0,0.9,0.4,0.9,0.9v3c0,0.5-0.4,0.9-0.9,0.9c-8,0-14.5-6.5-14.5-14.5c0-0.5,0.4-0.9,0.9-0.9h3c0.5,0,0.9,0.4,0.9,0.9
			c0,1.1,0.2,2.1,0.5,3.1c0.1,0.3,0,0.6-0.2,0.9L39.3,231z"/>
	</g>
	<line class="st0" x1="180" y1="212.3" x2="298" y2="64.6"/>
	<line class="st0" x1="181.3" y1="213.6" x2="289" y2="165.6"/>
	<line class="st0" x1="183.3" y1="213.6" x2="286.3" y2="228.6"/>
	<line class="st0" x1="290" y1="330.3" x2="182.6" y2="212.3"/>
	<g>
		<circle class="st3" cx="297.2" cy="67.3" r="40.3"/>
		<g>
			
				<rect x="280.2" y="43.4" transform="matrix(1 1.698922e-03 -1.698922e-03 1 0.1155 -0.5054)" class="st2" width="34.7" height="48.6"/>
			
				<rect x="279.4" y="42.7" transform="matrix(1 1.698922e-03 -1.698922e-03 1 0.1142 -0.5042)" class="st5" width="34.7" height="48.6"/>
			<g>
				<path class="st6" d="M289.6,54.2l-5.5,0c-0.8,0-1.5-0.7-1.5-1.5l0-5.5c0-0.8,0.7-1.5,1.5-1.5l5.5,0c0.8,0,1.5,0.7,1.5,1.5l0,5.5
					C291.1,53.6,290.4,54.2,289.6,54.2z"/>
				
					<ellipse transform="matrix(1.698922e-03 -1 1 1.698922e-03 237.8975 335.17)" class="st7" cx="286.8" cy="48.4" rx="2.1" ry="2.1"/>
				<path class="st7" d="M283.7,54c0-1.7,1.4-3.1,3.1-3.1c1.7,0,3.1,1.4,3.1,3.1"/>
				<path class="st8" d="M289.5,54.1l-5.4,0c-0.8,0-1.5-0.7-1.5-1.5l0-5.4c0-0.8,0.7-1.5,1.5-1.5l5.4,0c0.8,0,1.5,0.7,1.5,1.5l0,5.4
					C291,53.5,290.3,54.1,289.5,54.1z"/>
			</g>
			<g>
				<path class="st9" d="M292.8,88.1c1.2,0,2.2-0.8,2.8-1.9c0.6-1,0.8-2.2,0.8-3.4c0-0.1,0-0.3-0.2-0.3c-0.1,0-0.1,0-0.2,0.1
					c-0.5,0.5-0.8,1.3-1,2c-0.8,2.3-0.8,3.7-1.3,6.1"/>
				<path class="st9" d="M295.2,87.9c0.1,0,0.1,0,0.2-0.1C295.3,87.8,295.2,87.8,295.2,87.9c0.7-0.5,1.9-2,1.8-2.8
					c-0.1-0.2-0.4-0.1-0.5,0c-0.1,0.1-0.2,0.3-0.2,0.5c-0.1,0.6-0.1,1.2,0.1,1.8c0,0.1,0.1,0.2,0.1,0.2c0.1,0.1,0.3,0,0.4-0.1
					c0.3-0.3,0.6-0.6,0.9-0.9c0.1,0.3,0.1,0.7,0.1,1c0-0.3,0.1-0.5,0.3-0.7c0.1,0.2,0.2,0.4,0.1,0.6c0-0.2,0.1-0.4,0.1-0.7
					c0.2-0.1,0.5,0.2,0.4,0.4c0.2,0.1,0.5,0.1,0.7,0.1c0.2-0.1,0.4-0.3,0.4-0.5c-0.1-0.1-0.3-0.1-0.5,0c-0.1,0.1-0.2,0.3-0.1,0.5
					c0.4,0.4,1.2,0,1.3-0.5c0.2,0.1,0.2,0.3,0.3,0.6c0.1-0.1,0.2-0.3,0.2-0.5c0.1,0.4,0.6,0.4,1,0.4c1,0,2.1-0.1,3.1-0.1"/>
			</g>
			<g>
				<path class="st2" d="M303.5,50l-9.8,0c-0.3,0-0.5-0.2-0.5-0.5l0,0c0-0.3,0.2-0.5,0.5-0.5l9.8,0c0.3,0,0.5,0.2,0.5,0.5l0,0
					C304,49.8,303.8,50,303.5,50z"/>
				<path class="st2" d="M303.5,51.9l-9.8,0c-0.3,0-0.5-0.2-0.5-0.5l0,0c0-0.3,0.2-0.5,0.5-0.5l9.8,0c0.3,0,0.5,0.2,0.5,0.5l0,0
					C304,51.7,303.8,51.9,303.5,51.9z"/>
				<path class="st2" d="M303.5,53.8l-9.8,0c-0.3,0-0.5-0.2-0.5-0.5l0,0c0-0.3,0.2-0.5,0.5-0.5l9.8,0c0.3,0,0.5,0.2,0.5,0.5l0,0
					C304,53.6,303.8,53.8,303.5,53.8z"/>
			</g>
			<g>
				<path class="st2" d="M311.1,57.5l-17.8,0c-0.3,0-0.5-0.2-0.5-0.5l0,0c0-0.3,0.2-0.5,0.5-0.5l17.8,0c0.3,0,0.5,0.2,0.5,0.5v0
					C311.6,57.2,311.4,57.5,311.1,57.5z"/>
				<path class="st2" d="M311.1,59.6l-17.8,0c-0.3,0-0.5-0.2-0.5-0.5v0c0-0.3,0.2-0.5,0.5-0.5l17.8,0c0.3,0,0.5,0.2,0.5,0.5l0,0
					C311.6,59.4,311.4,59.6,311.1,59.6z"/>
				<path class="st2" d="M311.1,61.7l-17.8,0c-0.3,0-0.5-0.2-0.5-0.5l0,0c0-0.3,0.2-0.5,0.5-0.5l17.8,0c0.3,0,0.5,0.2,0.5,0.5l0,0
					C311.6,61.5,311.4,61.7,311.1,61.7z"/>
				<path class="st2" d="M311.1,63.8l-17.8,0c-0.3,0-0.5-0.2-0.5-0.5l0,0c0-0.3,0.2-0.5,0.5-0.5l17.8,0c0.3,0,0.5,0.2,0.5,0.5l0,0
					C311.6,63.6,311.4,63.8,311.1,63.8z"/>
				<path class="st2" d="M311.1,65.9l-17.8,0c-0.3,0-0.5-0.2-0.5-0.5l0,0c0-0.3,0.2-0.5,0.5-0.5l17.8,0c0.3,0,0.5,0.2,0.5,0.5l0,0
					C311.6,65.7,311.4,65.9,311.1,65.9z"/>
				<path class="st2" d="M311.1,68l-17.8,0c-0.3,0-0.5-0.2-0.5-0.5l0,0c0-0.3,0.2-0.5,0.5-0.5l17.8,0c0.3,0,0.5,0.2,0.5,0.5l0,0
					C311.6,67.8,311.3,68,311.1,68z"/>
				<path class="st2" d="M311.1,70.1l-17.8,0c-0.3,0-0.5-0.2-0.5-0.5l0,0c0-0.3,0.2-0.5,0.5-0.5l17.8,0c0.3,0,0.5,0.2,0.5,0.5l0,0
					C311.6,69.9,311.3,70.1,311.1,70.1z"/>
				<path class="st2" d="M311.1,72.3l-17.8,0c-0.3,0-0.5-0.2-0.5-0.5v0c0-0.3,0.2-0.5,0.5-0.5l17.8,0c0.3,0,0.5,0.2,0.5,0.5l0,0
					C311.6,72,311.3,72.3,311.1,72.3z"/>
				<path class="st2" d="M311.1,74.4l-17.8,0c-0.3,0-0.5-0.2-0.5-0.5l0,0c0-0.3,0.2-0.5,0.5-0.5l17.8,0c0.3,0,0.5,0.2,0.5,0.5l0,0
					C311.6,74.2,311.3,74.4,311.1,74.4z"/>
				<path class="st2" d="M311.1,76.5l-17.8,0c-0.3,0-0.5-0.2-0.5-0.5l0,0c0-0.3,0.2-0.5,0.5-0.5l17.8,0c0.3,0,0.5,0.2,0.5,0.5l0,0
					C311.5,76.3,311.3,76.5,311.1,76.5z"/>
				<path class="st2" d="M311.1,78.6l-17.8,0c-0.3,0-0.5-0.2-0.5-0.5l0,0c0-0.3,0.2-0.5,0.5-0.5l17.8,0c0.3,0,0.5,0.2,0.5,0.5v0
					C311.5,78.4,311.3,78.6,311.1,78.6z"/>
				<path class="st2" d="M311.1,80.7l-17.8,0c-0.3,0-0.5-0.2-0.5-0.5l0,0c0-0.3,0.2-0.5,0.5-0.5l17.8,0c0.3,0,0.5,0.2,0.5,0.5l0,0
					C311.5,80.5,311.3,80.7,311.1,80.7z"/>
			</g>
			<line class="st10" x1="296.4" y1="88.4" x2="306.1" y2="88.4"/>
		</g>
	</g>
	<g>
		<circle class="st2" cx="287.9" cy="164.7" r="28.1"/>
		<g>
			<g>
				<path class="st11" d="M302.6,176.3l-29.5-0.1c-1.2,0-2.3-1-2.3-2.3l0.1-17.9c0-1.2,1-2.3,2.3-2.3l29.5,0.1c1.2,0,2.3,1,2.3,2.3
					l-0.1,17.9C304.8,175.3,303.8,176.3,302.6,176.3z"/>
				<path class="st7" d="M302.6,175.7l-29.5-0.1c-1.2,0-2.3-1-2.3-2.3l0.1-17.9c0-1.2,1-2.3,2.3-2.3l29.5,0.1c1.2,0,2.3,1,2.3,2.3
					l-0.1,17.9C304.8,174.7,303.8,175.7,302.6,175.7z"/>
			</g>
			
				<rect x="271.5" y="158.8" transform="matrix(1 4.570512e-03 -4.570512e-03 1 0.7379 -1.3142)" class="st5" width="32.9" height="4"/>
			<path class="st12" d="M277.7,161.7c0.5-0.1,1.1,0,1.6,0.1c0.5,0.1,1.1,0.1,1.6-0.1c0.5-0.2,1-0.5,1.1-1.1s-0.2-1.1-0.8-1.2
				c-0.4,0-0.7,0.2-0.9,0.5c-0.2,0.3-0.3,0.7-0.3,1c0,0.2,0,0.3,0,0.5c0.1,0.2,0.3,0.3,0.5,0.3c1.4,0.6,3.1,0.6,4.5,0
				c0.4-0.2,1.1-0.5,1-0.8c-0.1-0.4-1-0.3-1.5-0.2c-0.5,0.1-1.1,0.6-1,1.1c0.1,0.4,0.7,0.5,1.1,0.5c1.7-0.1,4.4-2.5,4-2.9
				c-0.4-0.4-1.2,0.5-1.5,1.1c-0.2,0.6-0.7,2-0.2,1.9c0.5-0.1,2.3-1.6,2.6-1.5c0.3,0.1-0.4,0.8,0,0.9c0.4,0,1.3-0.9,1.6-0.9
				s0,0.5,0.2,0.7c0.2,0.1,0.5,0.1,0.8,0.1c0.7-0.1,1.5-0.8,2.1-0.7c0.5,0,0.4,0.9,0.8,1.2s0.8,0.6,1.3,0.6"/>
			<path class="st5" d="M301.1,168.4l-14.8-0.1c-0.4,0-0.7-0.3-0.7-0.7l0,0c0-0.4,0.3-0.7,0.7-0.7l14.8,0.1c0.4,0,0.7,0.3,0.7,0.7
				l0,0C301.8,168,301.5,168.4,301.1,168.4z"/>
			<path class="st5" d="M301,171.2l-14.8-0.1c-0.4,0-0.7-0.3-0.7-0.7l0,0c0-0.4,0.3-0.7,0.7-0.7l14.8,0.1c0.4,0,0.7,0.3,0.7,0.7l0,0
				C301.8,170.9,301.4,171.2,301,171.2z"/>
		</g>
	</g>
	<g>
		<circle class="st2" cx="286" cy="228" r="16.4"/>
		<path class="st4" d="M286,228.9l-8.8-5.5v-0.7c0-1,0.8-1.8,1.8-1.8h14c1,0,1.8,0.8,1.8,1.8v0.7L286,228.9 M294.7,233.3
			c0,1-0.8,1.8-1.8,1.8h-14c-1,0-1.8-0.8-1.8-1.8v-7.8l1.8,1.1v6.7h14v-6.7l1.8-1.1V233.3z"/>
	</g>
	<g>
		<g>
			<circle class="st3" cx="274.5" cy="317.8" r="32.7"/>
			<rect x="260.6" y="299.6" class="st7" width="28.4" height="36.2"/>
			<rect x="260" y="299" class="st5" width="28.4" height="36.2"/>
		</g>
		<g>
			<rect x="273.5" y="301.6" class="st13" width="1.3" height="5.7"/>
			
				<rect x="273.5" y="301.6" transform="matrix(3.647222e-11 -1 1 3.647222e-11 -30.2409 578.5831)" class="st13" width="1.3" height="5.7"/>
		</g>
		<rect x="263.7" y="310.5" class="st14" width="1.7" height="1.7"/>
		<rect x="263.7" y="313.8" class="st14" width="1.7" height="1.7"/>
		<rect x="263.7" y="317.2" class="st14" width="1.7" height="1.7"/>
		<rect x="266.2" y="310.5" class="st14" width="15.5" height="1.7"/>
		<rect x="266.2" y="313.9" class="st14" width="12.6" height="1.7"/>
		<rect x="266.2" y="317.2" class="st14" width="17.8" height="1.7"/>
		<rect x="266.2" y="320.5" class="st14" width="6.8" height="1.7"/>
		<rect x="266.2" y="323.8" class="st14" width="12.7" height="1.7"/>
		<rect x="266.2" y="327.1" class="st14" width="14.8" height="1.7"/>
		<rect x="263.7" y="320.5" class="st14" width="1.7" height="1.7"/>
		<rect x="263.7" y="323.8" class="st14" width="1.7" height="1.7"/>
		<rect x="263.7" y="327.1" class="st14" width="1.7" height="1.7"/>
	</g>
	<g>
		<circle class="st5" cx="182.2" cy="214.2" r="69.8"/>
		<path class="st2" d="M247.1,214.2c0,7.7-1.7,14.9-3.8,21.9c0,0.1-61.1-21.9-61.1-21.9v-64.9C218.1,149.3,247.1,178.4,247.1,214.2z
			"/>
		<g>
			<defs>
				<circle id="SVGID_1_" cx="182.2" cy="214.2" r="52"/>
			</defs>
			<use xlink:href="#SVGID_1_"  style="overflow:visible;fill:#FFFFFF;"/>
			<clipPath id="SVGID_2_">
				<use xlink:href="#SVGID_1_"  style="overflow:visible;"/>
			</clipPath>
			<path class="st15" d="M208.2,231.9v3c0,3.3-2.7,5.9-5.9,5.9h-41.6c-3.3,0-5.9-2.7-5.9-5.9v-41.6c0-3.3,2.6-5.9,5.9-5.9h41.6
				c3.3,0,5.9,2.7,5.9,5.9v3h-26.7c-3.3,0-5.9,2.7-5.9,5.9V226c0,3.3,2.6,5.9,5.9,5.9H208.2z M181.4,226h29.7v-23.8h-29.7V226z
				 M193.3,218.5c-2.5,0-4.5-2-4.5-4.5s2-4.5,4.5-4.5c2.5,0,4.5,2,4.5,4.5S195.8,218.5,193.3,218.5z"/>
		</g>
	</g>
	<g>
		<circle class="st16" cx="207.7" cy="98.1" r="30.8"/>
		<g>
			<path class="st7" d="M221.6,110.2h-27.7c-2.2,0-4-1.8-4-4V90.6c0-2.2,1.8-4,4-4h27.7c2.2,0,4,1.8,4,4v15.6
				C225.6,108.4,223.8,110.2,221.6,110.2z"/>
			<path class="st5" d="M221.6,109.6h-27.7c-2.2,0-4-1.8-4-4V90c0-2.2,1.8-4,4-4h27.7c2.2,0,4,1.8,4,4v15.6
				C225.6,107.8,223.8,109.6,221.6,109.6z"/>
			<path class="st6" d="M201.3,101.4h-5.5c-2.2,0-4-1.8-4-4v-5.5c0-2.2,1.8-4,4-4h5.5c2.2,0,4,1.8,4,4v5.5
				C205.3,99.6,203.5,101.4,201.3,101.4z"/>
			<circle class="st7" cx="198.5" cy="92.1" r="3.3"/>
			<path class="st7" d="M193.5,101.1c0-2.8,2.2-5,5-5c2.8,0,5,2.2,5,5"/>
			<path class="st17" d="M201.2,101.2h-5.3c-2.2,0-4-1.8-4-4v-5.3c0-2.2,1.8-4,4-4h5.3c2.2,0,4,1.8,4,4v5.3
				C205.2,99.4,203.4,101.2,201.2,101.2z"/>
			<g>
				<path class="st4" d="M223.3,95.1h-15.6c-0.4,0-0.8-0.3-0.8-0.8v0c0-0.4,0.3-0.8,0.8-0.8h15.6c0.4,0,0.8,0.3,0.8,0.8v0
					C224.1,94.8,223.7,95.1,223.3,95.1z"/>
				<path class="st4" d="M223.3,98.2h-15.6c-0.4,0-0.8-0.3-0.8-0.8l0,0c0-0.4,0.3-0.8,0.8-0.8h15.6c0.4,0,0.8,0.3,0.8,0.8v0
					C224.1,97.9,223.7,98.2,223.3,98.2z"/>
				<path class="st4" d="M223.3,101.3h-15.6c-0.4,0-0.8-0.3-0.8-0.8l0,0c0-0.4,0.3-0.8,0.8-0.8h15.6c0.4,0,0.8,0.3,0.8,0.8l0,0
					C224.1,100.9,223.7,101.3,223.3,101.3z"/>
			</g>
			<path class="st18" d="M194.9,106.3c0.7-0.1,1.4,0,2.1,0.1s1.4,0.1,2.1-0.1c0.7-0.2,1.3-0.7,1.5-1.4c0.2-0.7-0.3-1.5-1-1.6
				c-0.5,0-1,0.3-1.2,0.7c-0.3,0.4-0.4,0.9-0.4,1.4c0,0.2-0.1,0.5,0,0.7c0.1,0.2,0.4,0.4,0.6,0.5c1.9,0.8,4.1,0.8,5.9,0
				c0.5-0.2,1.4-0.6,1.3-1.1c-0.1-0.5-1.3-0.4-2-0.2c-0.7,0.2-1.5,0.7-1.3,1.4c0.2,0.5,0.9,0.7,1.5,0.6c2.3-0.2,5.8-3.3,5.3-3.9
				s-1.6,0.6-1.9,1.4c-0.3,0.8-0.9,2.7-0.3,2.5c0.6-0.2,3-2.1,3.4-2s-0.5,1.1,0.1,1.1c0.5,0,1.7-1.2,2.1-1.1s0,0.7,0.3,0.9
				s0.7,0.2,1,0.1c1-0.1,2-1,2.8-1c0.7,0,0.6,1.2,1,1.6c0.4,0.5,1.1,0.8,1.7,0.8"/>
		</g>
	</g>
	<path class="st19" d="M153.7,249.1h-4.7v-9.4c0-12.9-10.5-23.4-23.4-23.4c-12.9,0-23.4,10.5-23.4,23.4v9.4h-4.7
		c-5.1,0-9.4,4.2-9.4,9.4v46.8c0,5.1,4.2,9.4,9.4,9.4h56.2c5.1,0,9.4-4.2,9.4-9.4v-46.8C163.1,253.3,158.9,249.1,153.7,249.1z
		 M125.6,291.2c-5.1,0-9.4-4.2-9.4-9.4c0-5.1,4.2-9.4,9.4-9.4c5.1,0,9.4,4.2,9.4,9.4C135,287,130.8,291.2,125.6,291.2z M140.2,249.1
		h-29v-9.4c0-8,6.5-14.5,14.5-14.5c8,0,14.5,6.5,14.5,14.5V249.1z"/>
	<g>
		<circle class="st20" cx="210.3" cy="332.3" r="21.7"/>
		<path class="st21" d="M201.6,331.3c0.5-0.1,1.1,0,1.6,0.1c0.5,0.1,1.1,0.1,1.6-0.1c0.5-0.2,1-0.5,1.1-1.1c0.1-0.5-0.2-1.2-0.8-1.2
			c-0.4,0-0.7,0.2-0.9,0.5c-0.2,0.3-0.3,0.7-0.3,1.1c0,0.2,0,0.3,0,0.5c0.1,0.2,0.3,0.3,0.5,0.3c1.4,0.6,3.1,0.6,4.5,0
			c0.4-0.2,1.1-0.5,1-0.9c-0.1-0.4-1-0.3-1.5-0.2c-0.5,0.1-1.1,0.6-1,1.1c0.1,0.4,0.7,0.5,1.1,0.5c1.8-0.1,4.4-2.6,4-3
			s-1.2,0.5-1.5,1.1c-0.2,0.6-0.7,2-0.2,1.9c0.5-0.1,2.3-1.6,2.6-1.5s-0.4,0.8,0,0.9c0.4,0,1.3-0.9,1.6-0.9c0.3,0.1,0,0.6,0.2,0.7
			c0.2,0.1,0.5,0.1,0.8,0.1c0.7-0.1,1.6-0.8,2.1-0.8c0.6,0,0.5,0.9,0.8,1.3c0.3,0.4,0.8,0.6,1.3,0.6"/>
		<line class="st21" x1="196.8" y1="336.1" x2="225.2" y2="336.1"/>
	</g>
</g>
</svg>
