<?xml version="1.0" encoding="utf-8"?>
<!-- Generator: Adobe Illustrator 21.0.2, SVG Export Plug-In . SVG Version: 6.00 Build 0)  -->
<svg version="1.1" id="Ebene_1" xmlns="http://www.w3.org/2000/svg" xmlns:xlink="http://www.w3.org/1999/xlink" x="0px" y="0px"
	 viewBox="0 0 172 150" style="enable-background:new 0 0 172 150;" xml:space="preserve">
<style type="text/css">
	.st0{clip-path:url(#SVGID_2_);}
	.st1{fill:#F9DCB2;}
	.st2{fill:#F0F0F0;}
	.st3{fill:#F4D3AB;}
	.st4{fill:#5A4A42;}
	.st5{fill:#EF8671;}
	.st6{fill:#492B16;}
	.st7{fill:#6D4326;}
	.st8{fill:#492F1D;}
	.st9{fill:#7C5235;}
	.st10{fill:#FAFAFA;}
	.st11{fill:#A2B6D2;}
	.st12{fill:#575756;}
	.st13{fill:#4C142C;}
	.st14{fill:#7D828C;}
	.st15{fill:#9BA0AA;}
	.st16{fill:#A18A88;}
	.st17{opacity:0.15;}
	.st18{fill:#FFFFFF;}
	.st19{fill:#D2D2D2;}
	
		.st20{opacity:0.3;fill:none;stroke:#3B3B3A;stroke-width:0.442;stroke-linecap:round;stroke-miterlimit:10;enable-background:new    ;}
</style>
<g id="Ebene_1_1_">
	<g>
		<g>
			<g>
				<defs>
					<circle id="SVGID_1_" cx="92.583" cy="73.7977" r="69.879"/>
				</defs>
				<clipPath id="SVGID_2_">
					<use xlink:href="#SVGID_1_"  style="overflow:visible;"/>
				</clipPath>
				<g class="st0">
					<path class="st1" d="M41.2711,43.6901c-2.8513,0-5.1626,2.3114-5.1626,5.1626l0,0c0,2.8512,2.3113,5.1626,5.1626,5.1626h5.0276
						V43.6901H41.2711z"/>
					<path class="st1" d="M92.4973,54.0154c2.8513,0,5.1626-2.3114,5.1626-5.1626l0,0c0-2.8512-2.3113-5.1626-5.1626-5.1626h-5.0276
						v10.3253L92.4973,54.0154L92.4973,54.0154z"/>
					<path class="st2" d="M103.1106,144.8742H30.9068V126.429c0-19.9385,16.1634-36.1019,36.1019-36.1019h0.0001
						c19.9385,0,36.1019,16.1634,36.1019,36.1019L103.1106,144.8742L103.1106,144.8742z"/>
					<path class="st1" d="M67.0087,105.6193L67.0087,105.6193c-5.3982,0-9.7743-4.3761-9.7743-9.7743V75.0351H76.783V95.845
						C76.783,101.2432,72.4069,105.6193,67.0087,105.6193z"/>
					<path class="st3" d="M57.2344,75.0351v12.5288c3.0563,1.0938,6.3467,1.6916,9.7743,1.6916c3.4277,0,6.718-0.5977,9.7743-1.6916
						V75.0351H57.2344z"/>
					<path class="st1" d="M67.0087,85.472L67.0087,85.472c-13.9737,0-25.3016-11.3279-25.3016-25.3016v-26.242
						c0-13.9737,11.3279-25.3016,25.3016-25.3016l0,0c13.9737,0,25.3016,11.3279,25.3016,25.3016v26.2419
						C92.3103,74.1441,80.9824,85.472,67.0087,85.472z"/>
					<g>
						<ellipse class="st4" cx="55.7761" cy="45.7861" rx="3.0742" ry="2.1282"/>
						<ellipse class="st4" cx="78.2413" cy="45.7861" rx="3.0742" ry="2.1282"/>
					</g>
					<path class="st5" d="M71.7907,66.2067c0,0-3.1816,0.6282-4.8433,0.6282c-1.6616,0-4.7207-0.6282-4.7207-0.6282
						c-0.9578,0-1.7342,0.7764-1.7342,1.7342c0,0.9577,0.8467,1.4809,1.7342,1.7341c0.8875,0.2533,2.8366,0.6282,4.6165,0.6282
						s4.1494-0.3591,4.9475-0.6282s1.7342-0.7764,1.7342-1.7341C73.5248,66.9831,72.7484,66.2067,71.7907,66.2067z"/>
					<path class="st6" d="M67.0087,4.8282h-8.0766c-3.4408,0-6.2302,2.7893-6.2302,6.2302v1.0866
						c0,12.4439,18.4341,8.4954,25.9727,10.3801c12.2502,1.8847,13.6357,12.1515,13.6357,12.1515v23.7526l0,0
						c2.6299-2.6299,4.1074-6.1969,4.1074-9.9161v-28.777c0-8.2334-6.6745-14.9078-14.9078-14.9078L67.0087,4.8282L67.0087,4.8282z"
						/>
					<path class="st7" d="M67.0087,3.5718h-8.0766c-3.4408,0-6.2302,2.7893-6.2302,6.2302v1.0866
						c0,12.4439,18.4341,8.4954,25.9727,10.3801c12.2502,1.8847,13.6357,12.1515,13.6357,12.1515v23.7526l0,0
						c2.6299-2.6299,4.1074-6.1969,4.1074-9.9161V18.4796c0-8.2334-6.6745-14.9078-14.9078-14.9078
						C81.5099,3.5718,67.0087,3.5718,67.0087,3.5718z"/>
					<path class="st8" d="M54.5543,21.8294c0,7.0953-5.7519,12.8472-12.8472,12.8472l0,0v23.7526l0,0
						c-2.6299-2.6299-4.1073-6.1969-4.1073-9.9161V21.7828c0-7.8052,5.2742-14.3785,12.453-16.3505
						c2.2705-0.6237,4.5016,1.1355,4.5016,3.4901L54.5543,21.8294L54.5543,21.8294z"/>
					<g>
						<path class="st9" d="M58.9185,37.1552l-9.6298,0.7123c-0.6077,0.0449-1.137-0.4113-1.182-1.0191s0.4115-1.137,1.0192-1.1819
							l9.6298-0.7123c0.6077-0.0449,1.137,0.4113,1.1819,1.0191C59.9826,36.5811,59.5262,37.1103,58.9185,37.1552z"/>
					</g>
					<g>
						<path class="st9" d="M75.1018,37.1743l9.6325,0.6748c0.6079,0.0426,1.1354-0.4157,1.178-1.0237s-0.4159-1.1354-1.0237-1.178
							l-9.6325-0.6748c-0.6079-0.0426-1.1354,0.4157-1.178,1.0237S74.4939,37.1317,75.1018,37.1743z"/>
					</g>
					<path class="st9" d="M54.5543,21.2012c0,7.0953-5.7519,12.8472-12.8472,12.8472l0,0V57.801l0,0
						c-2.6299-2.6299-4.1073-6.1969-4.1073-9.9161V21.1546c0-7.8052,5.2742-14.3785,12.453-16.3505
						c2.2705-0.6237,4.5016,1.1355,4.5016,3.4901L54.5543,21.2012L54.5543,21.2012z"/>
					<path class="st10" d="M77.7627,94.9896h-0.9495v0.9153c0,4.8662-3.9446,8.8108-8.8105,8.8108h-1.8309
						c-4.8659,0-8.8105-3.9446-8.8105-8.8108v-0.9153h-0.9495h-1.1089v1.1089c0,5.8961,4.7795,10.6756,10.6752,10.6756h2.2182
						c5.8958,0,10.6752-4.7795,10.6752-10.6756v-1.1089H77.7627z"/>
					<path class="st11" d="M58.4368,144.8742h-27.53V126.429c0-16.5511,11.1379-30.5009,26.3274-34.763L58.4368,144.8742z"/>
					<path class="st11" d="M75.5888,144.8742h27.53V126.429c0-16.5511-11.1379-30.5009-26.3274-34.763L75.5888,144.8742z"/>
				</g>
			</g>
		</g>
	</g>
	<g>
		<polygon class="st12" points="162.8048,62.8803 162.8612,63.1754 163.0939,63.1385 		"/>
		<polygon class="st12" points="170.1446,72.5065 170.049,72.2218 169.8234,72.2896 		"/>
		<polygon class="st12" points="152.7484,139.855 152.4585,139.9338 152.513,140.163 		"/>
		<path class="st13" d="M147.9037,146.0303l-56.987-14.6701c-0.5636-0.1451-0.9029-0.7196-0.7578-1.2832l19.8871-79.6015
			c0.1451-0.5636,1.2957-0.7917,1.8592-0.6466l56.987,14.6701c1.6461,0.4238,2.637,2.1017,2.2132,3.7478l-19.454,75.5703
			C151.2278,145.4632,149.5498,146.4541,147.9037,146.0303z"/>
		<path class="st14" d="M170.1458,72.5079l-0.2659-0.7122l0.8835-3.4606c0.393-1.5247-0.5285-3.0854-2.054-3.4793l-5.5854-1.4077
			l-0.3233-0.5691l6.0188,1.5488c1.7616,0.4548,2.8254,2.257,2.3719,4.0174L170.1458,72.5079z"/>
		<path class="st14" d="M152.7428,139.8546l-0.5727,0.5l-0.8692,3.4642c-0.3797,1.528-1.9328,2.4624-3.462,2.0831l-5.5825-1.4191
			l-0.5551,0.3468l6.0309,1.5011c1.7658,0.4381,3.5589-0.641,3.9976-2.4051L152.7428,139.8546z"/>
		<polygon class="st15" points="141.1574,144.7556 141.4536,144.7058 141.422,144.4724 		"/>
		<path class="st16" d="M147.3426,146.1101l-54.5963-14.0547c-1.765-0.4544-2.8275-2.2535-2.3731-4.0186l19.3431-75.1396
			c0.4544-1.765,0.7165-3.1902,2.4815-2.7359l56.1333,14.4174c1.765,0.4544,2.8275,2.2535,2.3732,4.0186l-19.3431,75.1396
			C150.9068,145.502,149.1076,146.5645,147.3426,146.1101z"/>
		<polygon class="st15" points="152.196,139.7818 151.9062,139.8606 151.9607,140.0898 		"/>
		<polygon class="st12" points="162.0651,63.0365 162.0024,63.3302 162.2311,63.3868 		"/>
		<polygon class="st12" points="169.4152,72.6838 169.4158,72.3835 169.1804,72.3755 		"/>
		<path class="st13" d="M147.2383,146.2282l-56.987-14.6701c-0.5636-0.1451-0.9028-0.7196-0.7578-1.2832l20.4632-79.4904
			c0.1451-0.5636,0.7196-0.9029,1.2832-0.7578l56.987,14.6701c1.6461,0.4238,2.637,2.1017,2.2132,3.7478l-19.454,75.5703
			C150.5624,145.6611,148.8844,146.652,147.2383,146.2282z"/>
		<g class="st17">
			<path class="st18" d="M136.5814,73.9056c-6.5254-1.6176-13.1223,2.3684-14.74,8.8938
				c-1.6176,6.5254,2.3537,13.1312,8.879,14.7488c6.5372,1.6206,13.146-2.3625,14.7636-8.8879
				C147.1017,82.1349,143.1186,75.5261,136.5814,73.9056z M143.0153,83.0292l-3.4873-0.8645
				c-0.012-1.5714-0.2041-3.1248-0.5881-4.6128C140.9304,78.8358,142.364,80.7973,143.0153,83.0292z M135.9954,76.32
				c0.6295,1.6618,1.0081,3.4245,1.0974,5.241l-4.5157-1.1194C133.5045,78.8771,134.6626,77.4954,135.9954,76.32z M123.927,85.8259
				c-0.0016-0.8035,0.0765-1.6248,0.2787-2.4405s0.5168-1.5784,0.8934-2.2881l3.9956,0.9905
				c-0.288,0.7568-0.5523,1.5194-0.7516,2.3232c-0.1993,0.8038-0.3218,1.6016-0.4206,2.4053L123.927,85.8259z M124.3102,88.4304
				l3.4873,0.8645c0.012,1.5714,0.2041,3.1248,0.5881,4.6128C126.3951,92.6238,124.9586,90.6741,124.3102,88.4304z
				 M130.1419,79.8379l-3.4873-0.8645c1.6213-1.681,3.8021-2.734,6.1619-2.9395C131.7819,77.1702,130.8865,78.454,130.1419,79.8379z
				 M131.3301,95.1396c-0.6295-1.6618-1.0081-3.4245-1.0974-5.241l4.5157,1.1194
				C133.8211,92.5825,132.6629,93.9642,131.3301,95.1396z M135.8429,88.7798l-5.5324-1.3715
				c0.087-0.8066,0.1977-1.6073,0.397-2.4111s0.4784-1.5754,0.7752-2.3174l5.5324,1.3715
				c-0.0841,0.7948-0.1977,1.6073-0.3969,2.4111S136.1427,88.026,135.8429,88.7798z M134.5091,95.4257
				c1.0346-1.1363,1.93-2.4201,2.6746-3.804l3.4873,0.8645C139.0526,94.1554,136.8688,95.2202,134.5091,95.4257z M138.2308,89.3717
				c0.288-0.7568,0.5523-1.5194,0.7516-2.3232c0.1993-0.8038,0.3218-1.6016,0.4206-2.4053l3.9956,0.9905
				c0.0016,0.8035-0.0765,1.6248-0.2787,2.4405s-0.5168,1.5784-0.8934,2.2881L138.2308,89.3717z"/>
		</g>
		<path class="st19" d="M169.4085,72.6668l-0.2659-0.7122l0.8835-3.4606c0.393-1.5247-0.5285-3.0854-2.054-3.4793l-5.5854-1.4077
			l-0.3233-0.5691l6.0188,1.5488c1.7616,0.4548,2.8254,2.257,2.3719,4.0174L169.4085,72.6668z"/>
		<line class="st20" x1="111.2848" y1="53.2493" x2="92.2234" y2="127.2945"/>
		<path class="st19" d="M152.196,139.7818l-0.5727,0.5l-0.8692,3.4642c-0.3797,1.528-1.9328,2.4624-3.462,2.0831l-5.5825-1.4191
			l-0.5551,0.3468l6.0309,1.5011c1.7658,0.438,3.5589-0.641,3.9976-2.4052L152.196,139.7818z"/>
	</g>
	<g>
		<path class="st1" d="M41.2711,43.6901c-2.8513,0-5.1626,2.3114-5.1626,5.1626l0,0c0,2.8512,2.3113,5.1626,5.1626,5.1626h5.0276
			V43.6901H41.2711z"/>
		<path class="st1" d="M92.4973,54.0154c2.8513,0,5.1626-2.3114,5.1626-5.1626l0,0c0-2.8512-2.3113-5.1626-5.1626-5.1626h-5.0276
			v10.3253L92.4973,54.0154L92.4973,54.0154z"/>
		<path class="st6" d="M67.0087,4.8282h-8.0766c-3.4408,0-6.2302,2.7893-6.2302,6.2302v1.0866
			c0,12.4439,18.4341,8.4954,25.9727,10.3801c12.2502,1.8847,13.6357,12.1515,13.6357,12.1515v23.7526l0,0
			c2.6299-2.6299,4.1074-6.1969,4.1074-9.9161v-28.777c0-8.2334-6.6745-14.9078-14.9078-14.9078L67.0087,4.8282L67.0087,4.8282z"/>
		<path class="st7" d="M67.0087,3.5718h-8.0766c-3.4408,0-6.2302,2.7893-6.2302,6.2302v1.0866
			c0,12.4439,18.4341,8.4954,25.9727,10.3801c12.2502,1.8847,13.6357,12.1515,13.6357,12.1515v23.7526l0,0
			c2.6299-2.6299,4.1074-6.1969,4.1074-9.9161V18.4796c0-8.2334-6.6745-14.9078-14.9078-14.9078
			C81.5099,3.5718,67.0087,3.5718,67.0087,3.5718z"/>
		<path class="st8" d="M54.5543,21.8294c0,7.0953-5.7519,12.8472-12.8472,12.8472l0,0v23.7526l0,0
			c-2.6299-2.6299-4.1073-6.1969-4.1073-9.9161V21.7828c0-7.8052,5.2742-14.3785,12.453-16.3505
			c2.2705-0.6237,4.5016,1.1355,4.5016,3.4901L54.5543,21.8294L54.5543,21.8294z"/>
		<path class="st9" d="M54.5543,21.2012c0,7.0953-5.7519,12.8472-12.8472,12.8472l0,0V57.801l0,0
			c-2.6299-2.6299-4.1073-6.1969-4.1073-9.9161V21.1546c0-7.8052,5.2742-14.3785,12.453-16.3505
			c2.2705-0.6237,4.5016,1.1355,4.5016,3.4901L54.5543,21.2012L54.5543,21.2012z"/>
	</g>
</g>
</svg>
