<?xml version="1.0" encoding="utf-8"?>
<!-- Generator: Adobe Illustrator 19.2.1, SVG Export Plug-In . SVG Version: 6.00 Build 0)  -->
<svg version="1.1" id="Ebene_1" xmlns="http://www.w3.org/2000/svg" xmlns:xlink="http://www.w3.org/1999/xlink" x="0px" y="0px"
	 viewBox="0 0 138 138" style="enable-background:new 0 0 138 138;" xml:space="preserve">
<style type="text/css">
	.st0{clip-path:url(#SVGID_2_);}
	.st1{fill:#F0F0F0;}
	.st2{fill:#F8DBB1;}
	.st3{fill:#F4D3AB;}
	.st4{fill:#FAFAFA;}
	.st5{fill:#B7C1D3;}
	.st6{fill:#5A4A42;}
	.st7{fill:#EE8672;}
	.st8{fill:#6D4426;}
	.st9{fill:#7C5235;}
	.st10{fill:#B7C1D3;stroke:#A2B6D2;stroke-miterlimit:10;}
	.st11{fill:#9EABC0;}
	.st12{fill:#A2B6D2;}
	.st13{fill:#9EABC0;stroke:#9EAABF;stroke-width:2;stroke-linecap:round;stroke-miterlimit:10;}
	.st14{fill:none;stroke:#7D828C;stroke-miterlimit:10;}
	.st15{fill:none;stroke:#1A1A18;stroke-miterlimit:10;}
	.st16{fill:none;stroke:#020203;stroke-miterlimit:10;}
	.st17{fill:#575756;}
	.st18{fill:none;stroke:#575756;stroke-linecap:round;stroke-miterlimit:10;}
</style>
<g>
	<g>
		<defs>
			<circle id="SVGID_1_" cx="69" cy="69" r="69"/>
		</defs>
		<use xlink:href="#SVGID_1_"  style="overflow:visible;fill:#F0F0F0;"/>
		<clipPath id="SVGID_2_">
			<use xlink:href="#SVGID_1_"  style="overflow:visible;"/>
		</clipPath>
		<g class="st0">
			<g>
				<g>
					<path class="st1" d="M100.9034,155.818H32.9855v-20.4169c0-17.0614,13.831-30.8923,30.8923-30.8923h6.1333
						c17.0614,0,30.8923,13.831,30.8923,30.8923V155.818z"/>
					<path class="st2" d="M68.7457,114.9935h-3.6025c-4.6192,0-8.3639-3.7446-8.3639-8.3639l0-23.4432h20.3303v23.4432
						C77.1096,111.2489,73.3649,114.9935,68.7457,114.9935z"/>
					<path class="st3" d="M56.7793,89.7198v13.0298c3.1785,1.1376,6.6004,1.7592,10.1652,1.7592
						c3.5647,0,6.9866-0.6216,10.1651-1.7592V89.7198H56.7793z"/>
					<path class="st4" d="M78.1284,103.9388H77.141v0.9519c0,5.0608-4.1023,9.1631-9.1628,9.1631h-1.9041
						c-5.0605,0-9.1628-4.1023-9.1628-9.1631v-0.9519h-0.9874h-1.1533v1.1533c0,6.1319,4.9706,11.1024,11.1021,11.1024h2.3069
						c6.1315,0,11.1021-4.9706,11.1021-11.1024v-1.1533H78.1284z"/>
					<path class="st5" d="M58.0298,155.818H29.399v-19.1826c0-17.2129,11.5832-31.7205,27.3801-36.153L58.0298,155.818z"/>
					<path class="st2" d="M40.1777,57.1215c-2.9653,0-5.369,2.4038-5.369,5.369v0c0,2.9653,2.4037,5.3691,5.369,5.3691h5.2287
						V57.1215H40.1777z"/>
					<path class="st2" d="M93.4522,67.8596c2.9653,0,5.369-2.4038,5.369-5.369v0c0-2.9653-2.4037-5.3691-5.369-5.3691h-5.2287
						v10.7381H93.4522z"/>
					<path class="st2" d="M66.9444,100.574c-14.1975,0-26.3132-18.1388-26.3132-26.3132V46.9695
						c0-14.5324,11.7808-26.3132,26.3132-26.3132h0.0001c14.5324,0,26.3132,11.7808,26.3132,26.3132v27.2912
						C93.2577,82.3557,81.142,100.574,66.9444,100.574z"/>
					<g>
						<ellipse class="st6" cx="55.2627" cy="59.3013" rx="3.1971" ry="2.2132"/>
						<ellipse class="st6" cx="78.6261" cy="59.3013" rx="3.1971" ry="2.2132"/>
					</g>
					<path class="st7" d="M71.9176,80.5384c0,0-3.3089,0.6533-5.0369,0.6533s-4.9095-0.6533-4.9095-0.6533
						c-0.9961,0-1.8035,0.8074-1.8035,1.8035c0,0.996,0.8805,1.5401,1.8035,1.8035c0.923,0.2634,2.95,0.6533,4.8011,0.6533
						s4.3153-0.3734,5.1453-0.6533c0.83-0.2799,1.8035-0.8075,1.8035-1.8035C73.7211,81.3459,72.9137,80.5384,71.9176,80.5384z"/>
					<path class="st8" d="M66.9444,15.3991h-8.3995c-3.5784,0-6.4793,2.9009-6.4793,6.4793v1.13
						c0,12.9414,19.1712,8.8351,27.0112,10.7951c12.7401,1.96,14.1809,12.6374,14.1809,12.6374v24.7024v0
						c2.735-2.7351,4.2716-6.4446,4.2716-10.3126V30.903c0-8.5626-6.9414-15.5039-15.5039-15.5039H66.9444z"/>
					<g>
						<path class="st9" d="M58.5308,50.3253L48.516,51.0661c-0.632,0.0467-1.1825-0.4277-1.2292-1.0599
							c-0.0468-0.6322,0.4279-1.1825,1.0599-1.2292l10.0148-0.7408c0.632-0.0467,1.1824,0.4277,1.2292,1.0599
							C59.6374,49.7283,59.1628,50.2786,58.5308,50.3253z"/>
					</g>
					<g>
						<path class="st9" d="M75.3611,50.3451l10.0176,0.7018c0.6322,0.0443,1.1808-0.4323,1.2251-1.0647
							s-0.4325-1.1808-1.0647-1.2251l-10.0176-0.7018c-0.6322-0.0443-1.1808,0.4323-1.2251,1.0647
							C74.2521,49.7524,74.7289,50.3009,75.3611,50.3451z"/>
					</g>
					<path class="st5" d="M75.8676,155.818h28.6308v-19.1826c0-17.2129-11.5832-31.7205-27.3801-36.153L75.8676,155.818z"/>
					<g>
						<line class="st10" x1="56.4876" y1="100.4806" x2="57.7383" y2="155.8163"/>
						<path class="st11" d="M40.6233,103.3206c0,0,6.927-4.3627,16.194-4.2327c0,0.0373,0.2013,11.3153,0.2013,11.3153
							C49.5017,105.9828,40.6233,103.3206,40.6233,103.3206z"/>
						<path class="st12" d="M57.0187,110.4033l0.2936,12.9914c0,0-8.149-13.5051-13.0589-16.5483l-1.4978,1.049l-2.1323-4.5747
							C50.2722,104.8448,57.0187,110.4033,57.0187,110.4033z"/>
						<circle class="st11" cx="54.9246" cy="115.1764" r="1.0344"/>
						<path class="st13" d="M54.9382,115.5442c0,0-0.6515,17.3126-0.7622,19.0282"/>
					</g>
					<g>
						<line class="st10" x1="77.5053" y1="100.5163" x2="76.2547" y2="155.852"/>
						<path class="st11" d="M93.3696,103.3564c0,0-6.927-4.3627-16.194-4.2327c0,0.0373-0.2014,11.3153-0.2014,11.3153
							C84.4912,106.0185,93.3696,103.3564,93.3696,103.3564z"/>
						<path class="st12" d="M76.9742,110.439l-0.2936,12.9914c0,0,8.149-13.5051,13.0589-16.5483l1.4978,1.049l2.1323-4.5747
							C83.7208,104.8805,76.9742,110.439,76.9742,110.439z"/>
						<circle class="st11" cx="79.0683" cy="115.2121" r="1.0344"/>
						<path class="st13" d="M79.0548,115.5799c0,0,0.6515,17.3126,0.7622,19.0282"/>
					</g>
					<circle class="st8" cx="62.6286" cy="18.117" r="8.575"/>
					<circle class="st9" cx="47.0633" cy="22.5216" r="8.575"/>
					<circle class="st9" cx="40.2851" cy="26.874" r="5.9535"/>
					<circle class="st9" cx="39.6018" cy="33.7347" r="5.9535"/>
					<circle class="st9" cx="50.2605" cy="32.856" r="5.9535"/>
					<circle class="st9" cx="44.9754" cy="37.6512" r="8.5205"/>
					<circle class="st9" cx="41.1329" cy="46.3796" r="4.3712"/>

						<ellipse transform="matrix(0.7753 -0.6316 0.6316 0.7753 -23.4238 37.4536)" class="st9" cx="40.9254" cy="51.6466" rx="2.9773" ry="2.9773"/>

						<ellipse transform="matrix(0.7753 -0.6316 0.6316 0.7753 -26.1244 38.3419)" class="st9" cx="40.8235" cy="55.8861" rx="2.3882" ry="2.3882"/>
					<circle class="st8" cx="73.7908" cy="19.9277" r="6.0695"/>
					<circle class="st8" cx="82.8504" cy="19.5484" r="7.5118"/>
					<circle class="st8" cx="91.3278" cy="25.2058" r="7.5118"/>
					<circle class="st8" cx="90.6278" cy="35.0398" r="10.2047"/>
					<circle class="st8" cx="99.1797" cy="43.2717" r="6.1888"/>
					<circle class="st8" cx="75.407" cy="28.8517" r="10.211"/>
					<circle class="st8" cx="95.8375" cy="48.9918" r="8.4681"/>
					<circle class="st8" cx="94.7891" cy="57.4599" r="3.8902"/>
					<line class="st14" x1="39.9092" y1="66.0792" x2="39.9124" y2="68.7079"/>
				</g>
				<path class="st15" d="M60.7569,65.9191H48.4064c-1.65,0-3-1.35-3-3V54.831c0-1.65,1.35-3,3-3h12.3506c1.65,0,3,1.35,3,3v8.0881
					C63.7569,64.5691,62.4069,65.9191,60.7569,65.9191z"/>
				<path class="st15" d="M84.2489,66.3869H71.8984c-1.65,0-3-1.35-3-3v-8.0881c0-1.65,1.35-3,3-3h12.3505c1.65,0,3,1.35,3,3v8.0881
					C87.2489,65.0369,85.8989,66.3869,84.2489,66.3869z"/>
				<line class="st16" x1="63.7569" y1="54.8499" x2="68.8984" y2="54.8499"/>
				<line class="st16" x1="40.8696" y1="54.8499" x2="46.0111" y2="54.8499"/>
				<line class="st16" x1="87.2221" y1="54.8499" x2="92.3636" y2="54.8499"/>
			</g>
			<path class="st17" d="M40.8049,74.8978c-4.8171,0-8.7222-5.6929-8.7222-12.7155s3.9051-12.7155,8.7222-12.7155V74.8978z"/>
			<path class="st17" d="M93.2521,49.2516c4.8172,0,8.7222,5.6929,8.7222,12.7155s-3.9051,12.7155-8.7222,12.7155V49.2516z"/>
			<path class="st17" d="M40.3112,57.8881c-0.2726,0-0.4937-0.2211-0.4937-0.4937V37.6513c0-0.2726,0.2211-0.4937,0.4937-0.4937
				c0.2727,0,0.4937,0.2211,0.4937,0.4937v19.7431C40.8049,57.6671,40.5838,57.8881,40.3112,57.8881z"/>
			<line class="st18" x1="93.8333" y1="45.9678" x2="93.8333" y2="61.7614"/>
			<path class="st18" d="M78.9889,18.634c-8.1371-5.5112-18.317-5.6903-26.4092-1.332"/>
		</g>
	</g>
</g>
</svg>
