<?xml version="1.0" encoding="UTF-8"?>
<!-- Generator: Adobe Illustrator 21.0.2, SVG Export Plug-In . SVG Version: 6.00 Build 0)  -->
<svg enable-background="new 0 0 360 380" version="1.1" viewBox="0 0 360 380" xml:space="preserve" xmlns="http://www.w3.org/2000/svg" xmlns:cc="http://creativecommons.org/ns#" xmlns:dc="http://purl.org/dc/elements/1.1/" xmlns:rdf="http://www.w3.org/1999/02/22-rdf-syntax-ns#" xmlns:xlink="http://www.w3.org/1999/xlink"><metadata><rdf:RDF><cc:Work rdf:about=""><dc:format>image/svg+xml</dc:format><dc:type rdf:resource="http://purl.org/dc/dcmitype/StillImage"/><dc:title>img_onboarding</dc:title></cc:Work></rdf:RDF></metadata>
<style type="text/css">
	.st0{fill:none;stroke:#EFEFEF;stroke-width:3;stroke-linecap:round;stroke-linejoin:round;}
	.st1{fill:none;stroke:#EFEFEF;stroke-width:3;stroke-linecap:round;stroke-linejoin:round;stroke-dasharray:0,4.769,0,4.769;}
		.st2{fill:none;stroke:#EFEFEF;stroke-width:3;stroke-linecap:round;stroke-linejoin:round;stroke-dasharray:0,4.769,0,4.769,0,4.769;}
		.st3{fill:none;stroke:#EFEFEF;stroke-width:3;stroke-linecap:round;stroke-linejoin:round;stroke-miterlimit:10;stroke-dasharray:0,5,0,5,0,5;}
	.st4{fill:#F0F0F0;}
	.st5{fill:#D2D2D2;}
	.st6{clip-path:url(#SVGID_2_);fill:#9BA0AA;}
	.st7{fill:#953052;}
	.st8{fill:#E9ECF2;}
</style>
<title>img_onboarding</title>
<g transform="matrix(.99026 0 0 .99026 2.0004 4.5515)">
	<g fill="none" stroke="#efefef" stroke-linecap="round" stroke-linejoin="round" stroke-width="3">
		<line class="st0" x1="180" x2="180" y1="211.1" y2="211.1"/>
		<line class="st1" x1="175.9" x2="169.8" y1="208.7" y2="205" stroke-dasharray="0, 4.769, 0, 4.769"/>
		<line class="st2" x1="167.7" x2="71.6" y1="203.7" y2="146.1" stroke-dasharray="0, 4.769, 0, 4.769, 0, 4.769"/>
		<line class="st0" x1="69.6" x2="69.6" y1="144.8" y2="144.8"/>
	</g>
</g><g fill="none" stroke="#efefef" stroke-linecap="round" stroke-linejoin="round" stroke-miterlimit="10">
<polyline class="st3" transform="matrix(.99026 0 0 .99026 2.0004 4.5515)" points="269.5 127.1 311 235.6 272 321.6 183 214.6 306 235.1" stroke-dasharray="0, 5, 0, 5, 0, 5" stroke-width="3"/>
<polyline class="st3" transform="matrix(.99026 0 0 .99026 2.0004 4.5515)" points="181.2 212.2 38 247.6 63 343.6 273 326.6" stroke-dasharray="0, 5, 0, 5, 0, 5" stroke-width="3"/>
<line class="st3" x1="66.862" x2="178.27" y1="339.85" y2="218.05" stroke-dasharray="0, 4.95129693, 0, 4.95129693, 0, 4.95129693" stroke-width="2.9708"/>
<polyline class="st3" transform="matrix(.99026 0 0 .99026 2.0004 4.5515)" points="38 247.6 65.5 142.6 116 73.6 188.5 48.6 269.5 127.1 119 77.1 181.2 212.2 269.5 127.1 307.4 35.1 188.5 48.6" stroke-dasharray="0, 5, 0, 5, 0, 5" stroke-width="3"/>
</g><g transform="matrix(.99026 0 0 .99026 2.0004 4.5515)">
	<circle class="st4" cx="181.2" cy="212.2" r="69.8" fill="#f0f0f0"/>
	<path class="st5" d="m246.1 212.2c0 7.7-1.7 14.9-3.8 21.9 0 0.1-61.1-21.9-61.1-21.9v-64.9c35.9 0 64.9 29.1 64.9 64.9z" fill="#d2d2d2"/>
		<defs>
			<circle id="SVGID_1_" cx="181.2" cy="212.2" r="52"/>
		</defs>
		<use width="100%" height="100%" fill="#ffffff" xlink:href="#SVGID_1_"/>
		<clipPath id="SVGID_2_">
			<use width="100%" height="100%" xlink:href="#SVGID_1_"/>
		</clipPath>
		<path class="st6" d="m207.2 229.9v3c0 3.3-2.7 5.9-5.9 5.9h-41.6c-3.3 0-5.9-2.7-5.9-5.9v-41.6c0-3.3 2.6-5.9 5.9-5.9h41.6c3.3 0 5.9 2.7 5.9 5.9v3h-26.7c-3.3 0-5.9 2.7-5.9 5.9v23.8c0 3.3 2.6 5.9 5.9 5.9zm-26.8-5.9h29.7v-23.8h-29.7zm11.9-7.5c-2.5 0-4.5-2-4.5-4.5s2-4.5 4.5-4.5 4.5 2 4.5 4.5-2 4.5-4.5 4.5z" clip-path="url(#SVGID_2_)" fill="#9ba0aa"/>
</g>
<path class="st7" d="m154.2 249.24h-4.6542v-9.3084c0-12.774-10.398-23.172-23.172-23.172-12.774 0-23.172 10.398-23.172 23.172v9.3084h-4.6542c-5.0503 0-9.3084 4.1591-9.3084 9.3084v46.344c0 5.0503 4.1591 9.3084 9.3084 9.3084h55.653c5.0503 0 9.3084-4.1591 9.3084-9.3084v-46.344c0-5.1493-4.1591-9.3084-9.3084-9.3084zm-27.826 41.69c-5.0503 0-9.3084-4.1591-9.3084-9.3084 0-5.0503 4.1591-9.3084 9.3084-9.3084 5.0503 0 9.3084 4.1591 9.3084 9.3084 0 5.1493-4.1591 9.3084-9.3084 9.3084zm14.458-41.69h-28.718v-9.3084c0-7.9221 6.4367-14.359 14.359-14.359 7.9221 0 14.359 6.4367 14.359 14.359z" fill="#953052" stroke-width=".99026"/><g fill="none" stroke="#efefef" stroke-linecap="round" stroke-linejoin="round" stroke-miterlimit="10"><g stroke-dasharray="0, 4.95129693, 0, 4.95129693, 0, 4.95129693" stroke-width="2.9708">
<line class="st3" x1="67.357" x2="2.9906" y1="144.77" y2="148.63"/>
<line class="st3" x1="39.63" x2="2.0004" y1="249.74" y2="231.82"/>
<line class="st3" x1="64.387" x2="1.5052" y1="344.8" y2="368.08"/>
<line class="st3" x1="36.164" x2="2.0004" y1="254.69" y2="312.52"/>
</g><polyline class="st3" transform="matrix(.99026 0 0 .99026 2.0004 4.5515)" points="359 298 272 322 359 374.5" stroke-dasharray="0, 5, 0, 5, 0, 5" stroke-width="3"/>
<line class="st3" x1="314.43" x2="358" y1="239.84" y2="231.92" stroke-dasharray="0, 4.95129693, 0, 4.95129693, 0, 4.95129693" stroke-width="2.9708"/>
<line class="st3" x1="278.28" x2="358.49" y1="124.47" y2="110.61" stroke-dasharray="0, 4.95129693, 0, 4.95129693, 0, 4.95129693" stroke-width="2.9708"/>
<polyline class="st3" transform="matrix(.99026 0 0 .99026 2.0004 4.5515)" points="359 37.5 312 36.6 295 0.5" stroke-dasharray="0, 5, 0, 5, 0, 5" stroke-width="3"/><g stroke-dasharray="0, 4.95129693, 0, 4.95129693, 0, 4.95129693" stroke-width="2.9708">
<line class="st3" x1="182.23" x2="166.38" y1="47.727" y2="4.5515"/>
<line class="st3" x1="115.88" x2="2.4955" y1="77.435" y2="4.5515"/>
<line class="st3" x1="62.406" x2="1.5052" y1="142.79" y2="64.462"/></g></g><g fill="#e9ecf2" stroke-width=".99026">
<circle class="st8" cx="268.38" cy="126.95" r="23.964"/>
<circle class="st8" cx="186.19" cy="51.688" r="14.953"/>
<circle class="st8" cx="306.41" cy="39.31" r="8.5162"/>
<circle class="st8" cx="39.63" cy="249.74" r="8.5162"/>
<circle class="st8" cx="309.97" cy="237.86" r="8.5162"/>
<circle class="st8" cx="115.88" cy="77.435" r="8.5162"/>
<circle class="st8" cx="64.387" cy="344.8" r="13.17"/>
<circle class="st8" cx="67.357" cy="144.77" r="23.964"/>
<circle class="st8" cx="271.35" cy="323.02" r="14.953"/>
</g></svg>
