<svg id="Ebene_1" xmlns="http://www.w3.org/2000/svg" xmlns:xlink="http://www.w3.org/1999/xlink" viewBox="0 0 138 138"><style>.st0{clip-path:url(#SVGID_2_)}.st1{fill:#f0f0f0}.st2{fill:#f8dbb1}.st3{fill:#f4d3ab}.st4{fill:#fafafa}.st5{fill:#b7c1d3}.st6{fill:#5a4a42}.st7{fill:#ee8672}.st8{fill:#6d4426}.st9{fill:#7c5235}.st10{fill:#b7c1d3;stroke:#a2b6d2;stroke-miterlimit:10}.st11{fill:#9eabc0}.st12{fill:#a2b6d2}.st13{fill:#9eabc0;stroke:#9eaabf;stroke-width:2;stroke-linecap:round;stroke-miterlimit:10}.st14,.st15,.st16{fill:none;stroke:#7d828c;stroke-miterlimit:10}.st15,.st16{stroke:#1a1a18}.st16{stroke:#020203}.st17{fill:#575756}.st18{fill:none;stroke:#575756;stroke-linecap:round;stroke-miterlimit:10}</style><defs><circle id="SVGID_1_" cx="69" cy="69" r="69"/></defs><use xlink:href="#SVGID_1_" overflow="visible" fill="#f0f0f0"/><clipPath id="SVGID_2_"><use xlink:href="#SVGID_1_" overflow="visible"/></clipPath><g class="st0"><path class="st1" d="M100.903 155.818H32.985v-20.417c0-17.061 13.832-30.892 30.893-30.892h6.133c17.062 0 30.892 13.83 30.892 30.892v20.417z"/><path class="st2" d="M68.746 114.993h-3.603a8.364 8.364 0 0 1-8.364-8.363V83.186h20.33v23.444a8.364 8.364 0 0 1-8.363 8.364z"/><path class="st3" d="M56.78 89.72v13.03a30.108 30.108 0 0 0 10.164 1.759c3.565 0 6.987-.622 10.166-1.76V89.72H56.78z"/><path class="st4" d="M78.128 103.939h-.987v.952a9.163 9.163 0 0 1-9.163 9.163h-1.904a9.163 9.163 0 0 1-9.163-9.163v-.952h-2.14v1.153c0 6.132 4.97 11.103 11.102 11.103h2.307c6.131 0 11.102-4.971 11.102-11.103v-1.153h-1.154z"/><path class="st5" d="M58.03 155.818H29.399v-19.183c0-17.212 11.583-31.72 27.38-36.153l1.25 55.336z"/><path class="st2" d="M40.178 57.121a5.369 5.369 0 1 0 0 10.738h5.228V57.123h-5.228zM93.452 67.86a5.369 5.369 0 1 0 0-10.738h-5.228V67.86h5.228z"/><path class="st2" d="M66.944 100.574c-14.197 0-26.313-18.139-26.313-26.313V46.97c0-14.533 11.781-26.314 26.313-26.314 14.533 0 26.314 11.781 26.314 26.313v27.292c0 8.095-12.116 26.313-26.314 26.313z"/><ellipse class="st6" cx="55.263" cy="59.301" rx="3.197" ry="2.213"/><ellipse class="st6" cx="78.626" cy="59.301" rx="3.197" ry="2.213"/><path class="st7" d="M71.918 80.538s-3.31.654-5.037.654-4.91-.654-4.91-.654c-.996 0-1.803.808-1.803 1.804s.88 1.54 1.803 1.803c.923.264 2.95.654 4.801.654s4.316-.374 5.146-.654c.83-.28 1.803-.807 1.803-1.803 0-.996-.807-1.804-1.803-1.804z"/><path class="st8" d="M66.944 15.4h-8.4a6.48 6.48 0 0 0-6.478 6.478v1.13c0 12.942 19.17 8.835 27.01 10.795 12.74 1.96 14.182 12.638 14.182 12.638v24.702a14.585 14.585 0 0 0 4.271-10.312V30.903c0-8.563-6.941-15.504-15.504-15.504h-15.08z"/><path class="st9" d="M58.53 50.325l-10.014.741a1.148 1.148 0 0 1-.17-2.289l10.016-.74a1.148 1.148 0 0 1 .169 2.288zM75.361 50.345l10.018.702a1.148 1.148 0 0 0 .16-2.29l-10.018-.702a1.148 1.148 0 0 0-.16 2.29z"/><path class="st5" d="M75.868 155.818h28.63v-19.183c0-17.212-11.583-31.72-27.38-36.153l-1.25 55.336z"/><path class="st10" d="M56.488 100.481l1.25 55.335"/><path class="st11" d="M40.623 103.32s6.927-4.362 16.194-4.232l.202 11.315c-7.517-4.42-16.396-7.082-16.396-7.082z"/><path class="st12" d="M57.019 110.403l.293 12.992s-8.149-13.505-13.059-16.549l-1.497 1.05-2.133-4.575c9.65 1.524 16.396 7.082 16.396 7.082z"/><circle class="st11" cx="54.925" cy="115.176" r="1.034"/><path class="st13" d="M54.938 115.544s-.651 17.313-.762 19.028"/><path class="st10" d="M77.505 100.516l-1.25 55.336"/><path class="st11" d="M93.37 103.356s-6.927-4.362-16.194-4.232l-.202 11.315c7.517-4.42 16.396-7.083 16.396-7.083z"/><path class="st12" d="M76.974 110.439l-.293 12.991s8.149-13.505 13.059-16.548l1.497 1.05 2.133-4.576c-9.65 1.525-16.396 7.083-16.396 7.083z"/><circle class="st11" cx="79.068" cy="115.212" r="1.034"/><path class="st13" d="M79.055 115.58s.651 17.312.762 19.028"/><circle class="st8" cx="62.629" cy="18.117" r="8.575"/><circle class="st9" cx="47.063" cy="22.522" r="8.575"/><circle class="st9" cx="40.285" cy="26.874" r="5.954"/><circle class="st9" cx="39.602" cy="33.735" r="5.954"/><circle class="st9" cx="50.261" cy="32.856" r="5.954"/><circle class="st9" cx="44.975" cy="37.651" r="8.521"/><circle class="st9" cx="41.133" cy="46.38" r="4.371"/><ellipse transform="rotate(-39.168 40.926 51.646)" class="st9" cx="40.925" cy="51.647" rx="2.977" ry="2.977"/><ellipse transform="rotate(-39.168 40.824 55.886)" class="st9" cx="40.824" cy="55.886" rx="2.388" ry="2.388"/><circle class="st8" cx="73.791" cy="19.928" r="6.069"/><circle class="st8" cx="82.85" cy="19.548" r="7.512"/><circle class="st8" cx="91.328" cy="25.206" r="7.512"/><circle class="st8" cx="90.628" cy="35.04" r="10.205"/><circle class="st8" cx="99.18" cy="43.272" r="6.189"/><circle class="st8" cx="75.407" cy="28.852" r="10.211"/><circle class="st8" cx="95.838" cy="48.992" r="8.468"/><circle class="st8" cx="94.789" cy="57.46" r="3.89"/><path class="st14" d="M39.909 66.079l.003 2.629"/><path class="st15" d="M60.757 65.92h-12.35c-1.65 0-3-1.35-3-3V54.83c0-1.65 1.35-3 3-3h12.35c1.65 0 3 1.35 3 3v8.088c0 1.65-1.35 3-3 3zM84.249 66.387h-12.35c-1.65 0-3-1.35-3-3v-8.088c0-1.65 1.35-3 3-3h12.35c1.65 0 3 1.35 3 3v8.088c0 1.65-1.35 3-3 3z"/><path class="st16" d="M63.757 54.85h5.141M40.87 54.85h5.141M87.222 54.85h5.142"/><path class="st17" d="M40.805 74.898c-4.817 0-8.722-5.693-8.722-12.716s3.905-12.715 8.722-12.715v25.43zM93.252 49.252c4.817 0 8.722 5.693 8.722 12.715s-3.905 12.716-8.722 12.716V49.252z"/><path class="st17" d="M40.311 57.888a.494.494 0 0 1-.494-.494V37.651a.494.494 0 0 1 .988 0v19.743a.494.494 0 0 1-.494.494z"/><path class="st18" d="M93.833 45.968v15.793M78.989 18.634c-8.137-5.511-18.317-5.69-26.41-1.332"/></g></svg>