<?xml version="1.0" encoding="UTF-8"?>
<svg data-name="Ebene 1" version="1.1" viewBox="0 0 360 380" xmlns="http://www.w3.org/2000/svg" xmlns:cc="http://creativecommons.org/ns#" xmlns:dc="http://purl.org/dc/elements/1.1/" xmlns:rdf="http://www.w3.org/1999/02/22-rdf-syntax-ns#">
 <metadata>
  <rdf:RDF>
   <cc:Work rdf:about="">
    <dc:format>image/svg+xml</dc:format>
    <dc:type rdf:resource="http://purl.org/dc/dcmitype/StillImage"/>
    <dc:title>img_onboarding</dc:title>
   </cc:Work>
  </rdf:RDF>
 </metadata>
 <defs>
  <style>.cls-1{fill:#f0f0f0}.cls-2{fill:#7d828c}.cls-3{clip-path:url(#clip-path)}.cls-4{fill:#1a1a1a}.cls-5{fill:#fccc80}.cls-6{fill:#633c38}.cls-7{fill:#f9dcb2}.cls-8{fill:#f4d3ab}.cls-9{fill:#0e2c59}.cls-10{fill:#ef8671}.cls-11{fill:#333}.cls-12{fill:#4c142c}.cls-13{clip-path:url(#clip-path-2)}.cls-14{clip-path:url(#clip-path-3)}.cls-15{fill:#c3c6cc}.cls-16{fill:#575756}.cls-17{fill:#fff}.cls-18,.cls-19,.cls-29,.cls-39{fill:none}.cls-18,.cls-19{stroke:#fff}.cls-18,.cls-19,.cls-25,.cls-28,.cls-29,.cls-39{stroke-miterlimit:10}.cls-19{stroke-width:.5px}.cls-20{fill:#fafafa}.cls-21,.cls-25{fill:#b7c1d3}.cls-22{fill:#5a4a42}.cls-23{fill:#6d4326}.cls-24{fill:#7c5235}.cls-25{stroke:#a2b6d2}.cls-26,.cls-28{fill:#9eabc0}.cls-27{fill:#a2b6d2}.cls-28{stroke:#9eabc0;stroke-width:2px}.cls-28,.cls-39{stroke-linecap:round}.cls-29,.cls-39{stroke:#7d828c}.cls-30{fill:#e3e9f1}.cls-31,.cls-32,.cls-33,.cls-34{fill:#fce277}.cls-31{opacity:.66}.cls-32{opacity:.3}.cls-33{opacity:.15}.cls-35{fill:#ffea85}.cls-36{fill:#fff0b3}.cls-37{fill:#839bbf}.cls-38{fill:#ffe0b6}.cls-39{stroke-width:.2px}.cls-40{fill:#90a41a}.cls-41{fill:#aeba0f}.cls-42{fill:#b5ca11}</style>
  <clipPath id="clip-path">
   <circle class="cls-1" cx="60.827" cy="179.89" r="30.25"/>
  </clipPath>
  <clipPath id="clip-path-2">
   <circle class="cls-1" cx="94.172" cy="248.48" r="20.546"/>
  </clipPath>
  <clipPath id="clip-path-3">
   <path class="cls-2" d="M94.41 261.95a11.735 11.735 0 0 1 11.734 11.735v5.995h-23.47v-5.995A11.735 11.735 0 0 1 94.41 261.95z"/>
  </clipPath>
 </defs>
 <title>img_onboarding</title>
 <circle class="cls-1" cx="38.989" cy="159.36" r="35.719" fill="#f0f0f0" stroke-width="1.1808"/>
 <g class="cls-3" transform="matrix(1.1808 0 0 1.1808 -32.836 -53.061)" clip-path="url(#clip-path)">
  <path class="cls-4" d="m48.215 178.52-1.583 12 0.146 3.207s0.354-2.541 4.145-3.833 20.75-0.5 20.75-0.5a5.842 5.842 0 0 1 1.292 4.458l4.458-7.208-6.916-9.333z" fill="#1a1a1a"/>
  <path class="cls-5" d="m48.86 177.41a2.47 2.47 0 0 0-2.471 2.47 2.47 2.47 0 0 0 2.47 2.471h2.406v-4.941zm24.514 4.941a2.47 2.47 0 0 0 2.47-2.47 2.47 2.47 0 0 0-2.47-2.47h-2.406v4.94z" fill="#fccc80"/>
  <path class="cls-6" d="m61.176 199.73a17.277 17.277 0 0 1 17.278 17.277v8.827h-34.555v-8.827a17.277 17.277 0 0 1 17.277-17.277z" fill="#633c38"/>
  <path class="cls-7" d="m56.499 192.41h9.355v9.96a4.678 4.678 0 0 1-4.678 4.678 4.678 4.678 0 0 1-4.677-4.678v-9.959z" fill="#f9dcb2"/>
  <path class="cls-8" d="m56.499 192.41v5.996a13.92 13.92 0 0 0 9.355 0v-5.995h-9.355z" fill="#f4d3ab"/>
  <rect class="cls-7" x="49.068" y="160.63" width="24.217" height="36.775" rx="12.108" ry="12.108" fill="#f9dcb2"/>
  <circle class="cls-9" cx="55.801" cy="178.26" r="1.471" fill="#0e2c59"/>
  <circle class="cls-9" cx="66.552" cy="178.26" r="1.471" fill="#0e2c59"/>
  <path class="cls-10" d="m63.465 188.19a16.684 16.684 0 0 1-2.318 0.3 15.417 15.417 0 0 1-2.26-0.3 0.83 0.83 0 0 0-0.83 0.83 0.952 0.952 0 0 0 0.83 0.83 9.186 9.186 0 0 0 2.21 0.3 9.99 9.99 0 0 0 2.368-0.3 1.007 1.007 0 0 0 0.83-0.83 0.83 0.83 0 0 0-0.83-0.83z" fill="#ef8671"/>
  <path d="m66.923 158.21h-3.25c-1.647 0-1.042 1.476-1.042 3.122v0.52c0 5.956 0.52 3.926 4.128 4.828 5.863 0.902 6.526 5.815 6.526 5.815v11.368l-0.32 9.99c1.258-1.26 5.5-4.054 5.5-5.834l-3.215-22.674a7.134 7.134 0 0 0-7.134-7.134h-1.193z"/>
  <path class="cls-11" d="m66.923 157.84h-3.25c-1.647 0-1.042 1.475-1.042 3.121v0.52c0 5.956 0.52 3.926 4.128 4.828 5.863 0.902 6.526 5.815 6.526 5.815v11.368l-0.32 9.99c1.258-1.26 5.5-4.054 5.5-5.834l-3.215-22.674a7.134 7.134 0 0 0-7.134-7.134zm-9.618 16.447-4.609 0.34a0.528 0.528 0 1 1-0.078-1.053l4.609-0.34a0.528 0.528 0 0 1 0.078 1.053z" fill="#333"/>
  <path class="cls-11" d="m65.05 174.29 4.61 0.323a0.52826 0.52826 0 1 0 0.073-1.054l-4.61-0.323a0.5283 0.5283 0 0 0-0.074 1.054z" fill="#333"/>
  <path d="m62.73 165.69a1.353 1.353 0 0 1-0.431 0.995c-6.664 6.276-7.267 5.8-11.375 6.417l-3.93 19.058-0.216 1.567c-1.258-1.259-3.5-4.408-3.5-6.188l3.25-20.875c0.863-4.314 3.497-7.032 6.956-7.96a14.867 14.867 0 0 1 8.37-0.741 0.887 0.887 0 0 1 0.776 0.77z"/>
  <path class="cls-11" d="m62.73 165.4a1.353 1.353 0 0 1-0.431 0.995c-6.664 6.275-7.267 5.799-11.375 6.417l-3.93 19.058-0.216 1.567c-1.258-1.259-3.5-4.408-3.5-6.188l3.25-20.875c0.863-4.314 3.497-7.032 6.956-7.96a14.867 14.867 0 0 1 8.37-0.741 0.887 0.887 0 0 1 0.776 0.77z" fill="#333"/>
  <path class="cls-7" d="m50.715 225.83h-6.816v-8.827a17.26 17.26 0 0 1 7.618-14.326zm20.986 0h6.816v-8.827a17.26 17.26 0 0 0-7.618-14.326z" fill="#f9dcb2"/>
  <path class="cls-12" d="m68.486 211.33-3.305 1.565 0.442-3.339z" fill="#4c142c"/>
 </g>
 <circle class="cls-1" cx="78.364" cy="240.34" r="24.261" fill="#f0f0f0" stroke-width="1.1808"/>
 <g class="cls-13" transform="matrix(1.1808 0 0 1.1808 -32.836 -53.061)" clip-path="url(#clip-path-2)">
  <path class="cls-2" d="m94.41 261.95a11.735 11.735 0 0 1 11.734 11.735v5.995h-23.47v-5.995a11.735 11.735 0 0 1 11.736-11.735z" fill="#7d828c"/>
  <g class="cls-14" clip-path="url(#clip-path-3)">
   <path class="cls-15" d="m82.134 264.44h25.438v1h-25.438zm0 2.781h25.438v1h-25.438zm0 2.781h25.438v1h-25.438z" fill="#c3c6cc"/>
  </g>
  <path class="cls-7" d="m86.043 246.79a1.678 1.678 0 0 0-1.678 1.679 1.678 1.678 0 0 0 1.678 1.678h1.635v-3.356h-1.635zm16.651 3.357a1.678 1.678 0 0 0 1.678-1.678 1.678 1.678 0 0 0-1.678-1.678h-1.634v3.356zm-11.462 6.833h6.354v6.763a3.177 3.177 0 0 1-3.177 3.177 3.177 3.177 0 0 1-3.177-3.177v-6.764z" fill="#f9dcb2"/>
  <path class="cls-8" d="m91.232 256.98v4.071a9.454 9.454 0 0 0 6.354 0v-4.072h-6.354z" fill="#f4d3ab"/>
  <rect class="cls-7" x="86.185" y="235.39" width="16.448" height="24.978" rx="8.224" ry="8.224" fill="#f9dcb2"/>
  <circle class="cls-9" cx="90.758" cy="247.37" r=".999" fill="#0e2c59"/>
  <circle class="cls-9" cx="98.06" cy="247.37" r=".999" fill="#0e2c59"/>
  <path class="cls-10" d="m95.963 254.11a11.331 11.331 0 0 1-1.574 0.204 10.471 10.471 0 0 1-1.534-0.204 0.564 0.564 0 0 0-0.564 0.564 0.647 0.647 0 0 0 0.564 0.563 6.239 6.239 0 0 0 1.5 0.205 6.785 6.785 0 0 0 1.608-0.205 0.684 0.684 0 0 0 0.564-0.563 0.564 0.564 0 0 0-0.564-0.564z" fill="#ef8671"/>
  <path class="cls-16" d="m91.78 244.67-3.13 0.231a0.359 0.359 0 1 1-0.053-0.715l3.13-0.232a0.359 0.359 0 0 1 0.053 0.716zm5.26 6e-3 3.13 0.22a0.359 0.359 0 1 0 0.05-0.716l-3.13-0.22a0.359 0.359 0 0 0-0.05 0.716z" fill="#575756"/>
  <path class="cls-16" d="m87.384 238.56a14.17 14.17 0 0 0-1.406 5.5c-0.013 1.143 0.247 3.856 0.247 3.856l0.69-0.168s0.484-4.292 0.636-4.444a11.765 11.765 0 0 1 1.977-0.989l1.262-2.348zm14.375 0a14.17 14.17 0 0 1 1.406 5.5c0.013 1.143-0.247 3.856-0.247 3.856l-0.69-0.168s-0.484-4.292-0.636-4.444a11.765 11.765 0 0 0-1.976-0.989l-1.263-2.348z" fill="#575756"/>
 </g>
 <g stroke-width="1.1808">
  <rect class="cls-11" x="74.279" y="22.558" width="70.849" height="46.839" rx="4.7232" ry="4.7232" fill="#333"/>
  <rect class="cls-2" x="74.279" y="21.377" width="70.849" height="46.839" rx="4.7232" ry="4.7232" fill="#7d828c"/>
  <rect class="cls-17" x="78.19" y="25.185" width="26.716" height="26.716" rx="4.7232" ry="4.7232" fill="#fff"/>
  <circle class="cls-2" cx="91.343" cy="33.624" r="6.6161" fill="#7d828c"/>
  <circle class="cls-2" cx="91.343" cy="51.347" r="9.9282" fill="#7d828c"/>
  <rect class="cls-18" x="78.19" y="25.185" width="26.421" height="26.421" rx="4.7232" ry="4.7232" fill="none" stroke="#fff" stroke-miterlimit="10"/>
 </g>
 <g fill="#fff" stroke-width="1.1808">
  <rect class="cls-17" x="108.15" y="25.071" width="33.948" height="5.3136" rx="2.6568" ry="2.6568"/>
  <rect class="cls-17" x="108.15" y="35.73" width="33.948" height="5.3136" rx="2.6568" ry="2.6568"/>
  <rect class="cls-17" x="108.15" y="46.39" width="33.948" height="5.3136" rx="2.6568" ry="2.6568"/>
 </g>
 <path class="cls-19" d="m84.265 61.644a18.323 18.323 0 0 1 4.1895 0.21491 10.258 10.258 0 0 0 4.1718-0.16531 4.0773 4.0773 0 0 0 2.8764-2.7985 2.5895 2.5895 0 0 0-2.0192-3.1244 2.7536 2.7536 0 0 0-2.4266 1.3225 6.4944 6.4944 0 0 0-0.87616 2.7442 2.2117 2.2117 0 0 0 0.098 1.3036 2.1774 2.1774 0 0 0 1.2021 0.89741 15.802 15.802 0 0 0 11.781 0.01063 4.0608 4.0608 0 0 0 2.5706-2.2388 5.0669 5.0669 0 0 0-3.8931-0.4369c-1.3827 0.3141-2.9591 1.4701-2.4915 2.8103 0.37314 1.0651 1.7618 1.3166 2.8871 1.2339a12.466 12.466 0 0 0 10.462-7.713 4.1942 4.1942 0 0 0-3.814 2.8091 12.299 12.299 0 0 0-0.55852 4.9866q3.3039-2.1302 6.7932-3.951l0.12752 2.2553a10.551 10.551 0 0 0 4.0974-2.2589 1.3024 1.3024 0 0 0 0.51837 1.8019 3.2142 3.2142 0 0 0 2.07 0.2279 14.191 14.191 0 0 0 5.479-1.9649 13.508 13.508 0 0 0 2.0582 3.2708 4.5591 4.5591 0 0 0 3.4102 1.5787" fill="none" stroke="#fff" stroke-miterlimit="10" stroke-width=".5904px"/>
 <g stroke-width="1.1808">
  <path class="cls-1" d="m178.23 277.4a67.858 67.858 0 0 1 67.858 67.858v34.67h-135.71v-34.669a67.858 67.858 0 0 1 67.858-67.859z" fill="#f0f0f0"/>
  <path class="cls-7" d="m159.86 248.65h36.744v39.114a18.372 18.372 0 0 1-18.372 18.372 18.372 18.372 0 0 1-18.372-18.372z" fill="#f9dcb2"/>
  <path class="cls-8" d="m159.86 260.46v23.55a54.669 54.669 0 0 0 36.744 0v-23.55z" fill="#f4d3ab"/>
  <path class="cls-20" d="m198.44 286.16h-1.7842v1.7204a16.561 16.561 0 0 1-16.561 16.561h-3.4409a16.561 16.561 0 0 1-16.561-16.561v-1.7204h-3.8683v2.0841a20.065 20.065 0 0 0 20.064 20.067h4.1694a20.065 20.065 0 0 0 20.065-20.067v-2.0841z" fill="#fafafa"/>
  <path class="cls-21" d="m162.12 379.93h-51.744v-34.669a67.887 67.887 0 0 1 49.485-65.342z" fill="#b7c1d3"/>
  <path class="cls-7" d="m129.85 201.55a9.7039 9.7039 0 0 0-9.7039 9.7039 9.7039 9.7039 0 0 0 9.7039 9.7039h9.45v-19.409h-9.45zm96.286 19.408a9.7039 9.7039 0 0 0 9.7039-9.7039 9.7039 9.7039 0 0 0-9.7039-9.7039h-9.45v19.408z" fill="#f9dcb2"/>
  <path class="cls-7" d="m178.23 280.08c-25.659 0-47.557-32.783-47.557-47.557v-49.326a47.557 47.557 0 0 1 47.557-47.557 47.557 47.557 0 0 1 47.557 47.557v49.325c0 14.63-21.897 47.558-47.557 47.558z" fill="#f9dcb2"/>
  <ellipse class="cls-22" cx="157.12" cy="205.49" rx="5.7789" ry="4.0006" fill="#5a4a42"/>
  <ellipse class="cls-22" cx="199.34" cy="205.49" rx="5.7789" ry="4.0006" fill="#5a4a42"/>
  <path class="cls-10" d="m187.22 243.87a65.527 65.527 0 0 1-9.104 1.1808 60.553 60.553 0 0 1-8.8726-1.1808 3.259 3.259 0 0 0-3.259 3.259c0 1.8007 1.5906 2.7832 3.259 3.259a36.078 36.078 0 0 0 8.6766 1.1808 39.234 39.234 0 0 0 9.3-1.1808c1.4996-0.50539 3.259-1.4595 3.259-3.259a3.259 3.259 0 0 0-3.259-3.259z" fill="#ef8671"/>
  <path class="cls-23" d="m178.23 126.14h-15.18a11.71 11.71 0 0 0-11.71 11.71v2.0428c0 23.389 34.648 15.968 48.818 19.51 23.026 3.5424 25.631 22.84 25.631 22.84v44.646a26.359 26.359 0 0 0 7.7201-18.638v-54.092a28.021 28.021 0 0 0-28.021-28.021z" fill="#6d4326"/>
  <path class="cls-24" d="m163.02 189.26-18.101 1.339a2.0747 2.0747 0 1 1-0.30583-4.1376l18.101-1.339a2.0747 2.0747 0 0 1 0.30701 4.1376zm30.419 0.0366 18.105 1.267a2.0747 2.0747 0 1 0 0.2893-4.1376l-18.105-1.2694a2.0747 2.0747 0 0 0-0.2893 4.1387z" fill="#7c5235"/>
  <path class="cls-21" d="m194.36 379.93h51.745v-34.669a67.887 67.887 0 0 0-49.485-65.342z" fill="#b7c1d3"/>
  <path class="cls-25" d="m159.33 279.91 2.2601 100.01" fill="#b7c1d3" stroke="#a2b6d2" stroke-miterlimit="10"/>
  <path class="cls-26" d="m130.66 285.04a58.554 58.554 0 0 1 29.268-7.6505c0 0.0673 0.36487 20.452 0.36487 20.452a155.34 155.34 0 0 0-29.632-12.801z" fill="#9eabc0"/>
  <path class="cls-27" d="m160.29 297.84 0.53136 23.48s-14.729-24.407-23.603-29.909l-2.7064 1.8964-3.8542-8.2692a67.797 67.797 0 0 1 29.632 12.801z" fill="#a2b6d2"/>
  <circle class="cls-26" cx="156.51" cy="306.47" r="1.8692" fill="#9eabc0"/>
 </g>
 <path class="cls-28" d="m156.53 307.14s-1.1784 31.29-1.378 34.391" fill="#9eabc0" stroke="#9eabc0" stroke-linecap="round" stroke-miterlimit="10" stroke-width="2.3616px"/>
 <g stroke-width="1.1808">
  <path class="cls-25" d="m197.32 279.98-2.2612 100.01" fill="#b7c1d3" stroke="#a2b6d2" stroke-miterlimit="10"/>
  <path class="cls-26" d="m225.99 285.11a58.554 58.554 0 0 0-29.268-7.6493c0 0.0673-0.36369 20.45-0.36369 20.45a155.34 155.34 0 0 1 29.631-12.8z" fill="#9eabc0"/>
  <path class="cls-27" d="m196.36 297.91-0.53137 23.48s14.728-24.408 23.602-29.91l2.7076 1.8964 3.853-8.268a67.797 67.797 0 0 0-29.631 12.801z" fill="#a2b6d2"/>
  <circle class="cls-26" cx="200.14" cy="306.54" r="1.8692" fill="#9eabc0"/>
 </g>
 <path class="cls-28" d="m200.12 307.2s1.1773 31.289 1.378 34.39" fill="#9eabc0" stroke="#9eabc0" stroke-linecap="round" stroke-miterlimit="10" stroke-width="2.3616px"/>
 <circle class="cls-23" cx="170.43" cy="131.05" r="15.498" fill="#6d4326" stroke-width="1.1808"/>
 <g fill="#7c5235" stroke-width="1.1808">
  <circle class="cls-24" cx="142.3" cy="139.01" r="15.498"/>
  <circle class="cls-24" cx="130.05" cy="146.88" r="10.761"/>
  <circle class="cls-24" cx="128.81" cy="159.28" r="10.761"/>
  <circle class="cls-24" cx="148.07" cy="157.69" r="10.761"/>
  <circle class="cls-24" cx="138.52" cy="166.36" r="15.399"/>
  <circle class="cls-24" cx="131.58" cy="182.13" r="7.9008"/>
  <circle class="cls-24" transform="rotate(-39.168)" cx="-19.324" cy="231.45" r="5.3809"/>
  <circle class="cls-24" transform="rotate(-39.168)" cx="-24.307" cy="237.28" r="4.3159"/>
 </g>
 <g fill="#6d4326" stroke-width="1.1808">
  <circle class="cls-23" cx="190.6" cy="134.32" r="10.97"/>
  <circle class="cls-23" cx="206.98" cy="133.64" r="13.577"/>
  <circle class="cls-23" cx="222.3" cy="143.86" r="13.577"/>
  <circle class="cls-23" cx="221.03" cy="161.64" r="18.443"/>
  <circle class="cls-23" cx="236.49" cy="176.51" r="11.186"/>
  <circle class="cls-23" cx="193.52" cy="150.45" r="18.455"/>
  <circle class="cls-23" cx="230.45" cy="186.85" r="15.304"/>
  <circle class="cls-23" cx="228.55" cy="202.16" r="7.0305"/>
 </g>
 <g stroke-width="1.1808">
  <path class="cls-29" d="m129.37 217.74 6e-3 4.7504" fill="none" stroke="#7d828c" stroke-miterlimit="10"/>
  <path class="cls-15" d="m268.85 221.47h56.355v39.275h-56.355z" fill="#c3c6cc"/>
  <path class="cls-30" d="m268.85 220.35h55.811v39.275h-55.811z" fill="#e3e9f1"/>
 </g>
 <g fill="#fce277" stroke-width="1.1808">
  <path class="cls-31" d="m268.85 244.08h55.811v3.2944h-55.811z" opacity=".66"/>
  <path class="cls-31" d="m268.85 242.27h55.811v3.2945h-55.811z" opacity=".66"/>
  <path class="cls-32" d="m268.85 240.36h55.811v4.7657h-55.811z" opacity=".3"/>
  <path class="cls-33" d="m268.85 237.58h55.811v4.7657h-55.811z" opacity=".15"/>
  <circle class="cls-34" cx="292.72" cy="242.94" r="6.2063"/>
 </g>
 <g stroke-width="1.1808">
  <circle class="cls-35" cx="292.72" cy="242.94" r="5.0857" fill="#ffea85"/>
  <circle class="cls-36" cx="292.72" cy="242.94" r="4.0053" fill="#fff0b3"/>
  <path class="cls-37" d="m268.85 245.8s7.9468-0.36841 12.468-0.17476c2.4407 0.10509 9.1501-0.29993 11.475-0.29993s9.7122 0.17122 11.004 0.17122c1.2918 0 5.5333 0.12871 8.4617 0.12871 2.9284 0 5.4258-0.23616 7.2348-0.32354 1.809-0.0874 5.1672 0.19483 5.1672 0.19483v10.078h-55.811z" fill="#839bbf"/>
  <path class="cls-27" d="m324.66 247.95s-10.508-0.20192-12.918-0.5904c-2.41-0.38849-8.353 0.52664-10.679 0.52664-2.3262 0-9.6472-0.38849-10.94-0.38849-1.293 0-5.5096 0.25978-8.4381 0.25978s-5.3408-0.23734-7.1498-0.32354a48.945 48.945 0 0 0-5.6856 0.3873v12.371h55.811z" fill="#a2b6d2"/>
  <path class="cls-26" d="m310.37 251.66s-10.332-0.78642-11.441-0.82302c-1.1702-0.039-14.637 1.3154-15.682 1.3154-1.045 0-3.9675-0.47469-4.5485-0.47469s-2.9674 0.28104-4.2852 0.28104a19.814 19.814 0 0 1-3.1799-0.62229 6.6196 6.6196 0 0 0-2.3782 0.65417v5.5911l35.83-2.1455z" fill="#9eabc0"/>
  <path class="cls-21" d="m324.66 251.7s-7.2384-0.24443-8.9659-0.28221c-1.8232-0.039-22.8 1.3154-24.43 1.3154-1.6295 0-6.1792-0.47469-7.0848-0.47469s-4.6217 0.28103-6.6739 0.28103a46.427 46.427 0 0 1-4.9523-0.6211 14.895 14.895 0 0 0-3.7042 0.65299v5.5911l55.811-2.1455v-4.3182z" fill="#b7c1d3"/>
 </g>
 <g fill="#fff" stroke-width="1.1808">
  <ellipse class="cls-17" cx="306.61" cy="225.5" rx="6.8818" ry=".35188"/>
  <ellipse class="cls-17" cx="312.94" cy="225.23" rx="5.1849" ry=".93756"/>
  <path class="cls-17" d="m319.38 225.42c0.59277 0.18893 0.36841 0.44634-0.49948 0.57505a7.1274 7.1274 0 0 1-2.645-0.10745c-0.59159-0.18893-0.36841-0.44635 0.49948-0.57624a7.1274 7.1274 0 0 1 2.645 0.10864z"/>
  <ellipse class="cls-17" cx="284.69" cy="225.69" rx="2.2931" ry=".5845"/>
  <ellipse class="cls-17" cx="288.46" cy="225.59" rx="3.3429" ry=".85254"/>
 </g>
 <path class="cls-38" d="m324.66 256.02s-31.852-0.21255-33.482-0.21255c-1.6295 0-11.466-0.31882-13.518-0.31882-2.0522 0-8.8112 0.0921-8.8112 0.0921v4.617h55.811v-4.1789z" fill="#ffe0b6" stroke-width="1.1808"/>
 <path class="cls-39" d="m277.64 228.98s0.52191-0.93638 0.99424-0.46406c0.12398-0.6211 1.1926-0.33063 1.1926-0.33063m-4.2545 2.5387s0.32708-0.58568 0.62229-0.29048c0.0779-0.38848 0.74627-0.20664 0.74627-0.20664" fill="none" stroke="#7d828c" stroke-linecap="round" stroke-miterlimit="10" stroke-width=".23616px"/>
 <g stroke-width="1.1808">
  <path class="cls-15" d="m300.58 199.67h56.156v39.275h-56.156z" fill="#c3c6cc"/>
  <path class="cls-27" d="m300.58 198.98h55.811v39.275h-55.811z" fill="#a2b6d2"/>
  <path class="cls-40" d="m300.58 219.82 16.536-12.402 11.712 15.846 7.2348-8.9564 8.6128 9.3012 5.512-7.9232 6.2028 5.512v17.054h-55.811z" fill="#90a41a"/>
  <path class="cls-15" d="m300.58 219.25 16.536-12.402 11.712 15.846 7.2348-8.9564 8.6128 9.3012 5.512-7.9232 6.2028 5.512v6.1249h-55.811z" fill="#c3c6cc"/>
  <path class="cls-17" d="m333.34 217.1 2.7182-3.3653 3.8636 4.173-1.881-1.1052-1.7452 0.66007-1.2906-0.98362zm-11.172-3.4125-5.0574-6.8428-7.301 5.4754 3.4905-0.62111 1.809 1.3568 2.1963-1.0332 2.325 1.6791 0.45225-1.0332zm25.308 5.3148 2.7064-3.8896 3.422 3.0406-1.5468-0.38258-1.3001 0.77697-1.0261-1.0993z" fill="#fff"/>
  <path class="cls-41" d="m300.58 228.56s10.508-2.6698 12.918-3.0583c2.41-0.38848 8.7002 2.5836 11.025 2.5836s9.3024-3.0146 10.594-3.0146c1.2918 0 5.7706 2.6698 8.699 2.6698 2.9284 0 4.7362-2.8422 6.5452-2.9284s6.0292 1.9389 6.0292 1.9389v11.584h-55.811v-9.7759z" fill="#aeba0f"/>
  <path class="cls-42" d="m356.39 234.42s-7.3623-2.4667-9.0521-2.8257c-1.6897-0.35897-22.886 2.3876-24.516 2.3876-1.6295 0-6.093-1.5469-6.9975-1.5469s-4.4682 1.228-6.5204 1.228c-2.0522 0-3.84-1.4878-5.107-1.5681a14.895 14.895 0 0 0-3.7042 0.65299v5.5923h55.897z" fill="#b5ca11"/>
 </g>
 <g fill="#fff" stroke-width="1.1808">
  <circle class="cls-17" cx="304.37" cy="204.83" r="2.0676"/>
  <circle class="cls-17" cx="306.47" cy="205.8" r="1.7193"/>
  <circle class="cls-17" cx="307.77" cy="204.68" r="1.7452"/>
  <circle class="cls-17" cx="308.86" cy="205.75" r="1.7452"/>
  <circle class="cls-17" cx="342.88" cy="206.84" r="2.2542"/>
  <circle class="cls-17" cx="346.58" cy="206.48" r="3.2874"/>
  <circle class="cls-17" transform="rotate(-34.313)" cx="171.28" cy="368.94" r="1.9035"/>
  <circle class="cls-17" cx="333.73" cy="206.54" r="1.4925"/>
  <circle class="cls-17" cx="336.18" cy="206.3" r="2.1762"/>
  <circle class="cls-17" transform="rotate(-34.313)" cx="162.32" cy="361.91" r="1.2599"/>
 </g>
 <g stroke-width="1.1808">
  <path class="cls-40" d="m228.04 47.706 7.5113-7.5113 7.6457 7.6457-7.5113 7.5113z" fill="#90a41a"/>
  <rect class="cls-42" x="215.94" y="-3.6761e-6" width="62.224" height="48.397" rx="4.7232" ry="4.7232" fill="#b5ca11"/>
  <path class="cls-40" d="m276.96 47.166a4.1364 4.1364 0 0 1-2.9414 1.2304h-53.928a4.1352 4.1352 0 0 1-2.9308-1.2174" fill="#90a41a"/>
 </g>
 <g fill="#fff" stroke-width="1.1808">
  <rect class="cls-17" x="222.34" y="7.9504" width="22.556" height="4.6666" rx="2.3333" ry="2.3333"/>
  <rect class="cls-17" x="222.34" y="14.418" width="47.186" height="4.6666" rx="2.3333" ry="2.3333"/>
  <rect class="cls-17" x="222.34" y="20.885" width="30.594" height="4.6666" rx="2.3333" ry="2.3333"/>
  <rect class="cls-17" x="222.34" y="27.352" width="47.186" height="4.6666" rx="2.3333" ry="2.3333"/>
  <rect class="cls-17" x="222.34" y="33.818" width="36.816" height="4.6666" rx="2.3333" ry="2.3333"/>
 </g>
 <g stroke-width="1.1808">
  <path class="cls-37" d="m295.07 115.5-7.5113-7.5113 7.6457-7.6457 7.5113 7.5113z" fill="#839bbf"/>
  <rect class="cls-27" transform="scale(-1)" x="-314.81" y="-108.55" width="62.224" height="48.397" rx="4.7232" ry="4.7232" fill="#a2b6d2"/>
  <path class="cls-37" d="m253.79 107.32a4.1364 4.1364 0 0 0 2.9426 1.2304h53.928a4.1352 4.1352 0 0 0 2.9284-1.2186" fill="#839bbf"/>
 </g>
 <g fill="#fff" stroke-width="1.1808">
  <rect class="cls-17" transform="scale(-1)" x="-308.42" y="-72.767" width="22.556" height="4.6666" rx="2.3333" ry="2.3333"/>
  <rect class="cls-17" transform="scale(-1)" x="-308.42" y="-79.235" width="47.186" height="4.6666" rx="2.3333" ry="2.3333"/>
  <rect class="cls-17" x="277.82" y="81.035" width="30.594" height="4.6666" rx="2.3333" ry="2.3333"/>
  <rect class="cls-17" x="261.23" y="87.501" width="47.186" height="4.6666" rx="2.3333" ry="2.3333"/>
  <rect class="cls-17" x="271.6" y="93.969" width="36.816" height="4.6666" rx="2.3333" ry="2.3333"/>
 </g>
</svg>
