<?xml version="1.0" encoding="utf-8"?>
<!-- Generator: Adobe Illustrator 21.0.2, SVG Export Plug-In . SVG Version: 6.00 Build 0)  -->
<svg version="1.1" id="Ebene_1" xmlns="http://www.w3.org/2000/svg" xmlns:xlink="http://www.w3.org/1999/xlink" x="0px" y="0px"
	 viewBox="0 0 283.4646 283.4646" style="enable-background:new 0 0 283.4646 283.4646;" xml:space="preserve">
<style type="text/css">
	.st0{fill:#F9DCB2;}
	.st1{fill:#F0F0F0;}
	.st2{fill:#F4D3AB;}
	.st3{fill:#5A4A42;}
	.st4{fill:#EF8671;}
	.st5{fill:#492B16;}
	.st6{fill:#6D4326;}
	.st7{fill:#492F1D;}
	.st8{fill:#7C5235;}
	.st9{fill:#FAFAFA;}
	.st10{fill:#82A567;}
	.st11{fill:#50633B;}
	.st12{fill:#69844D;}
	.st13{fill:#333333;}
	.st14{fill:#7D828C;}
	.st15{fill:#F7F7F7;stroke:#F7F7F7;stroke-width:2.4274;stroke-miterlimit:10;}
	.st16{fill:none;stroke:#F7F7F7;stroke-width:1.2137;stroke-miterlimit:10;}
	.st17{clip-path:url(#SVGID_2_);}
</style>
<g>
	<g>
		<path class="st0" d="M174.7842,83.8027c-3.848,0-6.9673,3.1194-6.9673,6.9673v0c0,3.848,3.1193,6.9674,6.9673,6.9674h6.7852
			V83.8027H174.7842z"/>
		<path class="st0" d="M243.9178,97.7374c3.848,0,6.9673-3.1194,6.9673-6.9673v0c0-3.848-3.1193-6.9674-6.9673-6.9674h-6.7852
			v13.9347H243.9178z"/>
		<path class="st1" d="M258.2412,220.3581h-97.4444V195.465c0-26.9085,21.8137-48.7222,48.7222-48.7222h0.0001
			c26.9085,0,48.7221,21.8136,48.7221,48.7222V220.3581z"/>
		<path class="st0" d="M209.519,167.3807L209.519,167.3807c-7.2853,0-13.1912-5.9059-13.1912-13.1912v-28.0844h26.3823v28.0844
			C222.7102,161.4748,216.8043,167.3807,209.519,167.3807z"/>
		<path class="st2" d="M196.3279,126.1051v16.9085c4.1247,1.4762,8.5653,2.2829,13.1912,2.2829
			c4.6259,0,9.0664-0.8067,13.1912-2.2829v-16.9085H196.3279z"/>
		<path class="st0" d="M209.5191,140.1904L209.5191,140.1904c-18.8586,0-34.1464-15.2878-34.1464-34.1463V70.6285
			c0-18.8585,15.2878-34.1463,34.1463-34.1463h0.0001c18.8585,0,34.1463,15.2878,34.1463,34.1463v35.4155
			C243.6654,124.9025,228.3776,140.1904,209.5191,140.1904z"/>
		<g>
			<ellipse class="st3" cx="194.3598" cy="86.6314" rx="4.1488" ry="2.8721"/>
			<ellipse class="st3" cx="224.6782" cy="86.6314" rx="4.1488" ry="2.8721"/>
		</g>
		<path class="st4" d="M215.9727,114.1905c0,0-4.2939,0.8478-6.5364,0.8478c-2.2425,0-6.3709-0.8478-6.3709-0.8478
			c-1.2926,0-2.3404,1.0478-2.3404,2.3404c0,1.2925,1.1426,1.9985,2.3404,2.3403s3.8282,0.8478,6.2304,0.8478
			s5.5999-0.4846,6.677-0.8478s2.3404-1.0478,2.3404-2.3403C218.3131,115.2383,217.2653,114.1905,215.9727,114.1905z"/>
		<path class="st5" d="M209.519,31.3557h-10.8999c-4.6437,0-8.4081,3.7644-8.4081,8.4081v1.4664
			c0,16.7939,24.8782,11.4652,35.0521,14.0087c16.5326,2.5435,18.4024,16.3994,18.4024,16.3994v32.056v0
			c3.5492-3.5493,5.5432-8.3631,5.5432-13.3825V51.4749c0-11.1115-9.0077-20.1192-20.1192-20.1192H209.519z"/>
		<path class="st6" d="M209.519,29.66h-10.8999c-4.6437,0-8.4081,3.7644-8.4081,8.4081v1.4664
			c0,16.7939,24.8782,11.4652,35.0521,14.0087c16.5326,2.5435,18.4024,16.3994,18.4024,16.3994v32.056v0
			c3.5492-3.5493,5.5432-8.3631,5.5432-13.3825V49.7792c0-11.1115-9.0077-20.1192-20.1192-20.1192H209.519z"/>
		<path class="st7" d="M192.7109,54.3c0,9.5757-7.7626,17.3383-17.3383,17.3383l0,0v32.056l0,0
			c-3.5492-3.5493-5.5432-8.3631-5.5432-13.3825V54.2371c0-10.5337,7.1179-19.4049,16.8063-22.0662
			c3.0642-0.8417,6.0752,1.5325,6.0752,4.7102V54.3z"/>
		<g>
			<path class="st8" d="M198.6008,74.9833l-12.9961,0.9613c-0.8201,0.0607-1.5345-0.5551-1.5951-1.3754
				c-0.0607-0.8203,0.5553-1.5345,1.3754-1.5951l12.9961-0.9613c0.8201-0.0607,1.5344,0.5551,1.5951,1.3754
				C200.0368,74.2085,199.4209,74.9227,198.6008,74.9833z"/>
		</g>
		<g>
			<path class="st8" d="M220.4412,75.009l12.9997,0.9107c0.8204,0.0575,1.5323-0.5611,1.5898-1.3816
				c0.0575-0.8206-0.5612-1.5323-1.3816-1.5898l-12.9997-0.9107c-0.8203-0.0575-1.5323,0.561-1.5897,1.3816
				C219.0022,74.2398,219.6209,74.9516,220.4412,75.009z"/>
		</g>
		<path class="st8" d="M192.7109,53.4522c0,9.5757-7.7626,17.3383-17.3383,17.3383l0,0v32.056l0,0
			c-3.5492-3.5493-5.5432-8.3631-5.5432-13.3825V53.3893c0-10.5337,7.1179-19.4049,16.8063-22.0662
			c3.0642-0.8417,6.0752,1.5325,6.0752,4.7102V53.4522z"/>
		<path class="st9" d="M224.0323,153.0351h-1.2814v1.2353c0,6.5674-5.3235,11.8909-11.8904,11.8909h-2.471
			c-6.5669,0-11.8904-5.3235-11.8904-11.8909v-1.2353h-1.2814h-1.4966v1.4966c0,7.9572,6.4502,14.4075,14.407,14.4075h2.9936
			c7.9568,0,14.407-6.4503,14.407-14.4075v-1.4966H224.0323z"/>
		<path class="st10" d="M197.9506,220.3581h-37.1538V195.465c0-22.337,15.0314-41.1632,35.5308-46.9153L197.9506,220.3581z"/>
		<polygon class="st11" points="196.3276,149.3975 180.2665,165.4586 196.8747,217.8143 197.874,217.8163 		"/>
		<g>
			<polygon class="st12" points="196.3276,145.1584 180.2665,161.2195 197.9506,216.9668 			"/>
		</g>
		<path class="st10" d="M221.0985,220.3581h37.1537V195.465c0-22.337-15.0314-41.1632-35.5308-46.9153L221.0985,220.3581z"/>
		<polygon class="st11" points="222.7215,149.3975 238.7826,165.4586 222.1744,217.8143 221.1751,217.8163 		"/>
		<g>
			<polygon class="st12" points="222.7215,145.1584 238.7826,161.2195 221.0985,216.9668 			"/>
		</g>
	</g>
	<g>
		<path class="st13" d="M175.5333,230.2333L51.4726,253.4938c-5.2487,0.9841-10.3483-2.5051-11.3324-7.7539l-14.1651-75.5498
			c-0.9841-5.2487,2.5051-10.3483,7.7539-11.3324l124.0607-23.2606c5.2487-0.9841,10.3483,2.5051,11.3324,7.7539l14.1651,75.5498
			C184.2712,224.1496,180.782,229.2492,175.5333,230.2333z"/>
		<path class="st14" d="M175.086,227.8475L51.0253,251.108c-5.2487,0.9841-10.3483-2.5051-11.3324-7.7539l-14.1651-75.5498
			c-0.9841-5.2487,2.5051-10.3483,7.7539-11.3324l124.0607-23.2606c5.2487-0.9841,10.3483,2.5051,11.3324,7.7539l14.1651,75.5498
			C183.8239,221.7638,180.3347,226.8634,175.086,227.8475z"/>
		<path class="st15" d="M86.9293,209.6367l-34.2956,6.4302c-5.2487,0.9841-10.3483-2.5051-11.3324-7.7538l-6.4302-34.2956
			c-0.9841-5.2487,2.5051-10.3483,7.7539-11.3324l34.2956-6.4302c5.2487-0.9841,10.3483,2.5051,11.3324,7.7539l6.4302,34.2956
			C95.6673,203.5531,92.1781,208.6526,86.9293,209.6367z"/>
		<g>
			<path class="st1" d="M164.6088,169.9075l-62.4828,11.7151c-1.6798,0.315-3.3119-0.8018-3.6269-2.4816v0
				c-0.315-1.6798,0.8018-3.3119,2.4816-3.6268l62.4828-11.7151c1.6798-0.315,3.3119,0.8018,3.6269,2.4816l0,0
				C167.4054,167.9604,166.2887,169.5925,164.6088,169.9075z"/>
			<path class="st1" d="M166.9065,182.162l-62.4828,11.7151c-1.6798,0.315-3.3119-0.8017-3.6269-2.4816v0
				c-0.315-1.6798,0.8018-3.3119,2.4816-3.6268l62.4828-11.7151c1.6798-0.315,3.3119,0.8017,3.6268,2.4816l0,0
				C169.703,180.215,168.5863,181.8471,166.9065,182.162z"/>
			<path class="st1" d="M169.2041,194.4166l-62.4828,11.7151c-1.6798,0.315-3.3119-0.8017-3.6268-2.4816h0
				c-0.3149-1.6798,0.8018-3.3119,2.4816-3.6269l62.4828-11.7151c1.6798-0.315,3.3119,0.8017,3.6268,2.4816v0
				C172.0007,192.4695,170.884,194.1016,169.2041,194.4166z"/>
		</g>
		<path class="st16" d="M59.1669,235.8377c2.7509-0.8594,5.6726-0.9449,8.547-1.1546c2.8744-0.2097,5.8161-0.5728,8.3663-1.9154
			c2.5502-1.3426,4.6582-3.8627,4.7521-6.7432c0.0939-2.8805-2.3908-5.8123-5.2607-5.5475
			c-1.9817,0.1828-3.6273,1.7612-4.4038,3.5936s-0.826,3.8858-0.7295,5.8736c0.0442,0.9095,0.1374,1.875,0.6921,2.5971
			c0.6401,0.8332,1.7389,1.1452,2.7682,1.3563c8.1082,1.6631,16.8428,0.034,23.8063-4.4403
			c2.0328-1.3061,5.1356-3.613,4.3449-5.4969s-5.4981-0.5052-8.0296,0.5916c-2.6759,1.1594-5.4229,4.0931-3.97,6.6216
			c1.1553,2.0107,4.0577,1.9932,6.2999,1.4016c9.0837-2.397,20.7419-17.7774,18.2168-19.548
			c-2.5251-1.7705-5.9477,3.7258-6.6419,7.1202c-0.6942,3.3944-1.5133,11.3574,0.7612,10.2872s10.4936-10.7514,12.2274-10.5565
			s-1.0339,4.7868,1.1141,4.5085c2.148-0.2783,5.756-6.176,7.4235-6.1161c1.6675,0.0598,0.358,2.9521,1.7269,3.4445
			c1.3689,0.4924,2.8886,0.1381,4.2684-0.3229c3.8103-1.2731,7.4125-5.5834,10.326-6.0466s3.2533,4.2576,5.3978,5.8268
			c2.1446,1.5692,4.9012,2.5108,7.4876,1.9007"/>
		<g>
			<defs>
				<path id="SVGID_1_" d="M87.6376,210.1214l-34.8921,6.542c-5.2487,0.9841-10.3483-2.5051-11.3324-7.7539l-6.542-34.8921
					c-0.9841-5.2487,2.5051-10.3483,7.7539-11.3324l34.8921-6.542c5.2487-0.9841,10.3483,2.5051,11.3324,7.7538l6.542,34.8921
					C96.3756,204.0377,92.8863,209.1373,87.6376,210.1214z"/>
			</defs>
			<clipPath id="SVGID_2_">
				<use xlink:href="#SVGID_1_"  style="overflow:visible;"/>
			</clipPath>
			<g class="st17">
				<path class="st0" d="M51.7077,182.0468c-1.3344,0.2502-2.2133,1.5347-1.9631,2.8691h0
					c0.2502,1.3344,1.5347,2.2133,2.8691,1.9631l2.3529-0.4411l-0.906-4.8322L51.7077,182.0468z"/>
				<path class="st0" d="M76.5873,182.3841c1.3344-0.2502,2.2133-1.5347,1.9631-2.8691l0,0
					c-0.2502-1.3344-1.5347-2.2133-2.8691-1.9631l-2.3529,0.4411l0.906,4.8322L76.5873,182.3841z"/>
				<path class="st1" d="M89.5268,223.9742l-33.791,6.3356l-1.6185-8.6322c-1.7495-9.3311,4.3966-18.3138,13.7277-20.0633h0
					c9.3311-1.7495,18.3138,4.3966,20.0633,13.7277L89.5268,223.9742z"/>
				<path class="st0" d="M69.1868,208.7709L69.1868,208.7709c-2.5263,0.4737-4.9583-1.1903-5.432-3.7167l-1.826-9.7389
					l9.1487-1.7153l1.826,9.7389C73.3772,205.8653,71.7132,208.2973,69.1868,208.7709z"/>
				<path class="st2" d="M61.9289,195.3154l1.0994,5.8634c1.5263,0.2437,3.1186,0.2348,4.7228-0.066
					c1.6041-0.3008,3.0915-0.8692,4.4259-1.6493l-1.0993-5.8634L61.9289,195.3154z"/>
				<path class="st0" d="M67.419,199.3421L67.419,199.3421c-6.5396,1.2261-12.835-3.0813-14.0611-9.6209l-2.3026-12.2811
					c-1.2261-6.5396,3.0813-12.835,9.6209-14.0611h0c6.5396-1.2261,12.835,3.0813,14.0611,9.6209l2.3026,12.2811
					C78.266,191.8206,73.9586,198.116,67.419,199.3421z"/>
				<g>
					
						<ellipse transform="matrix(0.9829 -0.1843 0.1843 0.9829 -32.4892 13.9265)" class="st3" cx="58.6799" cy="181.7549" rx="1.4638" ry="1.0133"/>
					
						<ellipse transform="matrix(0.9829 -0.1843 0.1843 0.9829 -31.9459 15.8302)" class="st3" cx="69.1935" cy="179.7837" rx="1.4638" ry="1.0133"/>
				</g>
				<path class="st4" d="M67.9665,189.9065c0,0-1.4339,0.5732-2.2115,0.719c-0.7776,0.1458-2.2644,0.1202-2.2644,0.1202
					c-0.4482,0.084-0.7435,0.5155-0.6594,0.9637c0.084,0.4482,0.5262,0.6187,0.9637,0.6594s1.3826,0.0451,2.2156-0.1111
					c0.833-0.1562,1.9104-0.5321,2.2603-0.7281s0.7434-0.5155,0.6594-0.9637C68.8462,190.1176,68.4147,189.8224,67.9665,189.9065z"
					/>
				<path class="st5" d="M60.3428,161.6012l-3.7798,0.7087c-1.6103,0.3019-2.671,1.8521-2.369,3.4624l0.0953,0.5085
					c1.0919,5.8237,9.3725,2.3583,13.0659,2.5788c5.8984-0.1929,7.4477,4.4904,7.4477,4.4904l2.0842,11.1161v0
					c1-1.4615,1.3785-3.2605,1.0521-5.0011l-2.5251-13.4675c-0.7224-3.8532-4.4317-6.3911-8.2849-5.6687L60.3428,161.6012z"/>
				<path class="st6" d="M60.2326,161.0132l-3.7798,0.7087c-1.6103,0.3019-2.671,1.8521-2.369,3.4624l0.0953,0.5085
					c1.0919,5.8237,9.3725,2.3583,13.0659,2.5788c5.8984-0.1929,7.4477,4.4904,7.4477,4.4904l2.0842,11.1161l0,0
					c1-1.4615,1.3785-3.2605,1.0521-5.0011l-2.5251-13.4675c-0.7224-3.8532-4.4317-6.3911-8.2849-5.6687L60.2326,161.0132z"/>
				<path class="st7" d="M56.006,170.6505c0.6226,3.3206-1.5646,6.5172-4.8852,7.1397l0,0l2.0842,11.1161l0,0
					c-1.4615-1-2.466-2.5397-2.7923-4.2803l-2.3455-12.5097c-0.6849-3.6528,1.2066-7.1919,4.3933-8.7447
					c1.0079-0.4911,2.2064,0.1364,2.413,1.2384L56.006,170.6505z"/>
				<g>
					<path class="st8" d="M59.3932,177.44l-4.4442,1.1783c-0.2804,0.0744-0.5682-0.0927-0.6426-0.3732
						c-0.0744-0.2805,0.0928-0.5682,0.3732-0.6426l4.4442-1.1783c0.2804-0.0744,0.5682,0.0927,0.6426,0.3732
						C59.8408,177.0779,59.6737,177.3656,59.3932,177.44z"/>
				</g>
				<g>
					<path class="st8" d="M66.9686,176.0289l4.5672-0.5294c0.2882-0.0334,0.4949-0.2942,0.4615-0.5825s-0.2943-0.4949-0.5825-0.4615
						l-4.5672,0.5294c-0.2882,0.0334-0.4949,0.2942-0.4615,0.5825S66.6804,176.0623,66.9686,176.0289z"/>
				</g>
				<path class="st8" d="M55.9509,170.3565c0.6226,3.3206-1.5646,6.5172-4.8852,7.1397l0,0l2.0842,11.1161h0
					c-1.4615-1-2.466-2.5397-2.7923-4.2803l-2.3455-12.5097c-0.6849-3.6528,1.2066-7.1918,4.3933-8.7447
					c1.0079-0.4911,2.2064,0.1364,2.413,1.2384L55.9509,170.3565z"/>
				<path class="st9" d="M73.2869,202.8527l-0.4443,0.0833l0.0803,0.4283c0.427,2.2774-1.0729,4.4695-3.3502,4.8965l-0.8569,0.1607
					c-2.2772,0.427-4.4694-1.073-4.8964-3.3503l-0.0803-0.4284l-0.4443,0.0833l-0.519,0.0973l0.0973,0.519
					c0.5174,2.7594,3.1735,4.5767,5.9327,4.0594l1.0381-0.1946c2.7592-0.5173,4.5766-3.1735,4.0592-5.9328l-0.0973-0.519
					L73.2869,202.8527z"/>
				<path class="st10" d="M68.6197,227.8942l-12.8839,2.4156l-1.6185-8.6322c-1.4523-7.7458,2.5361-15.2516,9.2708-18.5791
					L68.6197,227.8942z"/>
				<polygon class="st11" points="63.4432,203.3925 58.9179,210.0064 68.0812,227.082 68.4278,227.0177 				"/>
				<g>
					<polygon class="st12" points="63.1676,201.9225 58.6423,208.5364 68.3992,226.7182 					"/>
				</g>
				<path class="st10" d="M76.6467,226.3892l12.8839-2.4156l-1.6185-8.6322c-1.4523-7.7459-7.8888-13.297-15.3714-13.9588
					L76.6467,226.3892z"/>
				<polygon class="st11" points="72.5958,201.6765 79.2097,206.2018 76.8544,225.4371 76.508,225.5028 				"/>
				<g>
					<polygon class="st12" points="72.3202,200.2065 78.934,204.7318 76.4262,225.2132 					"/>
				</g>
			</g>
		</g>
	</g>
</g>
</svg>
