<?xml version="1.0" encoding="utf-8"?>
<!-- Generator: Adobe Illustrator 19.2.1, SVG Export Plug-In . SVG Version: 6.00 Build 0)  -->
<svg version="1.1" id="Ebene_1" xmlns="http://www.w3.org/2000/svg" xmlns:xlink="http://www.w3.org/1999/xlink" x="0px" y="0px"
	 viewBox="0 0 138 138" style="enable-background:new 0 0 138 138;" xml:space="preserve">
<style type="text/css">
	.st0{clip-path:url(#SVGID_2_);}
	.st1{clip-path:url(#SVGID_4_);fill:#C3C6CC;}
	.st2{fill:#F8DBB1;}
	.st3{fill:#F4D3AB;}
	.st4{fill:#0F2D59;}
	.st5{fill:#EE8672;}
	.st6{fill:#575756;}
	.st7{clip-path:url(#SVGID_2_);fill:#575756;}
</style>
<g>
	<g>
		<defs>
			<circle id="SVGID_1_" cx="69" cy="69" r="69"/>
		</defs>
		<use xlink:href="#SVGID_1_"  style="overflow:visible;fill:#F0F0F0;"/>
		<clipPath id="SVGID_2_">
			<use xlink:href="#SVGID_1_"  style="overflow:visible;"/>
		</clipPath>
		<g class="st0">
			<g>
				<defs>
					<path id="SVGID_3_" d="M109.2054,173.7885H30.3875l0-47.8092c0-6.4808,5.2537-11.7345,11.7345-11.7345h55.3489
						c6.4808,0,11.7345,5.2537,11.7345,11.7345V173.7885z"/>
				</defs>
				<use xlink:href="#SVGID_3_"  style="overflow:visible;fill:#7D828C;"/>
				<clipPath id="SVGID_4_">
					<use xlink:href="#SVGID_3_"  style="overflow:visible;"/>
				</clipPath>
				<rect x="28.573" y="122.594" class="st1" width="85.4286" height="3.3584"/>
				<rect x="28.573" y="131.9345" class="st1" width="85.4286" height="3.3584"/>
				<rect x="28.573" y="141.275" class="st1" width="85.4286" height="3.3584"/>
			</g>
			<path class="st2" d="M41.7012,63.3356c-3.1125,0-5.6355,2.5231-5.6355,5.6355v0c0,3.1124,2.523,5.6355,5.6355,5.6355h5.4882
				V63.3356H41.7012z"/>
			<path class="st2" d="M97.6199,74.6067c3.1125,0,5.6355-2.5231,5.6355-5.6355v0c0-3.1124-2.523-5.6355-5.6355-5.6355h-5.4882
				v11.2711H97.6199z"/>
			<path class="st2" d="M77.2891,130.9377H62.3038c-1.7546,0-3.177-1.4224-3.177-3.177V97.5519h21.3394l0,30.2087
				C80.4661,129.5153,79.0437,130.9377,77.2891,130.9377z"/>
			<path class="st3" d="M59.1268,97.5519v13.6765c3.3363,1.194,6.928,1.8465,10.6697,1.8465c3.7416,0,7.3334-0.6525,10.6697-1.8465
				V97.5519H59.1268z"/>
			<path class="st2" d="M89.1917,108.9448H50.4011c-4.542,0-8.224-3.682-8.224-8.224V33.2845c0-4.542,3.682-8.224,8.224-8.224
				l38.7906,0c4.542,0,8.224,3.682,8.224,8.224v67.4364C97.4157,105.2628,93.7337,108.9448,89.1917,108.9448z"/>
			<g>
				<circle class="st4" cx="57.5349" cy="65.2848" r="3.3558"/>
				<circle class="st4" cx="82.058" cy="65.2848" r="3.3558"/>
			</g>
			<path class="st5" d="M75.0165,87.9148c0,0-3.4731,0.6858-5.287,0.6858c-1.8139,0-5.1531-0.6858-5.1531-0.6858
				c-1.0455,0-1.893,0.8475-1.893,1.893c0,1.0454,0.9242,1.6165,1.893,1.893c0.9688,0.2765,3.0965,0.6858,5.0394,0.6858
				c1.943,0,4.5295-0.392,5.4007-0.6858c0.8712-0.2938,1.893-0.8475,1.893-1.893C76.9095,88.7623,76.062,87.9148,75.0165,87.9148z"
				/>
			<g>
				<path class="st6" d="M60.9652,56.2021l-10.5119,0.7776c-0.6634,0.0491-1.2412-0.449-1.2902-1.1125
					c-0.0491-0.6635,0.4492-1.2411,1.1125-1.2902l10.5119-0.7776c0.6634-0.0491,1.2411,0.449,1.2902,1.1125
					C62.1268,55.5754,61.6286,56.153,60.9652,56.2021z"/>
			</g>
			<g>
				<path class="st6" d="M78.6309,56.2229l10.5148,0.7366c0.6636,0.0465,1.2394-0.4538,1.2859-1.1175
					c0.0465-0.6637-0.454-1.2394-1.1175-1.2859l-10.5148-0.7366c-0.6635-0.0465-1.2394,0.4538-1.2859,1.1175
					C77.4669,55.6007,77.9673,56.1764,78.6309,56.2229z"/>
			</g>
		</g>
		<path class="st7" d="M64.1051,17.1912c4.3752-0.953,20.0103,2.099,21.6895,8.3959c1.2244,4.5916-3.5928,10.3735-6.0755,10.0439
			c-3.8602-0.5116-7.2145-0.7243-9.7369-0.8084c-4.198-0.1399-12.0342,0.9795-12.0342,0.9795s-5.8772-7.1365-11.4744-1.959
			C46.4737,33.8431,49.972,20.2697,64.1051,17.1912z"/>
	</g>
</g>
</svg>
