<?xml version="1.0" encoding="utf-8"?>
<!-- Generator: Adobe Illustrator 21.0.2, SVG Export Plug-In . SVG Version: 6.00 Build 0)  -->
<svg version="1.1" id="Ebene_1" xmlns="http://www.w3.org/2000/svg" xmlns:xlink="http://www.w3.org/1999/xlink" x="0px" y="0px"
	 viewBox="0 0 283.4646 283.4646" style="enable-background:new 0 0 283.4646 283.4646;" xml:space="preserve">
<style type="text/css">
	.st0{fill:#96BA75;}
	.st1{fill:#FFFFFF;}
</style>
<g>
	<g>
		<path class="st0" d="M207.0414,73.2331c-13.4098-1.987-26.649-4.6901-39.3164-9.7909
			c-8.5435-3.4385-16.9052-7.2933-25.0171-11.7058c-0.6508,0-1.3002,0-1.951,0c-1.9191,1.3293-4.0532,2.2424-6.1235,3.2692
			c-10.7054,5.3256-21.6286,10.0768-33.1444,13.2877c-7.9995,2.2313-16.1725,3.5384-24.3344,4.9093
			c-2.5213,0.4246-5.0467,0.8242-7.5638,1.2655c-0.5939,0.1055-1.1642,0.3414-1.7456,0.5162c0,3.4163,0,6.8326,0,10.2489
			c0.3802,2.2202,0.2747,4.4736,0.3844,6.7105c0.4399,9.0222,0.8867,18.0389,1.4889,27.0528
			c0.6203,9.2775,2.7669,18.222,5.0509,27.161c5.1078,19.9898,14.5976,37.643,27.2401,53.5893
			c5.531,6.9741,12.1873,12.7826,18.8451,18.5911c5.6018,4.8844,11.6656,8.9917,18.179,12.4413
			c0.6439,0.3413,1.3113,0.6355,1.9676,0.9491c0.4066,0,0.8131,0,1.2197,0c0.0833-0.0833,0.1526-0.1998,0.2525-0.2442
			c9.2928-4.0379,16.9621-10.4764,24.5884-17.0814c12.6355-10.9427,22.303-24.2442,30.2748-38.9473
			c5.735-10.5735,9.5287-21.9131,12.4857-33.6022c2.8918-11.4339,4.1739-23.0481,4.654-34.8095
			c0.3122-7.6124,0.7937-15.2193,0.9755-22.8372c0.0125-0.4912,0.1096-0.9824,0.1679-1.4709c0-2.5837,0-5.1674,0-7.7512
			C212.8096,74.149,209.9248,73.6605,207.0414,73.2331z"/>
	</g>
	<g>
		<path class="st1" d="M118.2077,128.4901v22.4292h9.6125v-22.4292H118.2077z M137.4327,128.4901v22.4292h9.6125v-22.4292H137.4327z
			 M111.7994,166.9401h60.8792v-9.6125h-60.8792V166.9401z M156.6577,128.4901v22.4292h9.6125v-22.4292H156.6577z M142.239,99.6525
			l-30.4396,16.0209v6.4083h60.8792v-6.4083L142.239,99.6525z"/>
	</g>
</g>
<g>
	<g>
		<path class="st0" d="M4302.8706,468.3547c-13.4102-1.987-26.6494-4.6901-39.3164-9.7909
			c-8.5439-3.4385-16.9053-7.2933-25.0176-11.7058c-0.6504,0-1.2998,0-1.9507,0c-1.9189,1.3293-4.0532,2.2424-6.1235,3.2692
			c-10.7056,5.3256-21.6284,10.0768-33.1445,13.2877c-7.9995,2.2313-16.1724,3.5384-24.3345,4.9093
			c-2.521,0.4246-5.0464,0.8242-7.5635,1.2655c-0.5942,0.1055-1.1646,0.3413-1.7456,0.5162c0,3.4163,0,6.8326,0,10.2489
			c0.3799,2.2202,0.2744,4.4736,0.3843,6.7104c0.4399,9.0222,0.8867,18.0389,1.4888,27.0528
			c0.6201,9.2775,2.7671,18.222,5.0508,27.1609c5.1079,19.9899,14.5977,37.643,27.2402,53.5894
			c5.5308,6.9741,12.1875,12.7826,18.8452,18.5911c5.6016,4.8844,11.6655,8.9917,18.1787,12.4413
			c0.644,0.3414,1.3115,0.6355,1.9678,0.9491c0.4067,0,0.813,0,1.2197,0c0.083-0.0833,0.1528-0.1998,0.2524-0.2442
			c9.293-4.0379,16.9624-10.4764,24.5884-17.0814c12.6357-10.9426,22.3032-24.2443,30.2749-38.9473
			c5.7349-10.5735,9.5288-21.913,12.4858-33.6022c2.8916-11.4339,4.1738-23.0482,4.6538-34.8095
			c0.312-7.6124,0.7939-15.2193,0.9756-22.8372c0.0122-0.4912,0.1094-0.9824,0.168-1.4709c0-2.5837,0-5.1674,0-7.7512
			C4308.6387,469.2705,4305.7539,468.7821,4302.8706,468.3547z"/>
	</g>
	<g>
		<path class="st1" d="M4214.0366,523.6116v22.4292h9.6128v-22.4292H4214.0366z M4233.2617,523.6116v22.4292h9.6128v-22.4292
			H4233.2617z M4207.6284,562.0617h60.8794v-9.6125h-60.8794V562.0617z M4252.4868,523.6116v22.4292h9.6123v-22.4292H4252.4868z
			 M4238.0679,494.7741l-30.4395,16.0209v6.4083h60.8794v-6.4083L4238.0679,494.7741z"/>
	</g>
</g>
</svg>
