<?xml version="1.0" encoding="utf-8"?>
<!-- Generator: Adobe Illustrator 21.0.2, SVG Export Plug-In . SVG Version: 6.00 Build 0)  -->
<svg version="1.1" id="Ebene_1" xmlns="http://www.w3.org/2000/svg" xmlns:xlink="http://www.w3.org/1999/xlink" x="0px" y="0px"
	 viewBox="0 0 161.5 208" style="enable-background:new 0 0 161.5 208;" xml:space="preserve">
<style type="text/css">
	.st0{fill:#575756;}
	.st1{fill:#A5A5A4;}
	.st2{fill:#7E7E7C;}
	.st3{fill:#80807F;}
</style>
<path class="st0" d="M31.0388,197.9394c-0.2275,0.6679-0.5575,1.243-0.9901,1.7263c-0.4325,0.4843-0.9676,0.8583-1.6057,1.1219
	c-0.6381,0.2646-1.3601,0.3964-2.1667,0.3964c-0.7333,0-1.4114-0.1318-2.0348-0.3964c-0.6234-0.2636-1.1624-0.6269-1.6164-1.0887
	c-0.455-0.4618-0.8109-1.0008-1.0672-1.6169c-0.2568-0.6151-0.3847-1.283-0.3847-2.0016h1.8479
	c0,0.4404,0.0732,0.8622,0.2197,1.2654s0.3593,0.7548,0.6381,1.0555c0.2783,0.3007,0.619,0.539,1.0228,0.7147
	c0.4033,0.1758,0.8612,0.2646,1.3748,0.2646c1.0999,0,1.9172-0.33,2.4527-0.9901c0.5351-0.66,0.8026-1.5398,0.8026-2.6402v-10.0961
	h1.8479v10.0961C31.3795,196.5422,31.2658,197.2725,31.0388,197.9394z M45.1054,185.8857c0.9237,0.4033,1.7268,0.9598,2.4088,1.6716
	c0.6815,0.7108,1.2166,1.5505,1.6057,2.5182c0.3881,0.9676,0.5829,2.0163,0.5829,3.146c0,1.1141-0.1982,2.1559-0.5941,3.1235
	s-0.9349,1.8112-1.6169,2.5289c-0.6815,0.7186-1.4846,1.284-2.4083,1.6941c-0.9242,0.4101-1.9064,0.6161-2.9478,0.6161
	s-2.0236-0.206-2.9473-0.6161c-0.9242-0.4101-1.7268-0.9754-2.4088-1.6941c-0.682-0.7177-1.221-1.5613-1.6169-2.5289
	s-0.5937-2.0094-0.5937-3.1235c0-1.1151,0.1977-2.152,0.5937-3.1128c0.3959-0.9608,0.9349-1.7995,1.6169-2.5191
	c0.682-0.7177,1.4846-1.283,2.4088-1.6931c0.9237-0.4101,1.9059-0.6161,2.9473-0.6161
	C43.1917,185.2803,44.1817,185.4824,45.1054,185.8857z M44.3575,198.907c0.6893-0.3154,1.2942-0.7509,1.8147-1.3084
	c0.5204-0.5575,0.931-1.2098,1.2317-1.9577c0.3007-0.7479,0.4511-1.5544,0.4511-2.4195c0-0.8797-0.1469-1.6941-0.4399-2.442
	c-0.2934-0.7479-0.6967-1.3963-1.2098-1.947c-0.5136-0.5497-1.1185-0.9823-1.8147-1.2977c-0.6967-0.3154-1.4485-0.4726-2.255-0.4726
	c-0.7919,0-1.5325,0.1572-2.2213,0.4726c-0.6898,0.3154-1.2947,0.7518-1.8147,1.3094c-0.5209,0.5575-0.9315,1.2098-1.2322,1.9577
	c-0.3007,0.7479-0.4506,1.5544-0.4506,2.4195s0.1499,1.6755,0.4506,2.4303c0.3007,0.7557,0.7113,1.408,1.2322,1.9577
	c0.5199,0.5497,1.1248,0.9823,1.8147,1.2977c0.6889,0.3154,1.4295,0.4736,2.2213,0.4736
	C42.9275,199.3806,43.6681,199.2224,44.3575,198.907z M62.9444,200.9194h-9.7221v-15.2652h1.8693v13.4617h7.8528V200.9194z
	 M75.7905,185.8857c0.9237,0.4033,1.7268,0.9598,2.4088,1.6716c0.682,0.7108,1.2171,1.5505,1.6057,2.5182
	c0.3881,0.9676,0.5829,2.0163,0.5829,3.146c0,1.1141-0.1982,2.1559-0.5941,3.1235s-0.9349,1.8112-1.6164,2.5289
	c-0.682,0.7186-1.4851,1.284-2.4088,1.6941s-1.9064,0.6161-2.9478,0.6161c-1.0413,0-2.0236-0.206-2.9473-0.6161
	c-0.9242-0.4101-1.7268-0.9754-2.4088-1.6941c-0.682-0.7177-1.221-1.5613-1.6164-2.5289c-0.3964-0.9676-0.5941-2.0094-0.5941-3.1235
	c0-1.1151,0.1977-2.152,0.5941-3.1128c0.3954-0.9608,0.9344-1.7995,1.6164-2.5191c0.682-0.7177,1.4846-1.283,2.4088-1.6931
	c0.9237-0.4101,1.9059-0.6161,2.9473-0.6161C73.8768,185.2803,74.8668,185.4824,75.7905,185.8857z M75.0426,198.907
	c0.6893-0.3154,1.2942-0.7509,1.8147-1.3084c0.5204-0.5575,0.9315-1.2098,1.2322-1.9577c0.3002-0.7479,0.4506-1.5544,0.4506-2.4195
	c0-0.8797-0.1469-1.6941-0.4399-2.442c-0.2934-0.7479-0.6967-1.3963-1.2098-1.947c-0.5136-0.5497-1.1185-0.9823-1.8147-1.2977
	c-0.6967-0.3154-1.4485-0.4726-2.255-0.4726c-0.7919,0-1.5325,0.1572-2.2213,0.4726c-0.6893,0.3154-1.2947,0.7518-1.8147,1.3094
	c-0.5209,0.5575-0.9315,1.2098-1.2322,1.9577c-0.3007,0.7479-0.4506,1.5544-0.4506,2.4195s0.1499,1.6755,0.4506,2.4303
	c0.3007,0.7557,0.7113,1.408,1.2322,1.9577c0.5199,0.5497,1.1253,0.9823,1.8147,1.2977c0.6889,0.3154,1.4295,0.4736,2.2213,0.4736
	S74.3532,199.2224,75.0426,198.907z M96.4674,198.1923c-0.4545,0.6308-0.9828,1.1658-1.5837,1.6062
	c-0.6015,0.4394-1.2688,0.7802-2.0016,1.0223c-0.7338,0.2422-1.5105,0.3632-2.3317,0.3632c-1.0413,0-2.0236-0.2089-2.9478-0.6268
	c-0.9237-0.4179-1.7268-0.9862-2.4088-1.7048c-0.6815-0.7186-1.2205-1.5623-1.6164-2.5299s-0.5941-2.0016-0.5941-3.1011
	c0-1.1004,0.1982-2.1305,0.5941-3.0913c0.3959-0.9598,0.9349-1.7995,1.6164-2.5182c0.682-0.7186,1.4851-1.2869,2.4088-1.7048
	c0.9242-0.4179,1.9064-0.6268,2.9478-0.6268c0.8651,0,1.6716,0.125,2.4195,0.374c0.7479,0.25,1.4187,0.5976,2.0129,1.0448
	c0.5937,0.4472,1.1068,0.9823,1.5398,1.6062c0.4321,0.623,0.7733,1.3084,1.0228,2.0563h-1.9577
	c-0.4257-0.9676-1.0599-1.7595-1.903-2.3756c-0.8431-0.6161-1.8884-0.9237-3.1343-0.9237c-0.7919,0-1.5325,0.1611-2.2218,0.4843
	c-0.6893,0.3222-1.2942,0.7655-1.8147,1.3299c-0.5209,0.5653-0.9315,1.2215-1.2317,1.9694
	c-0.3007,0.7479-0.4511,1.5398-0.4511,2.3756s0.1504,1.6277,0.4511,2.3756c0.3002,0.7479,0.7108,1.4041,1.2317,1.9684
	c0.5204,0.5644,1.1253,1.0086,1.8147,1.3308c0.6893,0.3222,1.4299,0.4843,2.2218,0.4843c1.1287,0,2.1335-0.2978,3.0132-0.8915
	c0.8802-0.5937,1.5544-1.3963,2.0241-2.4088h1.9577C97.2813,196.8585,96.922,197.5625,96.4674,198.1923z M110.391,185.8857
	c0.9242,0.4033,1.7268,0.9598,2.4088,1.6716c0.682,0.7108,1.2171,1.5505,1.6057,2.5182s0.5829,2.0163,0.5829,3.146
	c0,1.1141-0.1977,2.1559-0.5937,3.1235c-0.3959,0.9676-0.9349,1.8112-1.6169,2.5289c-0.682,0.7186-1.4846,1.284-2.4088,1.6941
	c-0.9237,0.4101-1.9064,0.6161-2.9473,0.6161c-1.0418,0-2.0241-0.206-2.9478-0.6161s-1.7268-0.9754-2.4088-1.6941
	c-0.6815-0.7177-1.2205-1.5613-1.6164-2.5289c-0.3959-0.9676-0.5941-2.0094-0.5941-3.1235c0-1.1151,0.1982-2.152,0.5941-3.1128
	c0.3959-0.9608,0.9349-1.7995,1.6164-2.5191c0.682-0.7177,1.4851-1.283,2.4088-1.6931s1.906-0.6161,2.9478-0.6161
	C108.4773,185.2803,109.4673,185.4824,110.391,185.8857z M109.6431,198.907c0.6893-0.3154,1.2942-0.7509,1.8151-1.3084
	c0.5199-0.5575,0.931-1.2098,1.2317-1.9577c0.3002-0.7479,0.4506-1.5544,0.4506-2.4195c0-0.8797-0.1465-1.6941-0.4399-2.442
	s-0.6967-1.3963-1.2098-1.947c-0.5136-0.5497-1.1185-0.9823-1.8147-1.2977c-0.6967-0.3154-1.4485-0.4726-2.2545-0.4726
	c-0.7919,0-1.533,0.1572-2.2218,0.4726c-0.6893,0.3154-1.2942,0.7518-1.8147,1.3094c-0.5209,0.5575-0.9315,1.2098-1.2317,1.9577
	c-0.3007,0.7479-0.4511,1.5544-0.4511,2.4195s0.1504,1.6755,0.4511,2.4303c0.3002,0.7557,0.7108,1.408,1.2317,1.9577
	c0.5204,0.5497,1.1253,0.9823,1.8147,1.2977c0.6889,0.3154,1.43,0.4736,2.2218,0.4736
	C108.2136,199.3806,108.9538,199.2224,109.6431,198.907z M133.1579,200.9194h-1.8698v-12.7792l-4.4656,12.7792h-2.0016
	l-4.4651-12.7792v12.7792h-1.8698v-15.2652h2.8594l4.4876,12.8681l4.4871-12.8681h2.8379v15.2652H133.1579z"/>
<g>
	<g>
		<g>
			<path class="st1" d="M70.4783,161.6679c0.0583,0.0054,0.1107,0.0108,0.1637,0.0211c3.4029,0.2717,6.7425,0.2425,10.0762,0.0923
				c0.2956-1.3506,0.6066-2.6956,1.0345-4.0014c6.0878-18.7365,24.0723-30.7516,43.745-29.206
				c4.7799,0.3722,9.3112,1.5672,13.4845,3.3764c2.1311-2.6536,4.0834-5.4443,5.856-8.3723
				c-5.6714-2.7298-11.9126-4.5211-18.56-5.0408c-24.3203-1.907-46.5676,12.9437-54.1064,36.1299
				C71.4334,156.9518,70.9007,159.2964,70.4783,161.6679"/>
		</g>
	</g>
	<g>
		<g>
			<path class="st2" d="M57.3477,159.4179c0.5381-3.015,1.2447-5.9959,2.1842-8.892c9.4327-29.0314,37.3087-47.641,67.7858-45.2489
				c8.2773,0.6439,16.1801,2.8465,23.4451,6.3417c0.5959-1.4959,1.1971-2.9966,1.693-4.5476
				c0.6121-1.8466,1.1188-3.7378,1.5829-5.6502c-8.0714-3.6957-16.7766-6.0564-25.8928-6.769
				c-35.399-2.7773-67.7804,18.8472-78.7538,52.5846c-0.939,2.9177-1.7093,5.8927-2.3004,8.9184
				C50.389,157.4898,53.8443,158.5314,57.3477,159.4179"/>
		</g>
	</g>
	<g>
		<g>
			<path class="st1" d="M152.4611,107.0711c0.6277-1.9286,1.1611-3.9042,1.6304-5.8982
				c-13.21-8.0061-21.5774-22.9648-20.3004-39.3984c0.2637-3.3341,0.918-6.6236,1.941-9.773
				c1.6304-5.0301,4.1523-9.5463,7.3072-13.4683c-2.0157-3.0366-4.2155-5.943-6.6422-8.6706
				c-4.748,5.3336-8.4782,11.6855-10.8044,18.8445c-1.282,3.9484-2.089,8.0585-2.4218,12.2339
				c-1.672,21.4744,9.8077,40.9703,27.6075,50.6192C151.3742,110.0806,151.9652,108.6008,152.4611,107.0711"/>
		</g>
	</g>
	<g>
		<g>
			<path class="st3" d="M139.1296,131.7817c2.0842-2.6296,4.0095-5.3918,5.7507-8.288
				c-22.5267-11.9967-37.077-36.5492-34.9615-63.5948c0.4117-5.2331,1.4192-10.3983,3.0333-15.3413
				c2.9598-9.1136,7.7344-17.2066,13.8275-23.9485c-2.6217-2.1101-5.3866-4.0306-8.2562-5.8004
				c-6.6366,7.5782-11.8703,16.5464-15.1408,26.6307c-1.8518,5.7057-3.0284,11.6488-3.5136,17.6706
				C97.4634,89.846,113.7647,117.7593,139.1296,131.7817"/>
		</g>
	</g>
	<g>
		<g>
			<path class="st0" d="M82.5544,66.3378c2.4532-7.5518,4.0252-15.4335,4.6427-23.4288
				c1.0864-13.8616-0.6861-27.3038-4.8275-39.7279c-4.4892-0.3138-8.9104-0.2058-13.2365,0.2161
				c4.5584,11.9125,6.6318,24.9907,5.5713,38.5334c-0.5488,7.0008-1.9204,13.922-4.0678,20.5349
				c-9.7175,29.8942-33.9956,51.5138-63.2281,58.5961c2.1529,3.8804,4.6795,7.5205,7.4443,10.9838
				C46.2158,122.9108,71.966,98.9358,82.5544,66.3378"/>
		</g>
	</g>
	<g>
		<g>
			<path class="st1" d="M47.3082,8.7314c8.5252,13.7875,23.223,23.505,40.5852,24.8718
				c14.6448,1.1495,28.5144-3.8145,38.8969-12.981c-2.6909-2.1814-5.5557-4.149-8.5306-5.9695
				c-8.1562,6.4076-18.602,9.7785-29.5858,8.9131c-13.1678-1.0361-24.4736-8.0055-31.5165-18.0716
				C53.7811,6.3543,50.5052,7.4467,47.3082,8.7314"/>
		</g>
	</g>
	<g>
		<g>
			<path class="st2" d="M26.6912,20.8728C39.0521,41.1629,60.576,55.4913,86.0048,57.4831
				c21.4609,1.6801,41.7775-5.6399,56.9236-19.14c-1.9945-2.9599-4.1575-5.7955-6.5102-8.4648
				c-13.0836,11.9546-30.8305,18.454-49.5696,16.9846c-22.1626-1.738-40.8855-14.3413-51.4582-32.1362
				C32.357,16.5889,29.4501,18.6358,26.6912,20.8728"/>
		</g>
	</g>
	<g>
		<g>
			<path class="st0" d="M153.6745,62.2651c-1.108-4.231-2.4797-8.3458-4.2467-12.2841
				c-17.4411,14.9961-40.501,23.0831-64.8422,21.1761c-23.64-1.8594-45.1435-12.8091-60.5587-30.8358
				c-2.6644-3.1339-5.0014-6.4493-7.2012-9.852c-2.8328,3.2602-5.413,6.7474-7.6868,10.4613
				c1.7731,2.4979,3.6455,4.9273,5.661,7.2828c17.5097,20.4851,41.9568,32.9383,68.836,35.0511
				C109.613,85.3011,134.3448,77.3535,153.6745,62.2651"/>
		</g>
	</g>
</g>
</svg>
