<?xml version="1.0" encoding="utf-8"?>
<!-- Generator: Adobe Illustrator 19.2.1, SVG Export Plug-In . SVG Version: 6.00 Build 0)  -->
<svg version="1.1" id="Ebene_1" xmlns="http://www.w3.org/2000/svg" xmlns:xlink="http://www.w3.org/1999/xlink" x="0px" y="0px"
	 viewBox="0 0 161.5 236" style="enable-background:new 0 0 161.5 236;" xml:space="preserve">
<style type="text/css">
	.st0{fill:#575756;}
	.st1{fill:#A5A5A4;}
	.st2{fill:#7E7E7C;}
	.st3{fill:#80807F;}
</style>
<g>
	<path class="st0" d="M31.0388,194.9394c-0.2275,0.6679-0.5575,1.243-0.9901,1.7263c-0.4325,0.4843-0.9676,0.8583-1.6057,1.1219
		c-0.6381,0.2646-1.3601,0.3964-2.1667,0.3964c-0.7333,0-1.4114-0.1318-2.0348-0.3964c-0.6234-0.2636-1.1624-0.6269-1.6164-1.0887
		c-0.455-0.4618-0.8109-1.0008-1.0672-1.6169c-0.2568-0.6151-0.3847-1.283-0.3847-2.0016h1.8479
		c0,0.4404,0.0732,0.8622,0.2197,1.2654s0.3593,0.7548,0.6381,1.0555c0.2783,0.3007,0.619,0.539,1.0228,0.7147
		c0.4033,0.1758,0.8612,0.2646,1.3748,0.2646c1.0999,0,1.9172-0.33,2.4527-0.9901c0.5351-0.66,0.8026-1.5398,0.8026-2.6402v-10.0961
		h1.8479v10.0961C31.3795,193.5422,31.2658,194.2725,31.0388,194.9394z M45.1054,182.8857
		c0.9237,0.4033,1.7268,0.9598,2.4088,1.6716c0.6815,0.7108,1.2166,1.5505,1.6057,2.5182c0.3881,0.9676,0.5829,2.0163,0.5829,3.146
		c0,1.1141-0.1982,2.1559-0.5941,3.1235c-0.3959,0.9676-0.9349,1.8112-1.6169,2.5289c-0.6815,0.7186-1.4846,1.284-2.4083,1.6941
		c-0.9242,0.4101-1.9064,0.6161-2.9478,0.6161s-2.0236-0.206-2.9473-0.6161c-0.9242-0.4101-1.7268-0.9754-2.4088-1.6941
		c-0.682-0.7177-1.221-1.5613-1.6169-2.5289c-0.3959-0.9676-0.5937-2.0094-0.5937-3.1235c0-1.1151,0.1977-2.152,0.5937-3.1128
		c0.3959-0.9608,0.9349-1.7995,1.6169-2.5191c0.682-0.7177,1.4846-1.283,2.4088-1.6931c0.9237-0.4101,1.9059-0.6161,2.9473-0.6161
		C43.1917,182.2803,44.1817,182.4824,45.1054,182.8857z M44.3575,195.907c0.6893-0.3154,1.2942-0.7509,1.8147-1.3084
		c0.5204-0.5575,0.931-1.2098,1.2317-1.9577c0.3007-0.7479,0.4511-1.5544,0.4511-2.4195c0-0.8797-0.1469-1.6941-0.4399-2.442
		c-0.2934-0.7479-0.6967-1.3963-1.2098-1.947c-0.5136-0.5497-1.1185-0.9823-1.8147-1.2977
		c-0.6967-0.3154-1.4485-0.4726-2.255-0.4726c-0.7919,0-1.5325,0.1572-2.2213,0.4726c-0.6898,0.3154-1.2947,0.7518-1.8147,1.3094
		c-0.5209,0.5575-0.9315,1.2098-1.2322,1.9577c-0.3007,0.7479-0.4506,1.5544-0.4506,2.4195s0.1499,1.6755,0.4506,2.4303
		c0.3007,0.7557,0.7113,1.408,1.2322,1.9577c0.5199,0.5497,1.1248,0.9823,1.8147,1.2977c0.6889,0.3154,1.4295,0.4736,2.2213,0.4736
		C42.9275,196.3806,43.6681,196.2224,44.3575,195.907z M62.9444,197.9194h-9.7221v-15.2652h1.8693v13.4617h7.8528V197.9194z
		 M75.7905,182.8857c0.9237,0.4033,1.7268,0.9598,2.4088,1.6716c0.682,0.7108,1.2171,1.5505,1.6057,2.5182
		c0.3881,0.9676,0.5829,2.0163,0.5829,3.146c0,1.1141-0.1982,2.1559-0.5941,3.1235s-0.9349,1.8112-1.6164,2.5289
		c-0.682,0.7186-1.4851,1.284-2.4088,1.6941s-1.9064,0.6161-2.9478,0.6161c-1.0413,0-2.0236-0.206-2.9473-0.6161
		c-0.9242-0.4101-1.7268-0.9754-2.4088-1.6941c-0.682-0.7177-1.221-1.5613-1.6164-2.5289
		c-0.3964-0.9676-0.5941-2.0094-0.5941-3.1235c0-1.1151,0.1977-2.152,0.5941-3.1128c0.3954-0.9608,0.9344-1.7995,1.6164-2.5191
		c0.682-0.7177,1.4846-1.283,2.4088-1.6931c0.9237-0.4101,1.9059-0.6161,2.9473-0.6161
		C73.8768,182.2803,74.8668,182.4824,75.7905,182.8857z M75.0426,195.907c0.6893-0.3154,1.2942-0.7509,1.8147-1.3084
		c0.5204-0.5575,0.9315-1.2098,1.2322-1.9577c0.3002-0.7479,0.4506-1.5544,0.4506-2.4195c0-0.8797-0.1469-1.6941-0.4399-2.442
		c-0.2934-0.7479-0.6967-1.3963-1.2098-1.947c-0.5136-0.5497-1.1185-0.9823-1.8147-1.2977
		c-0.6967-0.3154-1.4485-0.4726-2.255-0.4726c-0.7919,0-1.5325,0.1572-2.2213,0.4726c-0.6893,0.3154-1.2947,0.7518-1.8147,1.3094
		c-0.5209,0.5575-0.9315,1.2098-1.2322,1.9577c-0.3007,0.7479-0.4506,1.5544-0.4506,2.4195s0.1499,1.6755,0.4506,2.4303
		c0.3007,0.7557,0.7113,1.408,1.2322,1.9577c0.5199,0.5497,1.1253,0.9823,1.8147,1.2977c0.6889,0.3154,1.4295,0.4736,2.2213,0.4736
		S74.3532,196.2224,75.0426,195.907z M96.4674,195.1923c-0.4545,0.6308-0.9828,1.1658-1.5837,1.6062
		c-0.6015,0.4394-1.2688,0.7802-2.0016,1.0223c-0.7338,0.2422-1.5105,0.3632-2.3317,0.3632c-1.0413,0-2.0236-0.2089-2.9478-0.6268
		c-0.9237-0.4179-1.7268-0.9862-2.4088-1.7048c-0.6815-0.7186-1.2205-1.5623-1.6164-2.5299s-0.5941-2.0016-0.5941-3.1011
		c0-1.1004,0.1982-2.1305,0.5941-3.0913c0.3959-0.9598,0.9349-1.7995,1.6164-2.5182c0.682-0.7186,1.4851-1.2869,2.4088-1.7048
		c0.9242-0.4179,1.9064-0.6268,2.9478-0.6268c0.8651,0,1.6716,0.125,2.4195,0.374c0.7479,0.25,1.4187,0.5976,2.0129,1.0448
		c0.5937,0.4472,1.1068,0.9823,1.5398,1.6062c0.4321,0.623,0.7733,1.3084,1.0228,2.0563h-1.9577
		c-0.4257-0.9676-1.0599-1.7595-1.903-2.3756c-0.8431-0.6161-1.8884-0.9237-3.1343-0.9237c-0.7919,0-1.5325,0.1611-2.2218,0.4843
		c-0.6893,0.3222-1.2942,0.7655-1.8147,1.3299c-0.5209,0.5653-0.9315,1.2215-1.2317,1.9694
		c-0.3007,0.7479-0.4511,1.5398-0.4511,2.3756c0,0.8358,0.1504,1.6277,0.4511,2.3756c0.3002,0.7479,0.7108,1.4041,1.2317,1.9684
		c0.5204,0.5644,1.1253,1.0086,1.8147,1.3308c0.6893,0.3222,1.4299,0.4843,2.2218,0.4843c1.1287,0,2.1335-0.2978,3.0132-0.8915
		c0.8802-0.5937,1.5544-1.3963,2.0241-2.4088h1.9577C97.2813,193.8585,96.922,194.5625,96.4674,195.1923z M110.391,182.8857
		c0.9242,0.4033,1.7268,0.9598,2.4088,1.6716c0.682,0.7108,1.2171,1.5505,1.6057,2.5182s0.5829,2.0163,0.5829,3.146
		c0,1.1141-0.1977,2.1559-0.5937,3.1235c-0.3959,0.9676-0.9349,1.8112-1.6169,2.5289c-0.682,0.7186-1.4846,1.284-2.4088,1.6941
		c-0.9237,0.4101-1.9064,0.6161-2.9473,0.6161c-1.0418,0-2.0241-0.206-2.9478-0.6161s-1.7268-0.9754-2.4088-1.6941
		c-0.6815-0.7177-1.2205-1.5613-1.6164-2.5289c-0.3959-0.9676-0.5941-2.0094-0.5941-3.1235c0-1.1151,0.1982-2.152,0.5941-3.1128
		c0.3959-0.9608,0.9349-1.7995,1.6164-2.5191c0.682-0.7177,1.4851-1.283,2.4088-1.6931c0.9237-0.4101,1.906-0.6161,2.9478-0.6161
		C108.4773,182.2803,109.4673,182.4824,110.391,182.8857z M109.6431,195.907c0.6893-0.3154,1.2942-0.7509,1.8151-1.3084
		c0.5199-0.5575,0.931-1.2098,1.2317-1.9577c0.3002-0.7479,0.4506-1.5544,0.4506-2.4195c0-0.8797-0.1465-1.6941-0.4399-2.442
		s-0.6967-1.3963-1.2098-1.947c-0.5136-0.5497-1.1185-0.9823-1.8147-1.2977c-0.6967-0.3154-1.4485-0.4726-2.2545-0.4726
		c-0.7919,0-1.533,0.1572-2.2218,0.4726c-0.6893,0.3154-1.2942,0.7518-1.8147,1.3094c-0.5209,0.5575-0.9315,1.2098-1.2317,1.9577
		c-0.3007,0.7479-0.4511,1.5544-0.4511,2.4195s0.1504,1.6755,0.4511,2.4303c0.3002,0.7557,0.7108,1.408,1.2317,1.9577
		c0.5204,0.5497,1.1253,0.9823,1.8147,1.2977c0.6889,0.3154,1.43,0.4736,2.2218,0.4736
		C108.2136,196.3806,108.9538,196.2224,109.6431,195.907z M133.1579,197.9194h-1.8698v-12.7792l-4.4656,12.7792h-2.0016
		l-4.4651-12.7792v12.7792h-1.8698v-15.2652h2.8594l4.4876,12.8681l4.4871-12.8681h2.8379V197.9194z"/>
	<path class="st1" d="M17.3454,216.7807c0.8402,0.3671,1.5701,0.8729,2.1896,1.5193c0.62,0.6474,1.1068,1.4099,1.4602,2.2897
		c0.353,0.8807,0.5297,1.8337,0.5297,2.8599c0,1.0135-0.1801,1.9596-0.54,2.8394s-0.85,1.6472-1.47,2.2995
		c-0.6195,0.6542-1.3494,1.1668-2.1896,1.5398c-0.8397,0.373-1.7331,0.5605-2.6793,0.5605c-0.9471,0-1.84-0.1875-2.6798-0.5605
		c-0.8397-0.373-1.5701-0.8856-2.1896-1.5398c-0.62-0.6523-1.1102-1.4197-1.47-2.2995c-0.3598-0.8797-0.54-1.8259-0.54-2.8394
		c0-1.0125,0.1801-1.9557,0.54-2.8296c0.3598-0.8729,0.85-1.6365,1.47-2.2897c0.6195-0.6532,1.3499-1.1658,2.1896-1.5398
		c0.8397-0.373,1.7326-0.5595,2.6798-0.5595C15.6059,216.231,16.5057,216.4146,17.3454,216.7807z M16.6658,228.6187
		c0.6264-0.2861,1.1761-0.6825,1.6496-1.1902c0.4731-0.5058,0.8465-1.0994,1.1199-1.779c0.2729-0.6796,0.4096-1.4129,0.4096-2.1998
		c0-0.7997-0.1333-1.5398-0.3998-2.2194c-0.267-0.6806-0.6332-1.2703-1.0999-1.7702c-0.4667-0.4999-1.0164-0.8924-1.6496-1.1795
		c-0.6332-0.2861-1.3167-0.4296-2.0495-0.4296c-0.7201,0-1.3933,0.1435-2.0197,0.4296c-0.6269,0.2871-1.1771,0.6835-1.6501,1.1902
		c-0.4731,0.5058-0.8465,1.0994-1.1199,1.779s-0.4096,1.4138-0.4096,2.1999c0,0.787,0.1362,1.5232,0.4096,2.2096
		s0.6469,1.2801,1.1199,1.78c0.4731,0.4999,1.0233,0.8934,1.6501,1.1795c0.6264,0.2871,1.2996,0.4296,2.0197,0.4296
		C15.3657,229.0483,16.0389,228.9057,16.6658,228.6187z M32.7033,227.8893l2.1793-7.739h1.78l-3.0796,10.2982h-1.78l-2.1994-7.8786
		l-2.1998,7.8786h-1.7595l-3.0796-10.2982h1.7795l2.1998,7.739l2.1998-7.739h1.7595L32.7033,227.8893z M46.9808,230.4485h-1.6799
		v-6.2588c0-0.7997-0.2133-1.4568-0.6395-1.9694c-0.4267-0.5136-1.0535-0.7704-1.8796-0.7704c-0.3871,0-0.747,0.0703-1.0799,0.2099
		c-0.3334,0.1396-0.62,0.33-0.8602,0.5702c-0.2397,0.2402-0.4267,0.5234-0.5595,0.8495c-0.1338,0.3271-0.2002,0.6835-0.2002,1.0701
		v6.2988h-1.6999v-10.2982h1.6399v1.1199c0.3466-0.4267,0.7762-0.7635,1.2898-1.0106c0.5131-0.2461,1.0828-0.3691,1.7097-0.3691
		c0.6264,0,1.1863,0.1064,1.6799,0.3193c0.4931,0.2138,0.9095,0.5136,1.2498,0.9003c0.3398,0.3867,0.5966,0.8465,0.7699,1.3797
		c0.1728,0.5331,0.2597,1.1199,0.2597,1.7595V230.4485z M59.6786,232.4277c-0.3598,0.9608-0.8431,1.6404-1.4495,2.0407
		c-0.6068,0.3994-1.43,0.5458-2.4698,0.4394v-1.5593c0.333,0.0264,0.6229,0.0166,0.87-0.0303c0.2465-0.0469,0.4599-0.1299,0.64-0.25
		c0.1797-0.1201,0.3364-0.2802,0.4697-0.4804c0.1333-0.1992,0.2534-0.453,0.3603-0.7596l0.5395-1.4392l-3.9393-10.2386h1.84
		l2.9995,8.1989l2.9395-8.1989h1.8195L59.6786,232.4277z M72.5271,220.3202c0.6327,0.2871,1.1795,0.6767,1.6394,1.1697
		c0.4599,0.4931,0.8231,1.0701,1.0902,1.7302c0.2666,0.6591,0.3998,1.3631,0.3998,2.109c0,0.7469-0.1333,1.4431-0.3998,2.0895
		c-0.2671,0.6474-0.6303,1.2137-1.0902,1.6999c-0.4599,0.4872-1.0067,0.87-1.6394,1.1502c-0.6337,0.2793-1.3167,0.4199-2.05,0.4199
		c-0.7333,0-1.4133-0.1406-2.0397-0.4199c-0.6269-0.2802-1.1731-0.663-1.6399-1.1502c-0.4667-0.4863-0.8329-1.0526-1.0994-1.6999
		c-0.267-0.6464-0.4003-1.3426-0.4003-2.0895c0-0.746,0.1333-1.45,0.4003-2.109c0.2666-0.66,0.6327-1.2371,1.0994-1.7302
		c0.4667-0.4931,1.013-0.8827,1.6399-1.1697c0.6264-0.2871,1.3064-0.4296,2.0397-0.4296
		C71.2104,219.8906,71.8934,220.0331,72.5271,220.3202z M71.827,228.8286c0.4199-0.2002,0.7899-0.4697,1.1097-0.8094
		c0.3203-0.3408,0.5702-0.743,0.7499-1.2098c0.1801-0.4667,0.27-0.9598,0.27-1.4802c0-0.5331-0.0898-1.036-0.27-1.5095
		c-0.1797-0.4736-0.4296-0.8827-0.7499-1.2303c-0.3198-0.3456-0.6898-0.6229-1.1097-0.8299c-0.4199-0.206-0.87-0.3095-1.3499-0.3095
		s-0.93,0.1035-1.3499,0.3095c-0.4199,0.207-0.7865,0.4843-1.0994,0.8299c-0.3134,0.3476-0.56,0.7567-0.7401,1.2303
		c-0.1801,0.4736-0.27,0.9764-0.27,1.5095c0,0.5204,0.0898,1.0135,0.27,1.4802c0.1802,0.4667,0.4267,0.869,0.7401,1.2098
		c0.3129,0.3398,0.6796,0.6093,1.0994,0.8094c0.4199,0.2002,0.87,0.2998,1.3499,0.2998S71.4072,229.0288,71.827,228.8286z
		 M86.4946,230.4485h-1.6399v-1.1199c-0.3466,0.4267-0.7733,0.7596-1.2796,0.9998c-0.5068,0.2402-1.0799,0.3603-1.7199,0.3603
		c-0.6269,0-1.1868-0.1074-1.6799-0.3203s-0.9095-0.5126-1.2498-0.8993c-0.3398-0.3867-0.5966-0.8436-0.7699-1.3699
		c-0.1733-0.5273-0.2597-1.1102-0.2597-1.7497v-6.1992h1.6799v6.2783c0,0.827,0.2163,1.4871,0.6498,1.9801
		c0.433,0.4931,1.0628,0.7401,1.8898,0.7401c0.373,0,0.7225-0.0664,1.0496-0.2002c0.3266-0.1328,0.6098-0.3203,0.85-0.5595
		c0.2397-0.2402,0.4301-0.5234,0.5697-0.8505c0.1401-0.3261,0.2099-0.6825,0.2099-1.0692v-6.3193h1.6999V230.4485z
		 M94.5129,221.5895c-0.4394-0.0264-0.8592,0.0137-1.2596,0.1201c-0.4003,0.1074-0.7499,0.2802-1.0496,0.5204
		c-0.2998,0.2402-0.54,0.5468-0.7196,0.9198c-0.1806,0.373-0.2705,0.8202-0.2705,1.3396v5.959h-1.6999v-10.2982h1.6404v1.16
		c0.1992-0.2802,0.4296-0.5165,0.6893-0.7099s0.54-0.3466,0.8397-0.4599c0.3007-0.1133,0.6073-0.1904,0.9198-0.2304
		c0.3134-0.04,0.6171-0.04,0.91,0V221.5895z M112.1107,230.4485h-1.6404v-1.6599c-0.3593,0.5331-0.8534,0.9872-1.4793,1.3601
		c-0.6269,0.373-1.3201,0.5595-2.0798,0.5595c-0.747,0-1.4334-0.1396-2.0602-0.4199c-0.6269-0.2802-1.1697-0.6659-1.6296-1.16
		c-0.4599-0.4931-0.8202-1.0662-1.0799-1.7195c-0.2597-0.6532-0.3896-1.3533-0.3896-2.0993c0-0.7469,0.1299-1.45,0.3896-2.11
		c0.2597-0.66,0.62-1.2332,1.0799-1.7195c0.4599-0.4863,1.0028-0.8729,1.6296-1.16c0.6269-0.2871,1.3133-0.4296,2.0602-0.4296
		c0.746,0,1.4226,0.1767,2.029,0.5292c0.6073,0.3535,1.0965,0.7831,1.4705,1.2898v-6.1387h1.6999V230.4485z M110.1306,223.8294
		c-0.1865-0.4667-0.4404-0.8768-0.7596-1.2293c-0.3203-0.3535-0.6903-0.6298-1.1102-0.8299s-0.87-0.2998-1.3494-0.2998
		c-0.4804,0-0.9334,0.0996-1.3601,0.2998s-0.7928,0.4765-1.0994,0.8299c-0.3076,0.3525-0.5507,0.7626-0.7304,1.2293
		c-0.1797,0.4667-0.2695,0.9666-0.2695,1.4998c0,0.5204,0.0898,1.0135,0.2695,1.4802s0.4228,0.8729,0.7304,1.2195
		c0.3066,0.3466,0.6727,0.62,1.0994,0.8202c0.4267,0.1992,0.8797,0.2998,1.3601,0.2998c0.4794,0,0.9295-0.1006,1.3494-0.2998
		c0.4199-0.2002,0.7899-0.4736,1.1102-0.8202c0.3193-0.3466,0.5732-0.7528,0.7596-1.2195c0.1865-0.4667,0.2802-0.9598,0.2802-1.4802
		C110.4108,224.7961,110.3171,224.2961,110.1306,223.8294z M122.0388,229.9281c-0.0469-0.1992-0.0771-0.4199-0.0898-0.6591
		c-0.374,0.453-0.8573,0.8026-1.45,1.0496c-0.5937,0.246-1.2898,0.3701-2.0895,0.3701c-0.5341,0-1.0438-0.0605-1.53-0.1806
		c-0.4872-0.1191-0.9129-0.3095-1.2801-0.5692c-0.3671-0.2607-0.66-0.5898-0.8797-0.9901c-0.2197-0.4003-0.33-0.8797-0.33-1.4402
		c0-1.0662,0.3662-1.8522,1.1004-2.359c0.7323-0.5068,1.7653-0.7928,3.0991-0.8602c0.6269-0.0264,1.1531-0.0762,1.5798-0.1494
		c0.4267-0.0732,0.7694-0.1699,1.0301-0.29c0.2597-0.1201,0.4462-0.2607,0.5595-0.4208c0.1133-0.1592,0.1699-0.3398,0.1699-0.539
		c0-0.414-0.2002-0.7567-0.5995-1.0301c-0.4003-0.2734-1.0399-0.4101-1.9196-0.4101c-0.2675,0-0.5507,0.0264-0.8505,0.0801
		c-0.2998,0.0537-0.5771,0.1465-0.8299,0.2802c-0.2529,0.1328-0.4736,0.3193-0.6601,0.5595
		c-0.1865,0.2402-0.2998,0.5468-0.3398,0.9198h-1.7595c0.0664-1.0399,0.4931-1.8659,1.2801-2.4791
		c0.786-0.6132,1.8464-0.9198,3.1792-0.9198c1.3865,0,2.4264,0.2929,3.1196,0.8797s1.0399,1.3592,1.0399,2.319v5.6798
		c0,0.2666,0.0303,0.5634,0.0898,0.8895c0.0605,0.3271,0.1299,0.5898,0.2099,0.7899h-1.6794
		C122.1414,230.302,122.0847,230.1282,122.0388,229.9281z M121.9285,224.9093c-0.3466,0.3066-0.7997,0.5097-1.3592,0.6102
		c-0.5605,0.0996-1.1473,0.1699-1.7605,0.2099c-0.5595,0.04-1.0164,0.1133-1.3699,0.2197
		c-0.3535,0.1064-0.6327,0.2402-0.8397,0.4003c-0.207,0.1591-0.3466,0.3398-0.4199,0.5399
		c-0.0732,0.1992-0.1103,0.4062-0.1103,0.619c0,0.2802,0.0635,0.5204,0.1904,0.7206c0.1269,0.1992,0.2998,0.3661,0.5194,0.4999
		c0.2207,0.1328,0.4736,0.2295,0.7606,0.29c0.2861,0.0596,0.5966,0.0898,0.9295,0.0898c0.4404,0,0.8661-0.0498,1.2801-0.1504
		c0.413-0.0996,0.7792-0.2529,1.0994-0.4599c0.3203-0.206,0.5771-0.4765,0.7704-0.8094c0.1924-0.333,0.2959-0.7333,0.3095-1.2
		V224.9093z M130.9066,230.4485c-0.5995,0.0664-1.1492,0.0332-1.6492-0.0996c-0.4999-0.1338-0.9266-0.3632-1.2801-0.6903
		c-0.3535-0.3261-0.6298-0.7401-0.8299-1.24s-0.2998-1.076-0.2998-1.7292v-4.9191h-1.4002v-1.6199h1.4002v-2.1999h1.6794v2.1999
		h2.3395v1.6199h-2.3395v4.9191c0,0.453,0.0635,0.827,0.1904,1.1199c0.1259,0.2929,0.2998,0.5233,0.5194,0.6893
		c0.2207,0.167,0.4736,0.2802,0.7606,0.3398c0.2861,0.0605,0.5897,0.0771,0.909,0.0508V230.4485z M139.8358,229.9281
		c-0.0469-0.1992-0.0771-0.4199-0.0898-0.6591c-0.374,0.453-0.8573,0.8026-1.45,1.0496c-0.5937,0.246-1.2898,0.3701-2.0905,0.3701
		c-0.5331,0-1.0428-0.0605-1.5291-0.1806c-0.4872-0.1191-0.9139-0.3095-1.2801-0.5692c-0.3671-0.2607-0.66-0.5898-0.8797-0.9901
		c-0.2197-0.4003-0.33-0.8797-0.33-1.4402c0-1.0662,0.3661-1.8522,1.0994-2.359c0.7333-0.5068,1.7663-0.7928,3.1001-0.8602
		c0.6259-0.0264,1.1531-0.0762,1.5798-0.1494c0.4267-0.0732,0.7694-0.1699,1.0301-0.29c0.2597-0.1201,0.4462-0.2607,0.5595-0.4208
		c0.1133-0.1592,0.1699-0.3398,0.1699-0.539c0-0.414-0.2002-0.7567-0.5995-1.0301c-0.4003-0.2734-1.0399-0.4101-1.9206-0.4101
		c-0.2666,0-0.5497,0.0264-0.8495,0.0801c-0.2998,0.0537-0.5771,0.1465-0.83,0.2802c-0.2529,0.1328-0.4736,0.3193-0.66,0.5595
		c-0.1865,0.2402-0.2998,0.5468-0.3398,0.9198h-1.7595c0.0664-1.0399,0.4931-1.8659,1.2801-2.4791
		c0.786-0.6132,1.8464-0.9198,3.1792-0.9198c1.3865,0,2.4264,0.2929,3.1196,0.8797s1.0399,1.3592,1.0399,2.319v5.6798
		c0,0.2666,0.0303,0.5634,0.0898,0.8895c0.0596,0.3271,0.1299,0.5898,0.2099,0.7899h-1.6794
		C139.9384,230.302,139.8817,230.1282,139.8358,229.9281z M139.7255,224.9093c-0.3466,0.3066-0.7997,0.5097-1.3601,0.6102
		c-0.5595,0.0996-1.1463,0.1699-1.7595,0.2099c-0.5595,0.04-1.0164,0.1133-1.3699,0.2197
		c-0.3535,0.1064-0.6327,0.2402-0.8397,0.4003c-0.207,0.1591-0.3466,0.3398-0.4199,0.5399
		c-0.0732,0.1992-0.1103,0.4062-0.1103,0.619c0,0.2802,0.0635,0.5204,0.1904,0.7206c0.1259,0.1992,0.2998,0.3661,0.5194,0.4999
		c0.2207,0.1328,0.4736,0.2295,0.7606,0.29c0.2861,0.0596,0.5956,0.0898,0.9296,0.0898c0.4394,0,0.8661-0.0498,1.2801-0.1504
		c0.413-0.0996,0.7792-0.2529,1.0994-0.4599c0.3203-0.206,0.5771-0.4765,0.7704-0.8094c0.1924-0.333,0.2959-0.7333,0.3095-1.2
		V224.9093z M146.5643,230.4485h-1.9001v-1.9792h1.9001V230.4485z M146.4647,226.909h-1.6999v-10.3382h1.6999V226.909z"/>
	<g>
		<g>
			<g>
				<path class="st1" d="M70.4783,158.6679c0.0583,0.0054,0.1107,0.0108,0.1637,0.0211c3.4029,0.2717,6.7425,0.2425,10.0762,0.0923
					c0.2956-1.3506,0.6066-2.6956,1.0345-4.0014c6.0878-18.7365,24.0723-30.7516,43.745-29.206
					c4.7799,0.3722,9.3112,1.5672,13.4845,3.3764c2.1311-2.6536,4.0834-5.4443,5.856-8.3723
					c-5.6714-2.7298-11.9126-4.5211-18.56-5.0408c-24.3203-1.907-46.5676,12.9437-54.1064,36.1299
					C71.4334,153.9518,70.9007,156.2964,70.4783,158.6679"/>
			</g>
		</g>
		<g>
			<g>
				<path class="st2" d="M57.3477,156.4179c0.5381-3.015,1.2447-5.9959,2.1842-8.892c9.4327-29.0314,37.3087-47.641,67.7858-45.2489
					c8.2773,0.6439,16.1801,2.8465,23.4451,6.3417c0.5959-1.4959,1.1971-2.9966,1.693-4.5476
					c0.6121-1.8466,1.1188-3.7378,1.5829-5.6502c-8.0714-3.6957-16.7766-6.0564-25.8928-6.769
					c-35.399-2.7773-67.7804,18.8472-78.7538,52.5846c-0.939,2.9177-1.7093,5.8927-2.3004,8.9184
					C50.389,154.4898,53.8443,155.5314,57.3477,156.4179"/>
			</g>
		</g>
		<g>
			<g>
				<path class="st1" d="M152.4611,104.0711c0.6277-1.9286,1.1611-3.9042,1.6304-5.8982
					c-13.21-8.0061-21.5774-22.9648-20.3004-39.3984c0.2637-3.3341,0.918-6.6236,1.941-9.773
					c1.6304-5.0301,4.1523-9.5463,7.3072-13.4683c-2.0157-3.0366-4.2155-5.943-6.6422-8.6706
					c-4.748,5.3336-8.4782,11.6855-10.8044,18.8445c-1.282,3.9484-2.089,8.0585-2.4218,12.2339
					c-1.672,21.4744,9.8077,40.9703,27.6075,50.6192C151.3742,107.0806,151.9652,105.6008,152.4611,104.0711"/>
			</g>
		</g>
		<g>
			<g>
				<path class="st3" d="M139.1296,128.7817c2.0842-2.6296,4.0095-5.3918,5.7507-8.288
					c-22.5267-11.9967-37.077-36.5492-34.9615-63.5948c0.4117-5.2331,1.4192-10.3983,3.0333-15.3413
					c2.9598-9.1136,7.7344-17.2066,13.8275-23.9485c-2.6217-2.1101-5.3866-4.0306-8.2562-5.8004
					c-6.6366,7.5782-11.8703,16.5464-15.1408,26.6307c-1.8518,5.7057-3.0284,11.6488-3.5136,17.6706
					C97.4634,86.846,113.7647,114.7593,139.1296,128.7817"/>
			</g>
		</g>
		<g>
			<g>
				<path class="st0" d="M82.5544,63.3378c2.4532-7.5518,4.0252-15.4335,4.6427-23.4288
					c1.0864-13.8616-0.6861-27.3038-4.8275-39.7279c-4.4892-0.3138-8.9104-0.2058-13.2365,0.2161
					c4.5584,11.9125,6.6318,24.9907,5.5713,38.5334c-0.5488,7.0008-1.9204,13.922-4.0678,20.5349
					c-9.7175,29.8942-33.9956,51.5138-63.2281,58.5961c2.1529,3.8804,4.6795,7.5205,7.4443,10.9838
					C46.2158,119.9108,71.966,95.9358,82.5544,63.3378"/>
			</g>
		</g>
		<g>
			<g>
				<path class="st1" d="M47.3082,5.7314c8.5252,13.7875,23.223,23.505,40.5852,24.8718
					c14.6448,1.1495,28.5144-3.8145,38.8969-12.981c-2.6909-2.1814-5.5557-4.149-8.5306-5.9695
					c-8.1562,6.4076-18.602,9.7785-29.5858,8.9131c-13.1678-1.0361-24.4736-8.0055-31.5165-18.0716
					C53.7811,3.3543,50.5052,4.4467,47.3082,5.7314"/>
			</g>
		</g>
		<g>
			<g>
				<path class="st2" d="M26.6912,17.8728C39.0521,38.1629,60.576,52.4913,86.0048,54.4831
					c21.4609,1.6801,41.7775-5.6399,56.9236-19.14c-1.9945-2.9599-4.1575-5.7955-6.5102-8.4648
					c-13.0836,11.9546-30.8305,18.454-49.5696,16.9846c-22.1626-1.738-40.8855-14.3413-51.4582-32.1362
					C32.357,13.5889,29.4501,15.6358,26.6912,17.8728"/>
			</g>
		</g>
		<g>
			<g>
				<path class="st0" d="M153.6745,59.2651c-1.108-4.231-2.4797-8.3458-4.2467-12.2841
					c-17.4411,14.9961-40.501,23.0831-64.8422,21.1761c-23.64-1.8594-45.1435-12.8091-60.5587-30.8358
					c-2.6644-3.1339-5.0014-6.4493-7.2012-9.852c-2.8328,3.2602-5.413,6.7474-7.6868,10.4613
					c1.7731,2.4979,3.6455,4.9273,5.661,7.2828c17.5097,20.4851,41.9568,32.9383,68.836,35.0511
					C109.613,82.3011,134.3448,74.3535,153.6745,59.2651"/>
			</g>
		</g>
	</g>
</g>
</svg>
