<svg width="106" height="115" viewBox="0 0 106 115" xmlns="http://www.w3.org/2000/svg"><title>logo</title><desc>Created with Sketch.</desc><g fill-rule="nonzero" fill="none"><path d="M45.36 114.115c.042.004.08.008.118.015 2.447.195 4.85.174 7.247.066.213-.97.436-1.94.744-2.878C57.846 97.843 70.78 89.2 84.93 90.313c3.44.268 6.698 1.127 9.7 2.428 1.532-1.908 2.936-3.915 4.21-6.02-4.078-1.963-8.567-3.252-13.347-3.625C68 81.723 52 92.405 46.578 109.08c-.53 1.643-.914 3.33-1.218 5.035" fill="#A3A3A2"/><path d="M35.916 112.496c.387-2.168.895-4.312 1.57-6.395C44.272 85.22 64.32 71.838 86.24 73.56c5.952.463 11.636 2.047 16.86 4.56.43-1.075.862-2.154 1.22-3.27.44-1.328.804-2.688 1.137-4.064-5.805-2.658-12.066-4.356-18.622-4.868-25.46-1.997-48.748 13.555-56.64 37.82-.675 2.097-1.23 4.237-1.654 6.413 2.372.96 4.857 1.71 7.376 2.346" fill="#7E7E7C"/><path d="M104.322 74.848c.45-1.387.835-2.808 1.173-4.242-9.5-5.758-15.52-16.516-14.6-28.335.19-2.397.66-4.763 1.396-7.028 1.174-3.618 2.987-6.866 5.256-9.686-1.45-2.184-3.032-4.274-4.777-6.236-3.416 3.836-6.1 8.404-7.772 13.553-.922 2.84-1.502 5.796-1.742 8.8-1.203 15.443 7.054 29.465 19.855 36.405.43-1.065.856-2.13 1.212-3.23" fill="#A3A3A2"/><path d="M94.734 92.62c1.5-1.89 2.884-3.878 4.136-5.96-16.2-8.63-26.666-26.287-25.144-45.74.296-3.763 1.02-7.478 2.182-11.033 2.13-6.555 5.563-12.375 9.945-17.224-1.886-1.518-3.874-2.9-5.938-4.172-4.773 5.45-8.537 11.9-10.89 19.154-1.33 4.104-2.177 8.378-2.526 12.71-1.732 22.106 9.992 42.18 28.234 52.266" fill="#80807F"/><path d="M54.045 45.553c1.764-5.43 2.895-11.1 3.34-16.85.78-9.97-.494-19.637-3.473-28.572-3.23-.225-6.408-.147-9.52.156C47.67 8.854 49.162 18.26 48.4 28c-.396 5.034-1.382 10.012-2.927 14.768C38.485 64.268 21.023 79.818 0 84.91c1.548 2.79 3.365 5.41 5.354 7.9 22.556-6.57 41.076-23.813 48.69-47.257" fill="#575756"/><path d="M28.696 4.122c6.13 9.916 16.702 16.905 29.19 17.888 10.532.827 20.507-2.743 27.974-9.336-1.935-1.57-3.996-2.984-6.135-4.293-5.866 4.61-13.38 7.034-21.278 6.41-9.47-.744-17.602-5.757-22.667-12.996-2.43.618-4.785 1.404-7.084 2.328" fill="#A3A3A2"/><path d="M13.868 12.854c8.89 14.593 24.37 24.898 42.66 26.33 15.434 1.208 30.046-4.056 40.94-13.766-1.435-2.13-2.99-4.168-4.683-6.088-9.41 8.598-22.173 13.272-35.65 12.215-15.94-1.25-29.406-10.314-37.01-23.112-2.182 1.34-4.273 2.812-6.257 4.42" fill="#7E7E7C"/><path d="M105.195 42.624c-.797-3.043-1.783-6.002-3.054-8.835-12.543 10.784-29.128 16.6-46.634 15.23C38.504 47.68 23.04 39.806 11.952 26.84c-1.916-2.254-3.597-4.638-5.18-7.086C4.737 22.1 2.88 24.61 1.246 27.28c1.275 1.797 2.622 3.544 4.07 5.238 12.594 14.733 30.177 23.69 49.508 25.21 18.683 1.463 36.47-4.253 50.372-15.104" fill="#575756"/></g></svg>