<?xml version="1.0" encoding="UTF-8"?>
<svg width="106px" height="147px" viewBox="0 0 106 147" version="1.1" xmlns="http://www.w3.org/2000/svg" xmlns:xlink="http://www.w3.org/1999/xlink">
    <!-- Generator: Sketch 42 (36781) - http://www.bohemiancoding.com/sketch -->
    <title>logo_start</title>
    <desc>Created with Sketch.</desc>
    <defs></defs>
    <g id="Page-1" stroke="none" stroke-width="1" fill="none" fill-rule="evenodd">
        <g id="logo_start" fill-rule="nonzero">
            <g id="Group">
                <path d="M11.072,144.360094 C10.9003547,144.880949 10.6244118,145.361382 10.261,145.772094 C9.8990008,146.174144 9.44989892,146.488139 8.948,146.690094 C8.426,146.907094 7.835,147.014094 7.175,147.014094 C6.60375067,147.020344 6.03722082,146.910101 5.51,146.690094 C5.0139006,146.484467 4.5640424,146.181501 4.187,145.799094 C3.815,145.422094 3.524,144.981094 3.314,144.477094 C3.104,143.973094 3,143.426094 3,142.838094 L4.512,142.838094 C4.512,143.199094 4.572,143.543094 4.692,143.873094 C4.812,144.203094 4.986,144.492094 5.214,144.738094 C5.442,144.984094 5.721,145.177094 6.051,145.322094 C6.381,145.467094 6.756,145.539094 7.176,145.539094 C8.076,145.539094 8.744,145.268094 9.183,144.728094 C9.621,144.187094 9.84,143.468094 9.84,142.568094 L9.84,134.306094 L11.352,134.306094 L11.352,142.568094 C11.3565554,143.176665 11.2619846,143.781919 11.072,144.360094 L11.072,144.360094 Z M22.582,134.497094 C23.338,134.827094 23.994,135.282094 24.553,135.864094 C25.111,136.446094 25.549,137.134094 25.866,137.925094 C26.184,138.718094 26.344,139.575094 26.344,140.499094 C26.3568467,142.216374 25.7091983,143.872907 24.535,145.126094 C23.977,145.714094 23.32,146.175094 22.564,146.511094 C21.808,146.847094 21.004,147.015094 20.152,147.015094 C19.3,147.015094 18.496,146.847094 17.74,146.511094 C16.984,146.175094 16.327,145.714094 15.769,145.126094 C15.211,144.538094 14.77,143.847094 14.446,143.056094 C14.122,142.263094 13.961,141.411094 13.961,140.499094 C13.9451269,138.787088 14.5931419,137.13551 15.769,135.891094 C16.326,135.303094 16.984,134.840094 17.74,134.504094 C18.496,134.168094 19.301,134.000094 20.152,134.000094 C20.9877028,133.995437 21.8152351,134.16469 22.582,134.497094 L22.582,134.497094 Z M21.97,145.151094 C22.53076,144.895918 23.0354602,144.532262 23.455,144.081094 C23.881,143.626094 24.217,143.091094 24.463,142.479094 C24.7121244,141.848947 24.8374112,141.176676 24.832,140.499094 C24.832,139.780094 24.712,139.114094 24.472,138.501094 C24.2462654,137.912287 23.9102575,137.371959 23.482,136.909094 C23.0634708,136.459256 22.5588148,136.098107 21.998,135.847094 C21.4176197,135.586958 20.7879918,135.454961 20.152,135.460094 C19.505,135.460094 18.898,135.589094 18.335,135.847094 C17.7743596,136.102475 17.2696973,136.466104 16.85,136.917094 C16.424,137.374094 16.087,137.907094 15.842,138.519094 C15.5927789,139.149212 15.4674886,139.821502 15.473,140.499094 C15.473,141.208094 15.596,141.870094 15.842,142.489094 C16.087,143.106094 16.424,143.639094 16.85,144.091094 C17.276,144.540094 17.771,144.894094 18.335,145.152094 C18.898,145.412094 19.505,145.541094 20.152,145.541094 C20.7791741,145.545076 21.3996442,145.411972 21.97,145.151094 L21.97,145.151094 Z M37.18,146.800094 L29.224,146.800094 L29.224,134.307094 L30.754,134.307094 L30.754,145.323094 L37.18,145.323094 L37.18,146.800094 Z M47.693,134.497094 C48.449,134.827094 49.105,135.282094 49.664,135.864094 C50.222,136.446094 50.66,137.134094 50.977,137.925094 C51.295,138.718094 51.455,139.575094 51.455,140.499094 C51.4678467,142.216374 50.8201983,143.872907 49.646,145.126094 C49.088,145.714094 48.431,146.175094 47.675,146.511094 C46.919,146.847094 46.115,147.015094 45.263,147.015094 C44.411,147.015094 43.607,146.847094 42.851,146.511094 C42.095,146.175094 41.438,145.714094 40.88,145.126094 C40.322,144.538094 39.881,143.847094 39.557,143.056094 C39.233,142.263094 39.072,141.411094 39.072,140.499094 C39.0561269,138.787088 39.7041419,137.13551 40.88,135.891094 C41.437,135.303094 42.095,134.840094 42.851,134.504094 C43.607,134.168094 44.412,134.000094 45.263,134.000094 C46.0986827,133.995641 46.9261735,134.164885 47.693,134.497094 L47.693,134.497094 Z M47.08,145.151094 C47.64076,144.895918 48.1454602,144.532262 48.565,144.081094 C48.991,143.626094 49.327,143.091094 49.573,142.479094 C49.8221244,141.848947 49.9474112,141.176676 49.942,140.499094 C49.942,139.780094 49.822,139.114094 49.582,138.501094 C49.3562654,137.912287 49.0202575,137.371959 48.592,136.909094 C48.1734708,136.459256 47.6688148,136.098107 47.108,135.847094 C46.5276197,135.586958 45.8979918,135.454961 45.262,135.460094 C44.615,135.460094 44.008,135.589094 43.445,135.847094 C42.8843596,136.102475 42.3796973,136.466104 41.96,136.917094 C41.534,137.374094 41.197,137.907094 40.952,138.519094 C40.7027789,139.149212 40.5774886,139.821502 40.583,140.499094 C40.583,141.208094 40.706,141.870094 40.952,142.489094 C41.197,143.106094 41.534,143.639094 41.96,144.091094 C42.386,144.540094 42.881,144.894094 43.445,145.152094 C44.008,145.412094 44.615,145.541094 45.262,145.541094 C45.889184,145.545173 46.5096749,145.412064 47.08,145.151094 L47.08,145.151094 Z M64.612,144.567094 C64.2518607,145.070583 63.8144742,145.514044 63.316,145.881094 C62.8173575,146.24416 62.2645636,146.526294 61.678,146.717094 C61.0620998,146.918013 60.4178301,147.0183 59.77,147.014094 C58.918,147.014094 58.114,146.844094 57.358,146.502094 C56.602,146.160094 55.945,145.695094 55.387,145.106094 C54.8207351,144.505421 54.3719971,143.803992 54.064,143.038094 C53.74,142.245094 53.579,141.399094 53.579,140.499094 C53.579,139.599094 53.74,138.757094 54.064,137.970094 C54.388,137.185094 54.83,136.497094 55.387,135.909094 C55.944,135.321094 56.602,134.856094 57.358,134.514094 C58.114,134.172094 58.919,134.000094 59.77,134.000094 C60.478,134.000094 61.138,134.102094 61.75,134.307094 C62.9300976,134.691714 63.9513544,135.453002 64.657,136.474094 C65.011,136.986094 65.29,137.546094 65.494,138.158094 L63.891,138.158094 C63.5555581,137.382564 63.0177908,136.711478 62.334,136.215094 C61.644,135.711094 60.789,135.459094 59.769,135.459094 C59.1415328,135.454362 58.5208723,135.589288 57.952,135.854094 C57.3908657,136.117465 56.8864576,136.487704 56.467,136.944094 C56.0350769,137.414756 55.6933942,137.960838 55.459,138.555094 C55.213,139.166094 55.09,139.815094 55.09,140.498094 C55.09,141.181094 55.213,141.830094 55.459,142.441094 C55.704,143.054094 56.041,143.591094 56.467,144.052094 C56.893,144.515094 57.388,144.878094 57.952,145.142094 C58.5207929,145.407243 59.1414569,145.542512 59.769,145.538094 C60.693,145.538094 61.515,145.294094 62.235,144.808094 C62.956,144.324094 63.507,143.665094 63.891,142.837094 L65.494,142.837094 C65.2884798,143.454753 64.9911482,144.037954 64.612,144.567094 L64.612,144.567094 Z M76.006,134.497094 C76.762,134.827094 77.419,135.282094 77.977,135.864094 C78.536,136.446094 78.973,137.134094 79.291,137.925094 C79.608,138.718094 79.768,139.575094 79.768,140.499094 C79.768,141.411094 79.606,142.263094 79.283,143.056094 C78.959,143.847094 78.517,144.538094 77.96,145.126094 C77.403,145.714094 76.745,146.175094 75.989,146.511094 C75.2296296,146.847591 74.4075757,147.019364 73.577,147.015094 C72.724,147.015094 71.921,146.847094 71.165,146.511094 C70.409,146.175094 69.752,145.714094 69.193,145.126094 C68.019166,143.872752 67.3718827,142.216236 67.385,140.499094 C67.3716228,138.787549 68.0192854,137.136869 69.193,135.891094 C69.752,135.303094 70.409,134.840094 71.165,134.504094 C71.921,134.168094 72.725,134.000094 73.577,134.000094 C74.4123691,133.995547 75.2395527,134.164798 76.006,134.497094 L76.006,134.497094 Z M75.394,145.151094 C75.955054,144.896425 76.4598482,144.532701 76.879,144.081094 C77.305,143.626094 77.641,143.091094 77.887,142.479094 C78.133,141.867094 78.256,141.208094 78.256,140.499094 C78.256,139.780094 78.136,139.114094 77.896,138.501094 C77.6706091,137.912344 77.334939,137.372014 76.907,136.909094 C76.486,136.458094 75.992,136.104094 75.422,135.847094 C74.852,135.590094 74.236,135.460094 73.577,135.460094 C72.929,135.460094 72.323,135.589094 71.759,135.847094 C71.195,136.105094 70.699,136.462094 70.274,136.917094 C69.848,137.374094 69.512,137.907094 69.266,138.519094 C69.0167789,139.149212 68.8914886,139.821502 68.897,140.499094 C68.897,141.208094 69.02,141.870094 69.266,142.489094 C69.512,143.106094 69.848,143.639094 70.274,144.091094 C70.7,144.540094 71.195,144.894094 71.759,145.152094 C72.3292802,145.413091 72.9498508,145.545875 73.577,145.541094 C74.2038405,145.544962 74.8239607,145.41186 75.394,145.151094 Z M94.637,146.800094 L93.107,146.800094 L93.107,136.341094 L89.453,146.800094 L87.815,146.800094 L84.161,136.341094 L84.161,146.800094 L82.631,146.800094 L82.631,134.307094 L84.971,134.307094 L88.644,144.836094 L92.316,134.307094 L94.638,134.307094 L94.638,146.800094 L94.637,146.800094 Z" id="Shape" fill="#575757"></path>
                <g id="Shape">
                    <path d="M45.36,114.115 C45.402,114.119 45.44,114.123 45.478,114.13 C47.925,114.325 50.327,114.304 52.725,114.196 C52.938,113.225 53.161,112.257 53.469,111.318 C57.847,97.843 70.782,89.201 84.931,90.313 C88.369,90.581 91.628,91.44 94.629,92.741 C96.162,90.832 97.566,88.825 98.841,86.72 C94.762,84.757 90.273,83.468 85.493,83.095 C68,81.723 52,92.404 46.578,109.08 C46.047,110.723 45.664,112.409 45.36,114.115" fill="#A3A3A2"></path>
                    <path d="M35.916,112.496 C36.303,110.328 36.811,108.184 37.487,106.101 C44.271,85.221 64.32,71.837 86.239,73.558 C92.192,74.021 97.876,75.605 103.101,78.119 C103.53,77.043 103.962,75.964 104.319,74.848 C104.759,73.52 105.124,72.16 105.457,70.784 C99.652,68.126 93.391,66.428 86.835,65.916 C61.376,63.919 38.087,79.471 30.195,103.735 C29.52,105.833 28.966,107.973 28.541,110.149 C30.912,111.11 33.397,111.859 35.916,112.496" fill="#7E7E7C"></path>
                    <path d="M104.322,74.848 C104.773,73.461 105.157,72.04 105.495,70.606 C95.994,64.848 89.976,54.09 90.895,42.271 C91.085,39.873 91.555,37.507 92.291,35.242 C93.464,31.624 95.277,28.376 97.546,25.556 C96.096,23.372 94.514,21.282 92.769,19.32 C89.354,23.156 86.671,27.724 84.998,32.873 C84.076,35.713 83.496,38.669 83.256,41.672 C82.053,57.116 90.31,71.138 103.111,78.078 C103.541,77.013 103.966,75.949 104.322,74.848" fill="#A3A3A2"></path>
                    <path d="M94.734,92.62 C96.233,90.729 97.618,88.742 98.87,86.659 C82.669,78.031 72.204,60.373 73.726,40.921 C74.022,37.157 74.747,33.442 75.908,29.887 C78.037,23.332 81.471,17.512 85.853,12.663 C83.967,11.145 81.979,9.764 79.915,8.491 C75.142,13.941 71.378,20.391 69.026,27.644 C67.694,31.748 66.848,36.022 66.499,40.353 C64.768,62.46 76.492,82.535 94.734,92.62" fill="#80807F"></path>
                    <path d="M54.045,45.553 C55.809,40.122 56.94,34.453 57.384,28.703 C58.165,18.734 56.891,9.066 53.912,0.131 C50.683,-0.095 47.504,-0.017 44.392,0.286 C47.67,8.854 49.162,18.259 48.399,27.999 C48.004,33.034 47.018,38.012 45.473,42.768 C38.485,64.268 21.024,79.817 0,84.91 C1.548,87.701 3.365,90.319 5.354,92.81 C27.91,86.24 46.43,68.997 54.045,45.553" fill="#575756"></path>
                    <path d="M28.696,4.122 C34.827,14.038 45.398,21.027 57.885,22.01 C68.418,22.837 78.393,19.267 85.86,12.674 C83.925,11.105 81.864,9.69 79.725,8.381 C73.859,12.989 66.346,15.414 58.447,14.791 C48.977,14.046 40.845,9.033 35.78,1.794 C33.351,2.412 30.995,3.198 28.696,4.122" fill="#A3A3A2"></path>
                    <path d="M13.868,12.854 C22.758,27.447 38.238,37.752 56.527,39.184 C71.962,40.392 86.574,35.128 97.467,25.418 C96.033,23.289 94.477,21.25 92.785,19.33 C83.375,27.928 70.612,32.602 57.134,31.545 C41.195,30.295 27.729,21.231 20.125,8.433 C17.943,9.773 15.852,11.245 13.868,12.854" fill="#7E7E7C"></path>
                    <path d="M105.195,42.624 C104.398,39.581 103.412,36.622 102.141,33.789 C89.597,44.574 73.012,50.39 55.506,49.019 C38.504,47.682 23.039,39.807 11.952,26.842 C10.036,24.588 8.355,22.204 6.773,19.756 C4.736,22.101 2.88,24.609 1.245,27.28 C2.52,29.077 3.867,30.824 5.316,32.518 C17.909,47.251 35.492,56.207 54.823,57.727 C73.506,59.191 91.293,53.475 105.195,42.624" fill="#575756"></path>
                </g>
            </g>
        </g>
    </g>
</svg>