<?xml version="1.0" encoding="UTF-8"?>
<svg width="94px" height="101px" viewBox="0 0 94 101" version="1.1" xmlns="http://www.w3.org/2000/svg" xmlns:xlink="http://www.w3.org/1999/xlink">
    <!-- Generator: Sketch 57.1 (83088) - https://sketch.com -->
    <title>hand</title>
    <desc>Created with Sketch.</desc>
    <defs>
        <filter x="-13.8%" y="-12.8%" width="127.6%" height="125.5%" filterUnits="objectBoundingBox" id="filter-1">
            <feOffset dx="0" dy="2" in="SourceAlpha" result="shadowOffsetOuter1"></feOffset>
            <feGaussianBlur stdDeviation="2" in="shadowOffsetOuter1" result="shadowBlurOuter1"></feGaussianBlur>
            <feColorMatrix values="0 0 0 0 0   0 0 0 0 0   0 0 0 0 0  0 0 0 0.5 0" type="matrix" in="shadowBlurOuter1" result="shadowMatrixOuter1"></feColorMatrix>
            <feMerge>
                <feMergeNode in="shadowMatrixOuter1"></feMergeNode>
                <feMergeNode in="SourceGraphic"></feMergeNode>
            </feMerge>
        </filter>
    </defs>
    <g id="Screens" stroke="none" stroke-width="1" fill="none" fill-rule="evenodd">
        <g id="Enthropy_Animation/SE" transform="translate(-119.000000, -238.000000)" fill="#FFEFDF" fill-rule="nonzero">
            <g id="hand" filter="url(#filter-1)" transform="translate(123.000000, 239.500000)">
                <path d="M86.1442123,69.3650035 C84.3410827,64.5109703 83.9357129,60.965565 83.541975,57.5383259 C83.0109814,52.9166443 82.4633154,48.1359412 78.539313,40.7897324 L67.7862552,20.6602024 C66.0542737,17.4206884 61.7479714,16.1690484 58.7454048,18.0427371 C57.741189,18.6702332 56.904084,19.610744 56.3285016,20.7352086 C55.2151403,19.0027328 53.5905595,17.7655493 51.6848758,17.2130594 C49.5508202,16.594363 47.3225467,16.9145012 45.4085269,18.1051724 C43.588725,19.2405318 42.3198847,21.0157486 41.7028154,23.0164031 C39.1155057,20.7065051 35.3634607,20.2415923 32.2914908,22.1617932 C30.5030948,23.2774582 29.1896658,25.0348663 28.5609647,27.1444684 L14.3241698,5.50643365 C10.1355429,-0.663560489 6.01631941,0.591641212 3.93014827,1.89482175 C2.00953704,3.09261646 0.742247687,5.00024649 0.358590714,7.26907961 C0.00614585451,9.35542555 0.421402669,11.643953 1.55298718,13.7571168 L24.4452307,53.9535319 C24.9232995,54.7938948 25.9424429,55.056626 26.7198377,54.5399631 C27.4989774,54.0214146 27.7422768,52.9218822 27.2624632,52.0817288 L4.39328951,11.9265882 C3.6802575,10.5892568 3.4024503,9.16434828 3.61414986,7.90935609 C3.82255372,6.67384876 4.50417975,5.66566472 5.58439029,4.99165639 C6.32882827,4.52674359 8.5919973,3.11084423 11.6424483,7.60011261 L29.3501853,34.516238 C29.8614048,35.2920704 30.8473974,35.4994898 31.5933863,34.9847126 C32.3360795,34.4680497 32.5727875,33.4114678 32.1309713,32.5853519 C31.4675685,31.3446067 31.2923154,29.9000038 31.6346794,28.5144841 C31.9770433,27.1306404 32.7992208,25.9739106 33.9457328,25.2588374 C36.3163025,23.7819693 39.360356,24.6598353 40.7267099,27.2219888 L42.3743605,30.3079287 C42.3776562,30.3114904 42.379401,30.3150522 42.3809519,30.3186139 C42.8375017,31.1748999 43.8500537,31.4646585 44.6408252,30.9729279 C45.4315967,30.4795211 45.7028125,29.3871122 45.2462627,28.5308262 C43.878164,25.9688822 44.6920053,22.6826464 47.0627689,21.2041022 C48.2092809,20.4871434 49.5541159,20.2977422 50.8279967,20.6677449 C52.1100197,21.0396333 53.1787922,21.9262989 53.8404503,23.1672536 L56.3168698,27.8012965 C56.3186145,27.8048583 56.3201654,27.80842 56.3219102,27.8119818 C56.7802049,28.6665916 57.7910121,28.9580264 58.5833345,28.4662957 C59.374106,27.9728889 59.6453218,26.8804801 59.1887719,26.0239846 C58.7702194,25.2427048 58.6659206,24.2540056 58.9041795,23.3134947 C59.1424384,22.3767552 59.6866148,21.5845806 60.3996468,21.1393622 C61.8487807,20.2346784 64.0871351,20.8854306 64.9209444,22.4479901 L75.6740022,42.5775201 C79.263783,49.2945567 79.7468922,53.5137608 80.2581117,57.978097 C80.6386669,61.289265 81.0291091,64.7022571 82.5592781,69.2451612 L50.5550361,89.2154601 C44.9800873,82.7274229 36.4585987,75.9192474 25.1995558,68.9625261 C23.9818956,68.2097403 22.7743164,67.4820962 21.5882561,66.7831557 C18.5476922,64.9918062 16.40026,61.4302683 16.3622626,58.1245476 C16.3457842,56.6227473 16.7823661,54.5470866 18.9594594,53.1900608 C19.7517819,52.6947684 20.0231915,51.6006834 19.5666417,50.7460735 C19.108347,49.8914637 18.0942442,49.5983528 17.3052174,50.0917596 C14.5259823,51.8277972 13.0155874,54.6954229 13.0553295,58.1674981 C13.1049587,62.7784945 15.8991214,67.5020001 20.0051622,69.9244074 C21.1714484,70.6109866 22.3592534,71.3260598 23.5569456,72.0662747 C35.1304361,79.217635 43.6848815,86.1492146 48.9820231,92.6659553 C49.3046129,93.0627759 49.7611627,93.273757 50.2244978,93.273757 C50.5073455,93.273757 50.7934888,93.1951891 51.0517158,93.0342819 L85.4364146,71.5799914 C86.1492527,71.1349825 86.4503236,70.1911194 86.1442123,69.3650035 Z" id="Path"></path>
            </g>
        </g>
    </g>
</svg>