<?xml version="1.0" encoding="UTF-8"?>
<svg version="1.1" viewBox="0 0 360 380" xmlns="http://www.w3.org/2000/svg" xmlns:cc="http://creativecommons.org/ns#" xmlns:dc="http://purl.org/dc/elements/1.1/" xmlns:rdf="http://www.w3.org/1999/02/22-rdf-syntax-ns#">
 <metadata>
  <rdf:RDF>
   <cc:Work rdf:about="">
    <dc:format>image/svg+xml</dc:format>
    <dc:type rdf:resource="http://purl.org/dc/dcmitype/StillImage"/>
    <dc:title>img_onboarding</dc:title>
   </cc:Work>
  </rdf:RDF>
 </metadata>
 <defs>
  <style>.cls-1{fill:#f0f0f0}.cls-2,.cls-35{fill:#7d828c}.cls-3{isolation:isolate}.cls-33,.cls-39,.cls-4,.cls-40,.cls-46,.cls-47,.cls-48,.cls-67{fill:none}.cls-4{stroke:#f0f0f0;stroke-width:3px}.cls-4,.cls-47,.cls-48,.cls-67{stroke-linecap:round}.cls-33,.cls-39,.cls-4,.cls-40,.cls-46,.cls-67{stroke-miterlimit:10}.cls-5{fill:#e1e2e5}.cls-6{fill:#9ba0aa}.cls-7{clip-path:url(#clip-path)}.cls-8{clip-path:url(#clip-path-2)}.cls-9{fill:#c3c6cc}.cls-10{fill:#f9dcb2}.cls-11{fill:#f4d3ab}.cls-12{fill:#0e2c59}.cls-13{fill:#ef8671}.cls-14{fill:#575756}.cls-15{clip-path:url(#clip-path-3)}.cls-16{fill:#b7c1d3}.cls-17{fill:#c6a07d}.cls-18{fill:#b79274}.cls-19{fill:#5a4a42}.cls-20{fill:#af6045}.cls-21{fill:#fffdd2}.cls-22{opacity:.05}.cls-23{clip-path:url(#clip-path-4)}.cls-24{fill:#f4f4f4}.cls-25{fill:#492b16}.cls-26{fill:#6d4326}.cls-27{fill:#492f1d}.cls-28{fill:#7c5235}.cls-29{fill:#d0d2d3}.cls-30{fill:#f1f1f2}.cls-31{fill:#6d6e70}.cls-32{fill:#a1b5d5}.cls-33{stroke:#fff;stroke-width:.3px}.cls-34{fill:#f1f1f1}.cls-35{opacity:.5;mix-blend-mode:multiply}.cls-36{fill:#d8d9dc}.cls-37{fill:#333}.cls-38{fill:#f7f7f7}.cls-39,.cls-40{stroke:#f7f7f7}.cls-40{stroke-width:.5px}.cls-41{fill:#9a9a9a}.cls-42{clip-path:url(#clip-path-5)}.cls-43{fill:#aa5d43}.cls-44{fill:#633c38}.cls-45{fill:#4c142c}.cls-46{stroke:#4c142c}.cls-47,.cls-67{stroke:#7d828c}.cls-47,.cls-48{stroke-linejoin:round}.cls-48{stroke:#c3c6cc;stroke-width:.2px}.cls-49{fill:#4b132b}.cls-50,.cls-57{opacity:.3}.cls-51{fill:#953052}.cls-52{opacity:.2}.cls-53{font-size:10.4778px;font-weight:700}.cls-53,.cls-54,.cls-65{fill:#fff}.cls-53,.cls-54{font-family:Roboto}.cls-54{font-size:6.2867px}.cls-55{fill:#e3e9f1}.cls-56,.cls-57,.cls-58,.cls-59{fill:#fce277}.cls-56{opacity:.66}.cls-58{opacity:.15}.cls-60{fill:#ffea85}.cls-61{fill:#fff0b3}.cls-62{fill:#839bbf}.cls-63{fill:#a2b6d2}.cls-64{fill:#9eabc0}.cls-66{fill:#ffe0b6}.cls-67{stroke-width:.2px}.cls-68{fill:#90a41a}.cls-69{fill:#aeba0f}.cls-70{fill:#b5ca11}.cls-71{fill:#422917}.cls-72{fill:#49301f}</style>
  <clipPath id="clip-path">
   <circle class="cls-1" cx="63.873" cy="270.86" r="20.546"/>
  </clipPath>
  <clipPath id="clip-path-2">
   <path class="cls-2" d="m64.11 284.33a11.735 11.735 0 0 1 11.735 11.735v5.995h-23.47v-5.995a11.735 11.735 0 0 1 11.735-11.735z"/>
  </clipPath>
  <clipPath id="clip-path-3">
   <circle class="cls-1" cx="31.927" cy="270.51" r="20.79"/>
  </clipPath>
  <clipPath id="clip-path-4">
   <circle class="cls-1" cx="129.64" cy="35.623" r="27.79"/>
  </clipPath>
  <clipPath id="clip-path-5">
   <circle class="cls-1" cx="95.819" cy="270.86" r="20.417"/>
  </clipPath>
 </defs>
 <title>img_onboarding</title>
 <g class="cls-3" transform="matrix(1.0587 0 0 1.0587 -4.2912 -8.2932)" style="isolation:isolate">
  <g data-name="Ebene 1">
   <path class="cls-4" d="m257.48 305.9c-84.285-47.833-133.56-139.08-129.52-233.94m-65.402 165.61a126.98 126.98 0 0 1 103.34-142.31q2.537-0.454 5.113-0.81m-51.878 155.52a103.88 103.88 0 0 1 145.52 43.638m4.521-202.42a63.664 63.664 0 0 1-25.69 115.92" fill="none" stroke="#f0f0f0" stroke-linecap="round" stroke-miterlimit="10" stroke-width="3px"/>
   <path class="cls-5" d="m39.904 302.82v8.068a3.817 3.817 0 0 0-1.304-0.243 3.912 3.912 0 1 0 3.869 4.347h0.043v-9.564h3.478v-2.608z" fill="#e1e2e5"/>
   <path class="cls-6" d="m95.576 231.41v-5.056a1.449 1.449 0 0 0-1.445-1.444h-17.333a1.449 1.449 0 0 0-1.445 1.444v14.445a1.449 1.449 0 0 0 1.445 1.444h17.332a1.449 1.449 0 0 0 1.445-1.445v-5.055l5.777 5.778v-15.889z" fill="#9ba0aa"/>
   <path class="cls-4" d="m298.34 266.29a55.812 55.812 0 0 1-52.837 66.018m-130.53 2.608a63.771 63.771 0 0 1-47.74-36.236" fill="none" stroke="#f0f0f0" stroke-linecap="round" stroke-miterlimit="10" stroke-width="3px"/>
   <circle class="cls-1" cx="63.873" cy="270.86" r="20.546" fill="#f0f0f0"/>
   <g class="cls-7" clip-path="url(#clip-path)">
    <path class="cls-2" d="m64.11 284.33a11.735 11.735 0 0 1 11.735 11.735v5.995h-23.47v-5.995a11.735 11.735 0 0 1 11.735-11.735z" fill="#7d828c"/>
    <g class="cls-8" clip-path="url(#clip-path-2)">
     <path class="cls-9" d="m51.836 286.82h25.438v1h-25.438zm0 2.782h25.438v1h-25.438zm0 2.781h25.438v1h-25.438z" fill="#c3c6cc"/>
    </g>
    <path class="cls-10" d="m55.745 269.18a1.678 1.678 0 0 0-1.679 1.679 1.678 1.678 0 0 0 1.678 1.678h1.635v-3.357zm16.65 3.356a1.678 1.678 0 0 0 1.678-1.678 1.678 1.678 0 0 0-1.678-1.678h-1.634v3.356zm-11.462 6.833h6.354v6.764a3.177 3.177 0 0 1-3.177 3.177 3.177 3.177 0 0 1-3.177-3.177z" fill="#f9dcb2"/>
    <path class="cls-11" d="m60.933 279.36v4.072a9.454 9.454 0 0 0 6.354 0v-4.072z" fill="#f4d3ab"/>
    <rect class="cls-10" x="55.886" y="257.78" width="16.448" height="24.978" rx="8.224" ry="8.224" fill="#f9dcb2"/>
    <circle class="cls-12" cx="60.459" cy="269.76" r=".999" fill="#0e2c59"/>
    <circle class="cls-12" cx="67.761" cy="269.76" r=".999" fill="#0e2c59"/>
    <path class="cls-13" d="m65.665 276.49a11.331 11.331 0 0 1-1.575 0.204 10.471 10.471 0 0 1-1.534-0.204 0.564 0.564 0 0 0-0.564 0.564 0.647 0.647 0 0 0 0.564 0.564 6.239 6.239 0 0 0 1.5 0.204 6.785 6.785 0 0 0 1.609-0.204 0.684 0.684 0 0 0 0.563-0.564 0.564 0.564 0 0 0-0.563-0.564z" fill="#ef8671"/>
    <path class="cls-14" d="m61.48 267.05-3.13 0.232a0.359 0.359 0 1 1-0.052-0.716l3.13-0.231a0.359 0.359 0 0 1 0.053 0.715zm5.26 7e-3 3.132 0.219a0.359 0.359 0 1 0 0.05-0.716l-3.131-0.22a0.359 0.359 0 0 0-0.05 0.716zm-4.324-11.623c1.302-0.283 5.958 0.625 6.458 2.5 0.364 1.367-1.07 3.09-1.81 2.991a29.729 29.729 0 0 0-2.899-0.24 28.148 28.148 0 0 0-3.583 0.291s-1.75-2.125-3.417-0.583a7.222 7.222 0 0 1 5.25-4.959z" fill="#575756"/>
   </g>
   <circle class="cls-1" cx="31.927" cy="270.51" r="20.79" fill="#f0f0f0"/>
   <g class="cls-15" clip-path="url(#clip-path-3)">
    <path class="cls-16" d="m31.45 279.31h1.347a10.522 10.522 0 0 1 10.522 10.522v6.393h-22.389v-6.393a10.522 10.522 0 0 1 10.522-10.522z" fill="#b7c1d3"/>
    <path class="cls-17" d="m32.124 284.05s-3.031-1.357-3.031-3.03v-6.454h6.062v6.453c0 1.674-3.031 3.031-3.031 3.031z" fill="#c6a07d"/>
    <path class="cls-18" d="m29.093 276.52v3.885a9.02 9.02 0 0 0 6.062 0v-3.885z" fill="#b79274"/>
    <path class="cls-17" d="m24.142 266.8a1.6 1.6 0 0 0-1.6 1.6 1.6 1.6 0 0 0 1.6 1.602h1.56v-3.202zm15.886 3.202a1.6 1.6 0 0 0 1.6-1.6 1.6 1.6 0 0 0-1.6-1.602h-1.56v3.202z" fill="#c6a07d"/>
    <path class="cls-17" d="m32.124 279.76c-4.234 0-7.846-5.409-7.846-7.847v-8.137a7.846 7.846 0 0 1 7.846-7.846 7.846 7.846 0 0 1 7.846 7.846v8.137c0 2.414-3.613 7.847-7.846 7.847z" fill="#c6a07d"/>
    <ellipse class="cls-19" cx="28.64" cy="267.45" rx=".953" ry=".66" fill="#5a4a42"/>
    <ellipse class="cls-19" cx="35.607" cy="267.45" rx=".953" ry=".66" fill="#5a4a42"/>
    <path class="cls-20" d="m33.358 274.11a3.752 3.752 0 0 0-1.09-0.17c-0.06 4e-3 -0.1 0.19-0.152 0.19-0.075 0-0.106-0.18-0.197-0.188a3.212 3.212 0 0 0-1.045 0.168 0.504 0.504 0 0 0-0.45 0.45 0.517 0.517 0 0 0 0.45 0.45 4.83 4.83 0 0 0 1.242 0.244 4.468 4.468 0 0 0 1.242-0.244 0.546 0.546 0 0 0 0.45-0.45 0.505 0.505 0 0 0-0.45-0.45z" fill="#af6045"/>
    <path class="cls-21" d="m29.253 255.24c-1.656 0.39-1.566 1.382-1.566 1.382 0 3.859 3.4 4.008 5.738 4.592 3.8 0.585 4.384 7.89 4.384 7.89l1.071 7.744s2.364-7.795 2.364-8.948a15.486 15.486 0 0 0-1.73-10.29c-2.923-4.87-10.26-2.37-10.26-2.37zm0.292 9.808-2.975-0.343a0.34223 0.34223 0 1 1 0.078-0.68l2.975 0.343a0.34223 0.34223 0 0 1-0.078 0.68z" fill="#fffdd2"/>
    <path class="cls-21" d="m34.714 265.08 2.967-0.404a0.34217 0.34217 0 1 0-0.093-0.678l-2.967 0.404a0.34217 0.34217 0 0 0 0.093 0.678zm-7.027-8.326a5.331 5.331 0 0 0-2.103 0.631 3.92 3.92 0 0 0-2.37 3.669c-0.113 2.464 1.072 15.765 1.064 15.591 0 0 1.144-15.128 2.053-16.013a21.895 21.895 0 0 0 1.85-2.143z" fill="#fffdd2"/>
    <path class="cls-22" d="m28.664 293.22a2.623 2.623 0 0 1-2.78-1.897 1.633 1.633 0 0 0-0.016 0.22c0 1.17 1.252 2.117 2.796 2.117s2.796-0.948 2.796-2.117a1.621 1.621 0 0 0-0.015-0.22 2.623 2.623 0 0 1-2.781 1.897zm6.916 0a2.623 2.623 0 0 1-2.78-1.897 1.633 1.633 0 0 0-0.016 0.22c0 1.17 1.252 2.117 2.796 2.117s2.796-0.948 2.796-2.117a1.621 1.621 0 0 0-0.016-0.22 2.623 2.623 0 0 1-2.78 1.897z" opacity=".05"/>
    <path class="cls-17" d="m24.545 295.89h-3.617v-5.72a11.166 11.166 0 0 1 3.638-8.26zm15.181 0h3.616v-5.72a11.166 11.166 0 0 0-3.637-8.26z" fill="#c6a07d"/>
   </g>
   <circle class="cls-1" cx="129.64" cy="35.623" r="27.79" fill="#f0f0f0"/>
   <g class="cls-23" clip-path="url(#clip-path-4)">
    <path class="cls-10" d="m118.84 30.928a2.326 2.326 0 0 0-2.327 2.326 2.326 2.326 0 0 0 2.327 2.327h2.265v-4.653zm23.084 4.652a2.326 2.326 0 0 0 2.326-2.326 2.326 2.326 0 0 0-2.326-2.326h-2.266v4.653h2.266z" fill="#f9dcb2"/>
    <path class="cls-24" d="m123.47 51.944h13.944a9.296 9.296 0 0 1 9.296 9.296v15.284h-32.537v-15.284a9.296 9.296 0 0 1 9.297-9.296z" fill="#f4f4f4"/>
    <path class="cls-10" d="m126.04 45.053h8.81v11.265a2.517 2.517 0 0 1-2.518 2.517h-3.775a2.517 2.517 0 0 1-2.517-2.517z" fill="#f9dcb2"/>
    <path class="cls-11" d="m126.04 45.053v5.646a13.106 13.106 0 0 0 8.81 0v-5.646z" fill="#f4d3ab"/>
    <rect class="cls-10" x="119.04" y="15.128" width="22.803" height="34.628" rx="6.515" ry="6.515" fill="#f9dcb2"/>
    <ellipse class="cls-19" cx="125.38" cy="32.022" rx="1.385" ry=".909" fill="#5a4a42"/>
    <ellipse class="cls-19" cx="135.5" cy="32.022" rx="1.385" ry=".909" fill="#5a4a42"/>
    <path class="cls-13" d="m132.6 41.074a15.71 15.71 0 0 1-2.183 0.283 14.517 14.517 0 0 1-2.127-0.283 0.781 0.781 0 0 0-0.782 0.782 0.897 0.897 0 0 0 0.782 0.781 8.65 8.65 0 0 0 2.08 0.283 9.406 9.406 0 0 0 2.23-0.283 0.948 0.948 0 0 0 0.78-0.781 0.781 0.781 0 0 0-0.78-0.782z" fill="#ef8671"/>
    <path class="cls-25" d="m130.44 13.416h-3.639a2.808 2.808 0 0 0-2.807 2.807v0.49c0 5.608 8.307 3.829 11.704 4.678 5.52 0.85 6.144 5.476 6.144 5.476v10.703a6.32 6.32 0 0 0 1.851-4.468v-12.968a6.718 6.718 0 0 0-6.718-6.718h-6.534z" fill="#492b16"/>
    <path class="cls-26" d="m130.44 12.85h-3.639a2.808 2.808 0 0 0-2.807 2.808v0.49c0 5.607 8.307 3.828 11.704 4.677 5.52 0.85 6.144 5.476 6.144 5.476v10.703a6.32 6.32 0 0 0 1.851-4.469v-12.967a6.718 6.718 0 0 0-6.718-6.718h-6.534z" fill="#6d4326"/>
    <path class="cls-27" d="m124.83 21.077a5.79 5.79 0 0 1-5.79 5.79v10.703a6.32 6.32 0 0 1-1.85-4.468v-12.046a7.644 7.644 0 0 1 5.611-7.368 1.618 1.618 0 0 1 2.029 1.573z" fill="#492f1d"/>
    <path class="cls-28" d="m126.8 27.983-4.34 0.321a0.49734 0.49734 0 1 1-0.073-0.992l4.34-0.32a0.497 0.497 0 0 1 0.073 0.991zm7.293 9e-3 4.34 0.304a0.49723 0.49723 0 1 0 0.07-0.992l-4.34-0.304a0.49723 0.49723 0 0 0-0.07 0.992z" fill="#7c5235"/>
    <path class="cls-29" d="m126.55 51.942 3.89 6.893-5.831 1.243z" fill="#d0d2d3"/>
    <path class="cls-30" d="m126.04 50.698 4.405 8.137h-6.347z" fill="#f1f1f2"/>
    <path class="cls-29" d="m134.33 51.942-3.889 6.893 5.831 1.243z" fill="#d0d2d3"/>
    <path class="cls-30" d="m134.84 50.698-4.404 8.137h6.346z" fill="#f1f1f2"/>
    <path class="cls-31" d="m130.44 76.524v-15.079l-2.558 11.811zm0-17.689h-1.705l1.705 2.61 1.705-2.61zm2.557 14.421-2.557-11.811v15.079z" fill="#6d6e70"/>
    <path class="cls-28" d="m124.83 20.794a5.79 5.79 0 0 1-5.79 5.79v10.703a6.32 6.32 0 0 1-1.85-4.469v-12.045a7.644 7.644 0 0 1 5.611-7.368 1.618 1.618 0 0 1 2.029 1.573z" fill="#7c5235"/>
   </g>
   <circle class="cls-32" cx="220.59" cy="84.312" r="40.336" fill="#a1b5d5"/>
   <path class="cls-5" d="m193.79 96.177h53.6v6.059h-53.6zm0-20.08h53.6v1.526h-53.6z" fill="#e1e2e5"/>
   <path class="cls-2" d="m198.92 99.785h42.709v2.475h-42.709z" fill="#7d828c"/>
   <path class="cls-6" d="m202.5 97.31h35.567v2.475h-35.567zm-8.703-23.688h53.6v2.475h-53.6z" fill="#9ba0aa"/>
   <path class="cls-2" d="m217.46 76.082h6.163v21.227h-6.163z" fill="#7d828c"/>
   <path class="cls-33" d="m218.62 77.623v18.421m1.28-18.421v18.421m1.281-18.421v18.421m1.28-18.421v18.421" fill="none" stroke="#fff" stroke-miterlimit="10" stroke-width=".3px"/>
   <path class="cls-2" d="m204.98 76.082h6.163v21.227h-6.163z" fill="#7d828c"/>
   <path class="cls-33" d="m206.14 77.623v18.421m1.28-18.421v18.421m1.281-18.421v18.421m1.28-18.421v18.421" fill="none" stroke="#fff" stroke-miterlimit="10" stroke-width=".3px"/>
   <path class="cls-2" d="m229.95 76.082h6.163v21.227h-6.163z" fill="#7d828c"/>
   <path class="cls-33" d="m231.11 77.623v18.421m1.28-18.421v18.421m1.281-18.421v18.421m1.28-18.421v18.421" fill="none" stroke="#fff" stroke-miterlimit="10" stroke-width=".3px"/>
   <path class="cls-2" d="m193.79 77.616h5.391v18.568h-5.391z" fill="#7d828c"/>
   <path class="cls-33" d="m194.81 78.964v16.113m1.12-16.113v16.113m1.12-16.113v16.113m1.12-16.113v16.113" fill="none" stroke="#fff" stroke-miterlimit="10" stroke-width=".3px"/>
   <path class="cls-2" d="m241.98 77.68h5.391v18.568h-5.391z" fill="#7d828c"/>
   <path class="cls-33" d="m242.99 79.028v16.113m1.12-16.113v16.113m1.12-16.113v16.113m1.12-16.113v16.113" fill="none" stroke="#fff" stroke-miterlimit="10" stroke-width=".3px"/>
   <path class="cls-9" d="m202.51 73.615 17.887-9.251 17.68 9.251z" fill="#c3c6cc"/>
   <path class="cls-34" d="m205.27 73.622 14.911-7.533 15.132 7.533z" fill="#f1f1f1"/>
   <path class="cls-35" d="m217.47 76.09h6.163v0.835h-6.163zm-12.486 0h6.163v0.835h-6.163zm24.961 0h6.163v0.835h-6.163z" fill="#7d828c" opacity=".5" style="mix-blend-mode:multiply"/>
   <circle class="cls-36" cx="220.29" cy="70.262" r="2.36" fill="#d8d9dc"/>
   <path class="cls-6" transform="rotate(-45,246,73.629)" d="m245.01 72.64h1.978v1.978h-1.978z" fill="#9ba0aa"/>
   <path class="cls-6" transform="rotate(-45 195.18 73.664)" d="m194.19 72.675h1.978v1.978h-1.978z" fill="#9ba0aa"/>
   <rect class="cls-37" x="260.17" y="128.44" width="60" height="39.667" rx="4" ry="4" fill="#333"/>
   <rect class="cls-2" x="260.17" y="127.44" width="60" height="39.667" rx="4" ry="4" fill="#7d828c"/>
   <rect class="cls-38" x="263.48" y="130.66" width="22.625" height="22.625" rx="4" ry="4" fill="#f7f7f7"/>
   <circle class="cls-2" cx="274.62" cy="137.81" r="5.603" fill="#7d828c"/>
   <circle class="cls-2" cx="274.62" cy="152.82" r="8.408" fill="#7d828c"/>
   <rect class="cls-39" x="263.48" y="130.66" width="22.375" height="22.375" rx="4" ry="4" fill="none" stroke="#f7f7f7" stroke-miterlimit="10"/>
   <g fill="#f0f0f0">
    <rect class="cls-1" x="288.86" y="140.28" width="28.75" height="2.56" rx="1.28" ry="1.28"/>
    <rect class="cls-1" x="288.86" y="145.42" width="28.75" height="2.56" rx="1.28" ry="1.28"/>
    <rect class="cls-1" x="288.86" y="150.56" width="28.75" height="2.56" rx="1.28" ry="1.28"/>
   </g>
   <path class="cls-40" d="m268.63 161.54a15.517 15.517 0 0 1 3.549 0.182 8.687 8.687 0 0 0 3.533-0.14 3.453 3.453 0 0 0 2.436-2.37 2.193 2.193 0 0 0-1.71-2.646 2.332 2.332 0 0 0-2.055 1.121 5.5 5.5 0 0 0-0.742 2.323 1.873 1.873 0 0 0 0.083 1.104 1.844 1.844 0 0 0 1.018 0.76 13.382 13.382 0 0 0 9.977 9e-3c0.922-0.375 2.354-1.073 2.177-1.896s-2.188-0.622-3.297-0.37c-1.171 0.266-2.506 1.246-2.11 2.38 0.316 0.902 1.492 1.115 2.445 1.046 3.86-0.281 9.748-5.624 8.86-6.533s-2.691 1.057-3.23 2.38-1.475 4.483-0.473 4.222 5.065-3.556 5.753-3.346-0.782 1.86 0.108 1.91 2.8-2.064 3.47-1.913-0.079 1.223 0.438 1.526a2.722 2.722 0 0 0 1.753 0.193c1.64-0.226 3.425-1.698 4.64-1.664s0.994 1.971 1.743 2.77a3.861 3.861 0 0 0 2.888 1.337" fill="none" stroke="#f7f7f7" stroke-miterlimit="10" stroke-width=".5px"/>
   <path class="cls-41" d="m271.72 191.93h-1v-2a5 5 0 0 0-10 0v2h-1a2.006 2.006 0 0 0-2 2v10a2.006 2.006 0 0 0 2 2h12a2.006 2.006 0 0 0 2-2v-10a2.006 2.006 0 0 0-2-2zm-6 9a2 2 0 1 1 2-2 2.006 2.006 0 0 1-2 2zm3.1-9h-6.2v-2a3.1 3.1 0 1 1 6.2 0z" fill="#9a9a9a"/>
   <path class="cls-14" d="m59.672 259.73-2.375 1.833a4.846 4.846 0 0 0-1.167 2.875c-0.062 0.582-0.083 4.917-0.083 4.917l-0.38-0.177s0.044-4.44 0.13-5.24a5.446 5.446 0 0 1 1.208-2.75c0.458-0.541 1.625-1.625 1.625-1.625zm8.431-0.123 2.56 1.956a4.846 4.846 0 0 1 1.167 2.875c0.062 0.582 0.083 4.917 0.083 4.917l0.38-0.177s-0.044-4.44-0.13-5.24a5.446 5.446 0 0 0-1.208-2.75c-0.458-0.541-2.367-2.375-2.367-2.375z" fill="#575756"/>
   <circle class="cls-1" cx="95.819" cy="270.86" r="20.417" fill="#f0f0f0"/>
   <g class="cls-42" clip-path="url(#clip-path-5)">
    <path class="cls-43" d="m103.34 264.2s0.141 0.65 0.747 2.464a13.746 13.746 0 0 1 0.625 6.5s-0.666 8.188-0.541 8.521a2.332 2.332 0 0 0 0.708 1.542s-1.583 0.167-1.833-0.792 0.666 2.334 0.666 2.334-2.402-0.861-2.5-1.875-1-6.292-0.458-8.625 1.125-5.084 0.875-6.917 1.711-3.151 1.711-3.151zm-11 0s0.141 0.65 0.747 2.464a13.746 13.746 0 0 1 0.625 6.5s-0.666 8.188-0.541 8.521a2.332 2.332 0 0 0 0.708 1.542s-1.583 0.167-1.833-0.792 0.666 2.334 0.666 2.334-2.402-0.861-2.5-1.875-1-6.292-0.458-8.625 1.125-5.084 0.875-6.917 1.711-3.151 1.711-3.151z" fill="#aa5d43"/>
    <path class="cls-43" d="m89.122 264.2s-0.141 0.65-0.747 2.464a13.746 13.746 0 0 0-0.625 6.5s0.666 8.188 0.541 8.521a2.332 2.332 0 0 1-0.708 1.542s1.583 0.167 1.833-0.792-0.666 2.334-0.666 2.334 2.402-0.861 2.5-1.875 1-6.292 0.458-8.625-1.125-5.084-0.875-6.917-1.711-3.151-1.711-3.151zm11.219 0s0.141 0.65 0.747 2.464a13.746 13.746 0 0 1 0.625 6.5s-0.666 8.188-0.541 8.521a2.332 2.332 0 0 0 0.708 1.542s-1.583 0.167-1.833-0.792 0.666 2.334 0.666 2.334-2.402-0.861-2.5-1.875-1-6.292-0.458-8.625 1.125-5.084 0.875-6.917 1.711-3.151 1.711-3.151z" fill="#aa5d43"/>
    <path class="cls-10" d="m87.742 269.19a1.667 1.667 0 0 0-1.668 1.667 1.667 1.667 0 0 0 1.668 1.668h1.624v-3.335zm16.546 3.335a1.667 1.667 0 0 0 1.667-1.667 1.667 1.667 0 0 0-1.667-1.668h-1.624v3.335z" fill="#f9dcb2"/>
    <path class="cls-44" d="m96.055 284.25a11.66 11.66 0 0 1 11.66 11.66v5.958h-23.32v-5.957a11.66 11.66 0 0 1 11.66-11.661z" fill="#633c38"/>
    <path class="cls-10" d="m92.898 279.31h6.314v6.721a3.157 3.157 0 0 1-3.157 3.158 3.157 3.157 0 0 1-3.157-3.158z" fill="#f9dcb2"/>
    <path class="cls-11" d="m92.898 279.31v4.047a9.394 9.394 0 0 0 6.314 0v-4.047z" fill="#f4d3ab"/>
    <rect class="cls-10" x="87.882" y="257.86" width="16.345" height="24.821" rx="8.172" ry="8.172" fill="#f9dcb2"/>
    <ellipse class="cls-12" cx="92.427" cy="270.04" rx=".993" ry=".712" fill="#0e2c59"/>
    <ellipse class="cls-12" cx="99.683" cy="270.04" rx=".993" ry=".712" fill="#0e2c59"/>
    <path class="cls-13" d="m97.6 276.46a11.26 11.26 0 0 1-1.565 0.203 10.406 10.406 0 0 1-1.525-0.203 0.56 0.56 0 0 0-0.56 0.56 0.643 0.643 0 0 0 0.56 0.56 6.2 6.2 0 0 0 1.491 0.203 6.742 6.742 0 0 0 1.598-0.203 0.68 0.68 0 0 0 0.56-0.56 0.56 0.56 0 0 0-0.56-0.56z" fill="#ef8671"/>
    <path class="cls-43" d="m93.442 267.08-3.11 0.23a0.356 0.356 0 1 1-0.053-0.71l3.11-0.23a0.356 0.356 0 0 1 0.053 0.71zm5.227 6e-3 3.111 0.218a0.356 0.356 0 1 0 0.05-0.71l-3.111-0.219a0.35638 0.35638 0 0 0-0.05 0.711z" fill="#aa5d43"/>
    <path class="cls-10" d="m88.994 301.87h-4.6v-5.957a11.65 11.65 0 0 1 5.14-9.67zm14.164 0h4.6v-5.957a11.65 11.65 0 0 0-5.14-9.67z" fill="#f9dcb2"/>
    <path class="cls-45" d="m100.99 292.08-2.231 1.056 0.299-2.253z" fill="#4c142c"/>
    <g fill="#aa5d43">
     <ellipse class="cls-43" cx="89.981" cy="262.68" rx="3.684" ry="3.625"/>
     <ellipse class="cls-43" cx="91.748" cy="260.25" rx="2.583" ry="2.542"/>
     <ellipse class="cls-43" transform="rotate(-3.071,88.178,266.14)" cx="88.18" cy="266.14" rx="2.583" ry="3.819"/>
     <path class="cls-43" d="m104.23 266.6c-0.312 0.498-1.252-0.672-1.8-0.415-1.643 0.773-4.16 0.46-6.43-0.963-3.028-1.897-4.47-5.05-3.223-7.041s4.715-2.068 7.742-0.17 4.96 6.598 3.711 8.589z"/>
    </g>
   </g>
   <path class="cls-43" d="m89.216 262.58a8.651 8.651 0 0 1 0.497 3.443l-0.36 5.583s0.57 8.125 0.694 8.458a2.332 2.332 0 0 0 0.708 1.542s-1.583 0.167-1.833-0.792 0.666 2.334 0.666 2.334-3.431-1.861-3.466-2.88c-0.075-2.204 0.626-5.228 0.508-7.62-0.125-2.542-0.25-4.5-0.5-6.334s3.086-3.734 3.086-3.734zm14.875 0s0.141 0.65 0.747 2.463a13.746 13.746 0 0 1 0.625 6.5s-0.666 8.188-0.541 8.521a2.332 2.332 0 0 0 0.708 1.542s-1.583 0.167-1.833-0.792 0.666 2.334 0.666 2.334-2.402-0.861-2.5-1.875-1-6.292-0.458-8.625 1.125-5.084 0.875-6.917 1.711-3.151 1.711-3.151z" fill="#aa5d43"/>
   <g fill="none">
    <circle class="cls-46" cx="276.13" cy="257.98" r="15.896" stroke="#4c142c" stroke-miterlimit="10"/>
    <circle class="cls-46" cx="320.63" cy="257.98" r="15.896" stroke="#4c142c" stroke-miterlimit="10"/>
    <g stroke="#7d828c" stroke-linecap="round" stroke-linejoin="round">
     <path class="cls-47" d="m274.94 258.76 9.122-23.891 0.229-0.6 1.39-3.64 5.664-1.593"/>
     <path class="cls-47" d="m305.75 240.15 16.206 17.816-21.116-0.111-17.167-21.947"/>
     <path class="cls-47" d="m300.84 257.85 5.343-20.952-4.429-0.068"/>
    </g>
    <path class="cls-48" d="m276.03 258.76 9.122-23.891 0.23-0.6 1.179-2.83 5.095-1.593m8.552 25.811-15.451-19.752m27.482 10.041 10.567 11.616m-20.882 0.29 3.86-15.602" stroke="#c3c6cc" stroke-linecap="round" stroke-linejoin="round" stroke-width=".2px"/>
   </g>
   <path class="cls-9" d="m278.16 232.94c2.47 0 4.472 1.288 4.472 2.877s-2.002 2.877-4.472 2.877z" fill="#c3c6cc"/>
   <path class="cls-2" d="m277.5 232.94h0.658v5.746h-0.658z" fill="#7d828c"/>
   <path class="cls-49" d="m272.78 289.99h13.883v43.745h-13.883z" fill="#4b132b"/>
   <path class="cls-50" d="m272.78 324.66h13.883v5.474h-13.883z" opacity=".3"/>
   <circle class="cls-49" cx="279.72" cy="311.99" r="16.415" fill="#4b132b"/>
   <circle class="cls-51" cx="279.72" cy="311.99" r="12.665" fill="#953052"/>
   <path class="cls-52" d="m290.16 324.66a16.417 16.417 0 0 1-20.865 0.016 22.607 22.607 0 0 0 20.864-0.016z" opacity=".2"/>
   <path class="cls-22" d="m288.25 321.35a12.666 12.666 0 0 1-17.084-0.023 14.099 14.099 0 0 0 8.512 2.535 14.486 14.486 0 0 0 8.572-2.512z" opacity=".05"/>
   <text class="cls-53" transform="translate(273.61 312.34)" fill="#ffffff" font-family="Roboto" font-size="10.478px" font-weight="700">72</text>
   <text class="cls-54" transform="translate(273.61 318.21)" fill="#ffffff" font-family="Roboto" font-size="6.2867px">bpm</text>
   <path class="cls-9" d="m71.12 321.94h26.576v18.521h-26.576z" fill="#c3c6cc"/>
   <path class="cls-55" d="m71.12 321.41h26.32v18.521h-26.32z" fill="#e3e9f1"/>
   <g fill="#fce277">
    <path class="cls-56" d="m71.12 332.6h26.32v1.554h-26.32z" opacity=".66"/>
    <path class="cls-56" d="m71.12 331.75h26.32v1.554h-26.32z" opacity=".66"/>
    <path class="cls-57" d="m71.12 330.84h26.32v2.248h-26.32z" opacity=".3"/>
    <path class="cls-58" d="m71.12 329.53h26.32v2.248h-26.32z" opacity=".15"/>
    <circle class="cls-59" cx="82.375" cy="332.06" r="2.927"/>
   </g>
   <circle class="cls-60" cx="82.375" cy="332.06" r="2.399" fill="#ffea85"/>
   <circle class="cls-61" cx="82.375" cy="332.06" r="1.889" fill="#fff0b3"/>
   <path class="cls-62" d="m71.12 333.41s3.747-0.174 5.88-0.083c1.15 0.05 4.315-0.141 5.412-0.141s4.58 0.08 5.189 0.08 2.61 0.06 3.99 0.06 2.56-0.11 3.412-0.151 2.437 0.091 2.437 0.091v4.753h-26.32v-4.61z" fill="#839bbf"/>
   <path class="cls-63" d="m97.44 334.43s-4.956-0.096-6.093-0.279a45.824 45.824 0 0 0-5.036 0.248c-1.096 0-4.55-0.183-5.159-0.183s-2.598 0.122-3.98 0.122-2.518-0.111-3.371-0.152a23.082 23.082 0 0 0-2.681 0.183v5.834h26.32z" fill="#a2b6d2"/>
   <path class="cls-64" d="m90.698 336.18s-4.872-0.37-5.395-0.388c-0.552-0.018-6.903 0.62-7.396 0.62s-1.871-0.224-2.145-0.224-1.4 0.133-2.02 0.133a9.344 9.344 0 0 1-1.5-0.293 3.122 3.122 0 0 0-1.122 0.308v2.637l16.897-1.013z" fill="#9eabc0"/>
   <path class="cls-16" d="m97.44 336.19s-3.415-0.115-4.23-0.132c-0.86-0.019-10.751 0.62-11.52 0.62s-2.913-0.224-3.34-0.224-2.18 0.132-3.148 0.132a21.895 21.895 0 0 1-2.335-0.293 7.024 7.024 0 0 0-1.747 0.308v2.637l26.32-1.012z" fill="#b7c1d3"/>
   <g fill="#fff">
    <ellipse class="cls-65" cx="88.927" cy="323.84" rx="3.245" ry=".166"/>
    <ellipse class="cls-65" cx="91.909" cy="323.71" rx="2.445" ry=".442"/>
    <path class="cls-65" d="m94.949 323.8c0.28 0.089 0.174 0.21-0.235 0.27a3.361 3.361 0 0 1-1.247-0.05c-0.28-0.09-0.174-0.21 0.235-0.272a3.361 3.361 0 0 1 1.247 0.052z"/>
    <ellipse class="cls-65" cx="78.589" cy="323.93" rx="1.081" ry=".276"/>
    <ellipse class="cls-65" cx="80.366" cy="323.88" rx="1.577" ry=".402"/>
   </g>
   <path class="cls-66" d="m97.44 338.23s-15.022-0.1-15.79-0.1-5.408-0.15-6.375-0.15-4.156 0.043-4.156 0.043v2.177h26.32v-1.97z" fill="#ffe0b6"/>
   <path class="cls-67" d="m75.263 325.48s0.246-0.442 0.469-0.219c0.058-0.293 0.562-0.156 0.562-0.156m-2.006 1.197s0.154-0.276 0.294-0.136c0.036-0.184 0.352-0.098 0.352-0.098" fill="none" stroke="#7d828c" stroke-linecap="round" stroke-miterlimit="10" stroke-width=".2px"/>
   <path class="cls-9" d="m86.079 311.66h26.482v18.521h-26.482z" fill="#c3c6cc"/>
   <path class="cls-63" d="m86.079 311.33h26.32v18.521h-26.32z" fill="#a2b6d2"/>
   <path class="cls-68" d="m86.079 321.16 7.798-5.848 5.524 7.473 3.412-4.224 4.061 4.386 2.6-3.736 2.925 2.599v8.043h-26.32z" fill="#90a41a"/>
   <path class="cls-9" d="m86.079 320.89 7.798-5.849 5.524 7.474 3.412-4.224 4.061 4.386 2.6-3.737 2.925 2.6v2.888h-26.32z" fill="#c3c6cc"/>
   <path class="cls-65" d="m101.53 319.88 1.282-1.587 1.822 1.967-0.887-0.521-0.823 0.312-0.609-0.464zm-5.268-1.61-2.385-3.227-3.444 2.583 1.647-0.293 0.853 0.639 1.035-0.487 1.097 0.792 0.213-0.487zm11.935 2.507 1.276-1.835 1.614 1.435-0.73-0.181-0.613 0.366-0.483-0.518z" fill="#fff"/>
   <path class="cls-69" d="m86.08 325.28s4.955-1.26 6.092-1.443 4.102 1.219 5.199 1.219 4.387-1.422 4.996-1.422 2.721 1.26 4.102 1.26 2.234-1.34 3.087-1.382a9.581 9.581 0 0 1 2.843 0.914v5.463h-26.319v-4.61z" fill="#aeba0f"/>
   <path class="cls-70" d="m112.4 328.04s-3.472-1.164-4.269-1.333-10.793 1.126-11.561 1.126-2.874-0.73-3.3-0.73-2.107 0.58-3.075 0.58-1.81-0.702-2.408-0.74a7.024 7.024 0 0 0-1.747 0.308v2.637h26.36v-1.849z" fill="#b5ca11"/>
   <g fill="#fff">
    <circle class="cls-65" cx="87.867" cy="314.09" r=".975"/>
    <circle class="cls-65" cx="88.858" cy="314.55" r=".81"/>
    <circle class="cls-65" cx="89.472" cy="314.02" r=".823"/>
    <circle class="cls-65" cx="89.983" cy="314.52" r=".823"/>
    <circle class="cls-65" cx="106.03" cy="315.04" r="1.063"/>
    <circle class="cls-65" cx="107.78" cy="314.87" r="1.55"/>
    <circle class="cls-65" transform="rotate(-34.313 109.13 315.67)" cx="109.13" cy="315.67" r=".897"/>
    <circle class="cls-65" cx="101.71" cy="314.9" r=".704"/>
    <circle class="cls-65" cx="102.87" cy="314.78" r="1.026"/>
    <circle class="cls-65" transform="rotate(-34.313 103.77 315.31)" cx="103.77" cy="315.31" r=".594"/>
   </g>
   <path class="cls-41" d="m47.47 62.442-10-6.24v-0.76a1.993 1.993 0 0 1 2-2h16a2 2 0 0 1 2 2v0.75l-10 6.25m10 5a2 2 0 0 1-2 2h-16a2 2 0 0 1-2-2v-8.89l2 1.25v7.64h16v-7.64l2-1.25z" fill="#9a9a9a"/>
   <path class="cls-4" d="m122.5 190.08a69.993 69.993 0 0 1-29.714-135.84" fill="none" stroke="#f0f0f0" stroke-linecap="round" stroke-miterlimit="10" stroke-width="3px"/>
   <path class="cls-68" transform="rotate(-45,33.093,137.66)" d="m29.334 133.83h7.519v7.654h-7.519z" fill="#90a41a"/>
   <rect class="cls-70" x="19.165" y="103.85" width="44.044" height="34.256" rx="4" ry="4" fill="#b5ca11"/>
   <path class="cls-68" d="m62.355 137.23a2.928 2.928 0 0 1-2.083 0.872h-38.17a2.927 2.927 0 0 1-2.074-0.863" fill="#90a41a"/>
   <g fill="#fff">
    <rect class="cls-65" x="23.692" y="109.47" width="15.966" height="3.303" rx="1.652" ry="1.652"/>
    <rect class="cls-65" x="23.692" y="114.05" width="33.4" height="3.303" rx="1.652" ry="1.652"/>
    <rect class="cls-65" x="23.692" y="118.63" width="21.655" height="3.303" rx="1.652" ry="1.652"/>
    <rect class="cls-65" x="23.692" y="123.21" width="33.4" height="3.303" rx="1.652" ry="1.652"/>
    <rect class="cls-65" x="23.692" y="127.78" width="26.059" height="3.303" rx="1.652" ry="1.652"/>
   </g>
   <path class="cls-62" transform="rotate(225 82.774 176.79)" d="m79.014 172.96h7.519v7.654h-7.519z" fill="#839bbf"/>
   <rect class="cls-63" transform="rotate(180 74.68 160.1)" x="52.658" y="142.97" width="44.044" height="34.256" rx="4" ry="4" fill="#a2b6d2"/>
   <path class="cls-62" d="m53.512 176.36a2.928 2.928 0 0 0 2.083 0.871h38.17a2.927 2.927 0 0 0 2.075-0.863" fill="#839bbf"/>
   <g fill="#fff">
    <rect class="cls-65" transform="rotate(180 84.192 150.25)" x="76.21" y="148.6" width="15.966" height="3.303" rx="1.652" ry="1.652"/>
    <rect class="cls-65" transform="rotate(180 75.476 154.83)" x="58.776" y="153.18" width="33.4" height="3.303" rx="1.652" ry="1.652"/>
    <rect class="cls-65" x="70.521" y="157.75" width="21.655" height="3.303" rx="1.652" ry="1.652"/>
    <rect class="cls-65" x="58.776" y="162.33" width="33.4" height="3.303" rx="1.652" ry="1.652"/>
    <rect class="cls-65" x="66.116" y="166.91" width="26.059" height="3.303" rx="1.652" ry="1.652"/>
   </g>
   <path class="cls-62" transform="rotate(225 99.236 110.15)" d="m95.477 106.32h7.519v7.654h-7.519z" fill="#839bbf"/>
   <rect class="cls-63" transform="rotate(180 91.143 93.466)" x="69.121" y="76.337" width="44.044" height="34.256" rx="4" ry="4" fill="#a2b6d2"/>
   <path class="cls-62" d="m69.975 109.72a2.928 2.928 0 0 0 2.082 0.872h38.171a2.927 2.927 0 0 0 2.074-0.863" fill="#839bbf"/>
   <g fill="#fff">
    <rect class="cls-65" transform="rotate(180 100.66 83.617)" x="92.672" y="81.965" width="15.966" height="3.303" rx="1.652" ry="1.652"/>
    <rect class="cls-65" transform="rotate(180 91.938 88.194)" x="75.238" y="86.543" width="33.4" height="3.303" rx="1.652" ry="1.652"/>
    <rect class="cls-65" x="86.983" y="91.12" width="21.655" height="3.303" rx="1.652" ry="1.652"/>
    <rect class="cls-65" x="75.238" y="95.697" width="33.4" height="3.303" rx="1.652" ry="1.652"/>
    <rect class="cls-65" x="82.579" y="100.28" width="26.059" height="3.303" rx="1.652" ry="1.652"/>
   </g>
   <path class="cls-1" d="m179.64 279.92a57.467 57.467 0 0 1 57.467 57.467v29.361h-114.93v-29.36a57.467 57.467 0 0 1 57.467-57.468z" fill="#f0f0f0"/>
   <path class="cls-17" d="m179.64 304.26s-15.559-6.965-15.559-15.558v-33.126h31.118v33.126c0 8.593-15.559 15.558-15.559 15.558z" fill="#c6a07d"/>
   <path class="cls-18" d="m164.08 265.58v19.943a46.298 46.298 0 0 0 31.118 0v-19.943z" fill="#b79274"/>
   <path class="cls-17" d="m138.67 215.68a8.218 8.218 0 0 0-8.218 8.218 8.218 8.218 0 0 0 8.218 8.218h8.003v-16.436zm81.542 16.437a8.218 8.218 0 0 0 8.218-8.219 8.218 8.218 0 0 0-8.218-8.218h-8.003v16.436h8.003z" fill="#c6a07d"/>
   <path class="cls-17" d="m179.64 282.19c-21.73 0-40.275-27.763-40.275-40.275v-41.772a40.275 40.275 0 0 1 40.275-40.275 40.275 40.275 0 0 1 40.275 40.275v41.772c0 12.39-18.544 40.275-40.275 40.275z" fill="#c6a07d"/>
   <ellipse class="cls-19" cx="161.76" cy="219.02" rx="4.894" ry="3.388" fill="#5a4a42"/>
   <ellipse class="cls-19" cx="197.52" cy="219.02" rx="4.894" ry="3.388" fill="#5a4a42"/>
   <path class="cls-20" d="m185.97 253.23a19.26 19.26 0 0 0-5.593-0.875c-0.31 0.02-0.519 0.98-0.783 0.98-0.385 0-0.543-0.926-1.01-0.968a16.489 16.489 0 0 0-5.365 0.863c-1.322 0.415-2.313 1.035-2.313 2.312s1.13 1.975 2.313 2.312a24.796 24.796 0 0 0 6.375 1.254 22.937 22.937 0 0 0 6.376-1.254c1.064-0.359 2.312-1.035 2.312-2.312s-1-1.902-2.312-2.311z" fill="#af6045"/>
   <path class="cls-71" d="m164.9 156.38c-8.5 2-8.039 7.094-8.039 7.094 0 19.808 17.455 20.572 29.455 23.572 19.5 3 22.5 40.5 22.5 40.5l5.5 39.75s12.132-40.011 12.132-45.931c0 0 6.118-27.819-8.882-52.819s-52.667-12.166-52.667-12.166z" fill="#422917"/>
   <path class="cls-28" d="m166.4 206.72-15.27-1.761a1.757 1.757 0 1 1 0.403-3.49l15.269 1.76a1.757 1.757 0 0 1-0.403 3.49zm26.532 0.151 15.23-2.073a1.757 1.757 0 1 0-0.474-3.481l-15.23 2.073a1.757 1.757 0 0 0 0.474 3.481z" fill="#7c5235"/>
   <path class="cls-72" d="m156.86 164.14a27.367 27.367 0 0 0-10.795 3.24c-4.667 2.833-11.588 6.186-12.167 18.833s5.501 34.726 5.46 33.833c0 0 5.874-31.458 10.54-36a112.39 112.39 0 0 0 9.5-11z" fill="#49301f"/>
   <path class="cls-22" d="m161.88 351.3c-7.422 0-13.528-4.268-14.273-9.74a8.382 8.382 0 0 0-0.077 1.128c0 6.002 6.424 10.868 14.35 10.868s14.352-4.866 14.352-10.868a8.32 8.32 0 0 0-0.078-1.128c-0.745 5.472-6.85 9.74-14.274 9.74zm35.5 0c-7.422 0-13.528-4.268-14.273-9.74a8.382 8.382 0 0 0-0.077 1.128c0 6.002 6.424 10.868 14.35 10.868s14.352-4.866 14.352-10.868a8.32 8.32 0 0 0-0.078-1.128c-0.745 5.472-6.85 9.74-14.274 9.74z" opacity=".05"/>
   <path class="cls-17" d="m140.73 366.75h-18.565v-29.361a57.316 57.316 0 0 1 18.671-42.396zm77.923 0h18.565v-29.361a57.316 57.316 0 0 0-18.671-42.396z" fill="#c6a07d"/>
  </g>
 </g>
</svg>
