<?xml version="1.0" encoding="UTF-8"?>
<svg width="35px" height="38px" viewBox="0 0 35 38" version="1.1" xmlns="http://www.w3.org/2000/svg" xmlns:xlink="http://www.w3.org/1999/xlink">
    <!-- Generator: Sketch 57.1 (83088) - https://sketch.com -->
    <title>splash</title>
    <desc>Created with Sketch.</desc>
    <g id="Screens" stroke="none" stroke-width="1" fill="none" fill-rule="evenodd">
        <g id="Enthropy_Animation/SE" transform="translate(-110.000000, -225.000000)" fill="#FFEFDF" fill-rule="nonzero">
            <g id="splash" transform="translate(110.000000, 225.500000)">
                <path d="M10.4965756,13.8711207 C10.8191654,14.2216385 11.2427584,14.394907 11.6661575,14.394907 C12.0897504,14.394907 12.5131496,14.221429 12.8357393,13.8711207 C13.4826637,13.1738562 13.4826637,12.0403825 12.8357393,11.343118 L8.1556671,6.28690326 C7.50874273,5.58775319 6.46168295,5.58775319 5.81650336,6.28690326 C5.16977286,6.9841677 5.16977286,8.11764145 5.81650336,8.81490589 L10.4965756,13.8711207 Z" id="Path"></path>
                <path d="M28.0422423,14.3965832 C28.4658352,14.3965832 28.8892343,14.221429 29.2118241,13.8727968 L33.8901516,8.81490589 C34.5368821,8.11575582 34.5368821,6.9841677 33.8901516,6.28690326 C33.244972,5.58775319 32.1977184,5.58775319 31.5509879,6.28690326 L26.8726604,11.3447941 C26.225736,12.0420586 26.225736,13.1755323 26.8726604,13.8727968 C27.1950563,14.221429 27.6186493,14.3965832 28.0422423,14.3965832 Z" id="Path"></path>
                <path d="M19.8534244,10.7298689 C20.7665241,10.7298689 21.5076664,9.92889478 21.5076664,8.94208123 L21.5076664,1.79051139 C21.5076664,0.803697835 20.7665241,0.00272368922 19.8534244,0.00272368922 C18.9403247,0.00272368922 18.1991824,0.803697835 18.1991824,1.79051139 L18.1991824,8.94187171 C18.1989885,9.92889478 18.9401308,10.7298689 19.8534244,10.7298689 Z" id="Path"></path>
                <path d="M9.9275846,21.4570142 C9.9275846,20.4702006 9.1864423,19.6692265 8.27334258,19.6692265 L1.65424202,19.6692265 C0.741142298,19.6692265 0,20.4702006 0,21.4570142 C0,22.4438277 0.741142298,23.2448019 1.65424202,23.2448019 L8.27314872,23.2448019 C9.1864423,23.2448019 9.9275846,22.4438277 9.9275846,21.4570142 Z" id="Path"></path>
                <path d="M10.4948308,29.0429077 L5.81495245,34.100589 C5.16802808,34.7997391 5.16802808,35.9313272 5.81495245,36.6285917 C6.13754224,36.9789 6.56113521,37.1523781 6.98453432,37.1523781 C7.40812729,37.1523781 7.83152639,36.9789 8.15411619,36.6285917 L12.8341884,31.5707008 C13.479368,30.8734363 13.479368,29.7416387 12.8341884,29.0426982 C12.1872641,28.3437576 11.1402043,28.3437576 10.4948308,29.0429077 Z" id="Path"></path>
            </g>
        </g>
    </g>
</svg>